<svg xmlns="http://www.w3.org/2000/svg" viewBox="0 0 812 148" width="812" height="148">
  <path fill="#ee7f00" d="M269.3236,1a74.2841,74.2841,0,0,0-31.8067,7.2734c-14.3617,6.8026-27.39,18.1459-38.0254,33.1993a144.103,144.103,0,0,0-17.4531,33.7695c-8.7309,23.9145-8.6333,43.3125.293,56.0957,5.0612,7.2256,15.5825,15.8584,36.9746,15.8828h.082c38.9679,0,68.0564-25.542,86.4785-75.918,4.8659-13.3283,11.2862-38.2036-.4473-54.99C298.3319,6.1657,286.2077,1.0163,269.3235,1ZM504.4505,1a74.25,74.25,0,0,0-31.7988,7.2734c-14.37,6.8026-27.3884,18.1459-38.0234,33.1993a143.8018,143.8018,0,0,0-17.4551,33.7695c-8.7391,23.9145-8.6336,43.3125.3008,56.0957,5.053,7.2256,15.5662,15.8584,36.9746,15.8828h.0664c38.9761,0,68.0727-25.542,86.4785-75.918,4.8822-13.3283,11.2859-38.2036-.44-54.99C533.4586,6.1657,521.3347,1.0163,504.4505,1ZM144.1771,3.0254c-12.8239,0-25.2814-.001-36.4453,5.6621-11.1558,5.6633-21.01,16.9984-28.5938,39.668a44.8882,44.8882,0,0,0-2.6269,12.7187,19.0251,19.0251,0,0,0,1.9043,9.4629,27.5035,27.5035,0,0,0,7.9336,9.0078,38.9679,38.9679,0,0,0,12.0742,6.1035c.1709.0488,2.5153.7156,5.3633,1.5293,2.8316.8137,6.1428,1.7892,8.2422,2.4239a16.6988,16.6988,0,0,1,3.7988,1.6035,7.62,7.62,0,0,1,3.0195,3.0508,6.7451,6.7451,0,0,1,.7246,2.93,9.55,9.55,0,0,1-.5625,3.4024,9.2482,9.2482,0,0,1-5.6308,6.2734c-2.9944,1.2124-7.4124,1.6016-14.1172,1.65H15.5638L2.3333,144.8594H91.9212c8.43,0,23.8411.001,38.65-6.2969,14.8093-6.29,29.0181-18.8617,35.0313-44.0293,2.262-9.4552,1.5617-17.1609-2.1406-23.2148-3.7186-6.0458-10.44-10.4389-20.2286-13.2461,0,0-2.1881-.6365-4.7675-1.377-2.5632-.74-5.5334-1.586-7.0469-2.0254a9.46,9.46,0,0,1-5.5742-4.0117,7.8915,7.8915,0,0,1-.83-6.3633,9.3149,9.3149,0,0,1,4.6465-5.582,18.8124,18.8124,0,0,1,9.0644-2.0176h52.0762c.3661-.5289.7-1.1059,1.0664-1.6348A114.9821,114.9821,0,0,1,225.5072,3.0254Zm234.0684,0c-23.1742,0-40.4253,11.7245-48.57,33.67L290.308,144.8594h43.1269l20.2285-55.6,38.1133.0254,10.8457-29.7813-37.99-.0254,6.1191-17.2422a9.0977,9.0977,0,0,1,8.7793-5.5488c2.4818,0,30.4638.008,44.94.0156.3743-.537.708-1.1137,1.0742-1.6426,9.5121-13.4585,22.9795-24.3457,35.5918-32.0351Zm200.0722.0781L526.6712,144.9472h43.8672L589.31,95.02c.92,2.0587,11.9941,49.9277,11.9941,49.9277h46.1211s-8.3888-35.1756-14.5566-49.3828a77.8219,77.8219,0,0,0-5.4532-11.1719C640.4426,79.5511,659.32,69.16,667.14,48.1015c4.8007-12.9459,4.5253-23.4108-.8125-31.084-6.4689-9.3168-19.6346-13.89-40.2618-13.914Zm89.9766.002a35.45,35.45,0,0,1,7.16,7.5664c5.1018,7.3558,7.0542,16.0967,5.8906,26.1133h26.1211L668.099,144.9825h39.334L746.8236,36.7852h50.5391l12.2617-33.68ZM607.22,32.3887h7.2422c13.2388.009,18.1768,3.8814,13.6933,15.9648-4.2068,11.343-11.7739,18.35-26.16,18.35h-.0566l-7.4453-.008L607.22,32.3885Zm-348.2461.7031h.008c13.4748.0163,16.56,7.8284,4.7285,40.1973h-.002c-12.1566,33.2721-20.9763,41.6445-34.2559,41.6445h-.0254c-12.9377-.008-17.4769-8.195-5.3691-41.3125,9.04-24.72,20.75-40.5293,34.916-40.5293Zm235.1269,0h.0156c13.4667.0163,16.5581,7.8284,4.7188,40.1973-12.1485,33.2721-20.9767,41.6445-34.2481,41.6445h-.0311c-12.946-.008-17.463-8.195-5.3633-41.3125,9.032-24.72,20.75-40.5293,34.9082-40.5293Z"/>
</svg>
