<svg xmlns="http://www.w3.org/2000/svg" viewBox="0 0 603 182" width="603" height="182">
    <path fill="#f90" d="M374.006 142.184c-35 25.797-85.729 39.561-129.406 39.561-61.242 0-116.376-22.651-158.088-60.325-3.277-2.962-.34-7 3.592-4.693 45.014 26.191 100.673 41.947 158.166 41.947a314.514 314.514 0 0 0 120.65-24.67c5.925-2.516 10.88 3.88 5.086 8.18"/>
    <path fill="#f90" d="M388.557 125.536c-4.457-5.715-29.573-2.7-40.846-1.363-3.434.42-3.959-2.57-.865-4.719 20.003-14.078 52.827-10.015 56.654-5.296 3.828 4.745-.996 37.648-19.793 53.351-2.884 2.413-5.637 1.128-4.352-2.07 4.22-10.54 13.685-34.161 9.202-39.903"/>
    <path fill="#221f1f" d="M348.497 20.066V6.381a3.376 3.376 0 0 1 3.461-3.461h61.269a3.411 3.411 0 0 1 3.54 3.46V18.1c-.027 1.966-1.679 4.535-4.615 8.6l-31.749 45.328c11.798-.288 24.25 1.468 34.947 7.498a6.235 6.235 0 0 1 3.251 5.322v14.603c0 1.992-2.202 4.325-4.51 3.12-18.85-9.884-43.886-10.96-64.728.105-2.124 1.153-4.352-1.154-4.352-3.147V85.662c0-2.229.026-6.03 2.254-9.412L384.047 23.5h-32.01a3.39 3.39 0 0 1-3.54-3.434M124.999 105.454h-18.64a3.52 3.52 0 0 1-3.33-3.172V6.617a3.5 3.5 0 0 1 3.592-3.435h17.381a3.51 3.51 0 0 1 3.382 3.199v12.505h.341c4.536-12.086 13.056-17.722 24.54-17.722 11.666 0 18.954 5.636 24.198 17.722 4.509-12.086 14.76-17.722 25.745-17.722 7.812 0 16.359 3.224 21.576 10.46 5.899 8.049 4.693 19.741 4.693 29.992l-.026 60.378a3.52 3.52 0 0 1-3.592 3.46h-18.614a3.543 3.543 0 0 1-3.356-3.46V51.29c0-4.037.367-14.105-.524-17.932-1.39-6.423-5.558-8.232-10.959-8.232a12.382 12.382 0 0 0-11.142 7.838c-1.914 4.824-1.73 12.9-1.73 18.326v50.703a3.52 3.52 0 0 1-3.592 3.461h-18.614a3.524 3.524 0 0 1-3.356-3.46l-.026-50.704c0-10.67 1.756-26.374-11.483-26.374-13.397 0-12.873 15.31-12.873 26.374v50.703a3.52 3.52 0 0 1-3.591 3.461M469.514 1.164c27.66 0 42.629 23.752 42.629 53.954 0 29.18-16.543 52.329-42.629 52.329-27.16 0-41.946-23.753-41.946-53.352 0-29.782 14.97-52.931 41.946-52.931m.158 19.531c-13.738 0-14.603 18.719-14.603 30.386 0 11.692-.184 36.65 14.445 36.65 14.446 0 15.128-20.134 15.128-32.403 0-8.075-.341-17.723-2.78-25.378-2.097-6.66-6.265-9.255-12.19-9.255M548.008 105.454h-18.562a3.543 3.543 0 0 1-3.356-3.46l-.026-95.692a3.526 3.526 0 0 1 3.592-3.12h17.277a3.567 3.567 0 0 1 3.33 2.674v14.63h.34c5.217-13.083 12.532-19.322 25.404-19.322 8.363 0 16.517 3.015 21.76 11.273 4.877 7.655 4.877 20.528 4.877 29.782v60.22a3.58 3.58 0 0 1-3.592 3.015h-18.693a3.53 3.53 0 0 1-3.303-3.015V50.478c0-10.46 1.206-25.772-11.667-25.772-4.535 0-8.704 3.041-10.775 7.656-2.621 5.846-2.962 11.666-2.962 18.115v51.517a3.584 3.584 0 0 1-3.644 3.46M299.655 59.758v-4.037c-13.475 0-27.71 2.884-27.71 18.771 0 8.049 4.168 13.502 11.325 13.502 5.243 0 9.936-3.225 12.899-8.468 3.67-6.45 3.486-12.506 3.486-19.768m18.798 45.434a3.892 3.892 0 0 1-4.404.446c-6.188-5.139-7.289-7.525-10.697-12.427-10.225 10.434-17.46 13.554-30.726 13.554-15.678 0-27.895-9.674-27.895-29.048 0-15.127 8.206-25.43 19.873-30.464 10.12-4.457 24.25-5.244 35.051-6.476v-2.412c0-4.43.341-9.674-2.254-13.501-2.281-3.435-6.633-4.85-10.46-4.85-7.105 0-13.45 3.644-14.997 11.194-.314 1.678-1.547 3.33-3.224 3.409l-18.09-1.94a3.301 3.301 0 0 1-2.779-3.907C252.019 6.853 271.813.246 289.536.246c9.07 0 20.92 2.412 28.078 9.28 9.071 8.469 8.206 19.768 8.206 32.064v29.048c0 8.73 3.618 12.558 7.026 17.277 1.206 1.678 1.468 3.697-.052 4.955-3.802 3.172-10.566 9.071-14.289 12.374l-.052-.052M55.288 59.758v-4.037c-13.475 0-27.71 2.884-27.71 18.771 0 8.049 4.167 13.502 11.325 13.502 5.243 0 9.936-3.225 12.898-8.468 3.67-6.45 3.487-12.506 3.487-19.768m18.798 45.434a3.892 3.892 0 0 1-4.405.446c-6.187-5.139-7.288-7.525-10.696-12.427-10.225 10.434-17.46 13.554-30.726 13.554-15.678 0-27.895-9.674-27.895-29.048 0-15.127 8.206-25.43 19.872-30.464 10.12-4.457 24.25-5.243 35.052-6.476v-2.412c0-4.43.341-9.674-2.254-13.501-2.281-3.435-6.633-4.85-10.46-4.85-7.106 0-13.45 3.644-14.997 11.194-.315 1.678-1.547 3.33-3.225 3.409l-18.09-1.94a3.301 3.301 0 0 1-2.778-3.907C7.652 6.853 27.446.246 45.169.246c9.07 0 20.92 2.412 28.078 9.28 9.07 8.469 8.206 19.768 8.206 32.064v29.048c0 8.73 3.618 12.558 7.026 17.277 1.206 1.678 1.468 3.697-.053 4.955-3.801 3.172-10.565 9.071-14.288 12.374l-.052-.052"/>
</svg>