<svg xmlns="http://www.w3.org/2000/svg" viewBox="0 0 257.2546 68.552">
  <path d="M261.59,5.3527h-9.246a1.6721,1.6721,0,0,0-1.646,1.41l-8.213,52.248a1.6665,1.6665,0,0,0,1.6449,1.926h8.257a2.7725,2.7725,0,0,0,2.746-2.3481L263.2337,7.28A1.6677,1.6677,0,0,0,261.59,5.3527Z" transform="translate(-5.9999 -5.3527)" style="fill: #179bd7"/>
  <path d="M239.3987,23.8627h-9.573a1.6579,1.6579,0,0,0-1.644,1.408l-.426,2.681-.672-.972c-2.074-3.012-6.697-4.018-11.314-4.018-10.588,0-19.629,8.021-21.392,19.271-.911,5.611.383,10.978,3.568,14.721,2.926,3.4389,7.098,4.873,12.069,4.873a18.3309,18.3309,0,0,0,13.26-5.484l-.426,2.66a1.6679,1.6679,0,0,0,1.648,1.932h8.628a2.7844,2.7844,0,0,0,2.746-2.352l5.181-32.794A1.6683,1.6683,0,0,0,239.3987,23.8627Zm-13.353,18.652a10.6745,10.6745,0,0,1-10.813,9.147,8.0954,8.0954,0,0,1-6.435-2.583,8.1692,8.1692,0,0,1-1.503-6.73,10.7292,10.7292,0,0,1,10.737-9.225,8.0778,8.0778,0,0,1,6.389,2.611A8.2374,8.2374,0,0,1,226.0457,42.5147Z" transform="translate(-5.9999 -5.3527)" style="fill: #179bd7"/>
  <path d="M194.1707,10.4637c-2.84-3.341-7.88-5.109-14.577-5.109h-20.012a2.7835,2.7835,0,0,0-2.746,2.348l-8.092,51.308a1.6648,1.6648,0,0,0,1.644,1.926h10.27a1.9474,1.9474,0,0,0,1.92-1.646l2.297-14.543a2.7779,2.7779,0,0,1,2.743-2.349h6.332c13.183,0,20.789-6.377,22.776-19.02C197.6257,17.8517,196.76,13.5057,194.1707,10.4637Zm-12.27,13.631c-1.092,7.18-6.576,7.18-11.885,7.18h-3.019l2.1229-13.409a1.6586,1.6586,0,0,1,1.6441-1.407h1.385c3.609,0,7.021,0,8.783,2.06C181.9807,19.7477,182.3027,21.5727,181.9007,24.0947Z" transform="translate(-5.9999 -5.3527)" style="fill: #179bd7"/>
  <path d="M147.7127,23.8627h-9.629a2.7977,2.7977,0,0,0-2.303,1.22l-13.28,19.563-5.629-18.797a2.7887,2.7887,0,0,0-2.668-1.984h-9.461a1.6681,1.6681,0,0,0-1.582,2.207l10.605,31.124-9.972,14.074a1.6682,1.6682,0,0,0,1.36,2.635h9.617a2.7793,2.7793,0,0,0,2.285-1.194l32.026-46.226A1.6684,1.6684,0,0,0,147.7127,23.8627Z" transform="translate(-5.9999 -5.3527)" style="fill: #253b80"/>
  <path d="M96.6847,23.8627h-9.584a1.6676,1.6676,0,0,0-1.646,1.408l-.427,2.681-.67-.972c-2.073-3.012-6.699-4.018-11.314-4.018-10.589,0-19.632,8.021-21.395,19.271-.914,5.611.387,10.978,3.57,14.721,2.92,3.4389,7.099,4.873,12.069,4.873a18.3392,18.3392,0,0,0,13.263-5.484l-.427,2.66a1.6664,1.6664,0,0,0,1.645,1.932H90.4a2.7857,2.7857,0,0,0,2.748-2.352l5.178-32.794A1.6636,1.6636,0,0,0,96.6847,23.8627Zm-13.359,18.652a10.6768,10.6768,0,0,1-10.811,9.147,8.0855,8.0855,0,0,1-6.435-2.583,8.141,8.141,0,0,1-1.503-6.73,10.7248,10.7248,0,0,1,10.737-9.225,8.0821,8.0821,0,0,1,6.391,2.611A8.2891,8.2891,0,0,1,83.3257,42.5147Z" transform="translate(-5.9999 -5.3527)" style="fill: #253b80"/>
  <path d="M51.4567,10.4637c-2.844-3.341-7.889-5.109-14.586-5.109h-20.01a2.7814,2.7814,0,0,0-2.747,2.348l-8.093,51.308a1.667,1.667,0,0,0,1.65,1.926h9.553a2.78,2.78,0,0,0,2.747-2.3481l2.184-13.841a2.7761,2.7761,0,0,1,2.745-2.349h6.334c13.18,0,20.788-6.377,22.773-19.02C54.9017,17.8517,54.0447,13.5057,51.4567,10.4637Zm-12.278,13.631c-1.094,7.18-6.58,7.18-11.884,7.18h-3.019l2.117-13.409a1.667,1.667,0,0,1,1.647-1.407h1.384c3.613,0,7.021,0,8.783,2.06C39.2577,19.7477,39.5787,21.5727,39.1787,24.0947Z" transform="translate(-5.9999 -5.3527)" style="fill: #253b80"/>
</svg>
