<svg xmlns="http://www.w3.org/2000/svg" viewBox="0 0 820 156">
  <path d="M272.34471,5.23123a74.28368,74.28368,0,0,0-31.80665,7.27344c-14.36174,6.80252-27.39036,18.14584-38.0254,33.19922a144.10827,144.10827,0,0,0-17.45311,33.76953c-8.731,23.91455-8.63328,43.31253.293,56.0957,5.06119,7.22562,15.58252,15.8584,36.9746,15.88281h.082c38.96794,0,68.05641-25.542,86.4785-75.918,4.8659-13.32834,11.28625-38.20368-.44727-54.99024-7.08729-10.14679-19.21148-15.29623-36.0957-15.3125Zm235.12695,0a74.24943,74.24943,0,0,0-31.79882,7.27344c-14.36991,6.80252-27.3884,18.14584-38.02344,33.19922a143.80583,143.80583,0,0,0-17.45508,33.76953c-8.7391,23.91455-8.63361,43.31253.30078,56.0957,5.053,7.22562,15.56626,15.8584,36.97461,15.88281h.06641c38.9761,0,68.07269-25.542,86.47851-75.918,4.88217-13.32834,11.28592-38.20368-.43945-54.99024C536.47975,10.39694,524.35588,5.2475,507.47166,5.23123ZM147.19823,7.25662c-12.82386,0-25.28139-.001-36.44531,5.66211-11.15579,5.66333-21.01009,16.99838-28.59375,39.668a44.887,44.887,0,0,0-2.627,12.71875,19.02544,19.02544,0,0,0,1.90429,9.46289,27.505,27.505,0,0,0,7.9336,9.00781,38.97066,38.97066,0,0,0,12.07422,6.10352c.17087.0488,2.51533.71558,5.36328,1.5293,2.83166.81369,6.14285,1.78915,8.24218,2.42382a16.69753,16.69753,0,0,1,3.79883,1.60352,7.62058,7.62058,0,0,1,3.01953,3.05078,6.74579,6.74579,0,0,1,.72461,2.92969,9.54981,9.54981,0,0,1-.5625,3.40234,9.24828,9.24828,0,0,1-5.63086,6.27344c-2.99441,1.2124-7.41232,1.60156-14.11718,1.65039H18.585L5.35448,149.09061H94.94237c8.4299,0,23.8411.001,38.65039-6.29688,14.80928-6.28988,29.018-18.86166,35.03125-44.0293,2.26208-9.45516,1.5617-17.16091-2.14062-23.21484-3.7186-6.04578-10.43974-10.43884-20.22852-13.24609,0,0-2.18816-.63651-4.76758-1.377-2.56315-.74044-5.5334-1.586-7.04687-2.02539a9.46037,9.46037,0,0,1-5.57422-4.01172,7.8916,7.8916,0,0,1-.83008-6.36328,9.31561,9.31561,0,0,1,4.64649-5.582,18.81335,18.81335,0,0,1,9.06445-2.01758h52.07617c.36615-.5289.70025-1.10586,1.0664-1.63476A114.98228,114.98228,0,0,1,228.52831,7.25662Zm234.06836,0c-23.17411,0-40.42521,11.72452-48.57032,33.66992L293.32909,149.09061H336.456L356.68456,93.491l38.11328.02539,10.8457-29.78125-37.99023-.02539,6.11914-17.24219a9.09764,9.09764,0,0,1,8.77929-5.54883c2.48178,0,30.46378.008,44.93946.0156.37429-.537.70806-1.11368,1.07421-1.64258,9.51212-13.45856,22.9795-24.34571,35.5918-32.03516H381.26659Zm200.07226.0781L529.69237,149.17847h43.86719L592.331,99.25073c.91949,2.05866,11.99411,49.92774,11.99411,49.92774h46.12109s-8.38879-35.17566-14.55664-49.38282a77.82114,77.82114,0,0,0-5.45312-11.17187c13.02728-4.84149,31.905-15.23254,39.72461-36.291,4.80078-12.94592,4.52533-23.41082-.8125-31.084C662.87971,11.932,649.71407,7.35913,629.08687,7.33472h-47.748Zm89.97659.002a35.4486,35.4486,0,0,1,7.16016,7.56641c5.10187,7.35583,7.0542,16.09668,5.89063,26.11328h26.12109L671.12013,149.21368h39.334L749.84474,41.01642H800.3838L812.64552,7.33673Zm-61.07421,29.2832h7.24218c13.23883.009,18.17682,3.88144,13.69336,15.96485-4.20685,11.34292-11.774,18.34961-26.16015,18.34961H604.96l-7.44532-.008,12.72657-34.30664Zm-348.2461.70313h.008c13.47481.0163,16.55966,7.8284,4.72851,40.19726h-.002c-12.15664,33.27207-20.97631,41.64454-34.25585,41.64454h-.02541c-12.93778-.008-17.47694-8.195-5.36914-41.3125,9.04018-24.72013,20.74954-40.5293,34.916-40.5293Zm235.127,0h.01559c13.46667.0163,16.558,7.8284,4.71875,40.19726-12.1485,33.27207-20.97665,41.64454-34.248,41.64454h-.03119c-12.94592-.008-17.46295-8.195-5.36328-41.3125,9.03205-24.72013,20.74988-40.5293,34.90821-40.5293Z" style="fill: #ee7f00; fill-opacity: 1; fill-rule: nonzero; stroke: none;"/>
</svg>
