<svg xmlns="http://www.w3.org/2000/svg" xmlns:xlink="http://www.w3.org/1999/xlink" viewBox="0 0 254 60">
  <defs>
    <linearGradient id="linear-gradient" x1="46.7533" y1="59.0169" x2="12.863" y2="0.3173" gradientUnits="userSpaceOnUse">
      <stop offset="0" stop-color="#0d56b8"/>
      <stop offset="1" stop-color="#1265d4"/>
    </linearGradient>
  </defs>
  <path d="M43.0989,60H16.9015A16.9512,16.9512,0,0,1,0,43.0985V16.9011A16.9512,16.9512,0,0,1,16.9015,0H43.0989A16.9513,16.9513,0,0,1,60.0005,16.9011V43.0985A16.9512,16.9512,0,0,1,43.0989,60Z" style="fill: url(#linear-gradient)"/>
  <path d="M16.2677,44.1548s.5818-7.0084,9.1642-7.0084c5.4134.0365,6.8923,1.5154,12.0851,1.532a12.2306,12.2306,0,0,0,6.2157-1.7068s-.66,7.0135-8.9921,7.0135c-5.1629,0-7.6981-1.52-12.0424-1.5337A11.5122,11.5122,0,0,0,16.2677,44.1548Z" style="fill: #fff"/>
  <path d="M16.2677,33.5913s.5818-7.0083,9.1642-7.0083c5.4134.0365,6.8923,1.5153,12.0851,1.5319a12.2311,12.2311,0,0,0,6.2157-1.7067s-.66,7.0134-8.9921,7.0134c-5.1629,0-7.6981-1.52-12.0424-1.5336A11.5127,11.5127,0,0,0,16.2677,33.5913Z" style="fill: #fff"/>
  <path d="M16.2677,23.0279S16.85,16.02,25.4319,16.02c5.4134.0365,6.8923,1.5154,12.0851,1.5319a12.23,12.23,0,0,0,6.2157-1.7067s-.66,7.0134-8.9921,7.0134c-5.1629,0-7.6981-1.52-12.0424-1.5336A11.5122,11.5122,0,0,0,16.2677,23.0279Z" style="fill: #fff"/>
  <g id="Textlake">
    <path d="M252.1543,19.1779q-.0315,1.2508-.1095,2.5171t-.2344,2.5482h-.8131l-1.2819-3.44h-6.8165V29.09h5.0967l1.22-2.3139h.7817a53.1884,53.1884,0,0,1,0,6.316h-.7817l-1.22-2.3763h-5.0967v8.7237h7.1916l1.5321-3.7521h.7818q.2184,1.3134.3127,2.6578a23.6649,23.6649,0,0,1,.0312,2.72h-15.415v-.9068a10.3633,10.3633,0,0,1,2.5639-.75V20.8662a12.6688,12.6688,0,0,1-1.2819-.3283q-.6567-.203-1.282-.4532v-.9068Z" style="fill: #2d4360"/>
    <path d="M225.3171,19.1779h6.91v.9068a11.2358,11.2358,0,0,1-1.22.4689q-.5941.1875-1.1568.3126l-6.2849,8.3173q.7812,1.0317,1.7979,2.3138t2.1263,2.6421q1.1094,1.36,2.2825,2.7517t2.2981,2.6421l1.501.75v.7817h-3.9085l-1.0631-.75q-1.8454-2.1576-3.6741-4.6588t-3.5489-5.0655h-1.5321v8.8176a7.592,7.592,0,0,1,2.3452.75v.9068H214.28v-.9068a13.9319,13.9319,0,0,1,2.564-.75V20.8662a7.83,7.83,0,0,1-2.564-.7815v-.9068H222.19v.9068q-.5007.219-1.0945.4221t-1.2507.3594v8.6612l1.876-.4376,5.8473-8.2236q-.6261-.156-1.1882-.344a8.0533,8.0533,0,0,1-1.0632-.4375Z" style="fill: #2d4360"/>
    <path d="M196.1038,41.0653h-6.9416v-.9068a11.9346,11.9346,0,0,1,2.2514-.75l7.9106-20.6056h.9068l7.9108,20.6056q.6252.1253,1.235.2814a4.4091,4.4091,0,0,1,1.1414.4689v.9068h-8.0671v-.9068a13.3339,13.3339,0,0,1,1.2819-.4378q.6567-.1875,1.2821-.3125L202.9,33.6861h-7.433l-2.0525,5.7221a11.34,11.34,0,0,1,2.6892.75Zm-.0147-9.0051h6.2824l-2.457-6.6288-.5907-2.689h-.0621l-.7778,2.7515Z" style="fill: #2d4360"/>
    <path d="M169.823,19.1779H178.39v.9068q-.75.2813-1.5008.4846a10.8791,10.8791,0,0,1-1.5009.2969V39.4393H182.58l1.8449-5.0341h.8129q.0938.6567.172,1.5166t.1251,1.7822q.0467.9225.0468,1.7978t-.0312,1.5635H169.823v-.9068a8.043,8.043,0,0,1,1.3758-.5q.625-.156,1.1882-.25V20.8662a10.9263,10.9263,0,0,1-1.3758-.3283,9.09,9.09,0,0,1-1.1882-.4532Z" style="fill: #2d4360"/>
    <path d="M161.1059,41.0653H152.32v-.9068q.6873-.25,1.3914-.4378a14.4134,14.4134,0,0,1,1.5166-.3125V20.8037h-4.7841l-1.6571,4.4713h-.7818q-.0937-.6252-.1563-1.4226t-.1094-1.626q-.047-.8282-.0782-1.626t-.0313-1.4225h18.1666q0,.6258-.0317,1.4069t-.0791,1.61q-.0476.8291-.0949,1.626t-.1421,1.4539h-.8222l-1.6439-4.4713h-4.7528V39.4082q.8127.1566,1.5165.3125a7.7047,7.7047,0,0,1,1.36.4378Z" style="fill: #2d4360"/>
    <path d="M136.1856,19.1779h7.1916v.9068q-.5319.219-1.1256.4221t-1.2194.3594L135.5289,29.34l6.41,10.0683a9.8625,9.8625,0,0,1,2.5639.75v.9068h-8.3173v-.9068a7.8958,7.8958,0,0,1,2.3764-.75l-4.94-7.8484-4.7527,7.88q.6567.0938,1.2821.2346a4.33,4.33,0,0,1,1.2193.4846v.9068h-7.2228v-.9068A5.7478,5.7478,0,0,1,125.32,39.69q.5781-.1563,1.1412-.2814l6.1286-9.3491-5.8784-9.1929q-.6257-.1875-1.2352-.3751t-1.235-.4064v-.9068h8.2859v.9068q-.4689.1875-1.0475.375t-1.3286.4065l4.3774,7.0666,4.2524-7.0666a18.3055,18.3055,0,0,1-2.5953-.7815Z" style="fill: #2d4360"/>
    <path d="M119.1985,19.1779q-.0316,1.2508-.11,2.5171t-.2344,2.5482h-.8129l-1.282-3.44h-6.8163V29.09H115.04l1.22-2.3139h.7815a53.2308,53.2308,0,0,1,0,6.316h-.7815l-1.22-2.3763h-5.0964v8.7237h7.1914l1.5321-3.7521h.7819q.2186,1.3134.3128,2.6578a23.7106,23.7106,0,0,1,.031,2.72h-15.415v-.9068a10.365,10.365,0,0,1,2.5638-.75V20.8662a12.6569,12.6569,0,0,1-1.2816-.3283q-.6569-.203-1.2822-.4532v-.9068Z" style="fill: #2d4360"/>
    <path d="M95.66,41.0653H86.874v-.9068q.6873-.25,1.3914-.4378a14.4041,14.4041,0,0,1,1.5164-.3125V20.8037h-4.784L83.3407,25.275h-.7818q-.0937-.6252-.1563-1.4226t-.1094-1.626q-.0469-.8282-.0782-1.626t-.0313-1.4225H100.35q0,.6258-.0316,1.4069t-.0793,1.61q-.0476.8291-.0947,1.626t-.1422,1.4539H99.18l-1.644-4.4713H92.7835V39.4082q.8127.1566,1.5166.3125a7.711,7.711,0,0,1,1.36.4378Z" style="fill: #2d4360"/>
  </g>
</svg>
