<svg id="Layer_1" data-name="Layer 1" xmlns="http://www.w3.org/2000/svg" viewBox="0 0 222 138">
  <title>LogoSmall</title>
  <path d="M27.0779,128H16.9211v-1.0771q.7956-.297,1.609-.52a16.2359,16.2359,0,0,1,1.7531-.3718v-22.1H14.7523l-1.9149,5.3113h-.904q-.1089-.7421-.18-1.69-.0736-.9475-.1265-1.9314-.0545-.984-.09-1.9315T11.5,102h21q0,.7435-.0373,1.6715t-.0911,1.9129q-.056.9846-.11,1.9315t-.1637,1.7269h-.9511l-1.9-5.3113H23.7531v22.1c.6256.1245,1.2109.2479,1.7521.3718a8.7289,8.7289,0,0,1,1.5727.52Z" style="fill: #fff"/>
  <path d="M55.2777,102q-.0356,1.4863-.1276,2.99-.09,1.5038-.2729,3.0267H53.929l-1.4942-4.0856H44.4887v9.8428H50.43l1.4219-2.7486h.9117a64.5737,64.5737,0,0,1,0,7.5028h-.9117L50.43,115.7058H44.4887v10.3627h8.3832l1.7868-4.4569h.9107q.2552,1.56.3649,3.1572A28.5834,28.5834,0,0,1,55.9709,128H38v-1.0771a11.9051,11.9051,0,0,1,2.9892-.8917V104.006a14.6075,14.6075,0,0,1-1.4951-.39q-.7653-.2418-1.4941-.5385V102Z" style="fill: #fff"/>
  <path d="M75.1942,102h8.4787v1.0776q-.627.26-1.3271.5012t-1.4381.4272l-6.4886,10.0655,7.5586,11.96A11.5505,11.5505,0,0,1,85,126.9229V128H75.1942v-1.0771a9.2553,9.2553,0,0,1,2.8012-.8917l-5.8245-9.3224-5.6044,9.36q.774.1119,1.5121.2786a5.0814,5.0814,0,0,1,1.4371.5758V128H61v-1.0771a6.73,6.73,0,0,1,1.3821-.5572q.6827-.1851,1.3461-.3345l7.2256-11.1053-6.93-10.92q-.7382-.2229-1.4562-.4458-.72-.2229-1.4571-.4826V102h9.77v1.0776q-.552.2221-1.2351.4453t-1.5661.4831L73.24,112.4l5.0134-8.394a21.5246,21.5246,0,0,1-3.0592-.9284Z" style="fill: #fff"/>
  <path d="M104.0779,128H93.9211v-1.0771q.7956-.297,1.609-.52a16.2359,16.2359,0,0,1,1.7531-.3718v-22.1H91.7523l-1.9149,5.3113h-.904q-.1089-.7421-.18-1.69-.0737-.9475-.1265-1.9314-.0545-.984-.09-1.9315T88.5,102h21q0,.7435-.0373,1.6715t-.0911,1.9129q-.0559.9846-.11,1.9315t-.1637,1.7269h-.9511l-1.9-5.3113h-5.4937v22.1c.6256.1245,1.2109.2479,1.7521.3718a8.7289,8.7289,0,0,1,1.5727.52Z" style="fill: #fff"/>
  <path d="M115,102h9.7857v1.0776q-.8574.334-1.7138.5753a11.98,11.98,0,0,1-1.7147.3531v22.0625h8.2143l2.1071-5.98h.9281q.1076.78.1966,1.8015t.1424,2.1169q.0539,1.0964.0543,2.136T132.9642,128H115v-1.0771a8.99,8.99,0,0,1,1.5714-.5944q.7149-.1853,1.3572-.2973V104.006a12.1325,12.1325,0,0,1-1.5713-.39A10.2683,10.2683,0,0,1,115,103.0776Z" style="fill: #fff"/>
  <path d="M145.6261,128H137.5v-1.0589a14.0066,14.0066,0,0,1,2.6352-.8767L149.3963,102h1.0614l9.2611,24.0644q.7313.1464,1.4457.3289a5.158,5.158,0,0,1,1.3355.5478V128h-9.4438v-1.0589a15.6312,15.6312,0,0,1,1.5014-.5112q.7684-.2192,1.5-.3655l-2.4754-6.6825h-8.7011l-2.4028,6.6825a13.3036,13.3036,0,0,1,3.1475.8767Zm-.0168-10.5171h7.3546l-2.8765-7.7414-.6921-3.1407h-.0725l-.9105,3.2135Z" style="fill: #fff"/>
  <path d="M179.5868,102h7.88v1.0776a12.5011,12.5011,0,0,1-1.39.5567q-.679.2229-1.3193.3717l-7.1673,9.88q.8909,1.2258,2.05,2.7487,1.1579,1.5234,2.4239,3.1385t2.6029,3.2685q1.3377,1.6534,2.6212,3.1385l1.7111.8917V128h-4.4571l-1.2119-.8912q-2.1037-2.5632-4.19-5.5345t-4.047-6.0171h-1.7468v10.474a8.4126,8.4126,0,0,1,2.6744.8917V128H167v-1.0771a15.41,15.41,0,0,1,2.924-.8917V104.006a8.672,8.672,0,0,1-2.924-.9284V102h9.0215v1.0776q-.5717.26-1.2477.5012-.6777.242-1.4267.4272v10.2882l2.1395-.52,6.6682-9.7683q-.7139-.1859-1.3551-.4085a9.0136,9.0136,0,0,1-1.2129-.52Z" style="fill: #fff"/>
  <path d="M212.2787,102q-.037,1.4863-.1276,2.99t-.2739,3.0267H210.93l-1.4951-4.0856h-7.9461v9.8428h5.9418l1.4219-2.7486h.9107a64.1334,64.1334,0,0,1,0,7.5028h-.9107l-1.4219-2.8227h-5.9418v10.3627h8.3842l1.7858-4.4569h.9117q.2536,1.56.3639,3.1572A28.5834,28.5834,0,0,1,212.9709,128H195v-1.0771a11.9177,11.9177,0,0,1,2.9892-.8917V104.006a14.5909,14.5909,0,0,1-1.4941-.39q-.7653-.2418-1.4951-.5385V102Z" style="fill: #fff"/>
  <rect x="76" y="10" width="70" height="70" rx="20" ry="20" style="fill: #fff"/>
  <path d="M95,61.1866s.6778-8.1694,10.6774-8.1694c6.3072.0425,8.03,1.7664,14.0805,1.7857A14.2452,14.2452,0,0,0,127,52.8134s-.7693,8.1753-10.4769,8.1753c-6.0154,0-8.9693-1.7723-14.0308-1.7877A13.4086,13.4086,0,0,0,95,61.1866Z" style="fill: #1162ce"/>
  <path d="M95,49.1866s.6778-8.1694,10.6774-8.1694c6.3072.0425,8.03,1.7664,14.0805,1.7857A14.2452,14.2452,0,0,0,127,40.8134s-.7693,8.1753-10.4769,8.1753c-6.0154,0-8.9693-1.7723-14.0308-1.7877A13.4086,13.4086,0,0,0,95,49.1866Z" style="fill: #1162ce"/>
  <path d="M95,37.1866s.6778-8.1694,10.6774-8.1694c6.3072.0425,8.03,1.7664,14.0805,1.7857A14.2452,14.2452,0,0,0,127,28.8134s-.7693,8.1753-10.4769,8.1753c-6.0154,0-8.9693-1.7723-14.0308-1.7877A13.4086,13.4086,0,0,0,95,37.1866Z" style="fill: #1162ce"/>
</svg>
