<svg xmlns="http://www.w3.org/2000/svg" width="18" height="18" viewBox="0 0 18 18">
    <path style="fill: #59606b;" d="M14.14,14.8a3.79,3.79,0,0,1-1.82,1.06,3.9,3.9,0,0,1-2.09,0A4,4,0,0,1,8.4,14.8L3.07,9.44A.25.25,0,0,1,3,9.22.34.34,0,0,1,3.07,9l.46-.46a.29.29,0,0,1,.22-.08A.39.39,0,0,1,4,8.51l5.33,5.36a2.7,2.7,0,0,0,1.95.82A2.77,2.77,0,0,0,14,11.94a2.72,2.72,0,0,0-.79-2L7.09,3.83a1.86,1.86,0,0,0-1.3-.52A1.83,1.83,0,0,0,4,5.13,1.7,1.7,0,0,0,4.49,6.4l5.19,5.2a.86.86,0,0,0,.62.24.88.88,0,0,0,.64-.26.83.83,0,0,0,.27-.62.8.8,0,0,0-.27-.62L6.57,5.94a.25.25,0,0,1-.11-.22.34.34,0,0,1,.11-.25L7,5a.34.34,0,0,1,.44,0l4.4,4.4A2.13,2.13,0,0,1,12.53,11a2.07,2.07,0,0,1-.66,1.54,2.22,2.22,0,0,1-3.12,0L3.59,7.33a3,3,0,0,1-.82-1.41,2.94,2.94,0,0,1,0-1.61,2.87,2.87,0,0,1,.82-1.39A3.15,3.15,0,0,1,5,2.11a3,3,0,0,1,1.62,0A3.07,3.07,0,0,1,8,2.9l6.15,6.18a3.78,3.78,0,0,1,1.07,1.81,4.11,4.11,0,0,1,0,2.09A3.81,3.81,0,0,1,14.14,14.8Z"/>
</svg>
