<svg xmlns="http://www.w3.org/2000/svg" width="18" height="18" viewBox="0 0 18 18">
    <path fill="#59606b" d="M8,10.89a4.16,4.16,0,0,1,.21-1.47,2.33,2.33,0,0,1,.68-.93,4.3,4.3,0,0,0,.71-.72,1.2,1.2,0,0,0,.24-.72c0-.64-.27-1-.82-1a.8.8,0,0,0-.62.28,1.19,1.19,0,0,0-.24.76H6a2.58,2.58,0,0,1,.8-2,3.21,3.21,0,0,1,2.21-.71,3.29,3.29,0,0,1,2.19.66A2.28,2.28,0,0,1,12,7a2.18,2.18,0,0,1-.21,1,3.31,3.31,0,0,1-.67.88l-.73.68a1.67,1.67,0,0,0-.43.61,2.45,2.45,0,0,0-.14.8Zm-.26,1.93A1,1,0,0,1,8.11,12,1.34,1.34,0,0,1,9.8,12a1,1,0,0,1,.34.78,1,1,0,0,1-.34.77,1.34,1.34,0,0,1-1.69,0A1,1,0,0,1,7.77,12.82ZM9,18a9,9,0,1,1,9-9A9,9,0,0,1,9,18ZM9,2a7,7,0,1,0,7,7A7,7,0,0,0,9,2Z"/>
</svg>
