<svg xmlns="http://www.w3.org/2000/svg" width="127" height="36" viewBox="0 0 127 36">
  <path d="M.8333,30s.5025-6.0564,7.9158-6.0564c4.6759.0315,5.9533,1.31,10.4386,1.3238a10.5607,10.5607,0,0,0,5.369-1.4749s-.57,6.0608-7.7671,6.0608c-4.46,0-6.6494-1.3139-10.4018-1.3253A9.9409,9.9409,0,0,0,.8333,30Z" style="fill: #fff"/>
  <path d="M.8333,21.1037s.5025-6.0564,7.9158-6.0564c4.6759.0315,5.9533,1.31,10.4386,1.3239a10.5619,10.5619,0,0,0,5.369-1.4749s-.57,6.0608-7.7671,6.0608c-4.46,0-6.6494-1.3139-10.4018-1.3254A9.9409,9.9409,0,0,0,.8333,21.1037Z" style="fill: #fff"/>
  <path d="M.8333,12.2075S1.3358,6.151,8.7491,6.151c4.6759.0316,5.9533,1.31,10.4386,1.3239A10.5607,10.5607,0,0,0,24.5567,6s-.57,6.0608-7.7671,6.0608c-4.46,0-6.6494-1.3139-10.4018-1.3253A9.9409,9.9409,0,0,0,.8333,12.2075Z" style="fill: #fff"/>
  <path d="M47.6331,25.626H40.89V24.93q.5273-.192,1.0679-.3364a11.0525,11.0525,0,0,1,1.164-.24v-14.28H39.45l-1.2719,3.4317h-.6q-.0726-.48-.12-1.0918t-.084-1.2481q-.036-.6357-.06-1.248t-.0239-1.0918H51.2332q0,.48-.0244,1.08t-.06,1.2363q-.0366.6357-.0728,1.248t-.1094,1.1158h-.6308l-1.2617-3.4317H45.4251v14.28q.624.12,1.1641.24a5.9076,5.9076,0,0,1,1.0439.3364Z" style="fill: #fff"/>
  <path d="M61.3734,23.9458a2.397,2.397,0,0,1-.6.7681,4.3454,4.3454,0,0,1-.9361.624,5.6009,5.6009,0,0,1-1.1518.42,5.23,5.23,0,0,1-1.272.1563,6.5352,6.5352,0,0,1-2.4961-.4439,4.7183,4.7183,0,0,1-1.8-1.2724,5.59,5.59,0,0,1-1.0923-1.98,8.4118,8.4118,0,0,1-.372-2.5918,6.8753,6.8753,0,0,1,1.416-4.68,5.0588,5.0588,0,0,1,4.0083-1.6079,6.1338,6.1338,0,0,1,1.6557.228,3.8949,3.8949,0,0,1,1.4522.7559,3.8468,3.8468,0,0,1,1.0317,1.4043,5.2663,5.2663,0,0,1,.396,2.1718q0,.4088-.0356.8282a8.2626,8.2626,0,0,1-.1324.9H53.9574a6.7844,6.7844,0,0,0,.2519,1.8838,4.4611,4.4611,0,0,0,.7559,1.5244,3.542,3.542,0,0,0,1.2719,1.02,4.0869,4.0869,0,0,0,1.8.3716,6.3354,6.3354,0,0,0,1.7036-.24,3.2577,3.2577,0,0,0,1.2964-.624ZM56.9813,14.394a2.4881,2.4881,0,0,0-2.0879.9239,6.0975,6.0975,0,0,0-.8643,3.2519h5.28c.0156-.144.0278-.2837.0357-.42s.0122-.2676.0122-.396a4.541,4.541,0,0,0-.5762-2.4477A1.9754,1.9754,0,0,0,56.9813,14.394Z" style="fill: #fff"/>
  <path d="M69.7269,19.1938l3.792,5.2564q.3361.12.66.2519a3.4319,3.4319,0,0,1,.6119.3238v.6h-4.92V25.05q.3363-.1918.6241-.3477a3.5974,3.5974,0,0,1,.5761-.2519l-2.664-3.936-2.688,3.936a5.7285,5.7285,0,0,1,.624.2637q.2878.1443.5762.312v.6h-4.104v-.6A4.8536,4.8536,0,0,1,64.159,24.45l3.5762-4.7764-3.6-4.8476a6.4412,6.4412,0,0,1-.6118-.252,4.5238,4.5238,0,0,1-.5645-.3242v-.624H67.783v.6q-.2879.1918-.5639.3481a2.813,2.813,0,0,1-.6118.252l2.4956,3.6,2.4482-3.6a3.8063,3.8063,0,0,1-1.2-.5762v-.624h4.0083v.624a4.9492,4.9492,0,0,1-1.3442.5762Z" style="fill: #fff"/>
  <path d="M75.7869,14.23a6.2154,6.2154,0,0,1,1.92-.8438v-2.04a5.5293,5.5293,0,0,1,.7324-.4683,8.7105,8.7105,0,0,1,.8276-.396h.6V13.626h3.6v1.248h-3.6v6.9253a3.425,3.425,0,0,0,.4561,2.03,1.6123,1.6123,0,0,0,1.3681.5967q.4314,0,1.08-.06a4.4022,4.4022,0,0,0,1.104-.228l.168.36a3.0367,3.0367,0,0,1-.54.4561,6.1066,6.1066,0,0,1-.792.4561,5.6065,5.6065,0,0,1-.9722.36,4.0783,4.0783,0,0,1-1.08.1441,2.8533,2.8533,0,0,1-2.1958-.8125,3.7844,3.7844,0,0,1-.7563-2.6285V14.874h-1.92Z" style="fill: #fff"/>
  <path d="M90.8182,25.626H85.49v-.6a7.899,7.899,0,0,1,1.584-.5757V9.2578L85.25,9.0659v-.624a8.1353,8.1353,0,0,1,1.56-.5039q.936-.2161,1.8237-.36h.6V24.45a7.89,7.89,0,0,1,1.584.5757Z" style="fill: #fff"/>
  <path d="M101.2337,22.4819q0,.5282.0235.9121c.0156.2559.0312.5279.0488.816l1.6562.24v.5039a8.9464,8.9464,0,0,1-1.332.5518,10.5649,10.5649,0,0,1-1.4043.36h-.6a3.6679,3.6679,0,0,1-.2891-1.2124c-.0312-.44-.0566-.9238-.0722-1.4517h-.1192a3.3507,3.3507,0,0,1-.3725.9717,3.2616,3.2616,0,0,1-.7188.876,3.5951,3.5951,0,0,1-2.4121.8643,3.3021,3.3021,0,0,1-2.3887-.8882,3.08,3.08,0,0,1-.9238-2.3281,3.3672,3.3672,0,0,1,.4434-1.8121A3.0175,3.0175,0,0,1,94.0819,19.77a7.46,7.46,0,0,1,2.1367-.5879q1.2714-.18,2.9507-.2763a13.8043,13.8043,0,0,0,.06-1.86,4.5553,4.5553,0,0,0-.2637-1.416,1.9892,1.9892,0,0,0-.6713-.9121,1.9353,1.9353,0,0,0-1.1641-.3238q-.3369,0-.7559.0362a2.7963,2.7963,0,0,0-.8281.2036l-1.1289,2.88h-.623q-.24-.72-.4209-1.4883a9.1163,9.1163,0,0,1-.2276-1.5117,8.0887,8.0887,0,0,1,2.0274-.8643,9.2394,9.2394,0,0,1,2.4843-.312,4.5992,4.5992,0,0,1,1.9546.3481,2.7686,2.7686,0,0,1,1.1172.9,3.0651,3.0651,0,0,1,.5039,1.2242,7.6215,7.6215,0,0,1,.1192,1.3437q0,1.44-.0586,2.772Q101.2328,21.2581,101.2337,22.4819Zm-4.6323,1.9439a2.2352,2.2352,0,0,0,1.0566-.24,2.8325,2.8325,0,0,0,.7676-.5761,3.3634,3.3634,0,0,0,.5034-.6841,3.0037,3.0037,0,0,0,.2637-.5879v-2.52a14.7456,14.7456,0,0,0-2.2788.144,3.8507,3.8507,0,0,0-1.3926.4561,1.6549,1.6549,0,0,0-.6953.78,2.7791,2.7791,0,0,0-.1914,1.0683,2.2472,2.2472,0,0,0,.5273,1.5957A1.8743,1.8743,0,0,0,96.6014,24.4258Z" style="fill: #fff"/>
  <path d="M111.0618,13.626h4.6329v.624q-.457.1926-.9.3359a8.1987,8.1987,0,0,1-.9239.24q-.36.48-.8281,1.0317t-.9472,1.104q-.4806.5523-.9258,1.0322-.4425.4806-.7559.792.36.48.877,1.1641t1.1152,1.4517q.6006.7683,1.2363,1.56t1.26,1.4883l1.3437.5757v.6h-2.9746l-.6484-.5762q-1.2716-1.5836-2.1113-2.82t-1.5371-2.3159l-.7911-.24V24.45a4.9817,4.9817,0,0,1,1.5586.5757v.6h-5.3027v-.6a7.8461,7.8461,0,0,1,1.584-.5757V9.2578l-1.8242-.1919v-.624a7.378,7.378,0,0,1,1.6074-.5039q.9375-.1918,1.7754-.36h.6015V19.05h.6231q.3837-.4314.84-.96c.3047-.3515.6075-.7158.9121-1.0918s.6-.748.8887-1.1162q.4307-.5514.791-1.0556a3.805,3.805,0,0,1-1.1758-.5762Z" style="fill: #fff"/>
  <path d="M126.4173,23.9458a2.3885,2.3885,0,0,1-.6015.7681,4.3174,4.3174,0,0,1-.9356.624,5.5863,5.5863,0,0,1-1.1523.42,5.224,5.224,0,0,1-1.2715.1563A6.542,6.542,0,0,1,119.96,25.47a4.7139,4.7139,0,0,1-1.7988-1.2724,5.5579,5.5579,0,0,1-1.0918-1.98,8.351,8.351,0,0,1-.3731-2.5918,6.881,6.881,0,0,1,1.416-4.68,5.0566,5.0566,0,0,1,4.0078-1.6079,6.1376,6.1376,0,0,1,1.6563.228,3.8952,3.8952,0,0,1,1.4512.7559,3.851,3.851,0,0,1,1.0332,1.4043,5.2757,5.2757,0,0,1,.3965,2.1718c0,.2725-.0137.5484-.0372.8282a8.3626,8.3626,0,0,1-.1308.9h-7.4883a6.7844,6.7844,0,0,0,.252,1.8838,4.4609,4.4609,0,0,0,.7558,1.5244,3.5458,3.5458,0,0,0,1.2715,1.02,4.0843,4.0843,0,0,0,1.8008.3716,6.3407,6.3407,0,0,0,1.7031-.24,3.2671,3.2671,0,0,0,1.2969-.624Zm-4.3926-9.5518a2.4888,2.4888,0,0,0-2.0879.9239,6.0906,6.0906,0,0,0-.8632,3.2519h5.2793c.0156-.144.0273-.2837.0351-.42s.0137-.2676.0137-.396a4.5545,4.5545,0,0,0-.5762-2.4477A1.9775,1.9775,0,0,0,122.0247,14.394Z" style="fill: #fff"/>
</svg>
