<svg xmlns="http://www.w3.org/2000/svg" width="127" height="36">
    <path d="M.833 30s.503-6.056 7.916-6.056c4.676.031 5.953 1.31 10.439 1.323a10.56 10.56 0 0 0 5.369-1.475s-.57 6.061-7.767 6.061c-4.46 0-6.65-1.314-10.402-1.325A9.94 9.94 0 0 0 .833 30zM.833 21.104s.503-6.057 7.916-6.057c4.676.032 5.953 1.31 10.439 1.324a10.562 10.562 0 0 0 5.369-1.475s-.57 6.061-7.767 6.061c-4.46 0-6.65-1.314-10.402-1.325a9.94 9.94 0 0 0-5.555 1.472zM.833 12.207s.503-6.056 7.916-6.056c4.676.032 5.953 1.31 10.439 1.324A10.56 10.56 0 0 0 24.557 6s-.57 6.06-7.767 6.06c-4.46 0-6.65-1.313-10.402-1.325a9.94 9.94 0 0 0-5.555 1.473zM47.633 25.626H40.89v-.696q.527-.192 1.068-.336a11.053 11.053 0 0 1 1.164-.24v-14.28H39.45l-1.272 3.431h-.6q-.073-.48-.12-1.091t-.084-1.249q-.036-.635-.06-1.248t-.024-1.091h13.943q0 .48-.024 1.08t-.06 1.236l-.073 1.248q-.036.612-.11 1.116h-.63l-1.262-3.432h-3.649v14.28q.624.12 1.164.24a5.908 5.908 0 0 1 1.044.336zM61.373 23.946a2.397 2.397 0 0 1-.6.768 4.345 4.345 0 0 1-.936.624 5.6 5.6 0 0 1-1.152.42 5.23 5.23 0 0 1-1.272.156 6.535 6.535 0 0 1-2.496-.444 4.718 4.718 0 0 1-1.8-1.272 5.59 5.59 0 0 1-1.092-1.98 8.412 8.412 0 0 1-.372-2.592 6.875 6.875 0 0 1 1.416-4.68 5.059 5.059 0 0 1 4.008-1.608 6.134 6.134 0 0 1 1.656.228 3.895 3.895 0 0 1 1.452.756 3.847 3.847 0 0 1 1.032 1.404 5.266 5.266 0 0 1 .396 2.172q0 .409-.036.828a8.263 8.263 0 0 1-.132.9h-7.488a6.784 6.784 0 0 0 .252 1.884 4.461 4.461 0 0 0 .756 1.525 3.542 3.542 0 0 0 1.272 1.02 4.087 4.087 0 0 0 1.8.371 6.335 6.335 0 0 0 1.704-.24 3.258 3.258 0 0 0 1.296-.624zm-4.392-9.552a2.488 2.488 0 0 0-2.088.924 6.098 6.098 0 0 0-.864 3.252h5.28a8.436 8.436 0 0 0 .048-.816 4.541 4.541 0 0 0-.576-2.448 1.975 1.975 0 0 0-1.8-.912zM69.727 19.194l3.792 5.256q.336.12.66.252a3.432 3.432 0 0 1 .612.324v.6h-4.92v-.576q.336-.192.624-.348a3.597 3.597 0 0 1 .576-.252l-2.664-3.936-2.688 3.936a5.729 5.729 0 0 1 .624.264q.288.144.576.312v.6h-4.104v-.6a4.854 4.854 0 0 1 1.344-.576l3.576-4.776-3.6-4.848a6.441 6.441 0 0 1-.612-.252 4.524 4.524 0 0 1-.564-.324v-.624h4.824v.6q-.288.192-.564.348a2.813 2.813 0 0 1-.612.252l2.496 3.6 2.448-3.6a3.806 3.806 0 0 1-1.2-.576v-.624h4.008v.624a4.95 4.95 0 0 1-1.344.576zM75.787 14.23a6.215 6.215 0 0 1 1.92-.844v-2.04a5.53 5.53 0 0 1 .732-.468 8.71 8.71 0 0 1 .828-.396h.6v3.144h3.6v1.248h-3.6v6.925a3.425 3.425 0 0 0 .456 2.03 1.612 1.612 0 0 0 1.368.597q.432 0 1.08-.06a4.402 4.402 0 0 0 1.104-.228l.168.36a3.037 3.037 0 0 1-.54.456 6.107 6.107 0 0 1-.792.456 5.606 5.606 0 0 1-.972.36 4.078 4.078 0 0 1-1.08.144 2.853 2.853 0 0 1-2.196-.812 3.784 3.784 0 0 1-.756-2.629v-7.599h-1.92zM90.818 25.626H85.49v-.6a7.899 7.899 0 0 1 1.584-.576V9.258l-1.824-.192v-.624a8.135 8.135 0 0 1 1.56-.504q.936-.216 1.824-.36h.6V24.45a7.89 7.89 0 0 1 1.584.576zM101.234 22.482q0 .528.023.912l.049.816 1.656.24v.504a8.946 8.946 0 0 1-1.332.552 10.565 10.565 0 0 1-1.404.36h-.6a3.668 3.668 0 0 1-.29-1.213c-.03-.44-.056-.924-.071-1.451h-.12a3.35 3.35 0 0 1-.372.971 3.262 3.262 0 0 1-.719.876 3.595 3.595 0 0 1-2.412.865 3.302 3.302 0 0 1-2.389-.889 3.08 3.08 0 0 1-.924-2.328 3.367 3.367 0 0 1 .444-1.812 3.018 3.018 0 0 1 1.309-1.115 7.46 7.46 0 0 1 2.137-.588q1.271-.18 2.95-.276a13.804 13.804 0 0 0 .06-1.86 4.555 4.555 0 0 0-.263-1.416 1.99 1.99 0 0 0-.672-.912 1.935 1.935 0 0 0-1.164-.324q-.337 0-.756.036a2.796 2.796 0 0 0-.828.204l-1.129 2.88h-.623q-.24-.72-.42-1.489a9.116 9.116 0 0 1-.228-1.511 8.089 8.089 0 0 1 2.027-.865 9.24 9.24 0 0 1 2.484-.312 4.6 4.6 0 0 1 1.955.348 2.769 2.769 0 0 1 1.117.9 3.065 3.065 0 0 1 .504 1.225 7.622 7.622 0 0 1 .12 1.343q0 1.44-.06 2.772-.06 1.333-.06 2.557zM96.6 24.426a2.235 2.235 0 0 0 1.057-.24 2.833 2.833 0 0 0 .768-.576 3.363 3.363 0 0 0 .503-.684 3.004 3.004 0 0 0 .264-.588v-2.52a14.746 14.746 0 0 0-2.28.144 3.85 3.85 0 0 0-1.392.456 1.655 1.655 0 0 0-.695.78 2.78 2.78 0 0 0-.191 1.068 2.247 2.247 0 0 0 .527 1.596 1.874 1.874 0 0 0 1.44.564zM111.062 13.626h4.633v.624q-.457.193-.9.336a8.199 8.199 0 0 1-.924.24q-.36.48-.828 1.032t-.948 1.104q-.48.552-.925 1.032-.443.48-.756.792.36.48.877 1.164t1.115 1.452q.6.768 1.236 1.56t1.26 1.488l1.344.576v.6h-2.975l-.648-.577q-1.272-1.583-2.111-2.82t-1.537-2.315l-.791-.24v4.776a4.982 4.982 0 0 1 1.558.576v.6h-5.303v-.6a7.846 7.846 0 0 1 1.584-.576V9.258l-1.824-.192v-.624a7.378 7.378 0 0 1 1.608-.504q.937-.192 1.775-.36h.602V19.05h.623q.383-.431.84-.96c.304-.351.607-.716.912-1.092s.6-.748.888-1.116q.431-.551.791-1.056a3.805 3.805 0 0 1-1.175-.576zM126.417 23.946a2.389 2.389 0 0 1-.601.768 4.317 4.317 0 0 1-.936.624 5.586 5.586 0 0 1-1.152.42 5.224 5.224 0 0 1-1.272.156 6.542 6.542 0 0 1-2.496-.444 4.714 4.714 0 0 1-1.799-1.272 5.558 5.558 0 0 1-1.092-1.98 8.351 8.351 0 0 1-.373-2.592 6.881 6.881 0 0 1 1.416-4.68 5.057 5.057 0 0 1 4.008-1.608 6.138 6.138 0 0 1 1.656.228 3.895 3.895 0 0 1 1.452.756 3.851 3.851 0 0 1 1.033 1.404 5.276 5.276 0 0 1 .396 2.172 9.9 9.9 0 0 1-.037.828 8.363 8.363 0 0 1-.13.9H119a6.784 6.784 0 0 0 .252 1.884 4.46 4.46 0 0 0 .756 1.524 3.546 3.546 0 0 0 1.271 1.02 4.084 4.084 0 0 0 1.801.372 6.34 6.34 0 0 0 1.703-.24 3.267 3.267 0 0 0 1.297-.624zm-4.392-9.552a2.489 2.489 0 0 0-2.088.924 6.09 6.09 0 0 0-.863 3.252h5.279a8.302 8.302 0 0 0 .049-.816 4.554 4.554 0 0 0-.577-2.448 1.978 1.978 0 0 0-1.8-.912z" fill="#fff"/>
</svg>