<svg id="neoride-logo-svg" height="38px" viewBox="0 0 598.740022 144" version="1.1" xmlns="http://www.w3.org/2000/svg" xmlns:xlink="http://www.w3.org/1999/xlink">
    <title>Logo Copy@1x</title>
    <g id="Mockups" stroke="none" stroke-width="1" fill="none" fill-rule="evenodd">
        <g id="Green" transform="translate(-340.2614, -468)" fill-rule="nonzero">
            <g id="Logo-Copy" transform="translate(340.2614, 468)">
                <g id="Logo-Copy" transform="translate(0, 0)">
                    <g id="neoride" transform="translate(134.4086, 4.077)">
                        <path d="M31.9357976,26.7571227 C13.866728,26.7571227 0.178038815,39.5439235 0.178038815,53.4426201 C0.178038815,62.7084178 0.118692543,76.7685553 0,95.6230325 L14.6373209,95.6230325 L14.6373209,58.3809159 C14.6373209,47.9478406 23.5459029,41.2764854 31.9357976,41.2117671 C40.3256924,41.1470489 48.8781967,47.8157764 48.8781967,58.1167874 L48.8781967,95.6230325 L63.5155176,95.6230325 L63.5155176,53.2304104 C63.5155176,37.2506369 50.0048673,26.7571227 31.9357976,26.7571227 Z" id="Path" fill="#003A70"></path>
                        <path d="M144.555077,61.2828869 C144.555077,41.4022974 129.545412,26.6854974 109.576032,26.6854974 C89.6066524,26.6854974 74.4664689,41.4022974 74.4664689,60.8956027 C74.4664689,80.6470974 90.1287277,95.6220869 111.272777,95.6220869 C123.802584,95.6220869 134.766165,90.3292027 141.553144,81.9380448 L131.633713,73.5468869 C127.848668,78.4524869 120.409095,82.5835185 111.664334,82.5835185 C100.831271,82.5835185 92.6085853,76.3869711 90.2592465,66.9630553 L144.16352,66.9630553 C144.424558,65.155729 144.555077,63.0902132 144.555077,61.2828869 Z M109.444554,39.7242447 C118.972232,39.7242447 126.672685,45.7917971 128.891459,55.086771 L90.1281647,55.086771 C92.4774553,45.920894 99.9168754,39.7242447 109.444554,39.7242447 Z" id="Shape" fill="#003A70"></path>
                        <path d="M188.360142,95.6220869 C208.257091,95.6220869 223.404446,80.7761922 223.404446,61.1537922 C223.404446,41.5313922 208.257091,26.6854974 188.360142,26.6854974 C168.334825,26.6854974 153.315838,41.5313922 153.315838,61.1537922 C153.315838,80.7761922 168.334825,95.6220869 188.360142,95.6220869 Z M188.357827,81.6785308 C176.805776,81.6785308 168.07756,72.7713228 168.07756,61.1532255 C168.07756,49.5351282 176.805776,40.6279203 188.357827,40.6279203 C199.909879,40.6279203 208.509739,49.5351282 208.509739,61.1532255 C208.509739,72.7713228 199.909879,81.6785308 188.357827,81.6785308 Z" id="Shape" fill="#003A70"></path>
                        <path d="M271.341406,28.9092889 C262.73875,28.9092889 255.805266,32.9019427 250.926147,39.5992976 L250.926147,29.9396512 L236.545587,29.9396512 L236.545587,95.6252468 L250.926147,95.6252468 L250.926147,63.684016 C250.926147,51.5772591 258.501621,43.7207467 271.341406,43.7207467 L273.780966,43.7207467 L273.780966,28.9092889 L271.341406,28.9092889 Z" id="Path" fill="#00C08B"></path>
                        <path d="M291.239581,18.3986526 C296.263523,18.3986526 300.062114,14.3820454 300.062114,9.19932632 C300.062114,3.88703929 296.263523,0 291.239581,0 C286.338174,0 282.539583,3.88703929 282.539583,9.19932632 C282.539583,14.3820454 286.338174,18.3986526 291.239581,18.3986526 Z M284.377505,95.6214014 L298.099951,95.6214014 L298.099951,29.5420751 L284.377505,29.5420751 L284.377505,95.6214014 Z" id="Shape" fill="#00C08B"></path>
                        <path d="M366.618418,2.22379145 L366.618418,39.1936027 C361.187198,32.2699278 353.169682,28.0895958 343.471074,28.0895958 C324.849746,28.0895958 311.013065,43.1126639 311.013065,62.969241 C311.013065,82.825818 324.849746,97.8488862 343.471074,97.8488862 C353.169682,97.8488862 361.187198,93.6685542 366.618418,86.7448793 L366.618418,96.2812617 L381.101673,96.2812617 L381.101673,2.22379145 L366.618418,2.22379145 Z M346.315297,83.7375647 C334.547749,83.7375647 325.88373,74.7241228 325.88373,62.9674595 C325.88373,51.2107961 334.547749,42.1973542 346.315297,42.1973542 C357.953532,42.1973542 366.617551,51.2107961 366.617551,62.9674595 C366.617551,74.7241228 357.953532,83.7375647 346.315297,83.7375647 Z" id="Shape" fill="#00C08B"></path>
                        <path d="M464.331423,61.2828869 C464.331423,41.4022974 449.321758,26.6854974 429.352378,26.6854974 C409.382998,26.6854974 394.242815,41.4022974 394.242815,60.8956027 C394.242815,80.6470974 409.905074,95.6220869 431.049123,95.6220869 C443.57893,95.6220869 454.542511,90.3292027 461.32949,81.9380448 L451.410059,73.5468869 C447.625013,78.4524869 440.185441,82.5835185 431.440679,82.5835185 C420.607617,82.5835185 412.384931,76.3869711 410.035592,66.9630553 L463.939866,66.9630553 C464.200904,65.155729 464.331423,63.0902132 464.331423,61.2828869 Z M429.2209,39.7242447 C438.748578,39.7242447 446.449031,45.7917971 448.667805,55.086771 L409.904511,55.086771 C412.253801,45.920894 419.693221,39.7242447 429.2209,39.7242447 Z" id="Shape" fill="#00C08B"></path>
                    </g>
                    <g id="Imagotype" fill="#00C08B">
                        <ellipse id="Oval" cx="97.271977" cy="94.8076695" rx="7.82602312" ry="7.80707368"></ellipse>
                        <ellipse id="Oval" cx="79.383145" cy="108.193435" rx="5.59023305" ry="5.57734737"></ellipse>
                        <ellipse id="Oval" cx="60.3760592" cy="113.770925" rx="4.47233802" ry="4.46248421"></ellipse>
                        <ellipse id="Oval" cx="46.958767" cy="115.999736" rx="2.23579006" ry="2.22972632"></ellipse>
                        <ellipse id="Oval" cx="108.45308" cy="74.7316671" rx="5.59023305" ry="5.57734737"></ellipse>
                        <ellipse id="Oval" cx="109.571334" cy="58.0013124" rx="4.47233802" ry="4.46248421"></ellipse>
                        <ellipse id="Oval" cx="111.807084" cy="42.3838475" rx="2.23579006" ry="2.22972632"></ellipse>
                        <ellipse id="Oval" cx="10.0625307" cy="50.1930375" rx="5.59023305" ry="5.57734737"></ellipse>
                        <ellipse id="Oval" cx="20.12538" cy="33.4626828" rx="4.47233802" ry="4.46248421"></ellipse>
                        <ellipse id="Oval" cx="31.3057251" cy="22.3067869" rx="2.23579006" ry="2.22972632"></ellipse>
                        <ellipse id="Oval" cx="12.2983208" cy="74.7306089" rx="7.82602312" ry="7.80707368"></ellipse>
                        <ellipse id="Oval" cx="21.243275" cy="92.5779432" rx="5.59023305" ry="5.57734737"></ellipse>
                        <ellipse id="Oval" cx="35.7784219" cy="102.617003" rx="4.47233802" ry="4.46248421"></ellipse>
                        <ellipse id="Oval" cx="55.9033624" cy="104.845814" rx="2.23579006" ry="2.22972632"></ellipse>
                        <ellipse id="Oval" cx="54.785548" cy="10.0398316" rx="10.0625711" ry="10.0398316"></ellipse>
                        <ellipse id="Oval" cx="77.1466374" cy="21.1917807" rx="7.82602312" ry="7.80707368"></ellipse>
                        <ellipse id="Oval" cx="89.4459942" cy="37.9242518" rx="4.47233802" ry="4.46248421"></ellipse>
                        <ellipse id="Oval" cx="96.1540417" cy="51.3069855" rx="2.23579006" ry="2.22972632"></ellipse>
                        <ellipse id="Oval" cx="32.4236604" cy="7.80707368" rx="7.82602312" ry="7.80707368"></ellipse>
                        <ellipse id="Oval" cx="15.6530823" cy="13.3856222" rx="4.47233802" ry="4.46248421"></ellipse>
                        <ellipse id="Oval" cx="2.23579006" cy="22.3067869" rx="2.23579006" ry="2.22972632"></ellipse>
                    </g>
                </g>
                <g id="payments-[re]imagine" transform="translate(134.907, 113.6842)" fill="#003A70">
                    <path d="M13.215681,16.7956111 C13.215681,19.0465693 12.6805558,20.862246 11.6103054,22.2426413 C10.540055,23.6230366 9.06368287,24.3132343 7.1811889,24.3132343 C6.22560821,24.3132343 5.38708615,24.152108 4.66562273,23.8298555 C3.94415931,23.5076029 3.33019871,23.0242241 2.82374095,22.3797189 L2.82374095,30.0127759 L0,30.0127759 L0,8.39780556 L2.16439027,8.39780556 L2.60873529,10.4178962 C3.11519306,9.66757684 3.74587631,9.09521782 4.50078506,8.70081916 C5.25569381,8.3064205 6.13482805,8.10922117 7.13818777,8.10922117 C9.05890496,8.10922117 10.5519998,8.87637466 11.6174723,10.4106816 C12.6829447,11.9449886 13.215681,13.9722939 13.215681,16.4925975 L13.215681,16.7956111 Z M10.39194,16.4925975 C10.39194,14.7226133 10.045542,13.267667 9.35274603,12.1277587 C8.65995003,10.9878504 7.63986764,10.4178962 6.29249886,10.4178962 C5.48025527,10.4178962 4.78745927,10.6030712 4.21411085,10.9734212 C3.64076244,11.3437711 3.1773058,11.8511987 2.82374095,12.4957038 L2.82374095,20.0421854 C3.1773058,20.6866905 3.64076244,21.1893083 4.21411085,21.5500388 C4.78745927,21.9107693 5.48981108,22.0911345 6.32116628,22.0911345 C7.65897925,22.0911345 8.67189478,21.5981362 9.35991288,20.6121396 C10.047931,19.6261429 10.39194,18.3539668 10.39194,16.7956111 L10.39194,16.4925975 Z" id="Shape"></path>
                    <path d="M26.2163563,24.0102207 C26.1207982,23.5388662 26.0467407,23.1228237 25.9941838,22.7620932 C25.9416268,22.4013628 25.9105705,22.0382274 25.9010147,21.6726872 C25.3754453,22.4230066 24.6898161,23.0506776 23.8441272,23.5557003 C22.9984383,24.060723 22.0882477,24.3132343 21.1135554,24.3132343 C19.498624,24.3132343 18.2683139,23.8971918 17.422625,23.0651068 C16.5769361,22.2330219 16.1540916,21.0858989 16.1540916,19.6237381 C16.1540916,18.1327188 16.7537185,16.9663569 17.9529723,16.1246524 C19.152226,15.282948 20.7791022,14.8620957 22.8336006,14.8620957 L25.9010147,14.8620957 L25.9010147,13.3181693 C25.9010147,12.4043187 25.6238963,11.6804529 25.0696595,11.1465718 C24.5154227,10.6126907 23.7318465,10.3457501 22.718931,10.3457501 C21.8015735,10.3457501 21.0609985,10.5766177 20.4972059,11.0383527 C19.9334132,11.5000877 19.6515169,12.0532077 19.6515169,12.6977129 L16.9711131,12.7265713 L16.9424457,12.639996 C16.875555,11.5048974 17.4035134,10.4659936 18.5263207,9.52328465 C19.649128,8.58057567 21.0992217,8.10922117 22.8766018,8.10922117 C24.6348703,8.10922117 26.0491297,8.55893184 27.1193801,9.45835317 C28.1896304,10.3577745 28.7247556,11.6539993 28.7247556,13.3470277 L28.7247556,20.8646509 C28.7247556,21.4225807 28.753423,21.9612716 28.8107579,22.4807235 C28.8680927,23.0001754 28.9732066,23.5100078 29.1260995,24.0102207 L26.2163563,24.0102207 Z M21.529233,21.9324131 C22.5517043,21.9324131 23.4738397,21.6678775 24.2956391,21.1388061 C25.1174385,20.6097347 25.6525637,20.0037075 25.9010147,19.3207245 L25.9010147,16.7811819 L22.7332647,16.7811819 C21.5961236,16.7811819 20.685933,17.0697663 20.0026928,17.646935 C19.3194526,18.2241038 18.9778326,18.9022771 18.9778326,19.6814549 C18.9778326,20.3740575 19.1928382,20.9223678 19.6228495,21.3263859 C20.0528608,21.7304041 20.688322,21.9324131 21.529233,21.9324131 Z" id="Shape"></path>
                    <path d="M37.5686549,18.2241038 L38.0703348,20.1864776 L38.1563371,20.1864776 L41.969104,8.39780556 L45.1081866,8.39780556 L38.5863484,26.4054711 C38.1945603,27.4539943 37.6331566,28.3678449 36.9021374,29.1470227 C36.1711182,29.9262006 35.1844811,30.3157895 33.9422262,30.3157895 C33.7128868,30.3157895 33.4214347,30.2893359 33.0678699,30.2364288 C32.714305,30.1835216 32.4419645,30.1330194 32.2508484,30.084922 L32.5375226,27.848393 C32.4801877,27.8387735 32.6498033,27.848393 33.0463693,27.8772514 C33.4429353,27.9061099 33.6937752,27.9205391 33.7988891,27.9205391 C34.4009049,27.9205391 34.893029,27.6511937 35.2752613,27.1125028 C35.6574935,26.573812 35.9776131,25.9774042 36.2356199,25.3232796 L36.9093042,23.6927779 L31.1471527,8.39780556 L34.300569,8.39780556 L37.5686549,18.2241038 Z" id="Path"></path>
                    <path d="M50.1106515,8.39780556 L50.3113235,10.4467547 C50.8177812,9.70605476 51.4604092,9.13129086 52.2392075,8.72246299 C53.0180058,8.31363511 53.9234185,8.10922117 54.9554456,8.10922117 C55.9874728,8.10922117 56.8737739,8.34970816 57.6143489,8.83068213 C58.3549239,9.3116561 58.9115497,10.0331171 59.2842262,10.995065 C59.7811281,10.1004534 60.428534,9.39582655 61.2264439,8.8811844 C62.0243538,8.36654225 62.9584339,8.10922117 64.0286843,8.10922117 C65.6053924,8.10922117 66.8524252,8.65512663 67.7697827,9.74693755 C68.6871402,10.8387485 69.1458189,12.4812746 69.1458189,14.6745159 L69.1458189,24.0102207 L66.322078,24.0102207 L66.322078,14.6456575 C66.322078,13.1065407 66.0592933,12.0171347 65.5337239,11.3774393 C65.0081545,10.7377439 64.2245783,10.4178962 63.1829954,10.4178962 C62.2178589,10.4178962 61.4366717,10.754578 60.8394337,11.4279416 C60.2421958,12.1013051 59.8910199,12.9526291 59.785906,13.9819134 L59.785906,14.0973471 L59.785906,24.0102207 L56.9478314,24.0102207 L56.9478314,14.6456575 C56.9478314,13.1834966 56.6778798,12.1133295 56.1379767,11.4351562 C55.5980736,10.7569829 54.8216643,10.4178962 53.8087488,10.4178962 C52.9487262,10.4178962 52.2415965,10.5958566 51.6873597,10.9517773 C51.1331229,11.3076981 50.7078894,11.807911 50.4116594,12.4524161 L50.4116594,24.0102207 L47.5879185,24.0102207 L47.5879185,8.39780556 L50.1106515,8.39780556 Z" id="Path"></path>
                    <path d="M79.6667623,24.3132343 C77.4402593,24.3132343 75.7034914,23.5965831 74.4564586,22.1632806 C73.2094258,20.7299782 72.5859094,18.8445602 72.5859094,16.5070267 L72.5859094,15.8721411 C72.5859094,13.6308024 73.2285374,11.7766477 74.5137934,10.3096771 C75.7990495,8.84270648 77.3685908,8.10922117 79.2224173,8.10922117 C81.2960274,8.10922117 82.851235,8.75853604 83.88804,10.0571658 C84.9248451,11.3557955 85.4432476,13.082492 85.4432476,15.2372554 L85.4432476,16.7378942 L75.52432,16.7378942 L75.4813189,16.8100403 C75.4813189,18.3780155 75.8253279,19.6501916 76.513346,20.6265688 C77.2013641,21.602946 78.2525029,22.0911345 79.6667623,22.0911345 C80.622343,22.0911345 81.4608651,21.954057 82.1823285,21.6799018 C82.9037919,21.4057466 83.5225304,21.0281821 84.038544,20.5472081 L85.1422397,22.3941482 C84.5880029,22.932839 83.8569837,23.3873594 82.949182,23.7577094 C82.0413804,24.1280593 80.9472405,24.3132343 79.6667623,24.3132343 Z M79.2224173,10.3457501 C78.2381692,10.3457501 77.4235367,10.7281245 76.7785197,11.4928731 C76.1335027,12.2576217 75.7393257,13.2364037 75.5959886,14.4292192 L75.624656,14.5013653 L82.6195067,14.5013653 L82.6195067,14.2704978 C82.6195067,13.1353992 82.3423883,12.1974999 81.7881515,11.4568 C81.2339147,10.7161001 80.3786699,10.3457501 79.2224173,10.3457501 Z" id="Shape"></path>
                    <path d="M91.1337306,8.39780556 L91.3344026,10.7209098 C91.8504162,9.89363461 92.4978221,9.25153436 93.2766203,8.79460908 C94.0554186,8.33768381 94.9417197,8.10922117 95.9355236,8.10922117 C97.6077898,8.10922117 98.9026017,8.60221949 99.8199591,9.58821614 C100.737317,10.5742128 101.195995,12.0964954 101.195995,14.155064 L101.195995,24.0102207 L98.3722544,24.0102207 L98.3722544,14.2127809 C98.3722544,12.8371953 98.1023028,11.8608182 97.5623997,11.2836494 C97.0224967,10.7064806 96.1983083,10.4178962 95.0898347,10.4178962 C94.2202563,10.4178962 93.4820702,10.5934517 92.8752765,10.9445627 C92.2684827,11.2956737 91.7883034,11.7886721 91.4347386,12.4235577 L91.4347386,24.0102207 L88.6109976,24.0102207 L88.6109976,8.39780556 L91.1337306,8.39780556 Z" id="Path"></path>
                    <path d="M109.222873,4.63177935 L109.222873,8.39780556 L112.161284,8.39780556 L112.161284,10.5044716 L109.222873,10.5044716 L109.222873,19.9844685 C109.222873,20.715549 109.373377,21.2301911 109.674385,21.528395 C109.975393,21.8265989 110.374348,21.9757008 110.87125,21.9757008 C111.033699,21.9757008 111.215259,21.954057 111.415931,21.9107693 C111.616603,21.8674817 111.783829,21.8217891 111.917611,21.7736917 L112.304621,23.7216363 C112.094393,23.8947869 111.783829,24.0366743 111.37293,24.1472983 C110.96203,24.2579223 110.555908,24.3132343 110.154564,24.3132343 C109.007867,24.3132343 108.095288,23.9645282 107.416826,23.2671159 C106.738363,22.5697036 106.399132,21.4754879 106.399132,19.9844685 L106.399132,10.5044716 L103.933734,10.5044716 L103.933734,8.39780556 L106.399132,8.39780556 L106.399132,4.63177935 L109.222873,4.63177935 Z" id="Path"></path>
                    <path d="M124.201601,19.8113179 C124.201601,19.1860518 123.965094,18.6762193 123.492082,18.2818207 C123.019069,17.887422 122.123212,17.5411208 120.804511,17.2429169 C118.979352,16.8485182 117.577037,16.2953982 116.597567,15.5835567 C115.618097,14.8717152 115.128362,13.9193868 115.128362,12.7265713 C115.128362,11.4568 115.665876,10.3697988 116.740904,9.46556777 C117.815933,8.56133671 119.208691,8.10922117 120.919181,8.10922117 C122.677449,8.10922117 124.101265,8.59019515 125.190627,9.55214309 C126.279989,10.514091 126.80078,11.6347604 126.753001,12.9141512 L126.724334,13.0007265 L124.029596,13.0007265 C124.029596,12.3273629 123.735755,11.716526 123.148073,11.1682156 C122.560391,10.6199053 121.817427,10.3457501 120.919181,10.3457501 C119.925377,10.3457501 119.182413,10.5718079 118.690289,11.0239234 C118.198165,11.476039 117.952103,12.0147298 117.952103,12.639996 C117.952103,13.2556427 118.164719,13.7318069 118.589953,14.0684887 C119.015186,14.4051705 119.891932,14.7129938 121.220189,14.9919587 C123.121794,15.3959769 124.564721,15.9683359 125.548969,16.7090358 C126.533217,17.4497357 127.025341,18.4164934 127.025341,19.6093089 C127.025341,20.9945139 126.468716,22.1248027 125.355464,23.0001754 C124.242213,23.875548 122.787341,24.3132343 120.990849,24.3132343 C119.012797,24.3132343 117.455201,23.8082116 116.31806,22.7981663 C115.180919,21.7881209 114.641016,20.6097347 114.698351,19.2630076 L114.727018,19.1764323 L117.421755,19.1764323 C117.469535,20.1864776 117.842211,20.9247727 118.539785,21.3913174 C119.237359,21.8578622 120.05438,22.0911345 120.990849,22.0911345 C121.994209,22.0911345 122.780174,21.8771011 123.348745,21.4490343 C123.917315,21.0209675 124.201601,20.475062 124.201601,19.8113179 Z" id="Path"></path>
                    <polygon id="Path" points="143.351438 2.23652897 140.6567 2.23652897 140.6567 26.2756081 143.351438 26.2756081 143.351438 28.5121371 137.832959 28.5121371 137.832959 0 143.351438 0"></polygon>
                    <path d="M153.084027,10.9084897 L151.636322,10.8219144 C150.890969,10.8219144 150.262675,10.9998747 149.751439,11.3557955 C149.240204,11.7117162 148.846027,12.2119292 148.568908,12.8564343 L148.568908,24.0102207 L145.745167,24.0102207 L145.745167,8.39780556 L148.2679,8.39780556 L148.540241,10.6776222 C148.979808,9.86958591 149.5221,9.23951001 150.167117,8.78739447 C150.812134,8.33527894 151.555098,8.10922117 152.396009,8.10922117 C152.606237,8.10922117 152.806909,8.12605526 152.998025,8.15972344 C153.189141,8.19339162 153.346812,8.22946467 153.471037,8.26794258 L153.084027,10.9084897 Z" id="Path"></path>
                    <path d="M162.44394,24.3132343 C160.217437,24.3132343 158.480669,23.5965831 157.233636,22.1632806 C155.986603,20.7299782 155.363087,18.8445602 155.363087,16.5070267 L155.363087,15.8721411 C155.363087,13.6308024 156.005715,11.7766477 157.290971,10.3096771 C158.576227,8.84270648 160.145768,8.10922117 161.999595,8.10922117 C164.073205,8.10922117 165.628412,8.75853604 166.665218,10.0571658 C167.702023,11.3557955 168.220425,13.082492 168.220425,15.2372554 L168.220425,16.7378942 L158.301498,16.7378942 L158.258496,16.8100403 C158.258496,18.3780155 158.602505,19.6501916 159.290524,20.6265688 C159.978542,21.602946 161.02968,22.0911345 162.44394,22.0911345 C163.399521,22.0911345 164.238043,21.954057 164.959506,21.6799018 C165.680969,21.4057466 166.299708,21.0281821 166.815721,20.5472081 L167.919417,22.3941482 C167.36518,22.932839 166.634161,23.3873594 165.726359,23.7577094 C164.818558,24.1280593 163.724418,24.3132343 162.44394,24.3132343 Z M161.999595,10.3457501 C161.015347,10.3457501 160.200714,10.7281245 159.555697,11.4928731 C158.91068,12.2576217 158.516503,13.2364037 158.373166,14.4292192 L158.401833,14.5013653 L165.396684,14.5013653 L165.396684,14.2704978 C165.396684,13.1353992 165.119566,12.1974999 164.565329,11.4568 C164.011092,10.7161001 163.155847,10.3457501 161.999595,10.3457501 Z" id="Shape"></path>
                    <polygon id="Path" points="169.496125 0 175.028938 0 175.028938 28.5121371 169.496125 28.5121371 169.496125 26.2756081 172.205197 26.2756081 172.205197 2.23652897 169.496125 2.23652897"></polygon>
                    <path d="M182.353464,24.0102207 L179.529723,24.0102207 L179.529723,8.39780556 L182.353464,8.39780556 L182.353464,24.0102207 Z M182.353464,4.40091185 L179.529723,4.40091185 L179.529723,1.50063879 L182.353464,1.50063879 L182.353464,4.40091185 Z" id="Shape"></path>
                    <path d="M189.219311,8.39780556 L189.419983,10.4467547 C189.926441,9.70605476 190.569069,9.13129086 191.347867,8.72246299 C192.126665,8.31363511 193.032078,8.10922117 194.064105,8.10922117 C195.096132,8.10922117 195.982433,8.34970816 196.723008,8.83068213 C197.463583,9.3116561 198.020209,10.0331171 198.392885,10.995065 C198.889787,10.1004534 199.537193,9.39582655 200.335103,8.8811844 C201.133013,8.36654225 202.067093,8.10922117 203.137344,8.10922117 C204.714052,8.10922117 205.961085,8.65512663 206.878442,9.74693755 C207.795799,10.8387485 208.254478,12.4812746 208.254478,14.6745159 L208.254478,24.0102207 L205.430737,24.0102207 L205.430737,14.6456575 C205.430737,13.1065407 205.167953,12.0171347 204.642383,11.3774393 C204.116814,10.7377439 203.333238,10.4178962 202.291655,10.4178962 C201.326518,10.4178962 200.545331,10.754578 199.948093,11.4279416 C199.350855,12.1013051 198.999679,12.9526291 198.894565,13.9819134 L198.894565,14.0973471 L198.894565,24.0102207 L196.056491,24.0102207 L196.056491,14.6456575 C196.056491,13.1834966 195.786539,12.1133295 195.246636,11.4351562 C194.706733,10.7569829 193.930324,10.4178962 192.917408,10.4178962 C192.057385,10.4178962 191.350256,10.5958566 190.796019,10.9517773 C190.241782,11.3076981 189.816549,11.807911 189.520319,12.4524161 L189.520319,24.0102207 L186.696578,24.0102207 L186.696578,8.39780556 L189.219311,8.39780556 Z" id="Path"></path>
                    <path d="M221.885837,24.0102207 C221.790279,23.5388662 221.716221,23.1228237 221.663664,22.7620932 C221.611107,22.4013628 221.580051,22.0382274 221.570495,21.6726872 C221.044926,22.4230066 220.359297,23.0506776 219.513608,23.5557003 C218.667919,24.060723 217.757728,24.3132343 216.783036,24.3132343 C215.168105,24.3132343 213.937794,23.8971918 213.092105,23.0651068 C212.246417,22.2330219 211.823572,21.0858989 211.823572,19.6237381 C211.823572,18.1327188 212.423199,16.9663569 213.622453,16.1246524 C214.821707,15.282948 216.448583,14.8620957 218.503081,14.8620957 L221.570495,14.8620957 L221.570495,13.3181693 C221.570495,12.4043187 221.293377,11.6804529 220.73914,11.1465718 C220.184903,10.6126907 219.401327,10.3457501 218.388411,10.3457501 C217.471054,10.3457501 216.730479,10.5766177 216.166686,11.0383527 C215.602894,11.5000877 215.320997,12.0532077 215.320997,12.6977129 L212.640594,12.7265713 L212.611926,12.639996 C212.545036,11.5048974 213.072994,10.4659936 214.195801,9.52328465 C215.318608,8.58057567 216.768702,8.10922117 218.546082,8.10922117 C220.304351,8.10922117 221.71861,8.55893184 222.788861,9.45835317 C223.859111,10.3577745 224.394236,11.6539993 224.394236,13.3470277 L224.394236,20.8646509 C224.394236,21.4225807 224.422904,21.9612716 224.480238,22.4807235 C224.537573,23.0001754 224.642687,23.5100078 224.79558,24.0102207 L221.885837,24.0102207 Z M217.198713,21.9324131 C218.221185,21.9324131 219.14332,21.6678775 219.96512,21.1388061 C220.786919,20.6097347 221.322044,20.0037075 221.570495,19.3207245 L221.570495,16.7811819 L218.402745,16.7811819 C217.265604,16.7811819 216.355414,17.0697663 215.672173,17.646935 C214.988933,18.2241038 214.647313,18.9022771 214.647313,19.6814549 C214.647313,20.3740575 214.862319,20.9223678 215.29233,21.3263859 C215.722341,21.7304041 216.357802,21.9324131 217.198713,21.9324131 Z" id="Shape"></path>
                    <path d="M227.991997,16.4925975 C227.991997,13.9819134 228.524734,11.957013 229.590206,10.4178962 C230.655679,8.87877953 232.143996,8.10922117 234.055157,8.10922117 C235.039405,8.10922117 235.904206,8.30882537 236.649558,8.70803377 C237.394911,9.10724217 238.020817,9.68200606 238.527275,10.4323255 L238.871284,8.39780556 L241.121676,8.39780556 L241.121676,24.096796 C241.121676,26.0976477 240.54355,27.6343596 239.387297,28.7069315 C238.231045,29.7795035 236.563556,30.3157895 234.384832,30.3157895 C233.639479,30.3157895 232.834403,30.2123801 231.969602,30.0055613 C231.104802,29.7987425 230.342726,29.5173727 229.683375,29.1614519 L230.113387,26.9537814 C230.658068,27.2423658 231.315029,27.4756382 232.084272,27.6535985 C232.853514,27.8315589 233.610812,27.9205391 234.356165,27.9205391 C235.732201,27.9205391 236.733172,27.6055011 237.359077,26.9754252 C237.984983,26.3453493 238.297935,25.3858063 238.297935,24.096796 L238.297935,22.3220021 C237.791477,22.9761267 237.184684,23.4715298 236.477554,23.8082116 C235.770424,24.1448934 234.953403,24.3132343 234.026489,24.3132343 C232.13444,24.3132343 230.655679,23.6230366 229.590206,22.2426413 C228.524734,20.862246 227.991997,19.0465693 227.991997,16.7956111 L227.991997,16.4925975 Z M230.815738,16.7956111 C230.815738,18.3635863 231.135858,19.6237381 231.776097,20.5760665 C232.416336,21.528395 233.405362,22.0045592 234.743175,22.0045592 C235.593642,22.0045592 236.305549,21.8097648 236.878898,21.4201759 C237.452246,21.0305869 237.925259,20.4798717 238.297935,19.7680303 L238.297935,12.5822791 C237.934815,11.918535 237.461802,11.3918685 236.878898,11.0022796 C236.295994,10.6126907 235.593642,10.4178962 234.771842,10.4178962 C233.424474,10.4178962 232.428281,10.9806358 231.783264,12.1061149 C231.138247,13.231594 230.815738,14.6937549 230.815738,16.4925975 L230.815738,16.7956111 Z" id="Shape"></path>
                    <path d="M248.231196,24.0102207 L245.407456,24.0102207 L245.407456,8.39780556 L248.231196,8.39780556 L248.231196,24.0102207 Z M248.231196,4.40091185 L245.407456,4.40091185 L245.407456,1.50063879 L248.231196,1.50063879 L248.231196,4.40091185 Z" id="Shape"></path>
                    <path d="M255.097044,8.39780556 L255.297716,10.7209098 C255.813729,9.89363461 256.461135,9.25153436 257.239933,8.79460908 C258.018732,8.33768381 258.905033,8.10922117 259.898837,8.10922117 C261.571103,8.10922117 262.865915,8.60221949 263.783272,9.58821614 C264.70063,10.5742128 265.159308,12.0964954 265.159308,14.155064 L265.159308,24.0102207 L262.335568,24.0102207 L262.335568,14.2127809 C262.335568,12.8371953 262.065616,11.8608182 261.525713,11.2836494 C260.98581,10.7064806 260.161621,10.4178962 259.053148,10.4178962 C258.183569,10.4178962 257.445383,10.5934517 256.83859,10.9445627 C256.231796,11.2956737 255.751617,11.7886721 255.398052,12.4235577 L255.398052,24.0102207 L252.574311,24.0102207 L252.574311,8.39780556 L255.097044,8.39780556 Z" id="Path"></path>
                    <path d="M275.680252,24.3132343 C273.453749,24.3132343 271.716981,23.5965831 270.469948,22.1632806 C269.222915,20.7299782 268.599399,18.8445602 268.599399,16.5070267 L268.599399,15.8721411 C268.599399,13.6308024 269.242027,11.7766477 270.527283,10.3096771 C271.812539,8.84270648 273.38208,8.10922117 275.235907,8.10922117 C277.309517,8.10922117 278.864725,8.75853604 279.90153,10.0571658 C280.938335,11.3557955 281.456737,13.082492 281.456737,15.2372554 L281.456737,16.7378942 L271.53781,16.7378942 L271.494808,16.8100403 C271.494808,18.3780155 271.838817,19.6501916 272.526836,20.6265688 C273.214854,21.602946 274.265992,22.0911345 275.680252,22.0911345 C276.635833,22.0911345 277.474355,21.954057 278.195818,21.6799018 C278.917281,21.4057466 279.53602,21.0281821 280.052034,20.5472081 L281.155729,22.3941482 C280.601492,22.932839 279.870473,23.3873594 278.962672,23.7577094 C278.05487,24.1280593 276.96073,24.3132343 275.680252,24.3132343 Z M275.235907,10.3457501 C274.251659,10.3457501 273.437026,10.7281245 272.792009,11.4928731 C272.146992,12.2576217 271.752815,13.2364037 271.609478,14.4292192 L271.638146,14.5013653 L278.632996,14.5013653 L278.632996,14.2704978 C278.632996,13.1353992 278.355878,12.1974999 277.801641,11.4568 C277.247404,10.7161001 276.392159,10.3457501 275.235907,10.3457501 Z" id="Shape"></path>
                    <path d="M283.97947,16.4925975 C283.97947,13.9819134 284.512206,11.957013 285.577679,10.4178962 C286.643151,8.87877953 288.136246,8.10922117 290.056963,8.10922117 C290.964765,8.10922117 291.769842,8.27756206 292.472194,8.61424384 C293.174545,8.95092562 293.774172,9.44151908 294.271074,10.0860242 L294.271074,1.50063879 L297.094815,1.50063879 L297.094815,24.0102207 L294.930425,24.0102207 L294.500414,22.0334177 C293.993956,22.7837371 293.36805,23.3512864 292.622698,23.7360655 C291.877345,24.1208447 291.012544,24.3132343 290.028296,24.3132343 C288.136246,24.3132343 286.655096,23.6230366 285.584846,22.2426413 C284.514595,20.862246 283.97947,19.0465693 283.97947,16.7956111 L283.97947,16.4925975 Z M286.803211,16.7956111 C286.803211,18.3732057 287.123331,19.6357624 287.76357,20.5832811 C288.403809,21.5307999 289.397613,22.0045592 290.744981,22.0045592 C291.585892,22.0045592 292.293022,21.8121696 292.866371,21.4273905 C293.439719,21.0426113 293.907954,20.5039204 294.271074,19.8113179 L294.271074,12.5245622 C293.907954,11.8800571 293.43733,11.3678198 292.859204,10.9878504 C292.281077,10.607881 291.585892,10.4178962 290.773649,10.4178962 C289.416724,10.4178962 288.415754,10.9806358 287.770737,12.1061149 C287.12572,13.231594 286.803211,14.6937549 286.803211,16.4925975 L286.803211,16.7956111 Z" id="Shape"></path>
                </g>
            </g>
        </g>
    </g>
</svg>
