<svg xmlns="http://www.w3.org/2000/svg" width="22px" height="10px">
    <path fill-rule="evenodd" style="fill: currentColor;" d="M21.707,5.660 L17.374,9.723 C17.181,9.908 16.924,9.999 16.667,9.999 C16.411,9.999 16.154,9.908 15.961,9.723 C15.571,9.358 15.571,8.764 15.961,8.398 L18.587,5.935 L1.000,5.935 C0.450,5.935 0.000,5.513 0.000,4.997 C0.000,4.740 0.114,4.503 0.294,4.334 C0.474,4.165 0.727,4.059 1.000,4.059 L18.587,4.059 L15.961,1.596 C15.571,1.230 15.571,0.636 15.961,0.270 C16.351,-0.095 16.984,-0.095 17.374,0.270 L21.707,4.334 C22.097,4.700 22.097,5.294 21.707,5.660 Z"/>
</svg>