<svg xmlns="http://www.w3.org/2000/svg" width="23.5px" height="23.5px" viewBox="0 0 23.5 23.5">
    <path fill="#fff" d="M23.1,23.1c-0.3,0.3-0.7,0.4-1.1,0.4c-0.4,0-0.8-0.2-1.1-0.4l-9.2-9.2l-9.2,9.2c-0.6,0.6-1.5,0.6-2.1,0
        C0.2,22.8,0,22.4,0,22c0-0.4,0.2-0.8,0.4-1.1l9.2-9.2L0.4,2.6C-0.1,2-0.1,1,0.4,0.4C0.7,0.2,1.1,0,1.5,0c0.4,0,0.8,0.1,1.1,0.4
        l9.2,9.2l9.2-9.2c0.6-0.6,1.5-0.6,2.1,0c0.3,0.3,0.4,0.7,0.4,1.1c0,0.4-0.2,0.8-0.4,1.1l-9.2,9.2l9.2,9.2
        C23.7,21.5,23.7,22.5,23.1,23.1z"/>
</svg>
