<?xml version="1.0" standalone="no"?>
<!DOCTYPE svg PUBLIC "-//W3C//DTD SVG 1.1//EN" "http://www.w3.org/Graphics/SVG/1.1/DTD/svg11.dtd" >
<svg xmlns="http://www.w3.org/2000/svg" xmlns:xlink="http://www.w3.org/1999/xlink" version="1.1">
<metadata>
Created by FontForge 20170731 at Fri Dec 12 19:18:11 2014
 By Aleksey,,,
Copyright (c) 2014 by . All rights reserved.
</metadata>
<defs>
<font id="PantonIconsAFill-Bold" horiz-adv-x="1062" >
  <font-face 
    font-family="Panton Icons A Fill"
    font-weight="700"
    font-stretch="normal"
    units-per-em="1000"
    panose-1="0 0 5 0 0 0 0 0 0 0"
    ascent="764"
    descent="-236"
    x-height="627"
    cap-height="673"
    bbox="83.7727 -250 1840 750"
    underline-thickness="50"
    underline-position="-200"
    unicode-range="U+0020-007A"
  />
<missing-glyph horiz-adv-x="500" 
d="M410 750v-1000h-317v1000h317zM333 683h-165v-33h65v-37h-66v-33h166v33h-66v37h66v33zM267 554h-100v-104h166v34h-66v70zM233 520v-36h-33v36h33zM333 423h-166v-33h66v-37h-66v-33h100v70h66v33zM333 363h-33v-66h-133v-34h166v100zM333 241h-100v-56h34v23h33v-47
h-100v80h-33v-113h166v113zM333 68h-166v-113h166v113zM300 35v-47h-100v47h100zM333 -68h-166v-33h70l-70 -47v-33h166v33h-102l70 47h32v33z" />
    <glyph glyph-name=".notdef" horiz-adv-x="500" 
d="M410 750v-1000h-317v1000h317zM333 683h-165v-33h65v-37h-66v-33h166v33h-66v37h66v33zM267 554h-100v-104h166v34h-66v70zM233 520v-36h-33v36h33zM333 423h-166v-33h66v-37h-66v-33h100v70h66v33zM333 363h-33v-66h-133v-34h166v100zM333 241h-100v-56h34v23h33v-47
h-100v80h-33v-113h166v113zM333 68h-166v-113h166v113zM300 35v-47h-100v47h100zM333 -68h-166v-33h70l-70 -47v-33h166v33h-102l70 47h32v33z" />
    <glyph glyph-name=".null" horiz-adv-x="0" 
 />
    <glyph glyph-name="nonmarkingreturn" horiz-adv-x="333" 
 />
    <glyph glyph-name="space" unicode=" " horiz-adv-x="0" 
 />
    <glyph glyph-name="A" unicode="A" horiz-adv-x="1255" 
d="M603 -140v172h-349q-64 0 -109 46q-45 45 -45 108v360q0 64 45 109t109 45h746q64 0 110 -45q45 -45 45 -109v-360q0 -63 -45 -108q-46 -46 -110 -46h-349v-172h216q13 0 13 -13v-22q0 -13 -13 -13h-480q-13 0 -13 13v22q0 13 13 13h216z" />
    <glyph glyph-name="B" unicode="B" horiz-adv-x="1290" 
d="M340 658h640q36 0 62 -26t26 -62v-421h-816v421q0 36 25.5 62t62.5 26zM240 101h840l101 -130q35 -46 19.5 -80.5t-73.5 -34.5h-934q-58 0 -73.5 34.5t19.5 80.5zM531 -87h258q13 0 13 14v16q0 13 -13 13h-258q-13 0 -13 -13v-16q0 -14 13 -14z" />
    <glyph glyph-name="C" unicode="C" horiz-adv-x="614" 
d="M224 652h166q50 0 88 -36q36 -36 36 -88v-547q0 -52 -36 -88q-38 -36 -88 -36h-166q-51 0 -87 36q-37 36 -37 88v547q0 52 37 88q36 36 87 36zM235 523h145q13 0 13 13v21q0 14 -13 14h-145q-13 0 -13 -14v-21q0 -13 13 -13zM307 20q-20 0 -34.5 -14.5t-14.5 -34.5
q0 -21 14.5 -35.5t34.5 -14.5q21 0 35.5 14.5t14.5 35.5q0 20 -14.5 34.5t-35.5 14.5z" />
    <glyph glyph-name="D" unicode="D" horiz-adv-x="812" 
d="M219 652h374q49 0 84 -35t35 -84v-568q0 -49 -35 -84t-84 -35h-374q-49 0 -84 35t-35 84v568q0 49 35 84t84 35zM441 -15q-15 15 -35 15t-34 -15q-15 -14 -15 -34t15 -35q14 -14 34 -14t35 14q14 15 14 35t-14 34z" />
    <glyph glyph-name="E" unicode="E" horiz-adv-x="598" 
d="M94 267l279 374q17 23 33 16.5t12 -35.5l-56 -327h133q24 0 31 -14t-8 -34l-279 -374q-17 -23 -32.5 -16.5t-10.5 35.5l54 327h-133q-24 0 -31 14t8 34z" />
    <glyph glyph-name="F" unicode="F" horiz-adv-x="839" 
d="M128 603h155q11 0 19 -8t8 -19v-99h-210v99q0 11 8 19t20 8zM557 603h155q11 0 19 -8t8 -19v-99h-210v99q0 11 8 19t20 8zM100 207v223h210v-223q0 -49 33 -79t77 -30t76.5 30t32.5 79v223h210v-223q0 -76 -27.5 -137.5t-72.5 -99t-102.5 -58t-117 -20.5t-117 20.5
t-102.5 58t-72.5 99t-27.5 137.5z" />
    <glyph glyph-name="G" unicode="G" horiz-adv-x="916" 
d="M458 609q147 0 253 -104q105 -105 105 -254q0 -117 -69 -211l-199 158q15 27 15 53q0 43 -30.5 74t-74.5 31q-2 0 -7.5 -0.5t-6.5 -0.5l-64 245q38 9 78 9zM335 587l64 -247l-200 158q56 59 136 89zM169 462l199 -158q-15 -27 -15 -53q0 -43 30.5 -74t74.5 -31q2 0 7 0.5
t7 0.5l64 -245q-38 -9 -78 -9q-147 0 -253 104q-105 105 -105 254q0 117 69 211zM418 291q17 17 40 17t40 -17t17 -40t-17 -40t-40 -17t-40 17t-17 40t17 40zM581 -85l-64 247l200 -158q-56 -59 -136 -89z" />
    <glyph glyph-name="H" unicode="H" horiz-adv-x="951" 
d="M476 626q155 0 265 -110t110 -266t-110 -266t-265 -110q-156 0 -266 110t-110 266t110 266t266 110zM341 396q-21 0 -36.5 -15t-15.5 -37q0 -21 15.5 -36.5t36.5 -15.5q22 0 37.5 15.5t15.5 36.5q0 22 -15.5 37t-37.5 15zM647 381q-24 24 -56.5 10.5t-32.5 -47.5
q0 -21 15 -36.5t37 -15.5t37 15.5t15 36.5q0 22 -15 37zM702 114q8 10 -3 18l-18 12q-12 6 -18 -4q-66 -100 -187 -100t-187 100q-8 11 -18 4l-18 -12q-11 -8 -4 -18q53 -80 140 -108q87 -30 174 0q86 28 139 108z" />
    <glyph glyph-name="I" unicode="I" horiz-adv-x="1057" 
d="M281 44v403h-181v48h181v177h47v-177h404q7 0 9 -1l179 179l34 -34l-179 -179q1 -2 1 -9v-404h181v-47h-181v-178h-48v178h-403q-18 0 -31 13t-13 31zM328 447v-366l367 366h-367zM362 47h366v367z" />
    <glyph glyph-name="J" unicode="J" horiz-adv-x="1017" 
d="M607 511l-75 75v-312h312l-74 74l33 34l101 -101q13 -13 13 -31t-13 -31l-101 -101l-33 33l74 75h-312v-312l75 74l33 -33l-101 -101q-13 -13 -31 -13t-31 13l-101 101l34 33l75 -74v312h-313l75 -75l-34 -33l-101 101q-13 13 -13 31t13 31l101 101l34 -34l-75 -74h313
v312l-75 -75l-34 34l101 101q13 13 31 13t31 -13l101 -101z" />
    <glyph glyph-name="K" unicode="K" horiz-adv-x="1110" 
d="M206 549h697q44 0 75.5 -31t31.5 -75h-910q0 43 31 74.5t75 31.5zM100 284h910v-183q0 -44 -31.5 -75t-75.5 -31h-697q-44 0 -75 31.5t-31 74.5v183z" />
    <glyph glyph-name="L" unicode="L" horiz-adv-x="1176" 
d="M1055 255q13 6 24.5 -6.5t2.5 -29.5q-45 -84 -131 -123q-88 -39 -177 -20q-90 18 -143 89q-15 20 -33.5 20t-34.5 -20q-53 -71 -143 -89q-90 -19 -176 20q-87 39 -132 123q-9 17 2.5 29.5t24.5 6.5q9 -3 29 -3q16 0 32.5 6t28 12.5t28.5 21.5t24 22t25 26.5t23 24.5
q58 60 125 60q28 0 51.5 -13t37 -29t28 -29t26.5 -13t26.5 13t28 29t37 29t51.5 13q14 0 28 -3t24.5 -7t24 -12.5t21 -14t21 -18t18.5 -17.5t19 -19.5t17 -18.5q58 -62 113 -63q20 0 29 3z" />
    <glyph glyph-name="M" unicode="M" horiz-adv-x="1017" 
d="M625 439l196 197q17 17 37.5 19.5t36 -7.5t25.5 -25t8.5 -34.5t-17.5 -35.5l-196 -196l26 -467q1 -43 -23 -49q-26 -5 -39 35l-102 344l-177 -178l31 -146q4 -19 -12.5 -24.5t-30.5 9.5q-80 97 -111 128q-41 39 -131 114q-13 15 -5 25.5t28 5.5l140 -30l186 186l-347 102
q-38 12 -36 30q3 19 43 22h15z" />
    <glyph glyph-name="N" unicode="N" horiz-adv-x="785" 
d="M151 505v81q0 11 8 19t20 8h357v-715h-357q-12 0 -20 8t-8 20v80h-37q-13 0 -13 13v22q0 13 13 13h37v103h-38q-13 0 -13 13v21q0 13 13 13h38v103h-38q-13 0 -13 13v22q0 13 13 13h38v103h-38q-13 0 -13 13v21q0 13 13 13h38zM584 -102v715q42 0 71.5 -29t29.5 -71v-514
q0 -43 -29.5 -72t-71.5 -29zM203 471v21q0 13 -13 13h-37v-47h37q13 0 13 13zM153 355v-48h37q13 0 13 13v22q0 13 -13 13h-37zM204 170v21q0 13 -13 13h-38v-47h38q13 0 13 13zM204 19v22q0 13 -13 13h-38v-48h38q13 0 13 13z" />
    <glyph glyph-name="O" unicode="O" horiz-adv-x="912" 
d="M670 529q-22 -24 -54.5 -29t-60.5 6.5t-47.5 37.5t-17.5 58q0 44 31 74.5t74 30.5t74 -30.5t31 -74.5q0 -43 -30 -73zM638 646q-18 17 -43 17t-43 -17q-18 -18 -18 -44t18 -43q18 -18 43 -18t43 18q18 17 18 43t-18 44zM463 449q-15 -15 -35 -15t-34 15q-15 14 -15 34
t15 35q14 14 34 14t35 -14q14 -15 14 -35t-14 -34zM632 126l168 -167q50 -50 28 -103q-23 -53 -95 -53h-511q-72 0 -95 53q-22 53 28 103l168 167v240q0 27 -11 35.5t-40 8.5q-13 0 -13 13v22q0 13 14 13q50 -2 74 -23.5t24 -68.5v-9q35 -14 103 3q71 20 110 6q0 47 24 68.5
t74 23.5q14 0 14 -13v-22q0 -13 -13 -13q-29 0 -40 -8.5t-11 -35.5v-240z" />
    <glyph glyph-name="P" unicode="P" horiz-adv-x="1020" 
d="M800 510q120 -120 120 -290q0 -101 -45.5 -188t-127.5 -147q-11 -8 -19 3l-12 17q-8 11 3 18q57 41 93 95l-40 24q-13 5 -5 17l11 19q8 11 18 5l40 -23q32 66 36 136h-46q-13 0 -13 13v22q0 13 13 13h46q-5 72 -36 136l-40 -23q-12 -6 -18 5l-11 19q-8 12 5 17l40 24
q-42 61 -100 99l-23 -40q-8 -11 -18 -4l-19 10q-11 8 -5 18l24 40q-63 32 -137 37v-46q0 -13 -13 -13h-21q-14 0 -14 13v46q-73 -5 -136 -37l23 -40q7 -10 -5 -18l-18 -10q-12 -6 -18 4l-23 40q-59 -38 -100 -99l40 -24q13 -6 5 -17l-11 -19q-6 -11 -18 -5l-40 23
q-31 -59 -37 -136h47q13 0 13 -13v-22q0 -13 -13 -13h-47q6 -76 37 -136l40 23q10 6 18 -5l11 -19q8 -11 -5 -17l-40 -24q35 -53 93 -95q10 -6 3 -18l-13 -17q-8 -10 -18 -3q-82 60 -128 147.5t-46 187.5q0 170 120 290t290 120t290 -120zM510 272q-34 0 -47.5 -32t10.5 -57
t57 -11.5t33 48.5q0 14 -6 24l97 142q7 10 -4 18l-17 12q-11 8 -19 -3l-95 -141h-9z" />
    <glyph glyph-name="Q" unicode="Q" horiz-adv-x="720" 
d="M240 665h241q11 0 19 -8t8 -19v-113q-66 37 -148 37t-148 -37v113q0 11 8 19t20 8zM176 440q76 76 184 76t184 -76t76 -184t-76 -184t-184 -76t-184 76t-76 184t76 184zM491 390l-129 -107l-78 70q-10 11 -18 0l-15 -16q-10 -10 1 -18q14 -12 54 -49.5t54 -49.5l161 134
q10 7 2 18l-14 16q-8 11 -18 2zM481 -153h-241q-12 0 -20 8t-8 19v113q66 -37 148 -37t148 37v-113q0 -11 -8 -19t-19 -8z" />
    <glyph glyph-name="R" unicode="R" horiz-adv-x="918" 
d="M369 596q48 13 98 13q141 0 242 -94q-76 -88 -194 -138q-64 123 -146 219zM471 360q-147 -49 -358 -45q16 88 71.5 158t136.5 105q84 -93 150 -218zM537 334q123 53 205 147q86 -103 84 -234q-135 30 -255 8q-16 41 -34 79zM524 244q-197 -56 -319 -242q-105 112 -97 266
q222 -7 384 49q16 -35 32 -73zM589 209q106 19 234 -10q-11 -78 -54 -144.5t-109 -108.5q-27 142 -71 263zM616 -78q-75 -32 -149 -32q-126 0 -226 80q114 180 301 229q49 -132 74 -277z" />
    <glyph glyph-name="S" unicode="S" horiz-adv-x="978" 
d="M197 431l-79 45q-18 10 -18 24t18 24l171 94q24 14 48 0l101 -55zM538 563l94 52q24 13 48 0l179 -97q19 -10 19 -24t-19 -24l-74 -40zM488 536l247 -133l-248 -136l-241 136zM197 377l241 -136l-99 -55q-17 -8 -34 0l-184 101q-40 24 0 48zM536 240l249 136l72 -39
q40 -24 0 -48l-189 -104q-17 -10 -34 1zM463 -111l-256 127v169l93 -51q21 -10 42 0l121 66v-311zM511 200l117 -67q21 -10 43 0l100 55v-168l-260 -131v311z" />
    <glyph glyph-name="T" unicode="T" horiz-adv-x="885" 
d="M597 491q2 42 35 71q32 29 71 29q40 -2 75 -32q31 -36 31.5 -75t-28.5 -71q-29 -33 -71 -35q-11 1 -14 -9t5 -17l85 -84q25 -25 0 -50l-301 -301q-25 -25 -50 0l-299 299q-24 24 0 49l85 85q8 8 16.5 5t9.5 -14q3 -43 35 -71.5t71.5 -28t74.5 31.5q31 36 32 75.5
t-27.5 71.5t-71.5 34q-11 1 -14 9.5t4 16.5l84 85q25 25 50 1l86 -85q7 -7 16.5 -3.5t9.5 13.5z" />
    <glyph glyph-name="U" unicode="U" horiz-adv-x="1028" 
d="M815 99l-52 -32q-12 -6 -18 5l-11 18q-6 12 5 18q9 6 21.5 13t30.5 17t30 17q15 9 32 4q17 -3 27 -19l51 -80q6 -11 -4 -18l-18 -11q-12 -7 -18 4l-30 51q-36 -124 -132 -193.5t-209 -66.5q-113 -3 -209 66.5t-132 193.5l-30 -51q-6 -11 -18 -4l-18 11q-10 7 -4 18l51 80
q10 16 27 19q17 5 32 -4q12 -7 30 -17t30.5 -17t21.5 -13q11 -6 5 -18l-11 -18q-6 -11 -18 -5l-52 32q29 -103 105 -162q74 -58 169 -64v443h-116q-13 0 -13 13v22q0 13 13 13h116v60q-43 8 -70.5 42t-27.5 78q0 50 36 86t86 36q51 0 87 -36q35 -37 35 -86q0 -44 -27.5 -78
t-70.5 -42v-60h116q13 0 13 -13v-22q0 -13 -13 -13h-116v-442q96 8 168.5 67t99.5 158zM471 597q-22 -22 -22 -53t22 -53q21 -22 52 -22t53 22t22 53t-22 53q-22 21 -53 21t-52 -21z" />
    <glyph glyph-name="V" unicode="V" horiz-adv-x="747" 
d="M345 654q26 31 67.5 13.5t39.5 -58.5q2 -39 -39.5 -57t-67.5 13q-19 18 -19 44t19 45zM641 -22h-505q-32 0 -17 30q68 128 68 290q0 60 22 106.5t58 71t78.5 35.5t85.5 0t79 -35.5t58 -71t22 -106.5q0 -162 68 -290q15 -30 -17 -30zM288 -70h201q-8 -36 -37.5 -56
t-63 -20t-63 20t-37.5 56z" />
    <glyph glyph-name="W" unicode="W" horiz-adv-x="951" 
d="M491 640l49 -48q11 -11 29 -9l67 9q18 2 19 -14l12 -67q5 -18 18 -24l60 -32q14 -9 7 -24l-30 -60q-6 -15 0 -31l30 -60q7 -14 -7 -24l-60 -32q-13 -6 -18 -24l-12 -67q-1 -16 -19 -14l-67 9q-17 3 -29 -9l-49 -48q-13 -10 -25 0l-49 48q-14 12 -28 9l-68 -9
q-16 -1 -20 14l-11 67q-4 16 -18 24l-60 32q-15 9 -8 24l30 60q7 16 0 31l-30 60q-7 15 8 24l60 32q14 7 18 24l11 67q3 16 20 14l68 -9q15 -1 28 9l49 48q12 10 25 0zM290 -97l102 180l-85 -12q-17 -2 -31.5 8.5t-17.5 27.5l-13 81l-5 3l-129 -149q-11 -12 -6.5 -21.5
t20.5 -8.5l101 2l31 -107q5 -16 15 -17t18 13zM848 42l-128 147l-9 -4l-15 -81q-3 -17 -17.5 -27.5t-31.5 -7.5l-82 15l103 -181q8 -14 18 -13t15 17l32 107l101 -2q16 -1 20 8.5t-6 21.5z" />
    <glyph glyph-name="X" unicode="X" horiz-adv-x="1020" 
d="M484 577l-86 -148q30 11 57 16l117 202q11 17 30 17h301q15 0 20 -8.5t-2 -21.5l-174 -301q66 -84 66 -190q0 -126 -89 -217q-91 -89 -217 -89q-127 0 -216 89q-90 90 -90 217q0 115 75 201l-167 290q-7 13 -2 21.5t20 8.5h286q19 0 30 -17zM554 -3v272q0 15 -14 15h-21
q-8 0 -20 -6l-83 -48q-13 -7 -6 -19l10 -19q7 -13 22 -6l59 33v-222q0 -14 15 -14h24q14 0 14 14z" />
    <glyph glyph-name="Y" unicode="Y" horiz-adv-x="857" 
d="M580 432q11 14 25 8.5t18 -24.5q12 -65 75 -140q58 -70 64 -140q7 -100 -51 -174.5t-153 -106.5q-88 -33 -188.5 -15t-167.5 87q-50 51 -75.5 121.5t-19.5 141.5q1 18 14 20.5t24 -12.5q37 -45 78 -63q19 -9 34 7q15 15 6 34q-36 74 -40 150q-4 127 72 221t199 124
q16 4 22.5 -6t-1.5 -25q-31 -55 -42 -127q-16 -104 29 -171q17 -26 38 -19q20 6 19 37q-3 36 21 72z" />
    <glyph glyph-name="Z" unicode="Z" horiz-adv-x="961" 
d="M429 438v186q62 11 125 0v-186q-63 23 -125 0zM381 613v-198q-29 -18 -56 -56h-198q28 91 95.5 158.5t158.5 95.5zM602 415v198q91 -28 158.5 -95.5t95.5 -158.5h-198q-27 38 -56 56zM302 186h-186q-11 62 0 125h186q-23 -63 0 -125zM867 186h-186q23 63 0 125h186
q11 -62 0 -125zM381 82v-197q-91 27 -158.5 94.5t-95.5 158.5h198q23 -33 56 -56zM658 138h198q-28 -91 -95.5 -158.5t-158.5 -94.5v197q33 23 56 56zM554 59v-186q-63 -9 -125 0v186q62 -23 125 0z" />
    <glyph glyph-name="a" unicode="a" horiz-adv-x="815" 
d="M657 183l-232 -339q-7 -10 -19 -10t-19 10l-235 343q-52 76 -52 176q0 127 90 217t217 90t218 -90q90 -90 90 -217q0 -95 -58 -180zM529 485q-52 50 -122 50q-71 0 -121 -50q-51 -51 -51 -122t51 -122q50 -51 121 -51t122 51t51 122t-51 122zM407 487q51 0 89 -36
q36 -37 36 -88q0 -52 -36 -88q-37 -37 -89 -37q-51 0 -87 37q-37 36 -37 88q0 51 37 88q36 36 87 36z" />
    <glyph glyph-name="b" unicode="b" horiz-adv-x="1158" 
d="M491 652h451q48 0 82 -34t34 -82v-275q0 -104 -122 -121v-91q0 -20 -16.5 -27.5t-30.5 6.5l-126 117h-272q-47 0 -81 34q-35 35 -35 82v275q0 47 35 82q34 34 81 34zM327 439v-178q0 -67 49 -115q48 -49 115 -49h224q0 -50 -28 -82t-75 -32h-256l-99 -105
q-14 -15 -30.5 -7.5t-16.5 27.5v77q-50 6 -80 35t-30 76v249q0 43 30 73.5t73 30.5h124z" />
    <glyph glyph-name="c" unicode="c" horiz-adv-x="833" 
d="M733 423v-443q0 -50 -35 -85q-37 -35 -85 -35h-392q-50 0 -85 35q-36 36 -36 85v552q0 49 36 85q35 35 85 35h282v-185q0 -19 13 -31.5t31 -12.5h186zM546 643l178 -177h-178v177zM252 280h329q13 0 13 13v21q0 14 -13 14h-329q-13 0 -13 -14v-21q0 -13 13 -13zM252 135
h329q13 0 13 13v21q0 13 -13 13h-329q-13 0 -13 -13v-21q0 -13 13 -13zM252 -12h329q13 0 13 13v21q0 13 -13 13h-329q-13 0 -13 -13v-21q0 -13 13 -13z" />
    <glyph glyph-name="d" unicode="d" horiz-adv-x="833" 
d="M733 432v-452q0 -50 -35 -85q-37 -35 -86 -35h-392q-50 0 -85 35t-35 85v552q0 50 35 85t85 35h292v-177q0 -18 12.5 -30.5t30.5 -12.5h178zM555 634l159 -159h-159v159z" />
    <glyph glyph-name="e" unicode="e" horiz-adv-x="1014" 
d="M425 621h164q37 -3 54.5 -10.5t28.5 -27.5q10 -20 22 -57q2 -8 4 -14.5t3.5 -12.5t2.5 -8h99q46 0 78.5 -32.5t32.5 -79.5v-375q0 -47 -32.5 -80t-78.5 -33h-591q-46 0 -79 33q-33 34 -33 80v375q0 46 33 79t79 33h98q2 5 10 32.5t11 34.5q3 8 12 25q11 20 28.5 27.5
t53.5 10.5zM507 412q-85 0 -143 -60q-60 -60 -60 -144t60 -143q61 -61 143 -59q84 0 144 60t59 144q-2 84 -60 142q-60 58 -143 60zM508 366q64 0 110 -46t46 -110q0 -65 -46 -111q-47 -47 -110 -47q-64 0 -111 47t-47 111q0 63 47 110q46 46 111 46z" />
    <glyph glyph-name="f" unicode="f" horiz-adv-x="948" 
d="M229 596h490q53 0 91 -38t38 -91v-300q0 -53 -38 -91t-91 -38h-295l-137 -128q-17 -15 -35.5 -7t-18.5 31v101q-61 7 -97 41.5t-36 90.5v300q0 53 38 91t91 38z" />
    <glyph glyph-name="g" unicode="g" horiz-adv-x="948" 
d="M229 606h490q53 0 91 -38t38 -91v-300q0 -53 -38 -91t-91 -38h-295l-137 -128q-17 -15 -35.5 -7t-18.5 31v101q-61 7 -97 41.5t-36 90.5v300q0 53 38 91t91 38zM256 435h435q13 0 13 13v21q0 13 -13 13h-435q-13 0 -13 -13v-21q0 -13 13 -13zM256 303h435q13 0 13 13v22
q0 13 -13 13h-435q-13 0 -13 -13v-22q0 -13 13 -13zM256 172h287q13 0 13 13v21q0 13 -13 13h-287q-13 0 -13 -13v-21q0 -13 13 -13z" />
    <glyph glyph-name="h" unicode="h" horiz-adv-x="962" 
d="M595 427l-315 -314q-19 -19 -22 -41.5t8.5 -39t28.5 -27.5t39.5 -8t40.5 21l397 397q50 55 39.5 112t-60.5 83q-29 20 -71 12.5t-75 -40.5l-400 -400q-31 -31 -45 -65.5t-12 -66.5t15.5 -61.5t36 -52t52.5 -36t62 -15t66.5 12.5t64.5 44l319 319q9 9 18 0l16 -15
q10 -10 0 -19l-319 -319q-60 -60 -132.5 -69.5t-128 26t-91.5 90t-26.5 127.5t70.5 134l401 400q34 34 73 47.5t73.5 6t66 -26t50 -49.5t25.5 -65.5t-6.5 -74t-47.5 -73.5l-397 -397q-31 -31 -69 -35t-67 15t-48 47.5t-14.5 66.5t36.5 68l314 315q9 9 19 0l15 -16
q11 -7 0 -18z" />
    <glyph glyph-name="i" unicode="i" horiz-adv-x="990" 
d="M121 28l315 315q-22 79 1 150t88 115q55 36 122 38t130 -31q10 -5 9.5 -14.5t-9.5 -15.5l-119 -73q-24 -16 -21 -36q10 -70 72 -124q14 -12 40 2l115 65q9 5 17.5 0t8.5 -15q0 -120 -84 -182q-86 -65 -217 -38l-310 -310q-24 -24 -56 -24t-58 19t-46 46.5t-19.5 58.5
t21.5 54zM214 -13q-9 0 -16 -7t-7 -16q0 -10 7 -16.5t16 -6.5q11 0 18 6.5t7 16.5q0 9 -7.5 16t-17.5 7z" />
    <glyph glyph-name="j" unicode="j" 
d="M709 126l255 -255q16 -17 0 -33l-15 -15q-16 -16 -32 0l-255 255q-94 -78 -218 -78q-142 0 -243 101t-101 243t101 243q100 100 243 100t243 -100t100 -243q0 -124 -78 -218z" />
    <glyph glyph-name="k" unicode="k" 
d="M709 126l255 -255q16 -17 0 -33l-15 -15q-16 -16 -32 0l-256 256q-92 -79 -218 -79q-141 0 -242 101t-101 243t101 243q100 100 242 100q144 0 244 -100t100 -243q0 -122 -78 -218zM592 333v22q0 13 -13 13h-113v112q0 13 -13 13h-22q-13 0 -13 -13v-112h-112
q-13 0 -13 -13v-22q0 -13 13 -13h112v-113q0 -13 13 -13h22q13 0 13 13v113h113q13 0 13 13z" />
    <glyph glyph-name="l" unicode="l" 
d="M709 126l255 -255q16 -17 0 -33l-15 -15q-16 -16 -32 0l-256 256q-92 -79 -217 -79q-142 0 -243 101t-101 243t101 243q100 100 243 100t243 -100t100 -243q0 -122 -78 -218zM593 333v22q0 13 -13 13h-273q-13 0 -13 -13v-22q0 -13 13 -13h273q13 0 13 13z" />
    <glyph glyph-name="m" unicode="m" horiz-adv-x="1025" 
d="M376 -102v350l107 118q46 51 72 110q24 59 48 151q4 17 14.5 25.5t23 5.5t22.5 -15q24 -25 27 -84q1 -58 -9 -110q-12 -55 -27 -88q-4 -9 1.5 -16t14.5 -7h190q27 2 42 -21.5t11 -51.5t-24 -39q-8 -5 -6.5 -15.5t10.5 -13.5q31 -10 31 -55q0 -46 -37 -56q-9 -2 -12 -11
t4 -16q16 -14 18.5 -36t-9 -40t-33.5 -19q-9 -1 -12 -11.5t5 -16.5q25 -19 15 -55q-12 -35 -45 -35h-213q-43 0 -117 25q-75 26 -112 27zM130 313h177q13 0 21.5 -8t8.5 -21v-405q0 -13 -8.5 -21t-21.5 -8h-177q-13 0 -21.5 8t-8.5 21v405q0 13 8.5 21t21.5 8z" />
    <glyph glyph-name="n" unicode="n" horiz-adv-x="1098" 
d="M172 -1l254 122q27 13 2 31q-41 28 -61 58.5t-26 75.5l-20 181q-11 98 59 153q69 54 169 54q99 0 170 -54q70 -55 59 -153l-21 -181q-9 -79 -83 -132q-29 -20 -1 -33l253 -122q33 -16 52.5 -44t20.5 -54.5t-22.5 -46t-68.5 -19.5h-718q-44 0 -67.5 19.5t-23 46t20 54.5
t52.5 44z" />
    <glyph glyph-name="o" unicode="o" horiz-adv-x="1196" 
d="M673 111l83 -40q-43 -56 -43 -128q0 -63 36 -118h-559q-44 0 -67.5 19.5t-23 46t20 54.5t52.5 44l254 122q27 13 2 31q-41 28 -61 58.5t-26 75.5l-20 181q-11 98 59 153q69 54 169 54q99 0 170 -54q70 -55 59 -153l-21 -181q-9 -79 -83 -132q-29 -20 -1 -33zM928 -225
q70 0 119 49t49 119t-49 119t-119 49q-69 0 -118 -49q-50 -50 -50 -119t50 -119q49 -49 118 -49zM928 -25l56 55q7 10 18 1l15 -15q8 -10 -1 -20l-54 -54l54 -56q9 -9 1 -18l-15 -15q-9 -8 -18 1l-56 54l-56 -54q-9 -9 -18 -1l-15 15q-8 9 1 18l54 56l-54 54q-9 10 -1 20
l15 15q9 8 18 -1z" />
    <glyph glyph-name="p" unicode="p" horiz-adv-x="1196" 
d="M673 111l83 -40q-43 -56 -43 -128q0 -63 36 -118h-559q-44 0 -67.5 19.5t-23 46t20 54.5t52.5 44l254 122q27 13 2 31q-41 28 -61 58.5t-26 75.5l-20 181q-11 98 59 153q69 54 169 54q99 0 170 -54q70 -55 59 -153l-21 -181q-9 -79 -83 -132q-29 -20 -1 -33zM928 -225
q70 0 119 49t49 119t-49 119t-119 49q-69 0 -118 -49q-50 -50 -50 -119t50 -119q49 -49 118 -49zM1022 7l-81 -153q-10 -21 -33 -22.5t-36 18.5l-50 76q-6 12 4 18l17 11q11 8 17 -3l45 -69l77 145q5 12 16 5l19 -10q13 -5 5 -16z" />
    <glyph glyph-name="q" unicode="q" horiz-adv-x="1196" 
d="M673 111l83 -40q-43 -56 -43 -128q0 -63 36 -118h-559q-44 0 -67.5 19.5t-23 46t20 54.5t52.5 44l254 122q27 13 2 31q-41 28 -61 58.5t-26 75.5l-20 181q-11 98 59 153q69 54 169 54q99 0 170 -54q70 -55 59 -153l-21 -181q-9 -79 -83 -132q-29 -20 -1 -33zM928 -225
q70 0 119 49t49 119t-49 119t-119 49q-69 0 -118 -49q-50 -50 -50 -119t50 -119q49 -49 118 -49zM950 -36h75q12 0 12 -12v-20q0 -13 -13 -13h-73l-1 -74q0 -7 -2 -9.5t-10 -2.5h-20q-8 0 -10 2.5t-2 9.5q0 45 -1 74q-29 1 -74 1q-7 0 -9.5 2t-2.5 10v20q0 8 2.5 10t9.5 2
l74 1v73q0 13 13 13h20q8 0 10 -2.5t2 -9.5v-75z" />
    <glyph glyph-name="r" unicode="r" horiz-adv-x="1132" 
d="M726 92l233 -99q33 -14 53.5 -42.5t21.5 -56t-23 -48.5t-71 -21h-746q-47 0 -71 21t-23 48.5t21.5 56t53.5 42.5l233 99q13 5 11 18.5t-17 14.5q-99 8 -181 54q-16 7 -16 26q0 11 6 18q63 87 103 208q16 47 39 96q34 76 81.5 114.5t132.5 40.5q84 -2 132.5 -40.5
t82.5 -114.5q13 -29 37.5 -95t44.5 -107q26 -57 59 -102q6 -7 6 -18q0 -19 -16 -26q-82 -46 -181 -54q-15 -1 -17 -14.5t11 -18.5z" />
    <glyph glyph-name="s" unicode="s" horiz-adv-x="1511" 
d="M172 -11l254 122q27 13 2 31q-41 28 -61 58.5t-26 75.5l-20 181q-11 98 59 153q69 54 169 54q99 0 170 -54q70 -55 59 -153l-21 -181q-9 -79 -83 -132q-29 -20 -1 -33l253 -122q33 -16 52.5 -44t20.5 -54.5t-22.5 -46t-68.5 -19.5h-718q-44 0 -67.5 19.5t-23 46t20 54.5
t52.5 44zM1203 190l162 -78q21 -10 33.5 -28t12.5 -35t-15 -29.5t-43 -12.5h-368q-17 13 -39 24l-100 48q14 22 38 33l162 78q17 8 1 20q-50 35 -56 85l-13 116q-8 62 38 97t108 35q63 0 109 -35q44 -35 38 -97l-14 -116q-6 -52 -53 -84q-17 -14 -1 -21z" />
    <glyph glyph-name="t" unicode="t" horiz-adv-x="1939" 
d="M601 -11l254 122q27 13 2 31q-41 28 -61 58.5t-26 75.5l-20 181q-11 98 59 153q69 54 169 54t170 -54q70 -55 59 -153l-21 -181q-9 -79 -83 -132q-29 -20 -1 -33l253 -122q33 -16 52.5 -44t20.5 -54.5t-22.5 -46t-68.5 -19.5h-718q-44 0 -67.5 19.5t-23 46t20 54.5
t52.5 44zM691 85l-110 -54q-19 -10 -40 -24h-379q-30 0 -46 13.5t-15 31t14 36t34 27.5l151 64q8 4 6.5 12.5t-10.5 8.5q-62 6 -117 35q-10 4 -10 17q0 8 4 12q26 36 53 99q21 51 39 98q16 42 51 70t86 28t86.5 -27.5t51.5 -70.5q14 -41 39 -98q25 -62 52 -99q4 -4 4 -12
q0 -13 -10 -17q-55 -29 -117 -35q-9 0 -10.5 -8.5t6.5 -12.5l151 -64q23 -11 36 -30zM1632 190l162 -78q21 -10 33.5 -28t12.5 -35t-15 -29.5t-43 -12.5h-368q-16 13 -39 24l-100 48q14 22 38 33l162 78q17 8 1 20q-50 35 -56 85l-13 116q-8 62 38 97t108 35q63 0 109 -35
q44 -35 38 -97l-14 -116q-6 -52 -53 -84q-17 -14 -1 -21z" />
    <glyph glyph-name="u" unicode="u" horiz-adv-x="1923" 
d="M596 -11l254 122q27 13 2 31q-41 28 -61 58.5t-26 75.5l-20 181q-11 98 59 153q69 54 169 54q99 0 170 -54q70 -55 59 -153l-21 -181q-9 -79 -83 -132q-29 -20 -1 -33l253 -122q33 -16 52.5 -44t20.5 -54.5t-22.5 -46t-68.5 -19.5h-718q-44 0 -67.5 19.5t-23 46t20 54.5
t52.5 44zM158 112l162 78q16 7 -1 21q-47 32 -53 84l-14 116q-6 62 39 97q44 35 108 35q62 0 108 -35t38 -97l-13 -116q-6 -50 -56 -85q-16 -12 1 -20l162 -78q24 -11 38 -33l-100 -48q-23 -11 -39 -24h-368q-28 0 -43 12.5t-15 29.5t12.5 35t33.5 28zM1627 190l162 -78
q21 -10 33.5 -28t12.5 -35t-15 -29.5t-43 -12.5h-368q-17 13 -39 24l-100 48q14 22 38 33l162 78q17 8 1 20q-50 35 -56 85l-13 116q-8 62 38 97t108 35q63 0 109 -35q44 -35 38 -97l-14 -116q-6 -52 -53 -84q-17 -14 -1 -21z" />
    <glyph glyph-name="v" unicode="v" horiz-adv-x="1124" 
d="M850 614h60q53 0 83 -28t30.5 -69t-16.5 -87q-46 -112 -178 -198q-29 -78 -94 -126t-148 -54v-140h106q13 0 13 -13v-21q0 -13 -13 -13h-261q-13 0 -13 13v21q0 13 13 13h107v140q-84 6 -148.5 53.5t-93.5 125.5q-133 85 -180 199q-17 46 -16.5 87t30.5 69t83 28h62v42
q0 18 12.5 31t31.5 13h486q18 0 31 -13t13 -31v-42zM161 448q33 -79 118 -146q-3 25 -3 53v211h-62q-35 0 -51.5 -18.5t-15.5 -44t14 -55.5zM963 448q13 30 14 55.5t-15.5 44t-51.5 18.5h-60v-211q0 -33 -4 -52q86 66 117 145zM317 -175h491q13 0 13 -13v-22q0 -13 -13 -13
h-491q-13 0 -13 13v22q0 13 13 13z" />
    <glyph glyph-name="w" unicode="w" horiz-adv-x="801" 
d="M358 503h300q18 0 31 -13t12 -32q0 -84 -28.5 -208.5t-57.5 -243.5t-29 -188q0 -18 -13 -30.5t-31 -12.5h-283q-17 0 -30 12.5t-14 30.5q0 80 -57 308.5t-58 331.5q0 19 13 32t31 13h166v85l-176 101q-5 3 -7 6t0 8t4.5 9t8.5 13q8 11 18 5l177 -102q23 -14 23 -38v-87z
M310 455h-162q3 -79 23 -180q67 -34 139 -19v199zM636 299q15 77 18 156h-296v-185q3 1 9.5 3.5t15.5 5.5t18 7q35 14 44 17q13 5 42 12q65 16 149 -16z" />
    <glyph glyph-name="x" unicode="x" horiz-adv-x="678" 
d="M578 414v-335q0 -57 -20.5 -103t-54 -74.5t-76.5 -44t-88 -15t-88 15.5t-76.5 43.5t-54 74.5t-20.5 103v335q0 64 26.5 114.5t68.5 76.5t93 38t102 0t93 -38t68.5 -76.5t26.5 -114.5zM363 358v161q0 13 -13 13h-22q-13 0 -13 -13v-161q0 -14 13 -14h22q13 0 13 14z" />
    <glyph glyph-name="y" unicode="y" horiz-adv-x="1025" 
d="M397 406q-24 44 0 96q4 10 25 46q28 46 26 75q-1 26 -35 70q-8 11 2 18l17 13q12 8 19 -2q45 -60 46 -98q2 -42 -35 -101q-21 -34 -26 -64q-4 -20 5 -36q5 -13 -7 -17l-20 -8q-12 -5 -17 8zM535 406q-14 45 -7.5 74t32.5 68q28 46 26 75q-1 26 -35 70q-7 11 3 18l17 13
q10 9 18 -2q45 -60 46 -98q2 -42 -35 -101q-12 -20 -17.5 -32t-9 -32.5t5.5 -35.5q5 -13 -7 -17l-20 -8q-12 -5 -17 8zM810 58h-55q-39 -95 -127.5 -139.5t-180.5 -23.5q-95 17 -160.5 94.5t-65.5 196.5v126q0 19 12.5 31.5t31.5 12.5h469q19 0 31.5 -12.5t12.5 -31.5v-25
h32q54 0 85 -36q31 -35 31 -78q0 -44 -31 -79q-31 -36 -85 -36zM778 239v-53q0 -40 -8 -80h40q43 0 61 33q16 33 0 67q-18 33 -61 33h-32zM113 -159h773q13 0 13 -13v-22q0 -13 -13 -13h-773q-13 0 -13 13v22q0 13 13 13z" />
    <glyph glyph-name="z" unicode="z" horiz-adv-x="1023" 
d="M263 448h559q16 0 22.5 12t0 24.5t-23.5 12.5h-592q0 61 50 102q49 40 114 28l463 -85q67 -12 67 -78v-523q0 -17 -12.5 -29.5t-29.5 -12.5h-615q-69 0 -117 49q-49 49 -49 117v221q0 73 45 117.5t118 44.5zM224 204q-14 -14 -14 -33.5t14 -33.5q14 -13 33 -13t33 13
t14.5 33t-13.5 34q-13 14 -33 14t-34 -14z" />
    <glyph glyph-name="NULL" horiz-adv-x="0" 
 />
  </font>
</defs>
</svg>
