<?xml version="1.0" standalone="no"?>
<!DOCTYPE svg PUBLIC "-//W3C//DTD SVG 1.1//EN" "http://www.w3.org/Graphics/SVG/1.1/DTD/svg11.dtd" >
<svg xmlns="http://www.w3.org/2000/svg" xmlns:xlink="http://www.w3.org/1999/xlink" version="1.1">
<metadata>
Created by FontForge 20170731 at Fri Dec 12 19:18:24 2014
 By Aleksey,,,
Copyright (c) 2014 by . All rights reserved.
</metadata>
<defs>
<font id="PantonIconsDFill-Bold" horiz-adv-x="1197" >
  <font-face 
    font-family="Panton Icons D Fill"
    font-weight="700"
    font-stretch="normal"
    units-per-em="1000"
    panose-1="0 0 5 0 0 0 0 0 0 0"
    ascent="750"
    descent="-250"
    x-height="621"
    cap-height="693"
    bbox="93 -250 1129 754"
    underline-thickness="50"
    underline-position="-200"
    unicode-range="U+0020-007A"
  />
<missing-glyph horiz-adv-x="500" 
d="M410 750v-1000h-317v1000h317zM333 683h-165v-33h65v-37h-66v-33h166v33h-66v37h66v33zM267 554h-100v-104h166v34h-66v70zM233 520v-36h-33v36h33zM333 423h-166v-33h66v-37h-66v-33h100v70h66v33zM333 363h-33v-66h-133v-34h166v100zM333 241h-100v-56h34v23h33v-47
h-100v80h-33v-113h166v113zM333 68h-166v-113h166v113zM300 35v-47h-100v47h100zM333 -68h-166v-33h70l-70 -47v-33h166v33h-102l70 47h32v33z" />
    <glyph glyph-name=".notdef" horiz-adv-x="500" 
d="M410 750v-1000h-317v1000h317zM333 683h-165v-33h65v-37h-66v-33h166v33h-66v37h66v33zM267 554h-100v-104h166v34h-66v70zM233 520v-36h-33v36h33zM333 423h-166v-33h66v-37h-66v-33h100v70h66v33zM333 363h-33v-66h-133v-34h166v100zM333 241h-100v-56h34v23h33v-47
h-100v80h-33v-113h166v113zM333 68h-166v-113h166v113zM300 35v-47h-100v47h100zM333 -68h-166v-33h70l-70 -47v-33h166v33h-102l70 47h32v33z" />
    <glyph glyph-name=".null" horiz-adv-x="0" 
 />
    <glyph glyph-name="nonmarkingreturn" horiz-adv-x="333" 
 />
    <glyph glyph-name="space" unicode=" " horiz-adv-x="0" 
 />
    <glyph glyph-name="A" unicode="A" horiz-adv-x="991" 
d="M513 694l352 -154q26 -11 26 -41v-512q0 -29 -26 -40l-352 -154q-17 -8 -35 0l-351 154q-27 12 -27 40v512q0 29 27 41l351 154q18 8 35 0zM816 515l-319 -139l-321 136q-17 7 -28.5 -1t-9 -22t18.5 -21l314 -137v-474q0 -17 12.5 -24.5t25 0t12.5 24.5v474l316 138
q16 7 17 21.5t-10.5 23t-27.5 1.5z" />
    <glyph glyph-name="B" unicode="B" horiz-adv-x="1087" 
d="M544 693q183 0 313 -130t130 -313q0 -184 -130 -314t-313 -130q-117 -3 -221 58t-165 165t-58 221q0 183 130 313t314 130zM546 535h-5q-17 0 -23.5 -6.5t-6.5 -23.5v-5q0 -18 6.5 -24t23.5 -6h5q17 0 23.5 6t6.5 24v5q0 17 -7 23.5t-23 6.5zM453 393q-13 0 -13 -13v-25
q0 -13 13 -13h65v-288h-69q-14 0 -14 -14v-24q0 -14 14 -14h189q14 0 14 14v24q0 14 -14 14h-69v326q0 13 -13 13h-103z" />
    <glyph glyph-name="C" unicode="C" horiz-adv-x="935" 
d="M227 -181l-114 114q-28 31 0 63l285 285q-56 68 -56 156q0 102 72 174t174 72t175 -72q72 -72 72 -174t-72 -174q-73 -72 -175 -72q-86 0 -156 56l-166 -166l111 -112q11 -7 0 -18l-15 -15q-9 -9 -18 0l-112 111l-83 -83l112 -111q9 -9 0 -19l-15 -15q-10 -9 -19 0z
M636 487q16 -17 39 -17t40 17t17 40t-17 39t-40 16t-39 -16t-16 -39t16 -40z" />
    <glyph glyph-name="D" unicode="D" horiz-adv-x="1138" 
d="M157 86l137 137q35 35 78.5 47t82 2.5t71.5 -35.5l58 59q-26 33 -35.5 71t2 81t47.5 79l138 138q20 20 45 34q79 43 161 -3q70 -39 92 -112q28 -95 -47 -170l-138 -138q-36 -36 -79 -47.5t-81 -2t-71 35.5l-58 -58q25 -33 34.5 -71.5t-2 -81.5t-47.5 -79l-137 -137
q-30 -30 -65 -43.5t-67.5 -10.5t-63 17.5t-54 38t-38 54t-17.5 63t10.5 67.5t43.5 65zM766 410l-115 -114q32 -28 80 -25.5t85 39.5l137 138q35 34 39 76t-16 76.5t-54 53.5q-32 22 -75.5 16t-76.5 -39l-138 -137q-37 -37 -39.5 -85.5t25.5 -79.5l114 115q9 10 19 0l15 -15
q9 -9 0 -19zM380 91l112 113q-31 28 -79 25.5t-85 -39.5l-138 -138q-22 -22 -31.5 -47.5t-7.5 -49.5t12.5 -46.5t27.5 -39.5t39.5 -27.5t46.5 -12.5t49.5 7.5t47.5 31.5l138 138q37 37 39.5 85t-25.5 79l-113 -112q-7 -10 -18 0l-15 15q-10 11 0 18z" />
    <glyph glyph-name="E" unicode="E" horiz-adv-x="934" 
d="M688 501v-156q63 -11 104 -58q42 -50 42 -113v-203q0 -72 -51 -123q-52 -50 -122 -50h-388q-70 0 -122 50q-51 51 -51 123v203q0 64 42 113q41 47 104 58v156q-1 101 66 160.5t155 56.5q88 3 155 -56.5t66 -160.5zM294 501v-154h346v154q0 54 -25.5 94t-64 58t-83.5 18
t-83.5 -18t-64 -58t-25.5 -94zM435 154q-14 -14 -14 -33q0 -27 22 -40v-84q0 -13 13 -13h22q13 0 13 13v84q22 13 22 40q0 30 -28.5 42t-49.5 -9z" />
    <glyph glyph-name="F" unicode="F" horiz-adv-x="933" 
d="M247 417l39 -68h374q72 0 123 -51q50 -52 50 -122v-203q0 -71 -50 -123q-52 -50 -123 -50h-388q-71 0 -121 50q-51 51 -51 123v203q0 60 38 107.5t96 60.5l-28 49q-24 41 -30.5 82.5t3 76.5t29.5 67t49.5 53.5t63.5 36.5t71.5 16t72 -8t67.5 -35.5t56 -67.5l64 -112
q7 -10 -5 -18l-18 -10q-12 -6 -18 4l-64 112q-23 41 -58 63t-71 23.5t-72.5 -9.5t-64 -37t-44.5 -57.5t-15 -73t25 -82.5zM434 156q-14 -14 -14 -33q0 -26 23 -40v-84q0 -13 13 -13h21q13 0 13 13v84q23 14 23 40q0 30 -29.5 42t-49.5 -9z" />
    <glyph glyph-name="G" unicode="G" horiz-adv-x="1087" 
d="M857 563q130 -130 130 -313q4 -179 -130.5 -313.5t-313.5 -130.5q-117 -2 -221 58.5t-164.5 164t-57.5 221.5q0 183 130 313q129 130 313 130t314 -130zM567 226h180q13 0 13 13v21q0 13 -13 13h-180v181q0 13 -13 13h-22q-13 0 -13 -13v-181h-180q-13 0 -13 -13v-21
q0 -13 13 -13h180v-180q0 -13 13 -13h22q13 0 13 13v180z" />
    <glyph glyph-name="H" unicode="H" horiz-adv-x="987" 
d="M581 591l64 -84q7 -10 -2 -18l-17 -13q-12 -8 -19 2l-96 127q-8 11 -5.5 24t13.5 20l132 82q10 7 18 -4l11 -19q7 -10 -4 -17l-86 -54q116 -20 201 -97q86 -79 116 -190q33 -126 -13 -244q-46 -120 -154 -190q-9 -7 -17 4l-12 18q-7 10 4 18q95 62 135 167q40 103 11 214
q-27 100 -103 168q-77 70 -177 86zM471 -95l-63 84q-9 10 2 18l17 13q12 8 19 -2l96 -127q8 -11 5.5 -24t-13.5 -20l-132 -82q-12 -6 -18 4l-12 18q-6 12 5 18l86 54q-116 20 -201 97q-86 79 -116 190q-33 125 13 244t153 190q11 6 18 -4l12 -18q7 -10 -5 -18
q-93 -60 -134 -167q-40 -103 -11 -214q26 -99 102 -168q77 -70 177 -86z" />
    <glyph glyph-name="I" unicode="I" horiz-adv-x="991" 
d="M472 346v334q0 13 13 13h21q13 0 13 -13v-334q0 -13 -13 -13h-21q-13 0 -13 13zM374 524q-103 -38 -164 -126q-62 -91 -62 -200q0 -144 102 -246t246 -101q144 -1 246 101q101 103 101 246q0 109 -62 200q-61 88 -164 126q-13 5 -8 17l8 20q5 12 17 8q117 -44 187 -145
t70 -226q0 -164 -116 -280q-115 -116 -279 -114q-164 -2 -280 114t-116 280q0 123 71 226q70 101 186 145q13 4 18 -8l7 -20q5 -12 -8 -17z" />
    <glyph glyph-name="J" unicode="J" horiz-adv-x="991" 
d="M460 -49l-63 82q-7 10 2 18l17 13q12 8 19 -2l96 -126q8 -11 6 -24.5t-15 -20.5l-131 -82q-10 -7 -18 4l-11 19q-8 11 4 18l87 54q-103 17 -185 84q-114 94 -138 241q-26 145 54 273q86 139 246 176q157 37 298 -49q125 -77 168 -215q44 -140 -12 -274
q-50 -120 -161 -185q-12 -7 -18 4l-11 19q-6 10 5 18q98 59 141 163q50 119 11 241t-148 189q-122 75 -262 42q-141 -33 -217 -154q-69 -112 -47 -240q21 -130 121 -212q71 -59 162 -74z" />
    <glyph glyph-name="K" unicode="K" horiz-adv-x="1114" 
d="M724 428l261 -40q27 -5 35 -30.5t-11 -45.5l-187 -186l42 -260q5 -28 -17 -44t-47 -3l-235 120l-234 -120q-25 -13 -47 3q-23 17 -18 44l42 260l-187 186q-19 20 -10.5 45.5t35.5 30.5l260 40l119 235q13 25 41 25q27 0 39 -25z" />
    <glyph glyph-name="L" unicode="L" horiz-adv-x="1074" 
d="M272 7l117 117q-83 95 -83 222q0 140 100 239q99 99 239 99t239 -99t99 -239t-99 -239q-99 -100 -239 -100q-127 0 -222 83l-117 -117l124 -124q9 -9 0 -18l-16 -16q-9 -7 -18 0l-124 124l-124 -124q-9 -7 -19 0l-15 16q-9 9 0 18l124 124l-124 124q-9 9 0 19l15 15
q10 9 19 0zM645 637q-121 0 -206 -85t-85 -206t85 -206t206 -85t206 85t85 206t-85 206t-206 85z" />
    <glyph glyph-name="M" unicode="M" horiz-adv-x="1061" 
d="M660 414l221 221h-190q-13 0 -13 13v21q0 13 13 13h226q18 0 31 -13t13 -31v-226q0 -13 -13 -13h-21q-13 0 -13 13v188l-220 -220q83 -95 83 -222q0 -140 -99 -239q-100 -99 -240 -99t-239 99t-99 239t99 240q99 99 239 99q127 0 222 -83zM438 -133q121 0 206 85
q85 86 85 206q0 121 -85 206t-206 85q-120 0 -205 -85q-86 -86 -86 -206q0 -118 86 -206q85 -85 205 -85z" />
    <glyph glyph-name="N" unicode="N" horiz-adv-x="1092" 
d="M570 683v-95q125 -7 216 -98t98 -217h95q13 0 13 -13v-21q0 -13 -13 -13h-95q-9 -127 -99 -215q-91 -91 -215 -98v-95q0 -13 -13 -13h-22q-13 0 -13 13v95q-126 8 -215 98q-90 88 -99 215h-95q-13 0 -13 13v21q0 13 13 13h95q7 126 98 217t216 98v95q0 13 13 13h22
q13 0 13 -13zM256 273h266v267q-105 -7 -182 -84q-76 -76 -84 -183zM570 273h266q-8 107 -84 183q-77 77 -182 84v-267zM522 226h-266q9 -106 85 -181q75 -76 181 -85v266zM570 226v-266q106 9 182 85q75 75 84 181h-266z" />
    <glyph glyph-name="O" unicode="O" horiz-adv-x="976" 
d="M307 425l267 200q21 17 44 3t23 -39v-679q0 -29 -24 -40t-48 6l-262 197h-163q-18 0 -31 13t-13 31v265q0 18 13 30.5t31 12.5h163zM734 417q80 -12 117.5 -77.5t18.5 -134.5q-9 -46 -46 -80t-90 -43q-13 -3 -15 11l-4 21q-2 12 11 15q47 8 75 43t28 78t-28 78.5
t-75 41.5q-13 3 -11 15l4 22q1 13 15 10z" />
    <glyph glyph-name="P" unicode="P" horiz-adv-x="1132" 
d="M307 426l266 200q21 16 45 3q23 -14 23 -39v-679q0 -29 -24 -40t-48 6l-262 197h-163q-18 0 -31 13t-13 31v265q0 18 13 30.5t31 12.5h163zM819 557q80 -30 135 -92.5t70 -138.5q14 -75 0 -150q-15 -77 -69.5 -139.5t-135.5 -92.5q-13 -4 -18 7l-7 21q-4 11 8 16
q69 26 116 79.5t59 118.5q12 64 0 129t-59 119t-116 78q-13 5 -8 17l7 20q5 12 18 8zM733 418q80 -12 117.5 -77.5t18.5 -134.5q-9 -46 -46 -80t-90 -43q-12 -3 -15 11l-3 21q-2 12 11 15q47 8 75 43t28 78t-28 78.5t-75 41.5q-13 3 -11 15l3 22q3 13 15 10z" />
    <glyph glyph-name="Q" unicode="Q" horiz-adv-x="1187" 
d="M307 425l266 200q21 17 45 3q23 -14 23 -39v-679q0 -29 -24 -40q-25 -10 -48 6l-262 197h-164q-18 0 -30.5 13t-12.5 31v265q0 18 12.5 30.5t30.5 12.5h164zM1082 384l-135 -135l135 -135q9 -9 0 -18l-16 -15q-8 -11 -18 0l-135 135l-135 -135q-9 -9 -18 0l-16 15
q-8 9 0 18l135 135l-135 135q-7 9 0 19l16 15q9 9 18 0l135 -135l135 135q10 10 18 0l16 -15q10 -9 0 -19z" />
    <glyph glyph-name="R" unicode="R" horiz-adv-x="1084" 
d="M518 197l-128 128q-10 7 0 18l15 15q9 10 19 0l94 -95v409q0 13 13 13h22q13 0 13 -13v-409l95 95q9 9 18 0l15 -15q10 -11 0 -18l-127 -128q-25 -25 -49 0zM857 464l127 -334v-289q0 -17 -12.5 -29.5t-29.5 -12.5h-800q-17 0 -29.5 12.5t-12.5 29.5v289l127 334
q11 27 40 27h118q13 0 13 -13v-21q0 -13 -13 -13h-115l-112 -294h229q16 0 28 -11t14 -27q5 -43 37.5 -72t75.5 -29t76 29t38 72q1 16 13 27t29 11h228l-112 294h-115q-13 0 -13 13v21q0 13 13 13h119q28 0 39 -27z" />
    <glyph glyph-name="S" unicode="S" horiz-adv-x="1084" 
d="M405 583l-16 15q-7 9 0 18l128 128q11 10 25 10t24 -10l128 -128q9 -9 0 -18l-15 -15q-9 -9 -19 0l-94 94v-408q0 -13 -13 -13h-22q-13 0 -13 13v408l-95 -94q-9 -9 -18 0zM857 464l127 -333v-289q0 -18 -12.5 -30t-29.5 -12h-800q-17 0 -29.5 12t-12.5 30v289l127 333
q10 28 39 28h119q13 0 13 -13v-22q0 -13 -13 -13h-115l-112 -294h228q16 0 28 -10.5t14 -26.5q5 -43 37.5 -72t76.5 -29t76.5 29t36.5 72q2 16 14 26.5t28 10.5h229l-112 294h-115q-13 0 -13 13v22q0 13 13 13h118q30 0 40 -28z" />
    <glyph glyph-name="T" unicode="T" 
d="M1004 391h50q18 0 30.5 -13t12.5 -30v-194q0 -18 -12.5 -30.5t-30.5 -12.5h-50q-4 -61 -50 -102q-45 -42 -107 -42h-589q-65 0 -111 46q-47 47 -47 111v254q0 64 47 111q46 46 111 46h589q61 0 107 -41q46 -43 50 -103z" />
    <glyph glyph-name="U" unicode="U" 
d="M258 536h590q60 0 107 -41q46 -43 50 -103h49q18 0 30.5 -13t12.5 -30v-194q0 -18 -12.5 -30.5t-30.5 -12.5h-49q-4 -61 -50 -102q-47 -42 -107 -42h-590q-65 0 -111 46q-47 47 -47 111v254q0 64 47 111q46 46 111 46zM303 369q0 13 -13 13h-22q-13 0 -13 -13v-234
q0 -13 13 -13h22q13 0 13 13v234zM444 369q0 13 -13 13h-21q-13 0 -13 -13v-234q0 -13 13 -13h21q13 0 13 13v234zM585 369q0 13 -13 13h-21q-13 0 -13 -13v-234q0 -13 13 -13h21q13 0 13 13v234z" />
    <glyph glyph-name="V" unicode="V" 
d="M258 534h589q61 0 107 -41q46 -43 50 -103h50q18 0 30.5 -13t12.5 -30v-194q0 -18 -12.5 -30.5t-30.5 -12.5h-50q-4 -61 -50 -102q-45 -42 -107 -42h-589q-65 0 -111 46q-47 47 -47 111v254q0 64 47 111q46 46 111 46zM303 367q0 13 -13 13h-22q-13 0 -13 -13v-234
q0 -13 13 -13h22q13 0 13 13v234z" />
    <glyph glyph-name="W" unicode="W" 
d="M258 535h590q60 0 107 -41q46 -43 50 -103h49q18 0 30.5 -13t12.5 -30v-194q0 -18 -12.5 -30.5t-30.5 -12.5h-49q-4 -61 -50 -102q-47 -42 -107 -42h-590q-65 0 -111 46q-47 47 -47 111v254q0 64 47 111q46 46 111 46zM295 368q0 13 -13 13h-22q-13 0 -13 -13v-234
q0 -13 13 -13h22q13 0 13 13v234zM436 368q0 13 -13 13h-22q-13 0 -13 -13v-234q0 -13 13 -13h22q13 0 13 13v234zM577 368q0 13 -13 13h-21q-13 0 -13 -13v-234q0 -13 13 -13h21q13 0 13 13v234zM715 368q0 13 -13 13h-21q-13 0 -13 -13v-234q0 -13 13 -13h21q13 0 13 13
v234zM853 368q0 13 -13 13h-21q-13 0 -13 -13v-234q0 -13 13 -13h21q13 0 13 13v234z" />
    <glyph glyph-name="X" unicode="X" horiz-adv-x="1164" 
d="M635 612l-170 -341h162q25 0 37 -19.5t1 -41.5l-174 -348q-5 -11 -17 -6l-19 10q-14 6 -6 17l170 341h-164q-24 0 -36 19.5t-1 41.5l174 348q4 12 18 6l19 -10q12 -5 6 -17zM444 -20h-201q-59 0 -101 43q-42 42 -42 101v253q0 59 42 102q42 42 101 42h240l-108 -215
q-22 -45 4 -88q25 -42 76 -42h86zM986 376h49q12 0 20.5 -8.5t8.5 -20.5v-193q0 -12 -8.5 -20.5t-20.5 -8.5h-49q-10 0 -11 -10q-3 -56 -44 -95q-41 -40 -98 -40h-229l104 209q22 43 -3 87q-25 43 -78 43h-84l100 202h190q56 0 98 -39q41 -41 44 -96q1 -10 11 -10z" />
    <glyph glyph-name="Y" unicode="Y" horiz-adv-x="1077" 
d="M570 344l381 -246q17 -12 21.5 -22t4.5 -36v-122q0 -15 -10.5 -27t-25.5 -15l-439 -96q-24 -5 -41 12l-347 329q-14 12 -14 31v115q0 19 7 29l234 345q11 15 30 18l388 59q25 4 41 -19q15 -23 -1 -44zM490 -13l429 75l-388 251l-358 -58z" />
    <glyph glyph-name="Z" unicode="Z" horiz-adv-x="923" 
d="M506 26l-1 2q-14 -12 -37 -20q-78 -24 -154 -24q-103 0 -199 40q-12 6 -14.5 19t6.5 20l161 162l-104 390q-3 13 7 23t22 7l391 -105l161 161q11 9 23 6t16 -13q61 -145 31 -297q-30 -153 -140 -263q-38 -38 -91 -73l161 -240q8 -11 -3 -19l-18 -12q-10 -7 -18 4
l-115 186q-10 15 -13 30h-2v-210q0 -13 -13 -13h-22q-13 0 -13 13v210h-2q-3 -14 -13 -30l-116 -186q-6 -10 -18 -4l-17 12q-11 8 -4 19l117 175q1 2 8 8.5t14.5 13.5t8.5 8zM443 399l102 102l-279 75zM409 365l-176 177l74 -279z" />
    <glyph glyph-name="a" unicode="a" horiz-adv-x="1070" 
d="M502 -89l-74 97q-8 11 3 19l17 13q10 8 18 -3l108 -141q8 -11 5 -24.5t-15 -20.5l-146 -91q-10 -7 -18 4l-11 18q-8 12 4 18l103 64q-118 18 -210 95q-125 104 -152 264t59 300q95 152 271 193t328 -53q131 -81 182 -228q50 -147 -4 -292q-27 -75 -69.5 -124.5
t-114.5 -96.5q-10 -8 -18 3l-12 19q-6 11 4 18q64 41 103 87t63 111q47 128 3 259q-45 131 -162 204q-137 84 -293 47q-156 -38 -240 -172q-77 -125 -53 -267q24 -143 135 -236q82 -67 186 -84zM586 305l127 -102q11 -8 2 -18l-13 -17q-7 -10 -19 -2l-128 103q-16 13 -16 34
v269q0 13 13 13h21q13 0 13 -13v-267z" />
    <glyph glyph-name="b" unicode="b" horiz-adv-x="1089" 
d="M924 124q28 16 52 -5q23 -21 11 -50q-46 -108 -139 -180q-92 -71 -197 -92q-108 -20 -218 11q-112 31 -198 116q-101 102 -127 239.5t25 254.5q46 125 155 206t255 88q31 1 43 -28q11 -31 -13 -50q-105 -86 -113 -225q-7 -138 90 -235q75 -75 179 -88q105 -14 195 38z
" />
    <glyph glyph-name="c" unicode="c" horiz-adv-x="1148" 
d="M172 416q-10 -16 -26 1q-45 56 -37 131q7 72 65 119q55 46 130 40q74 -8 120 -61q14 -19 -4 -26q-27 -7 -80 -38q-27 -15 -62 -43q-66 -56 -106 -123zM990 667q58 -47 65 -119q8 -75 -37 -131q-16 -17 -26 -1q-40 67 -106 123q-45 38 -114 71q-24 9 -28 10q-18 7 -4 26
q46 53 121 61q74 6 129 -40zM287 483q122 122 295 122q172 0 296 -122q122 -124 122 -296q0 -154 -97 -267l90 -90q9 -10 0 -19l-25 -25q-10 -10 -18 0l-90 89q-120 -105 -278 -105t-278 105l-90 -89q-8 -10 -18 0l-25 25q-9 9 0 19l90 90q-97 113 -97 267q0 173 123 296z
M606 202v254q0 13 -13 13h-22q-13 0 -13 -13v-250h-133q-13 0 -13 -13v-22q0 -13 13 -13h137q18 0 31 13t13 31z" />
    <glyph glyph-name="d" unicode="d" horiz-adv-x="988" 
d="M893 634l-99 -734q-2 -20 -19.5 -31.5t-37.5 -5.5l-208 65l-71 -108q-13 -22 -40 -20q-26 1 -37 26l-78 172l-166 52q-26 8 -30 34q-5 26 15 42l682 557q28 24 62 7q32 -17 27 -56zM757 471l-239 -469l41 -17l229 480zM629 426l-304 -365l38 -29l288 376z" />
    <glyph glyph-name="e" unicode="e" horiz-adv-x="1163" 
d="M425 -210l-303 306q-20 20 -10 44q33 93 98 166q24 27 66 58q40 30 66 45q39 23 73 41q33 18 79 46q34 21 69 47q76 57 124 154q10 20 31.5 23.5t37.5 -12.5l304 -306q21 -21 9 -48q-53 -114 -136 -177q-38 -30 -75 -53q-38 -23 -87 -50q-58 -32 -83 -48q-33 -21 -71 -52
q-80 -63 -122 -169q-8 -22 -30.5 -26.5t-39.5 11.5zM469 384l-14 -10q-8 -6 -1 -13l16 -16q-60 -55 -9 -106q37 -38 90 -18q25 11 44 23q30 19 44.5 22t38.5 -11q30 -32 -21 -71q-41 -28 -84 -9q-10 4 -17 -4l-9 -14q-5 -10 5 -14q61 -28 115 5l17 -17q7 -7 15 -1l13 11
q9 6 1 12l-17 17q63 59 13 109q-20 20 -48 24t-43 -5q-25 -11 -44 -23q-57 -36 -81 -12q-31 31 16 66q35 27 80 11q11 -5 16 5l8 14q6 10 -6 14q-58 22 -107 -6l-17 16q-7 7 -14 1z" />
    <glyph glyph-name="f" unicode="f" horiz-adv-x="806" 
d="M496 631l24 -115q-74 41 -156 41q-81 0 -155 -41l24 115q5 27 32 27h199q28 0 32 -27zM178 434q76 75 186 75q109 0 187 -75q78 -76 78 -185q0 -108 -78 -183q-77 -76 -187 -76t-186 76q-78 75 -78 183q0 109 78 185zM388 262v110q0 13 -13 13h-21q-13 0 -13 -13v-112
q0 -8 5 -21q9 -12 15 -16l151 -96q10 -7 18 4l12 18q7 10 -4 18zM658 202v94q0 13 13 13h22q13 0 13 -13v-94q0 -13 -13 -13h-22q-13 0 -13 13zM233 -133l-24 116q74 -41 155 -41q82 0 156 41l-24 -116q-4 -27 -32 -27h-199q-27 0 -32 27z" />
    <glyph glyph-name="g" unicode="g" horiz-adv-x="1071" 
d="M579 185h-435q-18 0 -31 13t-13 31v351q0 18 13 31t31 13h435q19 0 32 -13q12 -12 12 -31v-351q0 -19 -12.5 -31.5t-31.5 -12.5zM257 -14h22q9 39 37 64q38 35 89 35t89 -35q28 -25 37 -64h122q9 39 37 64q38 35 89 35t89 -35q29 -27 36 -64h23q19 0 31.5 12.5t12.5 31.5
v206h-166q-19 0 -32.5 13.5t-13.5 32.5v217h-89v-270q0 -41 -25 -66.5t-66 -25.5h-366v-107q0 -19 12.5 -31.5t31.5 -12.5zM807 284h152l-152 203v-203zM348 -100q23 -24 57 -24t57 24q25 24 24.5 58t-25.5 58q-23 22 -56 22t-56 -22q-25 -24 -25.5 -58t24.5 -58zM835 16
q-23 22 -56 22t-56 -22q-25 -24 -25.5 -58t23.5 -58t58 -24t57 24q24 24 24 58t-25 58z" />
    <glyph glyph-name="h" unicode="h" horiz-adv-x="1086" 
d="M857 563q129 -130 129 -314q3 -118 -57.5 -221.5t-164.5 -164t-221 -58.5q-117 -2 -221 58.5t-164.5 164t-57.5 221.5q0 184 130 314q129 129 313 129q183 0 314 -129zM565 514h-32q-19 0 -17 -17l7 -361q0 -18 17 -18h17q15 0 17 18l8 361q2 17 -17 17zM550 61h-4
q-21 0 -28.5 -8t-7.5 -28v-6q0 -21 7.5 -28.5t28.5 -7.5h4q21 0 29 8t8 28v6q0 20 -8 28t-29 8z" />
    <glyph glyph-name="i" unicode="i" horiz-adv-x="1205" 
d="M118 -119l459 793q13 21 37.5 21t37.5 -21l459 -793q13 -22 0.5 -43.5t-37.5 -21.5h-919q-25 0 -37.5 21.5t0.5 43.5zM629 409h-28q-17 0 -15 -15l6 -316q2 -15 15 -15h15q14 0 15 15l7 316q2 15 -15 15zM616 13h-3q-19 0 -25.5 -7t-6.5 -25v-5q0 -18 6.5 -24.5
t25.5 -6.5h3q19 0 25.5 6.5t6.5 24.5v5q0 18 -6.5 25t-25.5 7z" />
    <glyph glyph-name="j" unicode="j" horiz-adv-x="1132" 
d="M577 553h-22q-13 0 -13 13v137q0 13 13 13h22q13 0 13 -13v-137q0 -13 -13 -13zM326 456l-97 98q-9 9 0 18l15 15q10 9 19 0l97 -97q10 -10 0 -18l-15 -16q-9 -10 -19 0zM788 456l-16 16q-8 8 0 18l98 97q9 9 18 0l15 -15q9 -9 0 -18l-97 -98q-9 -9 -18 0zM391 426
q72 72 175 72q102 0 176 -72q72 -74 72 -176q0 -103 -72 -175q-74 -72 -176 -72q-103 0 -175 72t-72 175q0 102 72 176zM264 261v-22q0 -13 -13 -13h-138q-13 0 -13 13v22q0 13 13 13h138q13 0 13 -13zM882 274h137q13 0 13 -13v-22q0 -13 -13 -13h-137q-13 0 -13 13v22
q0 13 13 13zM345 44l15 -15q10 -9 0 -19l-97 -97q-9 -9 -19 0l-15 15q-11 10 0 18l97 98q10 10 19 0zM806 44l97 -98q11 -8 0 -18l-15 -15q-9 -9 -18 0l-98 97q-7 9 0 19l16 15q9 9 18 0zM555 -52h22q13 0 13 -13v-138q0 -13 -13 -13h-22q-13 0 -13 13v138q0 13 13 13z" />
    <glyph glyph-name="k" unicode="k" horiz-adv-x="1117" 
d="M731 635q35 -37 35 -86q0 -50 -35 -85q-37 -35 -86 -35t-84 36q-36 35 -36 84t35 86q35 35 85 35q49 0 86 -35zM952 329l12 18q8 11 19 3q30 -20 34 -56t-17 -66t-57 -35q2 -14 2 -29q0 -76 -25 -125q-20 -43 -66 -83l-23 -136q-3 -15 -14.5 -25t-27.5 -10h-88
q-15 -1 -26.5 8.5t-15.5 24.5l-7 39q-84 -18 -176 -4l-8 -35q-3 -15 -14.5 -24.5t-26.5 -9.5h-88q-15 0 -26.5 9.5t-14.5 24.5l-28 127l-12 11q-13 11 -33.5 37t-35.5 59q0 7 -11.5 12.5t-29 10.5t-21.5 7q-27 12 -27 39v91q0 22 11.5 31t35.5 15q36 9 44 23q31 63 75 97
l5 5l11 109q81 20 133 -31q25 9 78 17q27 -55 78.5 -80t104.5 -15.5t89 48.5q57 -33 102 -84t65 -108q27 4 36 31q8 26 -13 42q-10 7 -3 17zM487 358q-13 -1 -12 -14l2 -22q2 -12 16 -11q131 14 229 -39q12 -7 18 5l10 19q6 10 -6 18q-110 59 -257 44zM328 305
q-22 -4 -33 -29.5t3 -36.5q13 -14 33 -2t26.5 31.5t-5.5 31.5q-11 8 -24 5z" />
    <glyph glyph-name="l" unicode="l" horiz-adv-x="727" 
d="M520 538q-18 3 -38 3q-55 0 -99 -26q-61 55 -145 50q13 30 39 53q41 37 101 37q59 -2 101 -39q35 -32 41 -78zM344 485q-58 -55 -58 -140q0 -59 33 -108q-45 -23 -95 -13.5t-84 47.5q-40 47 -36 108q3 62 49 102q41 35 95.5 36.5t95.5 -32.5zM377 450q44 44 105 44
q62 0 105 -43t43 -106q0 -61 -43 -104q-44 -44 -105 -44t-105 44t-44 104q0 61 44 105zM350 200q56 -50 132 -50q16 0 21 1l-91 -250q-9 -24 -33 -24t-33 24l-101 273q60 -2 105 26z" />
    <glyph glyph-name="m" unicode="m" horiz-adv-x="1066" 
d="M953 -199h-840q-13 0 -13 13v22q0 13 13 13h326v103h-231q-29 0 -40 26q-12 27 7 48l131 138h-45q-33 1 -43 28q-11 27 12 50l136 141h-40q-33 0 -42 27q-10 27 12 51l205 223q13 14 32 14t32 -14l206 -224q21 -23 11 -50t-42 -27h-40l136 -141q23 -23 13 -50
q-10 -26 -44 -28h-45l131 -138q19 -20 8 -48q-12 -26 -41 -26h-231v-103h326q13 0 13 -13v-22q0 -13 -13 -13z" />
    <glyph glyph-name="n" unicode="n" horiz-adv-x="1162" 
d="M768 385h292q2 -32 2 -36q0 -87 -66 -133q-68 -48 -156 -48h-342l-29 -28q65 -1 113 -49q46 -46 46 -113t-47 -116q-49 -47 -115 -47q-68 0 -115 47q-48 48 -48 116q0 72 56 122l85 82q-50 30 -50 89q0 3 2 19h-132q-69 0 -116 47q-48 47 -48 116q0 67 48 115
q47 47 114 47q66 0 115 -47q48 -48 48 -115t-48 -115h40l260 261q38 41 88 62.5t104 15t94 -46.5l24 -27zM263 338q47 0 80.5 33.5t33.5 81.5q0 47 -33 81q-34 34 -82 34q-47 0 -81 -34t-34 -81q0 -48 34 -81.5t82 -33.5zM555 334q-14 0 -24 -10t-10 -24q0 -15 10 -24.5
t24 -9.5q15 0 25 9.5t10 24.5q0 14 -10 24t-25 10zM581 -22q0 47 -34 81t-81 34q-48 0 -81 -34q-34 -34 -34 -81q0 -48 33.5 -81.5t81.5 -33.5q46 0 81 33q34 34 34 82z" />
    <glyph glyph-name="o" unicode="o" horiz-adv-x="1025" 
d="M376 258v350q37 1 112 27q74 25 117 25h213q33 0 45 -35q10 -36 -15 -55q-8 -6 -5 -16.5t12 -11.5q22 -1 33.5 -19t9 -40t-18.5 -36q-7 -7 -4 -16t12 -11q37 -10 37 -55q0 -46 -31 -56q-9 -3 -10.5 -13.5t6.5 -15.5q20 -11 24 -39t-11 -51.5t-42 -21.5h-190
q-9 0 -14.5 -7t-1.5 -16q40 -94 36 -198q-3 -59 -27 -84q-10 -12 -22.5 -15t-23 5.5t-14.5 25.5q-19 70 -27 97q-12 35 -36 82q-23 45 -57 82zM307 193h-177q-13 0 -21.5 8t-8.5 21v405q0 13 8.5 21t21.5 8h177q13 0 21.5 -8t8.5 -21v-405q0 -13 -8.5 -21t-21.5 -8z" />
    <glyph glyph-name="p" unicode="p" horiz-adv-x="1085" 
d="M830 620v-62h-543v62q0 13 9 21.5t21 8.5h483q13 0 21.5 -8.5t8.5 -21.5zM240 253h-44q-64 0 -76 51q-17 61 56 123l97 83h35q-46 -60 -68 -129q-22 -70 0 -128zM371 510h47q-61 -151 -36 -257h-89q-33 53 -3 129q29 75 81 128zM469 510h66v-257h-103q-33 101 37 257z
M583 510h70q70 -156 38 -257h-108v257zM705 510h47q52 -53 81 -128q30 -76 -3 -129h-90q27 105 -35 257zM922 253h-39q23 59 0 129q-22 69 -69 128h32l98 -84q71 -62 55 -122q-13 -51 -77 -51zM868 205v-324q0 -13 -8.5 -21.5t-21.5 -8.5h-172q-12 0 -21 8.5t-9 21.5v153
q0 12 -8.5 21t-21.5 9h-94q-13 0 -21.5 -9t-8.5 -21v-153q0 -13 -9 -21.5t-21 -8.5h-172q-13 0 -21.5 8.5t-8.5 21.5v324h618z" />
    <glyph glyph-name="q" unicode="q" horiz-adv-x="961" 
d="M504 274h344q13 0 13 -14v-21q0 -13 -13 -13h-344v-344q0 -13 -13 -13h-21q-13 0 -13 13v344h-344q-13 0 -13 13v21q0 14 13 14h344v344q0 13 13 13h21q13 0 13 -13v-344z" />
    <glyph glyph-name="r" unicode="r" horiz-adv-x="861" 
d="M766 542l-292 -292l292 -292q10 -10 0 -18l-15 -16q-9 -10 -19 0l-292 292l-291 -292q-9 -10 -19 0l-15 16q-11 8 0 18l292 292l-292 292q-11 8 0 18l15 15q10 9 19 0l291 -292l292 292q10 9 19 0l15 -15q10 -10 0 -18z" />
    <glyph glyph-name="s" unicode="s" horiz-adv-x="903" 
d="M149 308l219 -316l400 536q8 11 19 3l17 -13q11 -8 2 -18l-424 -565q-5 -8 -15 -8t-16 8l-241 346q-7 11 4 19l17 12q10 7 18 -4z" />
    <glyph glyph-name="t" unicode="t" horiz-adv-x="617" 
d="M497 621l15 -16q10 -10 -1 -18l-351 -336l351 -335q11 -9 1 -19l-15 -15q-7 -10 -18 0l-373 354q-6 6 -6 15t6 15l373 355q9 9 18 0z" />
    <glyph glyph-name="u" unicode="u" horiz-adv-x="617" 
d="M115 605l15 16q9 9 18 0l372 -355q7 -6 7 -15t-7 -15l-372 -354q-10 -10 -18 0l-15 15q-9 9 0 19l352 335l-352 336q-11 7 0 18z" />
    <glyph glyph-name="v" unicode="v" horiz-adv-x="1207" 
d="M1107 314q0 -158 -151 -271q-85 -65 -198.5 -91.5t-230.5 -13.5q-68 -99 -220 -129q-33 -6 -53 14q-20 21 0 51q46 74 40 140q-90 53 -142 131t-52 169q0 88 42.5 162t115.5 120q147 94 346 94t346 -94q72 -46 114.5 -119.5t42.5 -162.5zM637 296l104 103q7 9 0 19
l-16 15q-9 9 -18 0l-104 -104l-103 104q-10 9 -19 0l-15 -15q-10 -10 0 -19l104 -103l-104 -104q-10 -10 0 -19l15 -15q9 -10 19 0l103 104l104 -104q9 -9 18 0l16 15q7 9 0 19z" />
    <glyph glyph-name="w" unicode="w" horiz-adv-x="1207" 
d="M1107 314q0 -77 -39 -147t-111 -124q-85 -64 -199 -91t-230 -14q-69 -99 -221 -129q-34 -6 -52.5 15t-0.5 50q47 75 40 140q-89 53 -141.5 131.5t-52.5 168.5q0 88 42.5 162t115.5 120q147 94 346 94t346 -94q72 -46 114.5 -119.5t42.5 -162.5zM448 308l110 -132
q7 -8 16 -8t16 8l181 219q9 9 -1 18l-17 14q-10 9 -18 -2l-161 -194l-89 108q-9 10 -18 1l-17 -13q-9 -9 -2 -19z" />
    <glyph glyph-name="x" unicode="x" horiz-adv-x="1206" 
d="M1106 314q0 -77 -39 -147t-111 -124q-85 -65 -198.5 -91.5t-230.5 -13.5q-68 -99 -220 -129q-33 -6 -53 14q-20 21 0 51q47 74 39 140q-89 53 -141 131.5t-52 168.5q0 89 42 162.5t115 119.5q149 94 346 94t346 -94q73 -46 115 -119.5t42 -162.5zM452 262h-5
q-19 0 -26.5 -7.5t-7.5 -26.5v-5q0 -19 7.5 -26t26.5 -7h5q19 0 25.5 7t6.5 26v5q0 20 -6.5 27t-25.5 7zM607 262h-5q-19 0 -26 -7.5t-7 -26.5v-5q0 -19 7 -26t26 -7h5q19 0 25.5 7t6.5 26v5q0 20 -6.5 27t-25.5 7zM762 262h-5q-19 0 -26 -7.5t-7 -26.5v-5q0 -19 7 -26
t26 -7h5q19 0 25.5 7t6.5 26v5q0 20 -6.5 27t-25.5 7z" />
    <glyph glyph-name="y" unicode="y" horiz-adv-x="1229" 
d="M995 161h53q34 0 57.5 -23.5t23.5 -57.5v-204q0 -34 -23.5 -57.5t-57.5 -23.5h-152q-34 0 -57.5 23.5t-23.5 57.5v204q0 34 23.5 57.5t57.5 23.5h51v29q0 14 -9.5 23.5t-23.5 9.5h-276v-61h53q33 0 57 -23.5t24 -57.5v-204q0 -34 -24 -57.5t-57 -23.5h-153
q-33 0 -57 23.5t-24 57.5v204q0 34 24 57.5t57 23.5h53v61h-276q-13 0 -23 -9.5t-10 -23.5v-29h51q34 0 57.5 -23.5t23.5 -57.5v-204q0 -34 -23.5 -57.5t-57.5 -23.5h-152q-34 0 -57.5 23.5t-23.5 57.5v204q0 34 23.5 57.5t57.5 23.5h54l-1 1v28q0 33 24 57t57 24h276v59
h-53q-33 0 -57 23.5t-24 57.5v204q0 34 24 57.5t57 23.5h153q33 0 57 -23.5t24 -57.5v-204q0 -34 -24 -57.5t-57 -23.5h-53v-59h276q33 0 57 -24t24 -57v-29z" />
    <glyph glyph-name="z" unicode="z" horiz-adv-x="831" 
d="M650 -200h-469q-33 0 -57 23.5t-24 57.5v733q0 34 24 57.5t57 23.5h469q33 0 57 -23.5t24 -57.5v-733q0 -34 -24 -57.5t-57 -23.5zM487 428q29 30 29 71t-30 71q-31 29 -70 29q-31 1 -56 -17.5t-36.5 -45t-7 -57t28.5 -51.5q30 -30 71 -30t71 30zM548 -37q54 55 54 132
t-54 132q-56 54 -132 54t-132 -54q-55 -55 -55 -132t55 -132q56 -54 132 -54t132 54zM513 -2q40 41 40 97q0 57 -40 97t-97 40t-97 -40q-41 -41 -41 -97q0 -54 41 -97q40 -40 97 -40t97 40z" />
    <glyph glyph-name="NULL" horiz-adv-x="0" 
 />
  </font>
</defs>
</svg>
