<?xml version="1.0" standalone="no"?>
<!DOCTYPE svg PUBLIC "-//W3C//DTD SVG 1.1//EN" "http://www.w3.org/Graphics/SVG/1.1/DTD/svg11.dtd" >
<svg xmlns="http://www.w3.org/2000/svg" xmlns:xlink="http://www.w3.org/1999/xlink" version="1.1">
<metadata>
Created by FontForge 20170731 at Fri Dec 12 19:18:12 2014
 By Aleksey,,,
Copyright (c) 2014 by . All rights reserved.
</metadata>
<defs>
<font id="PantonIconsB-Bold" horiz-adv-x="0" >
  <font-face 
    font-family="Panton Icons B"
    font-weight="700"
    font-stretch="normal"
    units-per-em="1000"
    panose-1="0 0 5 0 0 0 0 0 0 0"
    ascent="782"
    descent="-218"
    x-height="597"
    cap-height="656"
    bbox="93 -373 1309 793.765"
    underline-thickness="50"
    underline-position="-200"
    unicode-range="U+0020-007A"
  />
<missing-glyph horiz-adv-x="500" 
d="M410 750v-1000h-317v1000h317zM333 683h-165v-33h65v-37h-66v-33h166v33h-66v37h66v33zM267 554h-100v-104h166v34h-66v70zM233 520v-36h-33v36h33zM333 423h-166v-33h66v-37h-66v-33h100v70h66v33zM333 363h-33v-66h-133v-34h166v100zM333 241h-100v-56h34v23h33v-47
h-100v80h-33v-113h166v113zM333 68h-166v-113h166v113zM300 35v-47h-100v47h100zM333 -68h-166v-33h70l-70 -47v-33h166v33h-102l70 47h32v33z" />
    <glyph glyph-name=".notdef" horiz-adv-x="500" 
d="M410 750v-1000h-317v1000h317zM333 683h-165v-33h65v-37h-66v-33h166v33h-66v37h66v33zM267 554h-100v-104h166v34h-66v70zM233 520v-36h-33v36h33zM333 423h-166v-33h66v-37h-66v-33h100v70h66v33zM333 363h-33v-66h-133v-34h166v100zM333 241h-100v-56h34v23h33v-47
h-100v80h-33v-113h166v113zM333 68h-166v-113h166v113zM300 35v-47h-100v47h100zM333 -68h-166v-33h70l-70 -47v-33h166v33h-102l70 47h32v33z" />
    <glyph glyph-name=".null" 
 />
    <glyph glyph-name="nonmarkingreturn" horiz-adv-x="333" 
 />
    <glyph glyph-name="space" unicode=" " 
 />
    <glyph glyph-name="A" unicode="A" horiz-adv-x="898" 
d="M785 -174h-672q-13 0 -13 13v22q0 13 13 13h50q1 106 36 179q14 29 38 56q23 27 39 40q25 19 41 31q59 41 59 70.5t-59 70.5q-27 19 -41 32q-15 11 -39 39q-23 26 -38 57q-35 73 -36 178h-50q-13 0 -13 13v21q0 13 13 13h672q13 0 13 -13v-21q0 -13 -13 -13h-47
q-2 -115 -52 -186q-26 -37 -42 -54t-54 -52q-63 -55 -63 -84q0 -31 63 -86q35 -31 51.5 -49t44.5 -56q50 -71 52 -186h47q13 0 13 -13v-22q0 -13 -13 -13zM558 130q-80 71 -80 121q0 49 80 120q33 29 47 44.5t39 49.5q45 63 47 162h-480q2 -124 48 -184q24 -32 38.5 -46
t47.5 -37q79 -56 79 -109.5t-79 -109.5q-33 -23 -47.5 -37t-38.5 -46q-46 -60 -48 -184h480q-2 98 -47 163q-36 49 -86 93z" />
    <glyph glyph-name="B" unicode="B" horiz-adv-x="1225" 
d="M763 -208l-79 98q-3 4 -23.5 30t-24.5 30v-151q0 -13 -13 -13h-21q-13 0 -13 13v151q-4 -4 -24.5 -30t-23.5 -30l-79 -98q-8 -11 -18 -2l-17 14q-10 9 -1 18l78 97q40 50 41 51h-278q-69 0 -118 49q-49 48 -49 117v372q0 68 49 117t118 49h692q68 0 117 -49t49 -117v-372
q0 -69 -49 -117q-49 -49 -117 -49h-279q15 -17 41 -51l79 -97q9 -10 -2 -18l-17 -14q-10 -9 -18 2zM959 626h-692q-50 0 -84 -34q-35 -35 -35 -84v-372q0 -49 35 -84t84 -35h692q49 0 84 35q34 34 34 84v372q0 49 -34.5 83.5t-83.5 34.5z" />
    <glyph glyph-name="C" unicode="C" horiz-adv-x="1225" 
d="M517 -32l-139 -179q-8 -11 -19 -2l-17 13q-9 8 -2 18l117 150h-190q-69 0 -118 49q-49 48 -49 117v372q0 68 49 117t118 49h692q68 0 117 -49t49 -117v-372q0 -69 -49 -117q-49 -49 -117 -49h-191l117 -150q8 -11 -2 -18l-17 -13q-9 -9 -18 2l-140 179h-191zM959 624
h-692q-50 0 -84 -34q-35 -35 -35 -84v-372q0 -49 35 -84t84 -35h692q49 0 84 35t35 84v372q0 49 -35 84q-34 34 -84 34zM470 330l-122 -144q-21 4 -37.5 -10t-16.5 -36q0 -19 13.5 -32.5t32.5 -13.5q20 0 33.5 13.5t13.5 32.5q0 9 -3 15l122 144q2 0 4 -0.5t4 -0.5
q13 0 23 7l114 -64q0 -19 13.5 -32t32.5 -13t33 13.5t14 32.5q0 12 -4 19l141 192q20 -2 35.5 12t15.5 35q0 19 -14 32.5t-33 13.5t-32.5 -13.5t-13.5 -32.5q0 -12 4 -19l-141 -192h-5q-13 0 -23 -6l-113 63q-1 19 -14.5 32t-32.5 13q-20 0 -33.5 -13.5t-13.5 -32.5
q0 -9 3 -15z" />
    <glyph glyph-name="D" unicode="D" horiz-adv-x="1113" 
d="M122 397l413 238q22 13 43 0l413 -238q22 -13 22 -38t-22 -38l-17 -10v-158q23 -14 23 -41q0 -19 -14 -32.5t-33 -13.5t-33 13.5t-14 32.5q0 27 23 41v131l-98 -56v-175q0 -52 -30 -93t-78 -62t-105.5 -30.5t-115.5 0.5t-106 31t-78 62t-30 93v174l-163 93q-22 13 -22 38
t22 38zM962 359l-405 234l-406 -234l406 -233zM781 53v147l-203 -116q-21 -13 -43 0l-203 116v-146q0 -39 25 -69.5t64.5 -46.5t87.5 -23.5t95.5 0t87 23t64.5 46t25 69.5z" />
    <glyph glyph-name="E" unicode="E" horiz-adv-x="947" 
d="M334 356l-187 187v-134q0 -14 -13 -14h-21q-13 0 -13 14v171q0 18 12.5 31t31.5 13h171q13 0 13 -13v-21q0 -13 -13 -13h-134l187 -187q10 -10 0 -19l-15 -15q-9 -10 -19 0zM579 390l187 187h-135q-13 0 -13 13v21q0 13 13 13h172q18 0 31 -13t13 -31v-171q0 -14 -13 -14
h-21q-14 0 -14 14v134l-187 -187q-8 -10 -18 0l-15 15q-9 9 0 19zM368 111l-187 -187h134q13 0 13 -13v-21q0 -13 -13 -13h-171q-19 0 -31.5 13t-12.5 31v172q0 13 13 13h21q13 0 13 -13v-135l187 187q10 9 19 0l15 -15q10 -10 0 -19zM612 145l187 -187v135q0 13 14 13h21
q13 0 13 -13v-172q0 -18 -13 -31t-31 -13h-172q-13 0 -13 13v21q0 13 13 13h135l-187 187q-9 9 0 19l15 15q10 11 18 0z" />
    <glyph glyph-name="F" unicode="F" horiz-adv-x="926" 
d="M148 609l187 -187v134q0 13 13 13h22q13 0 13 -13v-172q0 -18 -13 -31t-31 -13h-172q-13 0 -13 13v22q0 13 13 13h134l-187 187q-9 9 0 18l16 16q8 11 18 0zM829 576l-187 -188h135q13 0 13 -13v-21q0 -13 -13 -13h-172q-18 0 -31 13t-13 31v172q0 13 13 13h21
q13 0 13 -13v-135l187 187q10 9 19 0l15 -15q11 -10 0 -18zM796 -106l-187 187v-134q0 -13 -13 -13h-22q-13 0 -13 13v172q0 18 13 31t31 13h172q13 0 13 -13v-22q0 -13 -13 -13h-134l187 -187q9 -9 0 -18l-16 -16q-8 -8 -18 0zM115 -72l187 187h-135q-13 0 -13 13v21
q0 13 13 13h172q18 0 31 -13t13 -31v-172q0 -13 -13 -13h-21q-13 0 -13 13v135l-187 -187q-10 -10 -19 0l-15 15q-10 9 0 19z" />
    <glyph glyph-name="G" unicode="G" horiz-adv-x="981" 
d="M368 712q40 0 72 -25t50 -66q17 42 50.5 66.5t72.5 24.5q42 0 74 -23.5t45.5 -56.5t7 -72t-35.5 -68l-8 -8h57q54 0 91 -37t37 -91v-91h-63v-309q0 -54 -37 -91t-90 -37h-401q-53 0 -90 37q-38 38 -38 91v309h-62v91q0 53 38 91q37 37 90 37h57l-9 8q-29 29 -35.5 68
t7.5 72.5t46 56.5t74 23zM368 665q-54 0 -75 -51t17 -89q40 -39 157 -40q0 60 -8 95.5t-33 60.5q-24 24 -58 24zM613 665q-34 0 -58 -24q-33 -34 -39 -97q-2 -30 -2 -59q117 1 157 40q38 38 17 89t-75 51zM467 313v124h-239q-33 0 -56.5 -24t-23.5 -57v-43h319zM514 437
v-124h319v43q0 33 -23.5 57t-56.5 24h-239zM290 -124h177v389h-257v-309q0 -33 23.5 -56.5t56.5 -23.5zM771 265h-257v-389h177q33 0 56.5 23.5t23.5 56.5v309z" />
    <glyph glyph-name="H" unicode="H" horiz-adv-x="1030" 
d="M371 41v485q0 15 10 27t26 16l470 98q20 4 36.5 -9t16.5 -34v-561q0 -54 -50 -92q-47 -33 -109 -33q-63 0 -110 33q-49 36 -49 89t49 89q46 34 111 34q65 -2 110 -35v471l-463 -96v-566q0 -57 -50 -92q-46 -34 -109 -34q-64 0 -110 34q-50 36 -50 89t50 89q46 34 111 34
q63 -1 110 -36zM852 111q-33 24 -81 24q-49 0 -83 -24q-29 -22 -29 -50.5t29 -50.5q34 -25 83 -25t81 25q30 22 30 50.5t-30 50.5zM342 4q-34 25 -82 25q-50 0 -82 -25q-30 -22 -30 -50.5t30 -50.5q33 -24 82 -24q48 0 82 24q29 22 29 50.5t-29 50.5z" />
    <glyph glyph-name="I" unicode="I" horiz-adv-x="808" 
d="M670 348l-251 260v-647q0 -54 -50 -90q-46 -34 -109 -34q-64 0 -110 34q-50 36 -50 89t50 89q46 33 110 33q62 0 109 -33l2 -2v568q0 31 28 41q27 9 50 -14l254 -260q9 -10 0 -19l-15 -15q-10 -10 -18 0zM341 10q-32 25 -81 25q-50 0 -82 -25q-30 -22 -30 -50.5t30 -50.5
q33 -24 82 -24q48 0 81 24q30 22 30 50.5t-30 50.5z" />
    <glyph glyph-name="J" unicode="J" horiz-adv-x="1028" 
d="M889 350l-251 260v-647q0 -56 -49 -90q-46 -34 -109 -34q-65 0 -111 34q-49 36 -49 89t49 89q47 33 111 33q62 0 109 -33l2 -2v568q0 31 28 41q27 9 50 -14l254 -260q9 -10 0 -19l-15 -15q-10 -10 -19 0zM113 520h303q13 0 13 13v21q0 13 -13 13h-303q-13 0 -13 -13v-21
q0 -13 13 -13zM113 363h303q13 0 13 13v21q0 13 -13 13h-303q-13 0 -13 -13v-21q0 -13 13 -13zM113 206h303q13 0 13 13v22q0 13 -13 13h-303q-13 0 -13 -13v-22q0 -13 13 -13zM561 12q-34 25 -82 25t-82 -25q-29 -22 -29 -50.5t29 -50.5q34 -24 82 -24t82 24q30 22 30 50.5
t-30 50.5z" />
    <glyph glyph-name="K" unicode="K" horiz-adv-x="1016" 
d="M402 173l-170 170q-17 17 -11.5 41t28.5 32q104 35 214 -14l139 138q-8 48 7 93q8 23 32 29t41 -12l230 -229q17 -17 11 -41t-29 -32q-45 -14 -93 -8l-138 -138q49 -110 14 -215q-8 -23 -32 -28.5t-41 11.5l-169 169l-288 -289q-9 -9 -18 0l-15 15q-9 9 0 19zM874 391
l-221 221q-13 -44 1 -90t48 -82q36 -34 81.5 -47.5t90.5 -1.5zM640 246l109 109q-42 16 -79 53q-35 35 -54 79l-109 -109q38 -22 74 -58q37 -38 59 -74zM630 155q-37 112 -147 181.5t-214 35.5l365 -364q22 70 -4 147z" />
    <glyph glyph-name="L" unicode="L" horiz-adv-x="1192" 
d="M249 643h694q62 0 105 -43q44 -44 44 -106v-489q0 -61 -44 -105t-105 -44h-694q-61 0 -105 44t-44 105v489q0 62 44 106q43 43 105 43zM943 596h-694q-42 0 -71.5 -30t-29.5 -72v-322l216 219q13 13 30.5 13t30.5 -12l251 -244l126 128q12 13 29.5 13t30.5 -12l183 -167
v384q0 42 -30 72t-72 30zM767 511q30 -26 13 -66t-56 -38q-26 0 -43.5 17.5t-17.5 43.5q-2 39 38 56t66 -13zM395 355l-247 -250v-100q0 -42 29.5 -71.5t71.5 -29.5h694q42 0 72 29.5t30 71.5v41l-212 194l-127 -128q-12 -13 -29.5 -13t-30.5 12z" />
    <glyph glyph-name="M" unicode="M" horiz-adv-x="1104" 
d="M150 681l259 -96l271 100q15 6 30 0l270 -99q24 -10 24 -35v-697q0 -19 -15.5 -30.5t-34.5 -4.5l-259 96l-271 -100q-15 -6 -30 0l-270 99q-24 10 -24 36v696q0 19 16 30.5t34 4.5zM147 -43l238 -88v675l-238 87v-674zM433 -131l238 88v674l-238 -87v-675zM957 544
l-238 87v-674l238 -88v675z" />
    <glyph glyph-name="N" unicode="N" horiz-adv-x="1073" 
d="M125 513l393 188q18 9 38 0l392 -188q25 -12 25 -40t-25 -40l-392 -187q-20 -9 -38 0l-393 187q-25 12 -25 40t25 40zM921 473l-384 184l-385 -184l385 -184zM864 343l84 -41q25 -12 25 -39q0 -28 -25 -40l-392 -188q-20 -9 -38 0l-393 188q-25 12 -25 40q0 27 25 39
l84 41q12 8 17 -5l10 -19q6 -10 -5 -18l-79 -38l385 -184l384 184l-79 38q-11 8 -5 18l10 19q5 13 17 5zM864 133l84 -41q25 -12 25 -39q0 -28 -25 -40l-392 -188q-20 -9 -38 0l-393 188q-25 12 -25 40q0 27 25 39l84 41q11 6 17 -6l10 -19q8 -11 -5 -17q-8 -4 -79 -39
l385 -184l384 184q-65 31 -79 39q-13 6 -5 17l10 19q6 14 17 6z" />
    <glyph glyph-name="O" unicode="O" horiz-adv-x="1064" 
d="M533 682q179 0 305 -126t126 -306t-126 -306q-128 -125 -306 -125q-181 0 -306 125q-126 126 -126 306t126 306t307 126zM349 383q79 -15 159 -18v267q-59 -12 -100 -78.5t-59 -170.5zM556 632v-267q80 3 158 18q-18 104 -58.5 170.5t-99.5 78.5zM192 430q56 -21 111 -36
q24 134 86 213q-133 -51 -197 -177zM761 394q55 15 111 36q-64 126 -197 177q62 -79 86 -213zM172 114q60 23 124 39q-10 97 0 194q-49 12 -124 40q-51 -137 0 -273zM768 153q58 -15 124 -39q50 137 -1 273q-64 -26 -123 -40q10 -97 0 -194zM343 164q77 16 165 19v134
q-88 3 -165 19q-9 -86 0 -172zM556 317v-134q88 -3 165 -19q9 86 0 172q-77 -16 -165 -19zM508 -132v267q-80 -1 -159 -18q18 -104 59 -170.5t100 -78.5zM715 117q-89 17 -159 18v-267q59 12 100 78.5t59 170.5zM303 106q-60 -16 -111 -36q64 -124 196 -177q-61 76 -85 213z
M872 70q-56 21 -111 36q-24 -136 -86 -213q133 53 197 177z" />
    <glyph glyph-name="P" unicode="P" horiz-adv-x="1069" 
d="M266 692h538q68 0 117 -48q48 -50 48 -117v-554q0 -67 -48 -117q-49 -49 -117 -49h-538q-68 0 -117 49t-49 117v554q0 68 49 117q49 48 117 48zM804 644h-538q-49 0 -83 -34q-35 -35 -35 -83v-554q0 -49 34.5 -83.5t83.5 -34.5h538q49 0 83.5 34.5t34.5 83.5v554
q0 49 -34 83t-84 34zM279 558q-21 0 -36 -15t-15 -37t15 -37t36 -15q22 0 37 15t15 37t-15 37t-37 15zM737 543q-15 -15 -15 -37t15 -37t37 -15t37 15t15 37t-15 37t-37 15t-37 -15zM279 386q-21 0 -36 -15.5t-15 -36.5q0 -22 15 -37t36 -15q22 0 37 15t15 37q0 21 -15 36.5
t-37 15.5zM737 371q-15 -17 -15 -37q0 -22 15 -37t37 -15t37 15t15 37q0 33 -32 47t-57 -10zM279 218q-21 0 -36 -15t-15 -37q0 -21 15 -36.5t36 -15.5q22 0 37 15.5t15 36.5q0 22 -15 37t-37 15zM737 203q-15 -15 -15 -37q0 -21 15 -36.5t37 -15.5t37 15.5t15 36.5
q0 34 -32.5 47.5t-56.5 -10.5zM279 49q-21 0 -36 -15t-15 -37t15 -37t36 -15q22 0 37 15t15 37t-15 37t-37 15zM737 34q-15 -15 -15 -37t15 -37t37 -15t37 15t15 37t-15 37t-37 15t-37 -15z" />
    <glyph glyph-name="Q" unicode="Q" horiz-adv-x="973" 
d="M825 5q0 116 -44 222.5t-126 188.5t-188.5 126t-222.5 44q-13 0 -13 13v22q0 13 13 13q126 2 243 -48.5t202 -135.5t135.5 -202t48.5 -243q0 -13 -13 -13h-22q-13 0 -13 13zM231 362v22q0 13 13 13q162 0 277 -115t115 -277q0 -13 -13 -13h-22q-13 0 -13 13
q0 144 -101 243q-99 101 -243 101q-13 0 -13 13zM244 148q-60 0 -102 -42t-42 -101q0 -60 42 -102t102 -42q59 0 101 42t42 102q0 59 -42 101t-101 42zM173 -66q-30 29 -30 71t30 71q29 29 71 29t71 -29t29 -71t-29 -71q-29 -30 -71 -30t-71 30z" />
    <glyph glyph-name="R" unicode="R" horiz-adv-x="1268" 
d="M1138 368q-101 98 -228.5 149t-266.5 51q-138 0 -266.5 -51t-228.5 -149q-9 -9 -18 0l-16 16q-9 9 0 18q141 140 335 189.5t388 0t335 -189.5q10 -10 0 -18l-16 -16q-8 -10 -18 0zM990 202l-15 -15q-10 -9 -19 0q-130 124 -313 124t-313 -124q-9 -9 -19 0l-15 15
q-9 10 0 19q147 138 347 138q201 0 347 -138q9 -9 0 -19zM673 -117l132 132q15 16 -1 29q-71 67 -161 67t-161 -67q-17 -13 -1 -29l133 -132q12 -12 29 -12t30 12zM758 29l-115 -115l-115 115q52 40 115 40t115 -40z" />
    <glyph glyph-name="S" unicode="S" horiz-adv-x="758" 
d="M660 107q-3 -87 -43.5 -154t-103.5 -98q-61 -29 -132 -30q-109 -4 -192 73t-87 209q-2 75 42 186q45 116 95 198q55 93 106 164q13 19 36 19t36 -19q135 -190 202 -362q43 -109 41 -186zM612 108q3 98 -71 250q-77 154 -160 269q-85 -117 -159 -269q-75 -151 -72 -250
q3 -111 72 -175.5t159 -60.5q90 -4 159 60.5t72 175.5z" />
    <glyph glyph-name="T" unicode="T" horiz-adv-x="1072" 
d="M328 -173q-108 11 -168 84t-60 169v207q0 102 37 187t100 138q128 108 299 108q172 0 300 -108q63 -53 99.5 -138t36.5 -187v-207q0 -96 -60 -169t-168 -84q-20 -2 -34 11.5t-14 32.5v418q0 20 14.5 33t33.5 11q116 -10 181 -100v54q0 91 -33 166.5t-89 123.5
q-113 96 -268 96t-268 -96q-56 -48 -89 -123.5t-33 -166.5v-57q64 93 183 103q19 2 33.5 -11.5t14.5 -32.5v-418q0 -19 -14.5 -32.5t-33.5 -11.5zM328 -125v410q-68 -8 -115 -49.5t-58 -98.5q-12 -57 0 -113q11 -58 58 -99.5t115 -49.5zM744 285v-410q58 6 100 37.5t61 74.5
t19 93t-19 93t-61 74.5t-100 37.5z" />
    <glyph glyph-name="U" unicode="U" horiz-adv-x="1031" 
d="M523 -171q42 0 71.5 -29.5t29.5 -71.5q0 -26 -12 -49q114 22 193 92q78 69 78 177q-59 -81 -167 -90q-20 -2 -34 11.5t-14 32.5v393q0 19 14 32.5t34 11.5q108 -9 167 -90v45q0 88 -31.5 158.5t-83.5 114t-118 67t-135 23.5t-135 -23.5t-118 -67t-83.5 -114t-31.5 -158.5
v-45q60 81 168 90q19 2 33 -11.5t14 -32.5v-393q0 -19 -14 -32.5t-33 -11.5q-97 8 -156 75q-59 70 -59 167v194q0 97 35 177.5t95 130.5q124 103 286 103t286 -103q60 -50 94.5 -130.5t34.5 -177.5v-346q0 -76 -35.5 -139.5t-96.5 -103.5q-122 -78 -276 -78
q-41 0 -70.5 29.5t-29.5 71.5t29.5 71.5t70.5 29.5zM147 102q0 -80 45.5 -134.5t122.5 -62.5v386q-78 -8 -122 -62q-45 -57 -46 -127zM716 291v-386q53 6 92 35.5t56.5 70t17.5 87.5t-17.5 87.5t-56.5 70t-92 35.5zM482 -231q-17 -17 -17 -41t17 -41t41 -17t41 17t17 41
t-17 41t-41 17t-41 -17z" />
    <glyph glyph-name="V" unicode="V" horiz-adv-x="1067" 
d="M253 601h229v86q0 13 14 13h21q13 0 13 -13v-86h229q17 0 29 -12l165 -155q13 -12 13 -30t-13 -31l-165 -149q-15 -12 -29 -12h-229v-391q0 -13 -13 -13h-21q-14 0 -14 13v391h-229q-63 0 -108 45t-45 108v83q0 63 45 108t108 45zM916 404l-159 149h-504q-43 0 -74 -30.5
t-31 -74.5v-83q0 -43 31 -74t74 -31h504z" />
    <glyph glyph-name="W" unicode="W" horiz-adv-x="1160" 
d="M348 648h257v60q0 13 13 13h22q13 0 13 -13v-60h272q15 0 25 -10l99 -99q11 -10 11 -24.5t-11 -24.5l-99 -98q-11 -11 -25 -11h-577q-41 0 -71 30t-30 71v65q0 42 30 71.5t71 29.5zM1006 515l-86 86h-572q-22 0 -37.5 -16t-15.5 -38v-65q0 -22 15.5 -37.5t37.5 -15.5h572
zM605 52h-367q-15 0 -25 10l-102 102q-11 10 -11 25t11 25l102 102q10 10 25 10h598q43 0 73 -30t30 -73v-68q0 -43 -30 -73t-73 -30h-183v-226q0 -13 -13 -13h-22q-13 0 -13 13v226zM243 99h593q23 0 39.5 16.5t16.5 39.5v68q0 23 -16.5 39.5t-39.5 16.5h-593l-90 -90z" />
    <glyph glyph-name="X" unicode="X" horiz-adv-x="1209" 
d="M1117 375l-411 -511q-13 -16 -33 -16h-99q-20 0 -33 16l-413 511q-20 26 -2 52l125 188q12 20 37 20h670q25 0 37 -20l125 -188q16 -27 -3 -52zM570 588h-246l114 -149zM921 588h-245l132 -149zM489 425h268l-134 151zM182 425h206l-110 145zM1064 425l-96 145l-111 -145
h207zM576 -104l-157 481h-232zM624 -93l153 470h-308l153 -469q1 -1 2 -1zM670 -104h1l387 481h-231z" />
    <glyph glyph-name="Y" unicode="Y" horiz-adv-x="1054" 
d="M829 553q125 -125 125 -302q0 -176 -125 -301t-302 -125t-302 125t-125 301q0 177 125 302t302 125t302 -125zM259 520q-111 -112 -111 -269t111 -268t268 -111t268 111t111 268q0 158 -111 269t-268 111t-268 -111zM422 335l-121 -249q-14 -29 9 -52q22 -22 51 -9
l250 122q13 6 21 21l121 249q14 30 -8 52q-23 23 -52 9l-250 -122q-13 -6 -21 -21zM347 71l118 243l243 118l-118 -243zM499 280q-12 -12 -12 -29t12 -28q11 -12 28 -12t29 12q11 11 11 28t-11 29q-12 12 -29 12t-28 -12z" />
    <glyph glyph-name="Z" unicode="Z" horiz-adv-x="1034" 
d="M294 666h446q80 0 137 -57t57 -137v-446q0 -80 -57 -137t-137 -57h-446q-80 0 -137 57t-57 137v446q0 80 57 137t137 57zM740 618h-446q-60 0 -103 -43t-43 -103v-446q0 -60 43 -103t103 -43h446q61 0 104 43t43 103v446q0 60 -43 103t-104 43zM336 387v-69q0 -13 14 -13
h21q13 0 13 13v69h69q13 0 13 13v22q0 13 -13 13h-69v68q0 13 -13 13h-21q-14 0 -14 -13v-68h-68q-13 0 -13 -13v-22q0 -13 13 -13h68zM603 387h164q13 0 13 13v22q0 13 -13 13h-164q-13 0 -13 -13v-22q0 -13 13 -13zM394 90l55 54q7 10 0 19l-16 15q-9 9 -18 0l-55 -55
l-54 55q-10 10 -19 0l-15 -15q-10 -9 0 -19l55 -54l-55 -55q-10 -11 0 -18l15 -16q9 -9 19 0l54 55l55 -55q9 -9 18 0l16 16q7 7 0 18zM603 118h164q13 0 13 13v22q0 13 -13 13h-164q-13 0 -13 -13v-22q0 -13 13 -13zM603 19h164q13 0 13 13v21q0 13 -13 13h-164
q-13 0 -13 -13v-21q0 -13 13 -13z" />
    <glyph glyph-name="a" unicode="a" horiz-adv-x="1152" 
d="M262 599h628q66 0 115 -47q47 -49 47 -115v-381q0 -66 -47 -115q-49 -47 -115 -47h-628q-67 0 -114 47q-48 48 -48 115v381q0 67 48 115q47 47 114 47zM890 551h-628q-32 0 -56 -15l299 -302q29 -29 71 -29t71 29l300 302q-25 15 -57 15zM168 -9l256 258l-254 255
q-22 -29 -22 -67v-381q0 -36 20 -65zM982 504l-254 -256l256 -257q21 28 21 65v381q0 35 -23 67zM471 201l-14 14l-255 -257q28 -16 60 -16h628q33 0 59 16l-254 256l-14 -13q-43 -43 -105 -43t-105 43z" />
    <glyph glyph-name="b" unicode="b" horiz-adv-x="1086" 
d="M986 284v-353q0 -61 -44 -107q-46 -44 -108 -44h-582q-63 0 -107 44q-45 45 -45 107v353q0 63 52 115l292 294q40 41 99 42q57 0 98 -41l291 -294q54 -54 54 -116zM478 660l-279 -281l234 -235l10 10q40 40 99 40t99 -40l11 -11l235 236l-280 282q-26 26 -64.5 25.5
t-64.5 -26.5zM399 110l-232 234q-5 -6 -11 -18q-8 -21 -8 -42v-353q0 -31 17 -57zM686 109l235 -235q17 26 17 57v353q0 35 -19 60zM477 121l-278 -280q26 -14 53 -14h582q29 0 52 14l-279 280q-25 25 -64 25q-41 0 -66 -25z" />
    <glyph glyph-name="c" unicode="c" horiz-adv-x="1086" 
d="M802 565v-33l131 -133q53 -53 53 -115v-353q0 -61 -45 -107q-47 -44 -107 -44h-583q-60 0 -107 44q-44 47 -44 107v353q0 63 49 113l134 134v34q0 18 12 31.5t30 13.5h37l81 83q46 46 99 46.5t99 -45.5l84 -84h34q18 0 30.5 -13.5t12.5 -31.5zM478 661l-50 -51h230
l-50 50q-66 66 -130 1zM330 562v-315l102 -103l11 10q40 40 99 40t99 -40l11 -11l102 103v316h-424zM802 465v-171l84 85zM283 295v168l-84 -84zM399 110l-232 234q-20 -26 -20 -60v-353q0 -28 17 -57zM918 344l-233 -235l235 -235q18 26 18 57v353q0 34 -20 60zM477 121
l-278 -280q23 -14 52 -14h583q26 0 52 14l-279 280q-25 25 -65 25t-65 -25z" />
    <glyph glyph-name="d" unicode="d" horiz-adv-x="961" 
d="M479 -190q-106 32 -185 107t-120 177q-81 201 -58 425q2 17 13.5 28.5t27.5 11.5q81 2 163 42q82 39 139 99q14 14 32 14.5t32 -14.5q56 -60 139 -99q82 -40 163 -42q16 0 28 -11.5t14 -28.5q23 -224 -58 -425q-41 -102 -120.5 -177t-185.5 -107q-12 -4 -24 0zM491 -144
q97 29 168.5 99t108.5 166q71 182 52 391q-88 3 -177 45t-152 108q-62 -65 -151 -107q-89 -43 -178 -46q-19 -209 52 -391q37 -96 108.5 -166t168.5 -99zM662 389q6 12 -6 17l-19 10q-12 4 -18 -6l-133 -255l-84 132q-7 10 -18 4l-18 -11q-12 -7 -4 -18l89 -140
q16 -24 38 -22.5t35 26.5z" />
    <glyph glyph-name="e" unicode="e" horiz-adv-x="961" 
d="M478 -190q-106 32 -185 107t-120 177q-79 197 -59 425q2 17 14 28.5t28 11.5q81 2 163 42q84 40 139 99q14 14 32 14.5t32 -14.5q55 -59 139 -99q83 -41 163 -42q16 0 28 -11.5t14 -28.5q23 -222 -59 -425q-41 -102 -120 -177t-185 -107q-12 -4 -24 0zM490 -144
q97 29 168.5 99t108.5 166q71 182 52 391q-89 3 -177 45q-89 42 -152 108q-62 -65 -151 -107q-89 -43 -178 -46q-19 -209 52 -391q37 -96 108.5 -166t168.5 -99zM490 228l96 -97q10 -9 19 0l15 16q10 7 0 18l-96 96l96 97q10 8 0 18l-15 15q-9 9 -19 0l-96 -96l-96 96
q-10 9 -19 0l-15 -15q-10 -10 0 -18l96 -97l-96 -96q-10 -11 0 -18l15 -16q9 -9 19 0z" />
    <glyph glyph-name="f" unicode="f" horiz-adv-x="1208" 
d="M536 108q68 26 137 0q16 72 77 121q60 48 137 48q63 0 118 -34l-94 264q-9 28 -34 65q-3 4 -8.5 7.5t-12.5 7.5t-9 5q-6 4 -38 13q-3 1 -23.5 4.5t-25.5 5.5q-13 3 -10 15l5 21q3 13 16 10q45 -10 55 -12q32 -11 40 -14q27 -11 38 -22q33 -35 52 -90l134 -380
q18 -41 18 -87q0 -92 -65 -157q-64 -64 -156 -64q-93 0 -157 66q-65 67 -64 158q-61 31 -124 0q1 -91 -64 -158q-65 -66 -157 -66t-156 64q-65 65 -65 157q0 46 18 87l134 380q19 66 70 102q16 13 70 26q4 1 9.5 2t16.5 3.5t20 4.5q12 3 15 -10l5 -21q3 -12 -10 -15
q-5 -2 -25 -5.5t-23 -4.5l-7 -2q-7 -2 -12 -3q-9 -2 -34 -16q-30 -17 -50 -77l-93 -264q55 34 117 34q76 0 137 -47q60 -48 78 -122zM444 179q-52 50 -123 50q-72 0 -122 -50q-51 -51 -51 -123t51 -123q50 -50 122 -50q71 0 123 50q50 52 50 123t-50 123zM887 229
q-70 0 -122 -50q-51 -51 -51 -123t51 -123q52 -50 122 -50q71 0 123 50q51 51 51 123t-51 123q-52 50 -123 50z" />
    <glyph glyph-name="g" unicode="g" horiz-adv-x="1080" 
d="M213 348l258 258q98 98 226 48q161 -61 247 -126q94 -73 84 -142q-3 -23 -16 -40t-29 -27.5t-43.5 -19t-47 -12.5t-52.5 -9q-113 -18 -157 -60l-82 -83q-19 -18 -32.5 -50t-19 -59t-13 -71t-11.5 -61q-22 -93 -91 -103t-142 85q-63 80 -127 245q-49 130 48 227zM505 573
l-258 -259q-76 -75 -37 -176q57 -151 119 -233q55 -73 98 -67q50 7 65 132q4 50 24 109t51 90l83 82q30 32 91 52q56 19 108 25q125 15 132 64q6 43 -67 98q-75 58 -234 120q-98 37 -175 -37zM572 513q23 0 32 -18.5t0 -36.5t-32 -18q-22 -1 -31.5 18t0 37.5t31.5 17.5z
M697 503q17 -15 9.5 -35.5t-26 -26t-34.5 9.5t-9 35t25 25.5t35 -8.5zM572 413q23 0 32 -18.5t0 -36.5t-32 -18q-22 -1 -31.5 18t0 37.5t31.5 17.5zM697 403q17 -15 9.5 -35.5t-26 -26t-34.5 9.5t-9 35t25 25.5t35 -8.5zM457 250l-41 -42l41 -41q10 -9 0 -19l-15 -15
q-9 -9 -18 0l-42 41l-41 -41q-10 -9 -19 0l-15 15q-11 10 0 18l42 42l-42 42q-9 9 0 18l15 15q9 9 19 0l41 -41l42 41q9 9 18 0l15 -15q11 -10 0 -18z" />
    <glyph glyph-name="h" unicode="h" horiz-adv-x="1004" 
d="M891 226l-332 -332q-48 -48 -117 -48t-117 48l-177 177q-48 49 -48 118q0 68 48 116l332 332q12 13 31 13l349 1q19 0 31.5 -13t12.5 -31v-349q0 -18 -13 -32zM525 -72l331 331l1 344h-344l-331 -331q-34 -34 -34 -83q0 -50 34 -84l177 -177q35 -34 83 -34t83 34z
M782 433q0 42 -30 71.5t-71 29.5q-42 0 -71.5 -29.5t-29.5 -71.5q0 -41 29.5 -70.5t71.5 -29.5q41 0 71 29.5t30 70.5zM722 474q17 -17 17 -41t-17 -41t-41 -17t-41 17t-17 41t17 41t41 17t41 -17z" />
    <glyph glyph-name="i" unicode="i" horiz-adv-x="1167" 
d="M749 658q191 -55 273 -184q45 -72 45 -158q0 -96 -54.5 -173t-138 -119.5t-179.5 -61t-184 -8.5q-64 -95 -211 -124q-35 -6 -52 15t0 49q43 68 38 133q-86 52 -136 127t-50 162q0 84 44.5 156t118.5 118q74 44 156 68q165 47 330 0zM439 614q-121 -30 -206.5 -109
t-84.5 -189q0 -155 182 -259q15 -93 -36 -179q70 13 115 42t78 85q62 -8 97 -8q147 0 286 79q68 39 109 102t41 138q1 110 -85 189.5t-205 108.5q-146 39 -291 0z" />
    <glyph glyph-name="j" unicode="j" horiz-adv-x="1409" 
d="M671 635q167 -48 239 -162q40 -64 40 -140t-40 -139q-56 -87 -164 -135t-221 -48q-32 0 -62 3q-59 -83 -186 -107q-32 -6 -48 13.5t0 45.5q37 58 33 114q-74 44 -118 110.5t-44 142.5q0 75 40.5 139t102.5 104t137 59q145 42 291 0zM400 591q-105 -26 -179.5 -94
t-73.5 -164q0 -134 159 -224q12 -83 -28 -154q58 12 95 37t66 73q63 -7 86 -7q196 0 315 123q63 65 63 152q1 95 -73.5 163.5t-178.5 94.5q-125 34 -251 0zM1009 409q46 -8 88 -24t80 -41.5t61 -65t23 -87.5q0 -109 -130 -182q-10 -66 19 -123q-46 12 -73 30.5t-50 56.5
q-151 -20 -250 38q-12 6 -18 -5l-11 -18q-6 -12 5 -18q108 -62 251 -46q50 -68 154 -89q29 -5 43.5 13.5t0.5 42.5q-30 47 -27 88q62 38 98 93t36 119q0 75 -45 134q-46 58 -109 88q-61 29 -138 43q-13 1 -15 -11l-4 -21q-1 -13 11 -15z" />
    <glyph glyph-name="k" unicode="k" horiz-adv-x="946" 
d="M559 -184h-172q-67 0 -116 48q-47 49 -53 120l-42 549h-63q-13 0 -13 13v22q0 13 13 13h221v73q0 17 12.5 29.5t30.5 12.5h193q17 0 29.5 -12.5t12.5 -29.5v-73h221q13 0 13 -13v-22q0 -13 -13 -13h-62l-42 -549q-6 -70 -54 -120q-49 -48 -116 -48zM377 653v-72h192v72
h-192zM305 -102q34 -34 82 -34h172q48 0 82 34q36 36 40 90l42 545h-500l42 -545q5 -53 40 -90z" />
    <glyph glyph-name="l" unicode="l" horiz-adv-x="1056" 
d="M101 268q5 156 125 260q118 103 279 112v50q0 13 13 13h21q13 0 13 -13v-50q159 -9 280 -113q120 -104 125 -260q0 -19 -13 -32t-32 -13h-353v-257q0 -58 -40 -98q-41 -41 -99 -41t-98 40q-41 41 -41 99q0 13 13 13h22q13 0 13 -13q0 -37 27 -64t64 -27t64 27t27 64v257
h-366q-19 0 -32 13.5t-12 32.5zM148 270h761q-7 141 -120 233q-114 90 -260 90t-260 -90q-114 -91 -121 -233z" />
    <glyph glyph-name="m" unicode="m" horiz-adv-x="1076" 
d="M318 699h440q17 0 30 -13t13 -30v-146h9q68 0 117 -48q49 -49 49 -117v-309q0 -18 -13 -31t-30 -13h-132v-145q0 -18 -13 -30.5t-30 -12.5h-440q-18 0 -31 12.5t-13 30.5v145h-131q-18 0 -30.5 13t-12.5 31v309q0 68 49 117q48 48 116 48h9v146q0 17 13 30t31 13z
M753 510v141h-431v-141h431zM801 229v-189h127v305q0 49 -34 83t-84 34h-545q-49 0 -83 -34q-35 -35 -35 -83v-305h127v189h527zM773 409q-14 0 -24.5 -10.5t-10.5 -24.5q0 -15 10.5 -25.5t24.5 -10.5q15 0 25.5 10.5t10.5 25.5q0 14 -10.5 24.5t-25.5 10.5zM322 181v-330
h431v330h-431z" />
    <glyph glyph-name="n" unicode="n" horiz-adv-x="863" 
d="M513 -197h-270q-13 0 -13 13v21q0 13 13 13h113v117q-93 6 -171 51q-11 8 -4 19l10 19q7 10 18 3q123 -70 256 -33q136 36 206 157t33 257q-36 136 -157 205q-11 6 -5 18l11 19q6 10 18 4q139 -80 179 -234q23 -74 10 -150.5t-48.5 -141.5t-97.5 -113.5t-136 -66.5
q-34 -10 -78 -13v-117h113q13 0 13 -13v-21q0 -13 -13 -13zM655 353q0 115 -81 196t-196 81q-116 0 -197 -81t-81 -196q0 -116 81 -197t197 -81q115 0 196 81t81 197zM378 582q96 0 163 -67t67 -163t-67 -163t-163 -67t-163 67t-67 163t67 163t163 67z" />
    <glyph glyph-name="o" unicode="o" horiz-adv-x="1110" 
d="M265 558q-49 0 -83 -34q-35 -35 -35 -83v-54q0 -13 -13 -13h-21q-13 0 -13 13v54q0 68 49 117q48 48 116 48h53q13 0 13 -13v-21q0 -14 -13 -14h-53zM844 558q50 0 84 -34t34 -83v-54q0 -13 13 -13h22q13 0 13 13v54q0 68 -49 117q-49 48 -117 48h-53q-13 0 -13 -13v-21
q0 -14 13 -14h53zM265 -69q-49 0 -83.5 34.5t-34.5 83.5v53q0 13 -13 13h-21q-13 0 -13 -13v-53q0 -68 49 -117q48 -49 116 -49h53q13 0 13 14v21q0 13 -13 13h-53zM844 -69q49 0 83.5 34.5t34.5 83.5v53q0 13 13 13h22q13 0 13 -13v-53q0 -68 -49 -117t-117 -49h-53
q-13 0 -13 14v21q0 13 13 13h53z" />
    <glyph glyph-name="p" unicode="p" horiz-adv-x="1187" 
d="M609 549h313q68 0 117 -48q48 -49 48 -117v-371q0 -67 -48 -117q-49 -49 -117 -49h-657q-68 0 -116 49q-49 49 -49 117v481q0 68 49 117q48 49 116 49h186q56 0 91.5 -26t66.5 -85zM922 502h-343l-22 44q-12 18 -23 32q-27 34 -83 34h-186q-49 0 -83.5 -34.5t-34.5 -83.5
v-481q0 -49 34.5 -83.5t83.5 -34.5h657q49 0 83.5 34.5t34.5 83.5v371q0 49 -34.5 83.5t-83.5 34.5z" />
    <glyph glyph-name="q" unicode="q" horiz-adv-x="1254" 
d="M1111 277l18 -106l-4 243q0 48 -34 77.5t-84 29.5h-308q-13 29 -18 36q-16 26 -17 28q-14 19 -24 27q-35 20 -69 20h-191q-51 0 -84.5 -28.5t-33.5 -75.5v-52q0 -13 -13 -13h-21q-14 0 -14 13v52q0 68 49 110q49 41 117 41h191q56 0 91.5 -26t65.5 -84h279q70 0 117 -43
q48 -43 48 -112v-431q0 -64 -50 -111q-52 -47 -116 -47h-657q-58 0 -103 35t-58 91l-65 285q-18 78 27 127q45 48 126 48h673q60 0 106 -37.5t56 -96.5zM949 363h-673q-59 0 -89 -31t-18 -86l66 -284q9 -40 40.5 -64.5t73.5 -24.5h657q60 0 94 45t21 102l-58 254
q-9 40 -41 64.5t-73 24.5z" />
    <glyph glyph-name="r" unicode="r" horiz-adv-x="1172" 
d="M100 221l140 401q11 30 41 30h610q31 0 41 -30l140 -401v-319q0 -18 -12.5 -31t-31.5 -13h-884q-19 0 -31.5 13t-12.5 31v319zM284 604l-127 -363h257q17 0 29.5 -11t14.5 -28q6 -54 45 -84t83 -30t83 30t45 84q2 17 15 28t29 11h257l-126 363h-605zM1025 -94v287h-264
q-11 -86 -80 -125.5t-142 -19.5q-49 9 -84.5 48.5t-43.5 96.5h-264v-287h878z" />
    <glyph glyph-name="s" unicode="s" horiz-adv-x="1045" 
d="M246 550h76v14q0 60 43 103q42 43 102 43h286l192 -192v-420q0 -60 -43 -103t-103 -43h-76v-14q0 -60 -42 -103q-43 -43 -103 -43h-332q-60 0 -103 43t-43 103v466q0 61 43 104q43 42 103 42zM897 98v373h-151q-17 0 -29 12t-12 28v151h-238q-40 0 -69 -29t-29 -69v-14
h163l191 -192v-358h76q41 0 69.5 29t28.5 69zM882 514l-134 134v-134h134zM676 -62v373h-152q-16 0 -28 11.5t-12 28.5v151h-238q-40 0 -69 -29t-29 -69v-466q0 -40 29 -69t69 -29h332q40 0 69 29t29 69zM661 354l-134 134v-134h134z" />
    <glyph glyph-name="t" unicode="t" horiz-adv-x="1026" 
d="M935 -54q12 -31 -13 -50q-156 -114 -375 -6q-117 57 -221 161t-161 221q-34 69 -46.5 133.5t0 127.5t52.5 113q19 25 51 13q64 -25 118.5 -78.5t87.5 -126.5q10 -25 -5 -45l-52 -68q77 -169 246 -246l68 52q20 16 45 5q71 -33 125 -87t80 -119zM889 587v-244
q0 -13 -13 -13h-21q-13 0 -13 13v193l-244 -244q-10 -10 -19 0l-15 15q-9 9 0 18l244 245h-188q-13 0 -13 13v21q0 13 13 13h239q13 0 21.5 -9t8.5 -21zM890 -69q-22 54 -68.5 100.5t-109.5 76.5l-68 -52q-20 -15 -45 -5q-188 84 -272 273q-11 24 5 44l52 68
q-30 64 -76.5 110.5t-100.5 67.5q-92 -130 1 -321q53 -110 152 -208q97 -98 208 -153q200 -98 322 -1z" />
    <glyph glyph-name="u" unicode="u" horiz-adv-x="1026" 
d="M221 -161q-28 -13 -50 13q-40 50 -52.5 113t0 127.5t46.5 133.5q57 117 161 221q103 103 221 162q219 107 374 -7q26 -22 13 -50q-24 -63 -77.5 -117t-127.5 -89q-25 -11 -45 5l-68 52q-168 -77 -245 -246l51 -68q16 -20 5 -45q-33 -71 -87 -125t-119 -80zM206 -116
q54 21 100.5 67.5t76.5 110.5l-52 68q-14 22 -5 44q86 188 273 273q22 9 44 -5l68 -52q64 30 110.5 76.5t67.5 100.5q-130 92 -321 -1q-110 -54 -208 -152q-98 -97 -153 -208q-98 -200 -1 -322zM575 -73v244q0 13 8.5 22t21.5 9h239q13 0 13 -13v-22q0 -13 -13 -13h-188
l244 -244q10 -10 0 -19l-15 -15q-9 -9 -19 1l-244 243v-193q0 -13 -13 -13h-21q-13 0 -13 13z" />
    <glyph glyph-name="v" unicode="v" horiz-adv-x="1025" 
d="M221 -173q-29 -13 -51 13q-40 49 -52 112.5t0.5 128.5t45.5 133q59 118 162 221t221 162q219 107 374 -7q25 -19 13 -50q-25 -64 -78.5 -118.5t-126.5 -87.5q-25 -11 -45 5l-68 52q-170 -78 -246 -246l52 -68q16 -20 5 -45q-33 -71 -87 -125t-119 -80zM206 -128
q54 21 100.5 67.5t76.5 110.5l-52 68q-16 20 -5 44q82 187 272 273q24 10 45 -5l68 -52q63 30 109.5 76.5t68.5 100.5q-122 97 -322 -1q-110 -54 -208 -152q-99 -101 -152 -208q-98 -200 -1 -322z" />
    <glyph glyph-name="w" unicode="w" horiz-adv-x="1168" 
d="M380 589l21 -109h623q22 0 35 -17t8 -37l-83 -302q-14 -54 -58.5 -86.5t-101.5 -32.5h-241q-63 0 -107 34.5t-56 94.5l-87 446q-8 39 -30 55.5t-63 16.5h-127q-13 0 -13 13v22q0 13 13 13h127q118 0 140 -111zM939 136l80 296h-609l57 -289q9 -43 40 -66.5t76 -23.5h241
q40 0 72 22.5t43 60.5zM532 -63q-20 -19 -20 -46t20 -46t46.5 -19t45.5 19t19 46t-19 46t-45.5 19t-46.5 -19zM783 -63q-19 -19 -19 -46t19 -46t46 -19t47 19t20 46t-20 46t-47 19t-46 -19z" />
    <glyph glyph-name="x" unicode="x" horiz-adv-x="1169" 
d="M380 589l21 -109h117l130 132q47 48 88.5 47.5t88.5 -48.5l131 -131h69q21 0 34.5 -17t7.5 -37l-82 -302q-15 -54 -59 -86.5t-101 -32.5h-242q-63 0 -106.5 34.5t-55.5 94.5l-88 446q-7 39 -28.5 55.5t-63.5 16.5h-127q-14 0 -14 13v22q0 13 14 13h127q117 0 139 -111z
M679 582l-101 -102h318l-101 101q-35 35 -58 35.5t-58 -34.5zM939 136l81 296h-609l57 -289q8 -42 39 -66t76 -24h242q42 0 73 22.5t41 60.5zM532 -63q-19 -19 -19 -46t19 -46t46.5 -19t46.5 19t19 46t-19 46t-46.5 19t-46.5 -19zM784 -63q-19 -19 -19 -46t19 -46t46 -19
t46 19t19 46t-19 46t-46 19t-46 -19z" />
    <glyph glyph-name="y" unicode="y" horiz-adv-x="1014" 
d="M337 546h-22q-13 0 -13 13q0 140 106 231q10 8 19 -1l14 -17q8 -11 -1 -18q-90 -76 -90 -195q0 -13 -13 -13zM464 546h-22q-13 0 -13 13q0 108 83 180q11 8 19 -1l14 -16q7 -10 -1 -19q-67 -58 -67 -144q0 -13 -13 -13zM703 457v-54h36q48 0 85.5 -19.5t57 -50.5
t28.5 -69t0 -76t-28.5 -69t-57 -50.5t-85.5 -19.5h-36v-92q0 -57 -41 -100q-43 -41 -100 -41h-320q-57 0 -100 41q-42 42 -42 100v500q0 18 13.5 31.5t31.5 13.5h513q19 0 32 -13.5t13 -31.5zM242 -136h320q38 0 65.5 27.5t27.5 65.5v497h-507v-497q0 -38 27.5 -65.5
t66.5 -27.5zM703 356v-259h36q72 -1 105.5 53t17.5 115q-8 39 -42 65t-81 26h-36z" />
    <glyph glyph-name="z" unicode="z" horiz-adv-x="1084" 
d="M332 420h26v65q0 51 20.5 90.5t53.5 60t73 30t80 0t73 -30t53.5 -60t20.5 -90.5v-65h26q140 0 162 -138l66 -405q3 -20 -10 -35.5t-34 -15.5h-794q-21 0 -34 15.5t-10 35.5l66 405q22 138 162 138zM406 420h278v65q0 38 -15.5 67.5t-40 44.5t-54 22.5t-59 0t-54 -22.5
t-40 -44.5t-15.5 -67.5v-65zM758 373h-26v-59q25 -13 25 -43q0 -20 -14.5 -34.5t-34.5 -14.5t-34.5 14.5t-14.5 34.5q0 30 25 43v59h-278v-59q25 -13 25 -43q0 -20 -14.5 -34.5t-34.5 -14.5t-34.5 14.5t-14.5 34.5q0 30 25 43v59h-26q-52 0 -79.5 -24t-35.5 -75l-65 -401
h786l-65 401q-8 51 -35.5 75t-79.5 24z" />
    <glyph glyph-name="NULL" 
 />
  </font>
</defs>
</svg>
