<?xml version="1.0" standalone="no"?>
<!DOCTYPE svg PUBLIC "-//W3C//DTD SVG 1.1//EN" "http://www.w3.org/Graphics/SVG/1.1/DTD/svg11.dtd" >
<svg xmlns="http://www.w3.org/2000/svg" xmlns:xlink="http://www.w3.org/1999/xlink" version="1.1">
<metadata>
Created by FontForge 20170731 at Fri Dec 12 19:18:25 2014
 By Aleksey,,,
Copyright (c) 2014 by . All rights reserved.
</metadata>
<defs>
<font id="PantonIconsD-Regular" horiz-adv-x="1164" >
  <font-face 
    font-family="Panton Icons D "
    font-weight="400"
    font-stretch="normal"
    units-per-em="1000"
    panose-1="0 0 5 0 0 0 0 0 0 0"
    ascent="745"
    descent="-255"
    x-height="610"
    cap-height="688"
    bbox="93 -250 1101 750"
    underline-thickness="50"
    underline-position="-200"
    unicode-range="U+0020-007A"
  />
<missing-glyph horiz-adv-x="500" 
d="M410 750v-1000h-317v1000h317zM333 683h-165v-33h65v-37h-66v-33h166v33h-66v37h66v33zM267 554h-100v-104h166v34h-66v70zM233 520v-36h-33v36h33zM333 423h-166v-33h66v-37h-66v-33h100v70h66v33zM333 363h-33v-66h-133v-34h166v100zM333 241h-100v-56h34v23h33v-47
h-100v80h-33v-113h166v113zM333 68h-166v-113h166v113zM300 35v-47h-100v47h100zM333 -68h-166v-33h70l-70 -47v-33h166v33h-102l70 47h32v33z" />
    <glyph glyph-name=".notdef" horiz-adv-x="500" 
d="M410 750v-1000h-317v1000h317zM333 683h-165v-33h65v-37h-66v-33h166v33h-66v37h66v33zM267 554h-100v-104h166v34h-66v70zM233 520v-36h-33v36h33zM333 423h-166v-33h66v-37h-66v-33h100v70h66v33zM333 363h-33v-66h-133v-34h166v100zM333 241h-100v-56h34v23h33v-47
h-100v80h-33v-113h166v113zM333 68h-166v-113h166v113zM300 35v-47h-100v47h100zM333 -68h-166v-33h70l-70 -47v-33h166v33h-102l70 47h32v33z" />
    <glyph glyph-name=".null" horiz-adv-x="0" 
 />
    <glyph glyph-name="nonmarkingreturn" horiz-adv-x="333" 
 />
    <glyph glyph-name="space" unicode=" " horiz-adv-x="0" 
 />
    <glyph glyph-name="A" unicode="A" horiz-adv-x="963" 
d="M494 687l351 -154q18 -7 18 -27v-512q0 -9 -5 -17q-3 -5 -13 -11l-351 -154q-12 -4 -24 0l-352 154q-18 8 -18 28v512q0 20 18 27l352 154q12 6 24 0zM477 670l-343 -151l348 -153l348 153l-344 151q-4 2 -9 0zM126 -16l346 -152v518l-352 155v-511q0 -7 6 -10zM844 -6
v511l-353 -155v-518l347 152q3 1 4 4q2 2 2 6z" />
    <glyph glyph-name="B" unicode="B" horiz-adv-x="1059" 
d="M529 679q177 0 304 -125q126 -126 126 -304t-126 -304q-127 -125 -304 -125q-176 0 -303 125q-126 126 -126 304t126 304q127 125 303 125zM529 660q-169 0 -289 -120q-121 -120 -121 -290t120 -290t290 -120q169 0 291 120q120 120 120 290t-120 290q-122 120 -291 120z
M538 529h-3q-8 0 -11 -3t-3 -11v-3q0 -8 3 -11t11 -3h3q8 0 11 3t3 11v3q0 8 -3 11t-11 3zM649 14v9q0 5 -5 5h-97v362q0 6 -6 6h-102q-6 0 -6 -6v-9q0 -6 6 -6h88v-347h-98q-5 0 -5 -5v-9q0 -6 5 -6h215q5 0 5 6z" />
    <glyph glyph-name="C" unicode="C" horiz-adv-x="906" 
d="M365 -53l-127 127l-95 -96q-7 -7 -1 -15l120 -119q4 -4 0 -8l-6 -6q-4 -4 -7 0l-120 120q-19 20 0 42l295 294q-61 67 -61 157q0 97 68 165q67 67 163 67q98 0 165 -67t67 -165q0 -96 -67 -163q-68 -68 -165 -68q-90 0 -157 61l-185 -186l127 -127q3 -4 0 -7l-6 -6
q-4 -4 -8 0zM745 594q-64 62 -151 62q-88 0 -150 -62q-62 -64 -62 -151q0 -88 62 -150t150 -62q87 0 151 62q62 62 62 150q0 89 -62 151z" />
    <glyph glyph-name="D" unicode="D" horiz-adv-x="1110" 
d="M598 519l138 137q31 31 68.5 43t70.5 4.5t63.5 -26.5t49 -49.5t26 -63.5t-4 -70t-42.5 -68l-138 -138q-34 -35 -76 -45t-79 1.5t-67 38.5l-77 -77q44 -49 44.5 -105.5t-49.5 -116.5l-137 -137q-31 -31 -68.5 -43t-70.5 -4.5t-63.5 26.5t-49 49.5t-26 63.5t4 70t42.5 68
l137 138q35 35 77 45t79 -1.5t67 -38.5l76 76q-27 30 -38.5 66.5t-1.5 79t45 77.5zM735 411l-115 -115q41 -38 93.5 -38t102.5 44l137 137q24 24 35 52.5t8.5 55t-14 51.5t-30.5 44t-44 30.5t-51.5 14t-55 -8.5t-52.5 -35l-137 -137q-44 -54 -43.5 -103t38.5 -93l115 115
q3 3 7 0l6 -6q4 -4 0 -8zM388 91l116 115q-44 38 -93.5 38.5t-102.5 -43.5l-138 -137q-22 -22 -33 -47t-11 -48.5t7.5 -47t22.5 -42t33.5 -33.5t42 -22.5t47 -7.5t48.5 11t47 33l138 137q44 53 43.5 102.5t-38.5 93.5l-115 -116q-4 -4 -8 0l-6 6q-4 4 0 8z" />
    <glyph glyph-name="E" unicode="E" horiz-adv-x="906" 
d="M247 321v168q0 56 22.5 100t59 66.5t80.5 33t88 0t80.5 -33t59 -66.5t22.5 -100v-168q61 -4 105 -50q42 -47 42 -108v-204q0 -65 -47 -112q-46 -46 -112 -46h-388q-66 0 -112 46q-47 47 -47 112v204q0 62 43 108q42 45 104 50zM266 321h374v168q0 51 -20.5 91t-53.5 60.5
t-73 30t-80 0t-73 -30t-53.5 -60.5t-20.5 -91v-168zM647 302h-388q-58 0 -99 -41t-41 -98v-204q0 -58 41 -99q40 -40 99 -40h388q59 0 99 40q41 41 41 99v204q0 57 -41 98t-99 41zM443 54v-83q0 -5 6 -5h8q5 0 5 5v83q20 4 33.5 19.5t13.5 35.5q0 23 -16.5 39.5t-39.5 16.5
t-39.5 -16.5t-16.5 -39.5q0 -20 13 -35.5t33 -19.5zM479 136q11 -11 11 -27q0 -15 -11 -26t-26 -11t-26 11t-11 26q0 25 23 34t40 -7z" />
    <glyph glyph-name="F" unicode="F" horiz-adv-x="905" 
d="M221 397l43 -75h382q67 0 113 -46t46 -112v-204q0 -66 -46 -112t-113 -46h-388q-65 0 -111 46q-47 47 -47 112v204q0 60 41 106q40 45 101 51l-38 66q-28 49 -30 98.5t18 87.5t53 69t76.5 44t86 11.5t84 -28.5t69.5 -75l69 -118q3 -4 -2 -7l-8 -4q-4 -3 -7 1l-68 119
q-20 35 -47.5 57t-57 30t-61.5 7t-60.5 -14t-54 -31t-42.5 -45.5t-25 -57t-2 -64.5t26 -70zM646 303h-388q-57 0 -98 -41t-41 -98v-204q0 -58 41 -99q40 -40 98 -40h388q59 0 99 40q41 41 41 99v204q0 57 -41 98t-99 41zM443 55v-83q0 -5 5 -5h9q5 0 5 5v83q20 4 33 19.5
t13 35.5q0 23 -16.5 39.5t-39.5 16.5t-39.5 -16.5t-16.5 -39.5q0 -20 13.5 -35.5t33.5 -19.5zM452 147q16 0 26.5 -10.5t10.5 -26.5q0 -15 -10.5 -26t-26.5 -11q-15 0 -25.5 11t-10.5 26q0 16 10.5 26.5t25.5 10.5z" />
    <glyph glyph-name="G" unicode="G" horiz-adv-x="1058" 
d="M833 554q125 -127 125 -304t-125 -304q-127 -125 -304 -125q-178 0 -303 125q-126 126 -126 304t126 304q125 125 303 125q177 0 304 -125zM239 540q-120 -120 -120 -290t121 -290q120 -120 289 -120q170 0 290 120t120 290t-120 290t-290 120t-290 -120zM539 241h201
q6 0 6 5v8q0 6 -6 6h-201v201q0 6 -6 6h-8q-5 0 -5 -6v-201h-202q-5 0 -5 -6v-8q0 -5 5 -5h202v-202q0 -5 5 -5h8q6 0 6 5v202z" />
    <glyph glyph-name="H" unicode="H" horiz-adv-x="963" 
d="M542 629q120 -7 216 -85q95 -78 126 -196q33 -125 -13 -239q-47 -116 -156 -185q-6 -3 -8 2l-4 7q-3 4 1 7q104 66 149 176q43 109 12 227q-30 114 -120 187q-90 72 -208 80l92 -119q3 -4 -1 -7l-7 -6q-4 -3 -7 1l-102 133q-9 15 5 24l139 86q4 3 7 -2l4 -7q3 -5 -1 -8z
M489 -131q-120 7 -215 86q-95 78 -126 196q-34 122 13 239q46 115 156 184q5 3 7 -2l5 -7q3 -4 -2 -7q-104 -66 -147 -175q-45 -110 -14 -228q32 -113 122 -187q89 -72 206 -80l-91 119q-3 3 1 8l7 5q4 3 7 -1l101 -133q10 -13 -4 -23l-139 -86q-4 -4 -7 1l-5 8q-3 4 2 7z
" />
    <glyph glyph-name="I" unicode="I" horiz-adv-x="959" 
d="M470 334v349q0 5 5 5h9q5 0 5 -5v-349q0 -6 -5 -6h-9q-5 0 -5 6zM211 -76q-111 112 -111 270q0 123 70 221q71 98 185 138q6 3 7 -3l3 -8q1 -4 -4 -7q-110 -38 -175 -131q-67 -94 -67 -210q0 -151 105 -256q104 -104 255 -106q150 2 256 106q105 107 105 256
q0 116 -67 210t-176 131q-4 3 -3 7l3 8q1 6 7 3q114 -40 185 -138q70 -98 70 -221q0 -158 -111 -270q-112 -111 -269 -111t-268 111z" />
    <glyph glyph-name="J" unicode="J" horiz-adv-x="962" 
d="M478 -69l-90 119q-4 4 0 7l7 5q3 4 8 -1l101 -132q10 -15 -5 -24l-138 -86q-5 -2 -8 2l-4 7q-3 4 2 7l124 77q-119 9 -214 86q-111 93 -133 232q-23 142 52 263q82 132 237 170q153 36 287 -47q120 -74 164 -211q42 -137 -16 -266q-53 -119 -164 -180q-4 -3 -7 2l-4 7
q-2 5 2 8q105 57 156 170q54 125 14 254q-41 130 -155 200q-128 80 -273 45t-225 -162q-72 -115 -49 -250t126 -220q91 -74 205 -82z" />
    <glyph glyph-name="K" unicode="K" horiz-adv-x="1086" 
d="M577 656l119 -236q4 -6 9 -7l261 -40q19 -3 25 -21t-8 -31l-188 -187q-4 -6 -3 -10l42 -262q3 -18 -12 -29t-32 -3l-235 121q-6 3 -11 0l-236 -121q-16 -8 -31.5 3t-12.5 29l42 262q2 5 -3 10l-188 187q-14 13 -8 31t25 21l262 40q6 1 8 6l120 237q8 16 27 16t28 -16z
M679 411l-119 236q-4 7 -11 7t-10 -7l-120 -236q-6 -14 -22 -17l-262 -40q-7 -2 -9 -8.5t3 -11.5l188 -187q11 -11 8 -26l-42 -262q-1 -7 4.5 -11t12.5 -1l235 121q14 8 28 0l236 -121q6 -3 12 1t5 11l-43 262q-2 15 9 26l188 187q5 5 3 11.5t-10 8.5l-261 41q-16 2 -23 16z
" />
    <glyph glyph-name="L" unicode="L" horiz-adv-x="1052" 
d="M259 -4l137 136q-89 95 -89 223q0 134 95 229t230 95q134 0 229 -95t95 -229t-95 -229q-95 -96 -229 -96q-128 0 -223 89l-137 -137l140 -140q4 -3 0 -7l-6 -6q-4 -4 -8 0l-139 140l-140 -140q-3 -4 -7 0l-6 6q-4 4 0 7l139 140l-139 140q-4 3 0 7l6 6q4 4 7 0zM632 660
q-127 0 -216 -89q-90 -90 -90 -216q0 -127 90 -216q88 -90 216 -90q126 0 216 90q89 89 89 216q0 125 -89 216q-91 89 -216 89z" />
    <glyph glyph-name="M" unicode="M" horiz-adv-x="1033" 
d="M647 384l255 255h-222q-5 0 -5 5v9q0 5 5 5h223q13 0 21.5 -8.5t8.5 -21.5v-223q0 -5 -5 -5h-9q-5 0 -5 5v219l-254 -253q89 -95 89 -223q0 -134 -95 -229q-97 -95 -230 -95q-134 0 -229 95t-95 229q0 133 95 230q95 95 229 95q128 0 223 -89zM424 -157q126 0 217 89
q89 91 89 216q0 126 -89 217q-91 89 -217 89t-215 -89q-90 -90 -90 -217q0 -126 90 -216q89 -89 215 -89z" />
    <glyph glyph-name="N" unicode="N" horiz-adv-x="1092" 
d="M536 691q0 5 6 5h8q6 0 6 -5q0 -11 -0.5 -58t-0.5 -57q131 -5 221 -95q91 -91 94 -221h116q6 0 6 -5v-9q0 -5 -6 -5h-116q-5 -129 -95 -219t-220 -95q0 -32 1 -59v-58q0 -5 -6 -5h-8q-6 0 -6 5v117q-129 5 -219 95t-95 219h-116q-6 0 -6 5v9q0 5 6 5h116q3 129 95 221
q90 90 219 95v115zM241 260h295v297q-120 -4 -206 -90t-89 -207zM555 260h296q-3 121 -89 207q-86 85 -207 90v-297zM536 -54v295h-295q4 -120 90 -206q84 -84 205 -89zM555 241v-295q123 5 207 89q84 85 89 206h-296z" />
    <glyph glyph-name="O" unicode="O" horiz-adv-x="946" 
d="M566 -119l-269 203h-168q-12 0 -20.5 8.5t-8.5 20.5v265q0 12 8.5 20.5t20.5 8.5h168l269 202q15 11 30.5 2.5t15.5 -26.5v-680q0 -17 -15.5 -25.5t-30.5 1.5zM593 -95v681q0 7 -5.5 9.5t-9.5 -1.5l-275 -206h-174q-10 0 -10 -10v-265q0 -10 10 -10h174l275 -207
q4 -4 9.5 -0.5t5.5 9.5zM709 104l1 -8q1 -6 6 -4q63 11 97 56q34 44 34 97q0 52 -34 98q-34 45 -97 56q-5 2 -6 -4l-1 -9q-1 -4 4 -6q54 -9 84.5 -49t30.5 -86t-30.5 -86t-84.5 -49q-5 0 -4 -6z" />
    <glyph glyph-name="P" unicode="P" horiz-adv-x="1102" 
d="M567 -115l-269 203h-169q-12 0 -20.5 8.5t-8.5 20.5v265q0 12 8.5 20.5t20.5 8.5h169l269 202q14 11 30 2.5t16 -26.5v-680q0 -17 -16 -25.5t-30 1.5zM594 -91v681q0 7 -5.5 9.5t-10.5 -1.5l-274 -206h-175q-10 0 -10 -10v-265q0 -10 10 -10h175l274 -207q5 -4 10.5 -0.5
t5.5 9.5zM780 -30q65 21 112 65.5t69 98.5t22 115.5t-21.5 115.5t-68.5 98.5t-113 65.5q-5 2 -4 6l3 8q2 5 7 4q70 -22 119.5 -69.5t73 -105t23.5 -123t-23.5 -123t-73 -105t-119.5 -69.5q-6 -1 -7 3l-3 8q-1 5 4 7zM709 108l2 -8q0 -6 6 -4q63 11 97 56q34 44 34 97
q0 52 -34 98q-34 45 -97 56q-6 1 -6 -4l-2 -9q0 -4 5 -6q54 -9 84.5 -49t30.5 -86t-30.5 -86t-84.5 -49q-5 0 -5 -6z" />
    <glyph glyph-name="Q" unicode="Q" horiz-adv-x="1166" 
d="M567 -117l-269 203h-169q-12 0 -20.5 8.5t-8.5 20.5v265q0 12 8.5 20.5t20.5 8.5h169l269 202q14 11 30 2.5t16 -26.5v-680q0 -17 -16 -25.5t-30 1.5zM594 -93v681q0 7 -5.5 9.5t-10.5 -1.5l-274 -206h-175q-10 0 -10 -10v-265q0 -10 10 -10h175l274 -207q5 -4 10.5 -0.5
t5.5 9.5zM900 261l151 150q3 4 7 0l6 -6q4 -3 0 -7l-150 -151l150 -150q4 -4 0 -8l-6 -6q-4 -4 -7 0l-151 151l-150 -151q-4 -4 -8 0l-6 6q-4 4 0 8l151 150l-151 151q-4 4 0 7l6 6q4 4 8 0z" />
    <glyph glyph-name="R" unicode="R" horiz-adv-x="1056" 
d="M676 339l-134 -133q-14 -14 -28 0l-133 133q-4 4 0 8l6 6q3 4 7 0l125 -125v451q0 5 5 5h8q6 0 6 -5v-451l124 125q4 4 8 0l6 -6q4 -4 0 -8zM804 476q18 0 26 -18l126 -331v-287q0 -11 -8 -19t-20 -8h-800q-11 0 -19.5 8t-8.5 19v287l126 331q8 18 27 18h126q5 0 5 -5v-9
q0 -5 -5 -5h-126q-6 0 -9 -6l-120 -316h249q11 0 18.5 -7.5t8.5 -17.5q6 -49 42.5 -81.5t85.5 -32.5t85.5 32.5t42.5 81.5q4 25 28 25h249l-121 316q-2 6 -8 6h-127q-5 0 -5 5v9q0 5 5 5h127zM128 -168h800q9 0 9 8v276h-253q-9 0 -9 -8q-8 -56 -49 -93q-41 -38 -98 -38
t-98 38q-42 37 -48 93q-2 8 -9 8h-254v-276q0 -8 9 -8z" />
    <glyph glyph-name="S" unicode="S" horiz-adv-x="1056" 
d="M380 568l134 134q14 14 28 0l134 -134q4 -4 0 -7l-6 -6q-4 -4 -8 0l-124 124v-451q0 -5 -6 -5h-8q-6 0 -6 5v451l-124 -124q-4 -4 -8 0l-6 6q-3 3 0 7zM804 455q18 0 26 -18l126 -331v-287q0 -11 -8.5 -19.5t-19.5 -8.5h-800q-11 0 -19.5 8.5t-8.5 19.5v287l126 331
q8 18 26 18h127q5 0 5 -5v-9q0 -5 -5 -5h-127q-6 0 -8 -6l-120 -317h249q11 0 18.5 -7t8.5 -17q6 -49 42.5 -81.5t85.5 -32.5t85.5 32.5t42.5 81.5q1 10 8.5 17t18.5 7h250l-121 317q-2 6 -8 6h-127q-5 0 -5 5v9q0 5 5 5h127zM128 -190h800q9 0 9 9v275h-254q-8 0 -8 -7
q-7 -55 -49 -94q-41 -37 -98 -37t-98 37q-42 39 -49 94q0 7 -8 7h-254v-275q0 -9 9 -9z" />
    <glyph glyph-name="T" unicode="T" 
d="M975 115q-3 -56 -44 -95q-41 -40 -98 -40h-590q-59 0 -101 43q-42 42 -42 101v253q0 59 42 102q42 42 101 42h590q56 0 98 -39q41 -41 44 -96q1 -10 11 -10h49q12 0 20.5 -8.5t8.5 -20.5v-193q0 -12 -8.5 -20.5t-20.5 -8.5h-49q-10 0 -11 -10zM956 116q1 12 9.5 20
t20.5 8h49q10 0 10 10v193q0 10 -10 10h-49q-12 0 -20.5 8t-9.5 20q-3 49 -38.5 82.5t-84.5 33.5h-590q-52 0 -88 -36t-36 -88v-253q0 -52 36 -88q36 -37 88 -37h590q49 0 84.5 34t38.5 83z" />
    <glyph glyph-name="U" unicode="U" 
d="M976 115q-4 -57 -45 -96t-98 -39h-590q-59 0 -101 43q-42 42 -42 101v253q0 59 42 102q42 42 101 42h590q57 0 98 -39t45 -96q0 -10 11 -10h49q12 0 20 -8.5t8 -20.5v-193q0 -12 -8 -20.5t-20 -8.5h-49q-11 0 -11 -10zM957 116q1 12 9.5 20t20.5 8h49q9 0 9 10v193
q0 10 -9 10h-49q-12 0 -20.5 8t-9.5 20q-3 49 -39 82.5t-85 33.5h-590q-51 0 -87 -36q-37 -36 -37 -88v-253q0 -52 37 -88q36 -37 87 -37h590q49 0 85 34t39 83zM246 375v-249q0 -5 6 -5h8q5 0 5 5v249q0 5 -5 5h-8q-6 0 -6 -5zM387 375v-249q0 -5 6 -5h8q6 0 6 5v249
q0 5 -6 5h-8q-6 0 -6 -5zM529 375v-249q0 -5 5 -5h9q5 0 5 5v249q0 5 -5 5h-9q-5 0 -5 -5z" />
    <glyph glyph-name="V" unicode="V" 
d="M976 114q-4 -57 -45 -96t-98 -39h-590q-59 0 -101 43q-42 42 -42 101v253q0 58 42 102q42 42 101 42h590q57 0 98 -39t45 -96q0 -10 11 -10h49q11 0 19.5 -8.5t8.5 -20.5v-193q0 -12 -8.5 -20.5t-19.5 -8.5h-49q-11 0 -11 -10zM957 115q1 12 9.5 20t20.5 8h49q9 0 9 10
v193q0 10 -9 10h-49q-12 0 -20.5 8t-9.5 20q-3 49 -39 82.5t-85 33.5h-590q-51 0 -87 -36q-37 -36 -37 -88v-253q0 -52 37 -88q36 -37 87 -37h590q49 0 85 34t39 83zM246 374v-249q0 -5 5 -5h9q5 0 5 5v249q0 5 -5 5h-9q-5 0 -5 -5z" />
    <glyph glyph-name="W" unicode="W" horiz-adv-x="1165" 
d="M976 114q-3 -56 -44 -95q-41 -40 -99 -40h-589q-59 0 -101 43q-43 42 -43 101v253q0 59 43 102q42 42 101 42h589q57 0 99 -39q41 -41 44 -96q1 -10 11 -10h49q12 0 20.5 -8.5t8.5 -20.5v-193q0 -12 -8.5 -20.5t-20.5 -8.5h-49q-10 0 -11 -10zM957 115q1 12 9.5 20
t20.5 8h49q10 0 10 10v193q0 10 -10 10h-49q-12 0 -20.5 8t-9.5 20q-3 49 -39 82.5t-85 33.5h-589q-52 0 -88 -36q-37 -36 -37 -88v-253q0 -52 37 -88q36 -37 88 -37h589q49 0 85 34t39 83zM246 374v-249q0 -5 6 -5h8q6 0 6 5v249q0 5 -6 5h-8q-6 0 -6 -5zM388 374v-249
q0 -5 5 -5h8q6 0 6 5v249q0 5 -6 5h-8q-5 0 -5 -5zM529 374v-249q0 -5 5 -5h9q5 0 5 5v249q0 5 -5 5h-9q-5 0 -5 -5zM670 374v-249q0 -5 6 -5h8q6 0 6 5v249q0 5 -6 5h-8q-6 0 -6 -5zM812 374v-249q0 -5 5 -5h9q5 0 5 5v249q0 5 -5 5h-9q-5 0 -5 -5z" />
    <glyph glyph-name="X" unicode="X" 
d="M621 622l-177 -355q-6 -13 7 -13h172q17 0 24.5 -13t0.5 -28l-177 -355q-2 -4 -7 -2l-8 4q-4 2 -2 7l177 355q3 5 0.5 9t-8.5 4h-172q-16 0 -24 13t0 27l177 355q2 5 7 3l8 -4q5 -3 2 -7zM432 -2v-19h-189q-59 0 -101 43q-42 42 -42 101v253q0 58 42 102q42 42 101 42
h220v-20h-220q-51 0 -87 -36q-37 -36 -37 -88v-253q0 -52 37 -88q36 -37 87 -37h189zM976 114q-5 -56 -45 -95q-41 -40 -98 -40h-211v19h211q49 0 85 34t39 83q1 12 9.5 20t19.5 8h49q10 0 10 10v193q0 10 -10 10h-49q-11 0 -19.5 8t-9.5 20q-3 49 -39 82.5t-85 33.5h-180
v20h180q56 0 98 -39q41 -41 45 -96q0 -10 10 -10h49q12 0 20.5 -8.5t8.5 -20.5v-193q0 -12 -8.5 -20.5t-20.5 -8.5h-49q-10 0 -10 -10z" />
    <glyph glyph-name="Y" unicode="Y" horiz-adv-x="1048" 
d="M948 52v-126q0 -22 -24 -28l-440 -96q-14 -3 -28 8l-347 330q-9 8 -9 20v116q0 13 4 20l233 343q7 12 22 14l388 59q18 3 26.5 -12.5t-2.5 -30.5l-236 -321l398 -256q5 -3 8 -6t4.5 -5.5t2 -6t0.5 -6v-8v-8.5zM353 629l-229 -337l392 63l240 326q4 4 1.5 8.5t-7.5 3.5
l-388 -58q-4 -1 -9 -6zM926 74l-406 262l-394 -63l345 -303l453 90q7 1 7 5.5t-5 8.5zM461 -46l-342 299v-93q0 -4 3 -7l339 -321v122zM929 41l-449 -88v-132l440 96q9 1 9 9v115z" />
    <glyph glyph-name="Z" unicode="Z" horiz-adv-x="895" 
d="M528 37l-159 -237q-2 -6 -8 -1l-7 4q-4 4 -1 8l148 220q4 6 18 20l-1 1q-10 -6 -21 -10q-93 -41 -197 -41q-101 0 -194 39q-4 1 -5 7t2 9l167 167l-107 399q-1 7 2 10t10 1l399 -106l167 167q3 3 8.5 3t7.5 -6q59 -139 30 -288q-29 -148 -137 -257q-43 -43 -101 -78
l174 -257q3 -5 -2 -8l-7 -4q-3 -3 -7 1l-160 237v-234q0 -6 -5 -6h-8q-6 0 -6 6v234zM300 20q197 0 337 140q102 102 130 239q29 139 -23 271l-617 -618q85 -32 173 -32zM205 606l224 -225l129 130zM415 368l-224 224l95 -354z" />
    <glyph glyph-name="a" unicode="a" horiz-adv-x="1041" 
d="M744 -69q124 75 174 200q54 135 9 274q-46 139 -170 215q-140 87 -303 49q-161 -37 -250 -178q-80 -128 -54 -277q24 -149 140 -244q102 -84 230 -91l-102 133q-4 4 1 7l7 6q4 3 7 -1l112 -148q12 -13 -5 -24l-153 -95q-4 -3 -7 1l-5 8q-3 4 2 7l140 87q-133 9 -239 95
q-122 101 -147 256q-26 156 57 290q91 146 262 187q169 39 317 -52q130 -79 178 -225q46 -145 -9 -287q-53 -130 -182 -209q-4 -3 -7 1l-5 8q-3 4 2 7zM555 289v276q0 5 -6 5h-8q-5 0 -5 -5v-276q0 -15 11 -23l134 -108q4 -4 7 0l6 7q3 4 -1 8l-134 107q-4 4 -4 9z" />
    <glyph glyph-name="b" unicode="b" horiz-adv-x="1062" 
d="M530 698q22 2 30 -18t-10 -34q-72 -56 -101.5 -145t-9.5 -181t87 -155q80 -79 189 -92q109 -15 203 40q19 10 35 -3q16 -15 7 -34q-44 -105 -134 -175q-88 -69 -191 -90q-105 -20 -212 11q-109 31 -191 113q-99 100 -124 233t25 246q44 120 150.5 198.5t246.5 85.5z
M531 679q-134 -5 -235.5 -81t-144.5 -191q-48 -108 -23.5 -235.5t118.5 -223.5q105 -105 247 -123q144 -17 267 53q125 71 183 205q3 7 -3 12t-13 1q-101 -58 -216 -42q-116 15 -198 97q-108 109 -100 261t125 248q6 5 3.5 12.5t-10.5 6.5z" />
    <glyph glyph-name="c" unicode="c" horiz-adv-x="1131" 
d="M418 643q4 -4 0 -8l-7 -5q-4 -4 -7 0q-42 49 -106 53q-64 5 -114 -36q-49 -40 -56 -104t32 -114q3 -5 -1 -8l-6 -5q-4 -4 -8 1q-44 56 -36 128q7 71 63 117q54 46 127 41q73 -6 119 -60zM729 643q48 54 120 60q72 5 126 -41q55 -46 63 -117q8 -72 -36 -128q-3 -5 -7 -1
l-7 5q-3 3 -1 8q41 49 33 114q-8 64 -57 104q-50 41 -113 36q-63 -4 -107 -53q-2 -4 -7 0l-6 5q-4 5 -1 8zM295 -96l-105 -105q-3 -4 -7 0l-6 6q-4 4 0 7l104 106q-111 118 -111 278q0 166 119 285q118 118 285 118t285 -118t118 -285q0 -162 -111 -278l104 -106q4 -3 0 -7
l-6 -6q-4 -3 -7 0l-105 105q-116 -112 -278 -112q-163 0 -279 112zM574 580q-160 0 -272 -112q-113 -113 -113 -272t113 -272t272 -113t272 113q112 112 112 272t-112 272t-272 112zM583 478v-262q0 -12 -8.5 -21t-21.5 -9h-144q-5 0 -5 5v9q0 5 5 5h144q11 0 11 11v262
q0 5 5 5h9q5 0 5 -5z" />
    <glyph glyph-name="d" unicode="d" horiz-adv-x="959" 
d="M862 644l-99 -734q-2 -14 -14 -21.5t-25 -3.5l-211 66q-8 2 -12 -5l-72 -110q-10 -15 -27.5 -13.5t-24.5 17.5l-79 174q-2 4 -6 6l-168 52q-17 5 -20.5 22.5t10.5 28.5l682 558q21 18 46 5q24 -14 20 -42zM489 -37l251 525l17 -8l-244 -510q5 0 6 -1l211 -65q12 -5 14 8
l99 735q2 15 -11 21.5t-24 -2.5l-682 -557q-5 -5 -4 -11t7 -8l168 -52q1 -1 3 -1l335 404l15 -13l-336 -404l2 -2l78 -174q2 -6 8.5 -6.5t10.5 4.5l72 111z" />
    <glyph glyph-name="e" unicode="e" horiz-adv-x="1127" 
d="M416 -195l-301 303q-13 13 -6 29q32 91 95 161q22 25 64 56q44 31 64 43q2 1 71 40q41 23 63 36q21 11 59 37q38 27 59 48q60 58 94 129q7 13 21 16t25 -8l301 -304q15 -13 6 -32q-40 -84 -98 -142q-28 -28 -62 -51q-33 -23 -62 -40q-3 -1 -26.5 -15t-40.5 -23
q-56 -30 -84 -48q-32 -20 -72 -52q-83 -65 -124 -173q-5 -14 -20.5 -17.5t-25.5 7.5zM129 121l300 -302q4 -4 9 -3t6 6q46 114 128 180q47 37 74 54q25 16 87 49q50 28 82 48q21 12 71 50q79 59 128 164q2 7 -2 11l-301 303q-10 10 -16 -2q-36 -73 -97 -134q-24 -23 -61 -49
t-60 -39q-24 -14 -65 -37l-69 -39q-25 -15 -62 -42q-41 -29 -63 -54q-59 -67 -91 -154q-3 -5 2 -10zM438 387l-6 -4q-3 -3 0 -7l20 -20q-68 -55 -13 -107q36 -36 84 -16q21 10 43 23q21 13 28 16.5t17.5 7t23.5 3.5q20 -2 34 -17q43 -42 -21 -91q-47 -36 -110 -9q-5 2 -8 -2
l-3 -6q-5 -5 2 -8q70 -30 122 7l21 -21q3 -3 7 0l6 5q3 1 1 6l-21 20q72 58 19 111q-19 19 -45.5 22.5t-40.5 -5.5q-16 -7 -42 -24q-19 -12 -27 -16.5t-18.5 -7t-22.5 -2.5q-19 0 -34 15q-43 43 14 87q49 38 107 13q5 -2 7 2l4 7q3 4 -3 7q-67 26 -117 -9l-20 20q-4 3 -8 0z
" />
    <glyph glyph-name="f" unicode="f" horiz-adv-x="841" 
d="M597 32l-40 -201q-5 -23 -29 -23h-260q-24 0 -29 23l-40 201q-99 87 -99 218q0 130 99 219l40 200q5 23 29 23h260q24 0 29 -23l40 -200q99 -89 99 -219q0 -132 -99 -218zM574 487l-36 178q-2 8 -10 8h-260q-8 0 -10 -8l-36 -178q80 56 176 56t176 -56zM201 445
q-82 -79 -82 -195q0 -115 82 -194q83 -80 197 -80t197 80q82 79 82 194q0 116 -82 195t-197 79t-197 -79zM408 380q0 6 -6 6h-8q-5 0 -5 -6v-119q0 -15 13 -25l158 -100q4 -3 7 1l5 8q3 4 -2 7l-157 100q-5 2 -5 9v119zM722 305v-110q0 -5 5 -5h9q5 0 5 5v110q0 5 -5 5h-9
q-5 0 -5 -5zM222 14l36 -179q2 -8 10 -8h260q8 0 10 8l36 179q-80 -57 -176 -57t-176 57z" />
    <glyph glyph-name="g" unicode="g" horiz-adv-x="1138" 
d="M129 650h531q12 0 21 -8.5t9 -21.5v-95h126q15 0 24 -11l191 -243q7 -7 7 -18v-278q0 -12 -9 -21t-21 -9h-81q-2 -46 -35 -78t-79 -32t-79.5 32t-35.5 78h-145q-1 -46 -34.5 -78t-79.5 -32t-79.5 32t-35.5 78h-81q-12 0 -20.5 9t-8.5 21v169h-85q-12 0 -20.5 9t-8.5 21
v446q0 13 8.5 21.5t20.5 8.5zM671 174v446q0 11 -11 11h-531q-10 0 -10 -11v-446q0 -11 10 -11h531q11 0 11 11zM660 144h-427v-169q0 -11 10 -11h82q5 43 38 72t76 29t75.5 -29t37.5 -72h147q5 43 38 72t76 29t75.5 -29t37.5 -72h82q11 0 11 11v268h-180q-13 0 -22.5 9.5
t-9.5 22.5v231h-117v-332q0 -12 -9 -21t-21 -9zM839 263h175l-188 238v-226q0 -12 13 -12zM534 -50v4q-1 38 -29 64.5t-66 26.5t-66 -26.5t-30 -64.5v-4q0 -40 28 -68t68 -28q39 0 67 28t28 68zM908 -50v4q-1 38 -29 64.5t-66 26.5q-39 0 -67 -26.5t-29 -64.5v-4
q0 -40 28 -68t68 -28q39 0 67 28t28 68z" />
    <glyph glyph-name="h" unicode="h" horiz-adv-x="1059" 
d="M834 553q125 -127 125 -304t-125 -304q-127 -125 -304 -125t-304 125q-126 126 -126 304t126 304q127 125 304 125t304 -125zM240 539q-121 -120 -121 -290t121 -290q120 -120 290 -120t290 120t120 290q0 168 -120 290q-120 120 -290 120t-290 -120zM537 514h-16
q-8 0 -8 -9l4 -402q0 -8 8 -8h8q9 0 9 8l4 402q0 9 -9 9zM531 27h-4q-19 0 -19 -20v-4q0 -11 4 -15t15 -4h4q20 0 20 19v4q0 11 -4.5 15.5t-15.5 4.5z" />
    <glyph glyph-name="i" unicode="i" horiz-adv-x="1177" 
d="M112 -130l459 793q8 14 25 14t25 -14l460 -793q8 -14 -0.5 -29t-24.5 -15h-919q-17 0 -25.5 15t0.5 29zM587 653l-459 -793q-3 -5 0 -10t9 -5h919q5 0 8 5.5t0 9.5l-459 793q-3 5 -9 5t-9 -5zM603 443h-15q-7 0 -7 -8l4 -380q0 -8 7 -8h7q9 0 9 8l4 380q0 8 -9 8z
M597 -17h-3q-10 0 -14 -4t-4 -15v-4q0 -18 18 -18h3q11 0 15 4t4 14v4q0 11 -4 15t-15 4z" />
    <glyph glyph-name="j" unicode="j" horiz-adv-x="1133" 
d="M557 550v153q0 5 6 5h8q5 0 5 -5v-153q0 -5 -5 -5h-8q-6 0 -6 5zM342 453l-108 108q-4 4 0 8l6 6q4 4 8 0l108 -108q3 -4 0 -8l-6 -6q-4 -4 -8 0zM778 467l108 108q4 4 8 0l6 -6q4 -4 0 -8l-108 -108q-4 -4 -8 0l-6 6q-4 4 0 8zM732 407q68 -68 68 -165t-68 -165
t-165 -68t-165 68t-68 165t68 165t165 68t165 -68zM416 393q-63 -63 -63 -151t63 -151q61 -63 151 -63q89 0 152 63q62 64 62 151t-62 151q-63 63 -152 63q-90 0 -151 -63zM259 232h-153q-6 0 -6 6v8q0 5 6 5h153q5 0 5 -5v-8q0 -6 -5 -6zM875 251h153q5 0 5 -5v-8
q0 -6 -5 -6h-153q-5 0 -5 6v8q0 5 5 5zM356 17l-108 -108q-4 -4 -8 0l-6 6q-4 4 0 8l108 108q4 3 8 0l6 -6q3 -4 0 -8zM792 31l108 -108q4 -4 0 -8l-6 -6q-4 -4 -8 0l-108 108q-4 4 0 8l6 6q4 3 8 0zM576 -66v-153q0 -6 -5 -6h-8q-6 0 -6 6v153q0 5 6 5h8q5 0 5 -5z" />
    <glyph glyph-name="k" unicode="k" horiz-adv-x="1078" 
d="M716 427q66 -30 121 -88t73 -126q19 2 32 14.5t17 31.5q8 38 -27 56q-5 2 -2 8l4 7q2 5 7 2q46 -25 36 -76q-4 -24 -21.5 -41t-41.5 -21q3 -18 3 -35q0 -67 -20 -112t-70 -89l-25 -140q-1 -10 -9 -17t-19 -7h-87q-10 -1 -18 5.5t-10 16.5l-11 52q-99 -23 -197 -4l-11 -48
q-4 -22 -28 -22h-87q-24 0 -28 22l-28 132q-53 40 -81 105q-9 19 -46 30q-23 7 -24 7q-18 8 -18 26v91q0 19 19 26q1 1 23.5 7.5t31.5 11.5q12 7 16 17q28 58 80 101l11 104q71 13 115 -35q57 19 113 22q-32 43 -32 94q0 64 45 109t109 45t109 -45t45 -109
q0 -39 -18.5 -73.5t-50.5 -54.5zM536 650q-40 -40 -40 -95q0 -56 40 -95q39 -40 95 -40t96 40q39 39 39 95q0 55 -40 95t-95 40t-95 -40zM526 443q-70 -3 -136 -26q-36 47 -92 41l-9 -97q-57 -47 -82 -100q-15 -27 -53 -37q-7 -2 -13 -4t-10 -3.5t-5 -1.5q-6 -1 -6 -8v-91
q0 -6 5 -8q3 -1 15.5 -5t25.5 -9t20 -10q11 -7 19 -23q29 -61 81 -102l30 -139q1 -7 9 -7h87q8 0 9 7l15 67q112 -25 227 5l15 -72q1 -7 9 -7h87q9 0 9 8l26 147q50 44 70 85q19 39 19 106q0 79 -62 153q-61 73 -141 103q-31 -14 -64 -14q-61 0 -105 42zM459 337l-1 8
q0 6 5 6q154 13 266 -57q5 -3 1 -7l-4 -7q-3 -4 -8 -2q-106 67 -253 54q-6 0 -6 5zM264 260q1 17 14 32t31 20q19 4 31.5 -7t10.5 -30q-1 -17 -14 -32t-31 -20q-19 -4 -31.5 7t-10.5 30zM281 259q-1 -12 4.5 -17t16.5 -2q12 2 21.5 13t11.5 23q1 11 -5 16t-17 3
q-12 -2 -21.5 -13t-10.5 -23z" />
    <glyph glyph-name="l" unicode="l" horiz-adv-x="793" 
d="M228 540q12 64 63 105q52 43 124 42q71 -1 122 -49q53 -51 51 -125v-1q49 -20 79.5 -65.5t30.5 -101.5t-31.5 -101.5t-82.5 -66.5l-143 -347q-8 -18 -28 -18t-27 18l-151 366q-47 17 -82 59q-53 59 -47 133q4 74 69 123q25 18 53 29zM569 519q0 61 -45 105
q-46 43 -109 44q-66 2 -112 -37q-41 -35 -54 -86q97 19 166 -49q46 31 101 31q24 0 53 -8zM399 484q-43 41 -103 46q-62 3 -109 -34q-57 -43 -62 -110q-5 -66 42 -119q73 -82 160 -60q23 5 49 23q-41 50 -41 115q0 85 64 139zM402 460q-48 -48 -48 -115t48 -114
q46 -48 114 -48q67 0 115 48q48 47 48 114t-48 115t-115 48q-68 0 -114 -48zM389 216q-31 -21 -57 -28q-35 -8 -73 0l145 -351q2 -6 9.5 -6t9.5 6l138 332q-28 -5 -45 -5q-74 0 -127 52z" />
    <glyph glyph-name="m" unicode="m" horiz-adv-x="1058" 
d="M953 -179h-325q-13 0 -21.5 8.5t-8.5 20.5v111q0 12 8.5 21t21.5 9h234q7 0 10 6.5t-2 10.5l-172 183q-4 3 -2.5 7t6.5 4l106 1q11 0 13 6.5t-5 14.5l-179 186q-3 4 -1.5 8t6.5 4l102 -1q9 0 11 5.5t-4 15.5l-206 225q-9 9 -16 0l-206 -224q-7 -7 -5.5 -14.5t12.5 -7.5
l102 1q5 0 6.5 -4t-2.5 -8l-178 -186q-8 -8 -6 -14.5t13 -6.5l106 -1q4 0 6 -4t-1 -7l-173 -183q-4 -4 -1 -10.5t10 -6.5h234q12 0 21 -9t9 -21v-111q0 -12 -9 -20.5t-21 -8.5h-341q-5 0 -5 5v8q0 6 5 6h341q11 0 11 10v111q0 11 -11 11h-234q-19 0 -27.5 18t4.5 31l154 162
l-78 1q-24 0 -30.5 18t9.5 35l159 166l-73 -1q-23 0 -29.5 18.5t8.5 35.5l206 224q9 10 22 10t22 -10l206 -225q15 -18 7.5 -35.5t-28.5 -17.5l-73 1l158 -166q16 -17 9.5 -35t-30.5 -18l-77 -1l153 -162q13 -13 5 -31t-27 -18h-234q-11 0 -11 -11v-111q0 -10 11 -10h325
q5 0 5 -6v-8q0 -5 -5 -5z" />
    <glyph glyph-name="n" unicode="n" horiz-adv-x="1113" 
d="M630 316l279 276q-2 2 -2 3q-33 32 -76.5 36.5t-82.5 -13t-70 -49.5l-263 -265q-5 -5 -11 -5h-159q-60 0 -102 43q-43 42 -43 102t43 103q42 42 102 42q59 0 103 -42q42 -43 42 -103q0 -39 -20 -73t-53 -53h85l262 264q52 57 125 67.5t131 -41.5l15 -16l-229 -227h306
q1 -5 1 -22q0 -77 -60 -120q-61 -43 -142 -43h-341l-61 -59q13 4 35 4q60 0 103 -42q42 -43 42 -103t-42 -103q-43 -42 -103 -42t-102 42q-43 43 -43 103q0 67 50 109l109 106q4 4 11 4h342q72 0 128 38q55 37 55 106v3h-307l-44 -43q-3 -4 -7 0l-6 6q-4 4 0 7zM245 570
q-52 0 -89 -37t-37 -89t37 -89t89 -37t89 37t37 89t-36 89q-37 37 -90 37zM561 324q-19 19 -44.5 8.5t-25.5 -37.5q0 -17 12 -29t29 -12q26 0 36.5 25t-7.5 45zM515 312q11 10 24 5.5t16 -16t-6 -23.5q-10 -10 -23.5 -5.5t-17 16t6.5 23.5zM533 69q-37 37 -89 37t-89 -37
t-37 -89t37 -89t89 -37t89 37t37 89t-37 89z" />
    <glyph glyph-name="o" unicode="o" horiz-adv-x="1053" 
d="M385 221v-27q0 -12 -9 -20.5t-21 -8.5h-226q-12 0 -20.5 8.5t-8.5 20.5v443q0 12 8.5 20.5t20.5 8.5h226q12 0 21 -8.5t9 -20.5v-20q30 1 110 28q74 25 119 25h213q43 0 60 -44.5t-13 -74.5q38 -9 49 -51q11 -44 -18 -72q22 -7 34.5 -27.5t13.5 -43.5t-9.5 -44t-30.5 -29
q26 -17 29 -53t-17.5 -64.5t-55.5 -26.5h-187q43 -103 35 -213q-4 -59 -34 -89q-25 -25 -53 -17t-37 44q-22 81 -26 95q-9 28 -34 79q-21 41 -55 79zM385 598v-349l107 -118q46 -53 72 -111q25 -62 47 -150q7 -26 25.5 -31t35.5 14q24 25 27 84q1 59 -9 111q-12 51 -27 88
q-4 8 1 15.5t14 7.5h191q27 -2 42 21.5t11 51.5t-24 39q-8 5 -7 15.5t10 12.5q32 11 32 56t-38 56q-9 2 -12 11t4 16q16 14 19 36t-8.5 39.5t-33.5 19.5q-10 1 -13 11.5t5 16.5q25 19 15 55q-11 35 -44 35h-213q-43 0 -117 -25q-80 -27 -112 -28zM129 184h226q11 0 11 10
v443q0 10 -11 10h-226q-10 0 -10 -10v-443q0 -10 10 -10z" />
    <glyph glyph-name="p" unicode="p" horiz-adv-x="1152" 
d="M283 -186q-12 0 -21 8.5t-9 21.5v372h-20q-41 0 -70.5 20t-38.5 56q-20 82 65 155l101 87v116q0 12 9 21t21 9h550q13 0 22 -9t9 -21v-115l101 -88q86 -75 66 -155q-9 -36 -38.5 -56t-70.5 -20h-20v-372q0 -13 -9 -21.5t-22 -8.5h-625zM309 650v-110h572v110q0 11 -11 11
h-550q-11 0 -11 -11zM375 521h-71l-103 -89q-76 -67 -59 -136q16 -61 91 -61h66q-28 44 -17 100q11 58 35 102q25 48 58 84zM476 521h-74q-80 -80 -101 -187q-11 -57 21 -99h116q-39 110 38 286zM586 235v286h-89q-82 -177 -38 -286h127zM699 521h-94v-286h132
q44 109 -38 286zM794 521h-74q77 -176 38 -286h116q32 42 21 99q-10 55 -38 104q-29 49 -63 83zM897 235h62q74 0 90 61q18 69 -59 137l-102 88h-67q75 -85 93 -186q11 -56 -17 -100zM283 -167h195v224q0 12 8.5 21t21.5 9h176q13 0 21.5 -9t8.5 -21v-224h194q11 0 11 11
v372h-647v-372q0 -11 11 -11zM497 57v-224h198v224q0 11 -11 11h-176q-11 0 -11 -11z" />
    <glyph glyph-name="q" unicode="q" horiz-adv-x="962" 
d="M491 626v-366h366q5 0 5 -6v-8q0 -5 -5 -5h-366v-366q0 -6 -6 -6h-8q-5 0 -5 6v366h-366q-6 0 -6 5v8q0 6 6 6h366v366q0 5 5 5h8q6 0 6 -5z" />
    <glyph glyph-name="r" unicode="r" horiz-adv-x="846" 
d="M120 570l307 -307l307 307q4 4 8 0l6 -6q4 -4 0 -7l-307 -308l307 -307q4 -4 0 -8l-6 -6q-4 -3 -8 0l-307 308l-307 -308q-4 -3 -8 0l-6 6q-4 4 0 8l308 307l-308 308q-4 3 0 7l6 6q4 4 8 0z" />
    <glyph glyph-name="s" unicode="s" horiz-adv-x="891" 
d="M793 527l-403 -567l-8 -11l-7 10l-271 349q-3 4 1 7l7 5q4 4 7 -1l263 -338l395 557q3 3 8 1l7 -5q4 -3 1 -7z" />
    <glyph glyph-name="t" unicode="t" horiz-adv-x="593" 
d="M485 609l6 -6q4 -4 -1 -8l-362 -346l362 -345q4 -4 1 -8l-6 -6q-4 -4 -8 0l-377 359l377 360q5 3 8 0z" />
    <glyph glyph-name="u" unicode="u" horiz-adv-x="592" 
d="M106 604l5 6q3 3 8 0l377 -360l-377 -359q-4 -4 -8 0l-5 6q-4 4 0 8l362 345l-362 346q-5 3 0 8z" />
    <glyph glyph-name="v" unicode="v" horiz-adv-x="1178" 
d="M1078 313q0 -74 -37.5 -141.5t-106.5 -118.5q-87 -63 -200.5 -89.5t-227.5 -11.5q-64 -100 -216 -129q-25 -5 -38 7.5t0 34.5q50 83 41 157q-88 50 -140.5 127t-52.5 164q0 85 41 156t112 116q143 90 336 90t336 -90q71 -45 112 -116t41 -156zM922 69q137 102 137 244
q0 82 -40 149t-107 108.5t-150 63.5t-173 22t-173 -22t-150 -63.5t-107 -108.5t-40 -149q0 -85 51.5 -156.5t139.5 -122.5q15 -89 -42 -179q-6 -9 0 -12.5t19 -1.5q148 29 209 132q118 -16 229.5 8t196.5 88zM602 295l120 -120q4 -3 0 -7l-6 -6q-4 -4 -8 0l-119 119
l-119 -119q-4 -4 -8 0l-6 6q-4 4 0 7l120 120l-120 119q-4 4 0 7l6 7q4 3 8 0l119 -120l119 120q4 3 8 0l6 -7q4 -3 0 -7z" />
    <glyph glyph-name="w" unicode="w" horiz-adv-x="1178" 
d="M1078 312q0 -74 -37.5 -141.5t-106.5 -118.5q-87 -64 -201 -90q-116 -26 -227 -11q-64 -101 -216 -129q-25 -5 -38 7.5t0 34.5q51 83 41 157q-88 50 -140.5 127t-52.5 164q0 85 41 156t112 116q143 90 336 90t336 -90q71 -45 112 -116t41 -156zM923 68q136 102 136 244
q0 82 -40 149t-107 108.5t-150 63.5t-173 22t-173 -22t-150 -63.5t-107 -108.5t-40 -149q0 -85 51.5 -156.5t139.5 -122.5q15 -89 -42 -179q-6 -9 0 -12.5t19 -1.5q147 28 209 132q118 -16 230 8t197 88zM563 178l-120 143q-2 5 1 8l6 5q4 4 8 0l105 -127l176 213q4 4 8 1
l6 -6q5 -3 1 -7z" />
    <glyph glyph-name="x" unicode="x" horiz-adv-x="1178" 
d="M1078 312q0 -74 -37.5 -141.5t-106.5 -118.5q-87 -63 -200.5 -89.5t-227.5 -11.5q-64 -101 -216 -129q-25 -5 -38 7.5t0 34.5q50 84 40 157q-87 50 -139.5 126.5t-52.5 164.5q0 85 41 156t112 116q143 90 336 90t336 -90q71 -45 112 -116t41 -156zM922 68
q137 102 137 244q0 82 -40 149t-107 108.5t-150 63.5t-173 22t-173 -22t-150 -63.5t-107 -108.5t-40 -149q0 -85 51.5 -156.5t139.5 -122.5q15 -89 -42 -179q-6 -9 0 -12.5t18 -1.5q148 28 210 132q118 -16 229.5 8t196.5 88zM467 220h-4q-16 0 -16 -17v-4q0 -10 3 -13
t13 -3h4q17 0 17 16v4q0 17 -17 17zM594 220h-4q-16 0 -16 -17v-4q0 -10 3 -13t13 -3h4q9 0 12.5 3t3.5 13v4q0 17 -16 17zM720 220h-4q-16 0 -16 -17v-4q0 -10 3.5 -13t12.5 -3h4q10 0 13.5 3t3.5 13v4q0 17 -17 17z" />
    <glyph glyph-name="y" unicode="y" horiz-adv-x="1201" 
d="M966 137h68q28 0 47.5 -19.5t19.5 -46.5v-205q0 -28 -19.5 -47t-47.5 -19h-152q-28 0 -47.5 19t-19.5 47v205q0 27 19.5 46.5t47.5 19.5h65v43q0 20 -14 34t-33 14h-290v-90h67q28 0 47 -19.5t19 -47.5v-204q0 -28 -19 -47t-47 -19h-153q-27 0 -46.5 19t-19.5 47v204
q0 28 19.5 47.5t46.5 19.5h67v90h-290q-19 0 -33 -14t-14 -34v-43h65q28 0 47.5 -19.5t19.5 -46.5v-205q0 -28 -19.5 -47t-47.5 -19h-152q-28 0 -47.5 19t-19.5 47v205q0 27 19.5 46.5t47.5 19.5h68v43q0 28 19.5 47.5t46.5 19.5h290v87h-67q-27 0 -46.5 19.5t-19.5 47.5
v204q0 28 19.5 47.5t46.5 19.5h153q28 0 47 -19.5t19 -47.5v-204q0 -28 -19 -47.5t-47 -19.5h-67v-87h290q28 0 47 -19.5t19 -47.5v-43zM477 605v-204q0 -20 14 -34t33 -14h153q19 0 33 14t14 34v204q0 20 -14 34t-33 14h-153q-19 0 -33 -14t-14 -34zM724 -133v204
q0 20 -13.5 34t-33.5 14h-153q-20 0 -33.5 -14t-13.5 -34v-204q0 -19 13.5 -33t33.5 -14h153q19 0 33 14t14 33zM367 -134v205q0 20 -14 33.5t-34 13.5h-152q-20 0 -34 -14t-14 -33v-205q0 -19 14 -33t34 -14h152q20 0 34 13.5t14 33.5zM1082 -134v205q0 19 -14 33t-34 14
h-152q-20 0 -34 -13.5t-14 -33.5v-205q0 -20 14 -33.5t34 -13.5h152q20 0 34 14t14 33z" />
    <glyph glyph-name="z" unicode="z" horiz-adv-x="801" 
d="M635 -180h-469q-27 0 -46.5 19.5t-19.5 47.5v733q0 28 19.5 47.5t46.5 19.5h469q28 0 47 -19.5t19 -47.5v-733q0 -28 -19 -47.5t-47 -19.5zM635 668h-469q-20 0 -33.5 -14t-13.5 -34v-733q0 -20 14 -34t33 -14h469q19 0 33 14t14 34v733q0 20 -13.5 34t-33.5 14zM401 409
q-40 0 -68 28t-28 68t28 68t68 28q39 0 67.5 -28t28.5 -68t-28.5 -68t-67.5 -28zM401 582q-32 0 -54.5 -22.5t-22.5 -54.5t22.5 -54.5t54.5 -22.5t54 22.5t22 54.5t-22.5 54.5t-53.5 22.5zM249 -22q-64 64 -64 153t64 152q63 63 152 63t152 -63t63 -152t-63 -153
q-63 -63 -152 -63t-152 63zM401 327q-82 0 -139 -57q-58 -58 -58 -139q0 -82 58 -140q57 -57 139 -57q81 0 139 57q57 59 57 140t-57 139q-58 57 -139 57zM401 0q-55 0 -93 38t-38 93q0 54 38 92t93 38q54 0 92 -38t38 -92q0 -55 -38 -93t-92 -38zM322 210q-33 -33 -33 -79
q0 -47 32.5 -79.5t79.5 -32.5q34 -2 62 18.5t40.5 50.5t7.5 64.5t-31 57.5q-33 32 -79 32t-79 -32z" />
    <glyph glyph-name="NULL" horiz-adv-x="0" 
 />
  </font>
</defs>
</svg>
