<?xml version="1.0" standalone="no"?>
<!DOCTYPE svg PUBLIC "-//W3C//DTD SVG 1.1//EN" "http://www.w3.org/Graphics/SVG/1.1/DTD/svg11.dtd" >
<svg xmlns="http://www.w3.org/2000/svg" xmlns:xlink="http://www.w3.org/1999/xlink" version="1.1">
<metadata>
Created by FontForge 20170731 at Fri Dec 12 19:18:15 2014
 By Aleksey,,,
Copyright (c) 2014 by . All rights reserved.
</metadata>
<defs>
<font id="PantonIconsC-Bold" horiz-adv-x="1087" >
  <font-face 
    font-family="Panton Icons C "
    font-weight="700"
    font-stretch="normal"
    units-per-em="1000"
    panose-1="0 0 5 0 0 0 0 0 0 0"
    ascent="761"
    descent="-239"
    x-height="616"
    cap-height="693"
    bbox="93 -255 1663 756"
    underline-thickness="50"
    underline-position="-200"
    unicode-range="U+0020-007A"
  />
<missing-glyph horiz-adv-x="500" 
d="M410 750v-1000h-317v1000h317zM333 683h-165v-33h65v-37h-66v-33h166v33h-66v37h66v33zM267 554h-100v-104h166v34h-66v70zM233 520v-36h-33v36h33zM333 423h-166v-33h66v-37h-66v-33h100v70h66v33zM333 363h-33v-66h-133v-34h166v100zM333 241h-100v-56h34v23h33v-47
h-100v80h-33v-113h166v113zM333 68h-166v-113h166v113zM300 35v-47h-100v47h100zM333 -68h-166v-33h70l-70 -47v-33h166v33h-102l70 47h32v33z" />
    <glyph glyph-name=".notdef" horiz-adv-x="500" 
d="M410 750v-1000h-317v1000h317zM333 683h-165v-33h65v-37h-66v-33h166v33h-66v37h66v33zM267 554h-100v-104h166v34h-66v70zM233 520v-36h-33v36h33zM333 423h-166v-33h66v-37h-66v-33h100v70h66v33zM333 363h-33v-66h-133v-34h166v100zM333 241h-100v-56h34v23h33v-47
h-100v80h-33v-113h166v113zM333 68h-166v-113h166v113zM300 35v-47h-100v47h100zM333 -68h-166v-33h70l-70 -47v-33h166v33h-102l70 47h32v33z" />
    <glyph glyph-name=".null" horiz-adv-x="0" 
 />
    <glyph glyph-name="nonmarkingreturn" horiz-adv-x="333" 
 />
    <glyph glyph-name="space" unicode=" " horiz-adv-x="0" 
 />
    <glyph glyph-name="A" unicode="A" horiz-adv-x="1294" 
d="M919 684h231q19 0 31.5 -12.5t12.5 -31.5v-783q0 -18 -12.5 -31t-31.5 -13h-231q-19 0 -31.5 13t-12.5 31v783q0 19 12.5 31.5t31.5 12.5zM1147 -139v776h-225v-776h225zM145 402h231q19 0 31.5 -12.5t12.5 -31.5v-501q0 -18 -12.5 -31t-31.5 -13h-231q-19 0 -32 13
t-13 31v501q0 19 13 31.5t32 12.5zM373 -139v494h-225v-494h225zM530 233h232q18 0 31 -13t13 -31v-332q0 -18 -13 -31t-31 -13h-232q-18 0 -31 13t-13 31v332q0 18 13 31t31 13zM759 -139v324h-225v-324h225z" />
    <glyph glyph-name="B" unicode="B" 
d="M543 693q118 3 221.5 -57.5t164 -164.5t58.5 -221q0 -119 -59 -222q-60 -103 -162 -163q-104 -59 -223 -59t-222 59q-103 60 -162 162q-59 103 -59 223q0 184 130 314q129 129 313 129zM543 645q-164 0 -279 -115q-116 -116 -116 -280t116 -280t279 -116q164 0 280 116
t116 280t-116 280q-115 115 -280 115zM520 377v-330q0 -13 13 -13h21q13 0 13 13v330l110 -110q9 -9 19 0l15 15q11 10 0 18l-146 147q-9 9 -21.5 9t-21.5 -9l-146 -147q-10 -8 0 -18l15 -15q9 -9 18 0z" />
    <glyph glyph-name="C" unicode="C" 
d="M928 28q-60 -103 -162 -163q-104 -59 -223 -59t-222 59q-103 60 -162 162q-59 103 -59 223q0 184 130 314q129 129 313 129q120 0 223 -59q102 -58 162 -161q59 -104 59 -223t-59 -222zM823 530q-115 115 -280 115q-164 0 -279 -115q-116 -116 -116 -280t116 -280
t279 -116q164 0 280 116t116 280t-116 280zM671 273h-330q-13 0 -13 -13v-21q0 -13 13 -13h330l-111 -110q-7 -10 0 -19l16 -15q9 -9 18 0l147 147q8 8 8 20.5t-8 21.5l-147 146q-9 9 -18 0l-16 -15q-8 -9 0 -18z" />
    <glyph glyph-name="D" unicode="D" 
d="M160 28q-60 102 -60 222q0 119 60 223q59 102 161 161q103 59 223 59q182 0 313 -129q130 -130 130 -314t-130 -314t-313 -130q-119 0 -222 59q-104 60 -162 163zM264 530q-116 -116 -116 -280t116 -280t280 -116t280 116q115 115 115 280t-115 280t-280 115t-280 -115z
M746 273h-330l110 111q9 9 0 18l-15 15q-9 9 -18 0l-147 -146q-8 -9 -8 -21.5t8 -20.5l147 -147q9 -9 18 0l15 15q10 9 0 19l-110 110h330q13 0 13 13v21q0 13 -13 13z" />
    <glyph glyph-name="E" unicode="E" 
d="M543 -194q-183 0 -313 130t-130 314t130 314q130 129 313 129q118 3 221.5 -57.5t164 -164.5t58.5 -221q4 -179 -130.5 -313.5t-313.5 -130.5zM264 -30q116 -116 279 -116q164 0 280 116t116 280t-116 280q-115 115 -280 115q-164 0 -279 -115q-116 -116 -116 -280
t116 -280zM520 452v-330l-111 111q-7 7 -18 0l-15 -16q-9 -9 0 -18l146 -147q9 -8 21.5 -8t21.5 8l146 147q9 9 0 18l-15 16q-10 7 -19 0l-110 -111v330q0 13 -13 13h-21q-13 0 -13 -13z" />
    <glyph glyph-name="F" unicode="F" 
d="M321 -135q-103 60 -162 162q-59 103 -59 223q0 184 130 314q129 129 313 129q120 0 223 -59q102 -58 162 -161q59 -104 59 -223t-59 -222q-60 -103 -162 -163q-104 -59 -223 -59t-222 59zM281 546l559 -559q99 114 99 263q0 164 -116 280q-115 115 -280 115
q-150 0 -262 -99zM806 -47l-559 559q-99 -112 -99 -262q0 -164 116 -280t279 -116q149 0 263 99z" />
    <glyph glyph-name="G" unicode="G" 
d="M321 -135q-103 60 -162 162q-59 103 -59 223q0 184 130 314q129 129 313 129q120 0 223 -59q102 -58 162 -161q59 -104 59 -223t-59 -222q-60 -103 -162 -163q-104 -59 -223 -59t-222 59zM823 -30q116 116 116 280t-116 280q-115 115 -280 115q-164 0 -280 -116
t-116 -279q0 -164 116 -280t280 -116t280 116zM780 403l-16 15q-9 8 -18 -1l-256 -284l-137 139q-9 10 -19 0l-15 -15q-9 -9 0 -18l157 -160q6 -6 15 -6t14 7l276 305q10 10 -1 18z" />
    <glyph glyph-name="H" unicode="H" 
d="M321 -135q-103 60 -162 162q-59 103 -59 223q0 184 130 314q129 129 313 129q120 0 223 -59q102 -58 162 -161q59 -104 59 -223t-59 -222q-60 -103 -162 -163q-104 -59 -223 -59t-222 59zM823 -30q116 116 116 280t-116 280q-115 115 -280 115q-164 0 -280 -116
t-116 -279q0 -164 116 -280t280 -116t280 116zM324 69q-10 -9 0 -19l15 -15q7 -11 18 0l207 199q6 6 6 14v198q0 13 -13 13h-21q-13 0 -13 -13v-186z" />
    <glyph glyph-name="I" unicode="I" 
d="M544 -194q-117 -3 -221 58t-165 165t-58 221q-2 117 58.5 221t164 164.5t221.5 57.5q182 0 313 -129q130 -130 130 -314t-130 -314t-313 -130zM824 -30q115 115 115 280t-115 280t-280 115t-280 -115q-116 -116 -116 -280t116 -280t280 -116t280 116zM577 250l135 -135
q10 -9 0 -19l-15 -15q-11 -11 -18 0l-135 135l-135 -135q-9 -9 -19 0l-15 15q-9 10 0 19l135 135l-135 135q-9 9 0 18l15 15q10 10 19 0l135 -135l135 135q7 10 18 0l15 -15q9 -9 0 -18z" />
    <glyph glyph-name="J" unicode="J" horiz-adv-x="876" 
d="M100 -102v704q0 27 22.5 40t45.5 -1l560 -353v339q0 13 13 13h22q13 0 13 -13v-754q0 -13 -13 -13h-22q-13 0 -13 13v339l-560 -353q-23 -14 -45.5 -1t-22.5 40zM699 250l-551 347v-694z" />
    <glyph glyph-name="K" unicode="K" horiz-adv-x="1111" 
d="M461 -41v148l-294 -185q-22 -13 -44.5 -1t-22.5 38v582q0 26 22.5 38t44.5 -1l294 -185v148q0 26 22.5 38t45.5 -1l462 -291q20 -13 20 -37t-20 -37l-462 -291q-23 -13 -45.5 -1t-22.5 38zM509 113v-147l452 284l-452 284v-147q0 -26 -22.5 -39t-45.5 1l-293 185v-568
l293 185q23 14 45.5 1t22.5 -39z" />
    <glyph glyph-name="L" unicode="L" horiz-adv-x="836" 
d="M144 649h182q18 0 31 -12.5t13 -31.5v-708q0 -18 -13 -31t-31 -13h-182q-19 0 -31.5 12.5t-12.5 31.5v708q0 18 12.5 31t31.5 13zM509 649h183q18 0 31 -12.5t13 -31.5v-708q0 -18 -13 -31t-31 -13h-183q-18 0 -31 13t-13 31v708q0 18 13 31t31 13zM323 -100v702h-176
v-702h176zM688 -100v702h-175v-702h175z" />
    <glyph glyph-name="M" unicode="M" horiz-adv-x="849" 
d="M100 -101v703q0 27 22.5 40t45.5 -1l561 -354q20 -13 20 -37t-20 -37l-561 -354q-23 -14 -45.5 -0.5t-22.5 40.5zM699 250l-551 347v-694z" />
    <glyph glyph-name="N" unicode="N" horiz-adv-x="1111" 
d="M650 107v-148q0 -24 -23 -38q-22 -13 -45 1l-462 291q-20 13 -20 37t20 37l462 291q23 14 45 1q23 -14 23 -38v-148l293 185q23 13 45.5 1t22.5 -38v-582q0 -26 -22.5 -38t-45.5 1zM602 -34v147q0 25 23 39q22 13 45 -1l293 -185v568l-293 -185q-23 -14 -45 -1
q-23 14 -23 39v147l-452 -284z" />
    <glyph glyph-name="O" unicode="O" horiz-adv-x="875" 
d="M775 602v-704q0 -26 -22.5 -39.5t-44.5 0.5l-561 353v-339q0 -13 -13 -13h-21q-13 0 -13 13v754q0 13 13 13h21q13 0 13 -13v-339l561 353q22 14 44.5 0.5t22.5 -39.5zM728 597l-551 -347l551 -347v694z" />
    <glyph glyph-name="P" unicode="P" horiz-adv-x="1018" 
d="M580 -142l-130 321l-321 130q-29 11 -28 42q1 30 30 41l729 254q27 9 46 -10q20 -20 11 -47l-254 -729q-11 -29 -41 -30q-31 -1 -42 28zM494 198l127 -315l249 716l-716 -249l315 -127q18 -7 25 -25z" />
    <glyph glyph-name="Q" unicode="Q" horiz-adv-x="1104" 
d="M207 366v317q0 13 13 13h21q13 0 13 -13v-317q46 -8 76.5 -44.5t30.5 -84.5t-30.5 -84.5t-76.5 -44.5v-290q0 -13 -13 -13h-21q-13 0 -13 13v290q-46 8 -76.5 44.5t-30.5 84.5t30.5 84.5t76.5 44.5zM528 190v493q0 13 13 13h22q13 0 13 -13v-493q46 -9 76.5 -45t30.5 -84
t-30.5 -84.5t-76.5 -44.5v-114q0 -13 -13 -13h-22q-13 0 -13 13v114q-46 8 -76.5 44.5t-30.5 84.5t30.5 84t76.5 45zM849 588v95q0 13 14 13h21q13 0 13 -13v-95q46 -8 76.5 -44.5t30.5 -84.5t-30.5 -84.5t-76.5 -44.5v-512q0 -13 -13 -13h-21q-14 0 -14 13v512
q-45 8 -76 44.5t-31 84.5t31 84.5t76 44.5zM814 518q-24 -24 -24 -59t24 -59t59 -24t60 25q24 24 24 58t-24 59q-25 24 -60 24t-59 -24zM172 296q-25 -24 -25 -59t25 -59q24 -24 59 -24t59 24t24 59t-24 59t-59 24t-59 -24zM494 120q-25 -24 -25 -59t25 -59q24 -24 58 -24
t59 24q24 24 24 59t-24 59q-25 24 -59 24t-58 -24z" />
    <glyph glyph-name="R" unicode="R" horiz-adv-x="1262" 
d="M185 47q12 0 27 -5l164 232q-18 26 -18 53q0 35 25 59.5t59 24.5q35 0 60 -24.5t25 -59.5q0 -7 -1 -8l228 -91q24 32 66 32q13 0 25 -3l168 255q-20 26 -20 55q0 35 25 59.5t60 24.5q34 0 59 -24.5t25 -59.5t-24.5 -60t-59.5 -25q-10 0 -25 4l-169 -256q20 -23 20 -54
q0 -35 -24.5 -60t-59.5 -25t-59.5 25t-24.5 60v8l-227 91q-25 -33 -67 -33q-10 0 -27 5l-164 -232q18 -23 18 -52q2 -35 -24.5 -60t-59.5 -25t-60 25q-25 27 -25 60t25 59.5t60 24.5z" />
    <glyph glyph-name="S" unicode="S" horiz-adv-x="1035" 
d="M145 669h270q18 0 31 -13t13 -31v-270q0 -19 -13 -31.5t-31 -12.5h-270q-19 0 -32 12.5t-13 31.5v270q0 18 13 31t32 13zM621 669h270q18 0 31 -13t13 -31v-270q0 -19 -13 -31.5t-31 -12.5h-270q-18 0 -31 12.5t-13 31.5v270q0 18 13 31t31 13zM411 358v263h-263v-263
h263zM887 358v263h-263v-263h263zM145 192h270q18 0 31 -12.5t13 -31.5v-270q0 -18 -13 -31t-31 -13h-270q-19 0 -32 13t-13 31v270q0 19 13 31.5t32 12.5zM621 192h270q18 0 31 -12.5t13 -31.5v-270q0 -18 -13 -31t-31 -13h-270q-18 0 -31 13t-13 31v270q0 19 13 31.5
t31 12.5zM411 -118v263h-263v-263h263zM887 -118v263h-263v-263h263z" />
    <glyph glyph-name="T" unicode="T" horiz-adv-x="1112" 
d="M983 197l-62 65v-399q0 -18 -13 -31t-32 -13h-176q-18 0 -31 13t-13 31v285h-179v-285q0 -18 -13 -31t-31 -13h-177q-18 0 -31 13t-13 31v399l-62 -65q-9 -9 -18 -1l-16 15q-11 8 -1 18l420 440q13 13 31.5 13t31.5 -13l420 -440q8 -11 -1 -18l-16 -15q-11 -8 -18 1z
M566 633l-306 -321v-445h169v284q0 19 13 31.5t31 12.5h187q18 0 31 -12.5t13 -31.5v-284h169v445z" />
    <glyph glyph-name="U" unicode="U" horiz-adv-x="999" 
d="M317 555v161q0 17 12 28.5t29 11.5h500q17 0 29 -12t12 -28v-790q0 -13 -13 -13h-22q-13 0 -13 13v783h-487v-154q0 -13 -13 -13h-21q-13 0 -13 13zM552 589h-76q-13 0 -13 13v22q0 13 13 13h76q13 0 13 -13v-22q0 -13 -13 -13zM739 589h-75q-14 0 -14 13v22q0 13 14 13
h75q13 0 13 -13v-22q0 -13 -13 -13zM784 460v-672q0 -18 -13 -30.5t-30 -12.5h-181q-18 0 -31 12.5t-13 30.5v122h-88v-122q0 -18 -13 -30.5t-31 -12.5h-241q-17 0 -30 12.5t-13 30.5v672q0 17 12 29t29 12h602q17 0 29 -12t12 -29zM564 -208h172v662h-588v-662h232v123
q0 18 13 30.5t30 12.5h98q17 0 30 -12.5t13 -30.5v-123zM311 319h-75q-13 0 -13 13v22q0 13 13 13h75q14 0 14 -13v-22q0 -13 -14 -13zM479 319h-76q-13 0 -13 13v22q0 13 13 13h76q13 0 13 -13v-22q0 -13 -13 -13zM648 319h-76q-13 0 -13 13v22q0 13 13 13h76q13 0 13 -13
v-22q0 -13 -13 -13zM311 179h-75q-13 0 -13 13v22q0 13 13 13h75q14 0 14 -13v-22q0 -13 -14 -13zM479 179h-76q-13 0 -13 13v22q0 13 13 13h76q13 0 13 -13v-22q0 -13 -13 -13zM648 179h-76q-13 0 -13 13v22q0 13 13 13h76q13 0 13 -13v-22q0 -13 -13 -13zM311 42h-75
q-13 0 -13 14v21q0 13 13 13h75q14 0 14 -13v-21q0 -14 -14 -14zM479 42h-76q-13 0 -13 14v21q0 13 13 13h76q13 0 13 -13v-21q0 -14 -13 -14zM648 42h-76q-13 0 -13 14v21q0 13 13 13h76q13 0 13 -13v-21q0 -14 -13 -14z" />
    <glyph glyph-name="V" unicode="V" horiz-adv-x="1763" 
d="M1238 578q136 -136 136 -328t-136 -328t-328 -136t-328 136t-136 328t136 328q136 135 328 135t328 -135zM1474 -139q0 -13 14 -13h21q13 0 13 13v270h97q18 0 31 12.5t13 31.5v326q0 75 -46 124q-28 30 -59 40t-84 10v-814zM616 544q-122 -122 -122 -294
q0 -173 122 -295t294 -122t294 122t122 295q0 172 -122 294t-294 122t-294 -122zM148 421q0 -42 29.5 -68t68.5 -26q38 0 67.5 26t29.5 68v215q0 13 13 13h21q13 0 13 -13v-215q0 -56 -33 -93.5t-88 -45.5v-421q0 -13 -13 -13h-21q-13 0 -13 13v421q-55 8 -88.5 45.5
t-33.5 93.5v215q0 13 13 13h22q13 0 13 -13v-215zM185 636v-202q0 -13 13 -13h17q13 0 13 13v202q0 13 -13 13h-17q-13 0 -13 -13zM263 636v-202q0 -13 13 -13h17q13 0 13 13v202q0 13 -13 13h-17q-13 0 -13 -13zM1522 178v447q34 -6 60 -32q33 -36 33 -92v-323h-93z
M910 555q125 0 216 -89q89 -91 89 -216q0 -127 -89 -216q-90 -90 -216 -90q-128 0 -216 90q-89 89 -89 216q0 125 89 216q89 89 216 89zM728 432q-76 -76 -76 -182q0 -107 76 -182q75 -76 182 -76t183 76q75 75 75 182q0 106 -75 182q-77 75 -183 75q-107 0 -182 -75z" />
    <glyph glyph-name="W" unicode="W" horiz-adv-x="913" 
d="M118 527q27 27 63.5 12t36.5 -54q0 -24 -17.5 -41t-41.5 -17t-41.5 17t-17.5 41q0 25 18 42zM799 462h-453q-14 0 -14 13v21q0 13 14 13h453q14 0 14 -13v-21q0 -13 -14 -13zM118 292q27 27 63.5 12t36.5 -54q0 -24 -17.5 -41t-41.5 -17t-41.5 17t-17.5 41q0 26 18 42z
M799 227h-453q-14 0 -14 13v21q0 13 14 13h453q14 0 14 -13v-21q0 -13 -14 -13zM118 57q27 26 63.5 11.5t36.5 -52.5q0 -25 -17.5 -42t-41.5 -17t-41.5 17t-17.5 42q0 24 18 41zM799 -8h-453q-14 0 -14 13v21q0 13 14 13h453q14 0 14 -13v-21q0 -13 -14 -13z" />
    <glyph glyph-name="X" unicode="X" horiz-adv-x="1089" 
d="M414 523q0 70 50 120q49 49 119 49h237q71 0 120 -49t49 -120v-546q0 -71 -49 -120t-120 -49h-237q-70 0 -119 49q-50 50 -50 120v121q0 13 13 13h21q13 0 13 -13v-121q0 -50 36 -86q37 -35 86 -35h237q49 0 86 35q35 37 35 86v546q0 49 -35 86q-37 35 -86 35h-237
q-49 0 -86 -35q-36 -36 -36 -86v-120q0 -13 -13 -13h-21q-13 0 -13 13v120zM178 274l118 118q10 10 0 19l-15 15q-11 10 -18 0l-152 -152q-11 -10 -11 -23.5t11 -23.5l152 -152q7 -11 18 0l15 15q10 10 0 19l-118 118h510q13 0 13 13v21q0 13 -13 13h-510z" />
    <glyph glyph-name="Y" unicode="Y" horiz-adv-x="1001" 
d="M326 521q0 70 50 120q49 49 119 49h237q71 0 120 -49t49 -120v-546q0 -71 -49 -120t-120 -49h-237q-70 0 -119 49q-50 50 -50 120v121q0 13 13 13h21q13 0 13 -13v-121q0 -50 36 -86q37 -35 86 -35h237q49 0 86 35q35 37 35 86v546q0 49 -35 86q-37 35 -86 35h-237
q-49 0 -86 -35q-36 -36 -36 -86v-120q0 -13 -13 -13h-21q-13 0 -13 13v120zM623 272l-118 118q-9 10 0 19l15 15q10 10 19 0l151 -152q10 -10 10 -23.5t-10 -23.5l-151 -152q-9 -9 -19 0l-15 15q-9 10 0 19l118 118h-510q-13 0 -13 13v21q0 13 13 13h510z" />
    <glyph glyph-name="Z" unicode="Z" horiz-adv-x="1166" 
d="M624 -195l-122 123q-10 9 -10 22t10 23l122 122q10 9 19 0l15 -15q9 -9 0 -18l-88 -88h331q49 0 83.5 34.5t34.5 83.5v314q0 49 -34.5 83.5t-83.5 34.5h-635q-49 0 -83.5 -34.5t-34.5 -83.5v-314q0 -49 34.5 -83.5t83.5 -34.5h59q13 0 13 -13v-21q0 -13 -13 -13h-59
q-69 0 -117 48q-49 49 -49 117v314q0 68 49 117q48 49 117 49h635q68 0 117 -49q48 -49 48 -117v-314q0 -68 -48 -117q-50 -48 -117 -48h-331l88 -88q10 -9 0 -19l-15 -15q-9 -9 -19 0z" />
    <glyph glyph-name="a" unicode="a" horiz-adv-x="1154" 
d="M277 550h115v12q0 64 36 101t99 37h100q63 0 99 -37t36 -101v-12h116q72 0 125 -51q51 -52 51 -125v-399q0 -73 -51 -125q-52 -52 -125 -52h-601q-73 0 -125 52t-52 125v399q0 73 52 125q52 51 125 51zM440 550h275v12q0 90 -88 90h-100q-87 0 -87 -90v-12zM878 503h-601
q-53 0 -91 -38t-38 -91v-93h330v51q0 19 13 32t32 13h108q19 0 32.5 -13t13.5 -32v-51h330v93q0 51 -38 91q-40 38 -91 38zM634 146v186q0 2 -3 2h-108q-2 0 -2 -2v-186q0 -3 2 -3h108q3 0 3 3zM478 146v87h-330v-258q0 -53 38 -91t91 -38h601q53 0 91 38t38 91v258h-330
v-87q0 -19 -13.5 -32.5t-32.5 -13.5h-108q-19 0 -32 13.5t-13 32.5z" />
    <glyph glyph-name="b" unicode="b" 
d="M543 586l348 108q12 4 16 -9l6 -20q4 -12 -8 -17l-349 -108q-12 -5 -26 0l-348 108q-12 4 -9 17l7 20q4 13 16 9zM157 607l386 -120l387 120q21 7 39 -6.5t18 -35.5v-596q0 -33 -31 -42l-400 -125q-12 -5 -26 0l-399 125q-31 7 -31 42v596q0 22 18 35.5t39 6.5zM148 -29
l372 -116v589l-372 116v-589zM939 560l-372 -116v-589l372 116v589z" />
    <glyph glyph-name="c" unicode="c" 
d="M157 672l386 -120l386 120q22 7 40 -6.5t18 -35.5v-639q0 -33 -31 -42l-400 -125q-13 -4 -26 0l-399 125q-31 7 -31 42v639q0 22 18 35.5t39 6.5zM147 -7l372 -116v632l-372 116v-632zM939 625l-372 -116v-632l372 116v632zM432 320l-214 68q-10 3 -9 16l1 21q2 14 16 10
l213 -68q13 -4 13 -17l-2 -21q0 -7 -6 -9.5t-12 0.5zM651 320l215 68q9 3 8 16l-1 21q-1 15 -15 10l-214 -68q-13 -4 -12 -17l1 -21q0 -7 6 -9.5t12 0.5zM432 170l-214 67q-11 3 -9 17l1 21q1 13 16 10l213 -68q13 -4 13 -18l-2 -20q0 -7 -6 -9.5t-12 0.5zM651 170l215 67
q10 3 8 17l-1 21q-1 13 -15 10l-214 -68q-14 -5 -12 -18l1 -20q0 -7 6 -9.5t12 0.5zM432 12l-214 68q-10 3 -9 16l1 21q2 14 16 10l213 -67q13 -4 13 -18l-2 -20q0 -14 -18 -10zM651 12l215 68q9 3 8 16l-1 21q-1 15 -15 10l-214 -67q-14 -4 -12 -18l1 -20q0 -14 18 -10z
" />
    <glyph glyph-name="d" unicode="d" horiz-adv-x="900" 
d="M258 554h42v103q0 18 13 30.5t30 12.5h214q18 0 30.5 -12.5t12.5 -30.5v-103h43q65 0 111 -46t46 -112v-464q0 -65 -46 -111t-111 -46h-385q-65 0 -111 46q-47 47 -47 111v464q0 65 47 112q46 46 111 46zM348 652v-98h205v98h-205zM643 506h-43v-99q0 -13 -13 -13h-21
q-13 0 -13 13v99h-205v-99q0 -13 -13 -13h-22q-13 0 -13 13v99h-42q-46 0 -78 -32t-32 -78v-464q0 -45 32 -77t78 -32h385q45 0 77.5 32t32.5 77v464q0 46 -32.5 78t-77.5 32z" />
    <glyph glyph-name="e" unicode="e" horiz-adv-x="1165" 
d="M550 614v-144q259 -24 384.5 -169t130.5 -415q0 -34 -33 -42.5t-50 19.5q-141 241 -432 250v-156q0 -28 -25 -40q-26 -12 -47 7l-364 329q-14 13 -14 32.5t14 32.5l364 328q20 19 47 8q25 -12 25 -40zM502 426v178l-353 -318l353 -320v195q181 0 305.5 -62t210.5 -203
q-8 263 -130 387q-122 123 -386 143z" />
    <glyph glyph-name="f" unicode="f" horiz-adv-x="1166" 
d="M615 471v144q0 28 26 40q26 11 46 -8l364 -328q15 -13 15 -32.5t-15 -32.5l-364 -329q-19 -19 -46 -7q-26 12 -26 40v156q-290 -9 -432 -250q-17 -28 -50 -19.5t-33 42.5q5 270 130.5 415t384.5 169zM663 605v-178q-265 -20 -385 -143q-122 -124 -130 -387
q85 141 209.5 203t305.5 62v-195l354 320z" />
    <glyph glyph-name="g" unicode="g" horiz-adv-x="1152" 
d="M338 34v-21q0 -13 -13 -13q-113 1 -169 42.5t-56 139.5q0 72 48 128q48 54 120 54h9q2 106 65 181q65 76 167 95q103 20 190 -26q87 -47 126 -142q97 -2 163 -67q64 -65 64 -164q0 -95 -53 -163q-54 -69 -146 -78q-13 -2 -15 12l-2 21q-2 14 12 14q75 8 115 63
q41 56 41 131q0 79 -51 131q-53 52 -131 53q-28 0 -40 27q-33 81 -105 120q-73 38 -159 21q-87 -17 -140 -80.5t-54 -152.5q0 -19 -14 -32.5t-33 -11.5q-54 4 -92 -37q-37 -40 -37 -97q0 -77 42.5 -105.5t134.5 -29.5q13 0 13 -13zM754 -19l-147 -146q-7 -8 -19 -8t-19 8
l-147 146q-10 9 0 19l12 11q9 9 18 0l112 -111v333q0 13 13 13h22q13 0 13 -13v-333l112 111q9 9 18 0l12 -11q10 -10 0 -19z" />
    <glyph glyph-name="h" unicode="h" horiz-adv-x="1151" 
d="M338 34v-21q0 -13 -14 -13q-111 1 -167.5 42.5t-56.5 139.5q0 72 48 128q48 54 120 54h9q2 106 65 181q65 76 167 95q102 20 189 -26q88 -46 127 -142q96 -1 162 -67q64 -65 64 -164q0 -95 -53 -163q-52 -69 -145 -78q-13 -2 -15 12l-2 21q-2 14 12 14q75 8 115 63
q41 56 41 131q0 79 -51 131q-53 52 -131 53q-28 0 -40 27q-33 81 -105 120q-73 38 -159 21q-88 -16 -140 -80q-52 -65 -54 -153q0 -19 -14 -32.5t-33 -11.5q-54 4 -92 -37q-37 -40 -37 -97q0 -77 42 -105.5t134 -29.5q14 0 14 -13zM754 125l-147 146q-19 19 -39 0l-146 -146
q-10 -9 0 -19l12 -11q9 -9 18 0l112 111v-331q0 -13 13 -13h21q13 0 13 13l1 331l111 -111q9 -9 19 0l12 11q10 10 0 19z" />
    <glyph glyph-name="i" unicode="i" horiz-adv-x="1089" 
d="M637 658l15 -74q29 -9 62 -25l63 41q27 16 52 -3q38 -30 68 -68q20 -26 2 -51l-41 -64q10 -17 26 -61l74 -16q31 -7 34 -39q6 -48 0 -95q-2 -32 -34 -39l-74 -16q-12 -35 -26 -61l41 -64q18 -25 -2 -51q-30 -38 -68 -68q-26 -20 -52 -2l-63 41q-28 -16 -62 -26l-15 -74
q-7 -32 -39 -34q-48 -6 -95 0q-32 3 -39 34l-16 74q-44 16 -61 26l-64 -41q-25 -18 -51 2q-38 30 -68 68q-20 24 -3 51l41 64q-16 31 -25 61l-74 16q-29 6 -34 39q-6 47 0 95q3 33 34 39l74 16q6 25 25 61l-41 64q-17 27 3 51q30 38 68 68q24 19 51 3l64 -41q36 19 61 25
l16 74q6 31 39 34q47 6 95 0q33 -5 39 -34zM637 539q-25 7 -31 33l-15 73q-41 5 -81 0l-16 -73q-4 -26 -30 -33q-27 -9 -56 -23q-23 -12 -45 1l-63 41q-32 -26 -57 -57l40 -63q15 -21 2 -45q-14 -29 -23 -56q-8 -25 -33 -30l-73 -16q-4 -41 0 -81l73 -15q15 -4 23.5 -14.5
t18 -36.5t14.5 -36q13 -22 -2 -45l-40 -63q25 -32 57 -57l63 41q22 13 45 1q29 -14 56 -23q26 -8 30 -33l16 -73q40 -4 81 0l15 73q4 15 14.5 23.5t36.5 18t36 14.5q23 12 45 -1l63 -41q31 25 57 57l-41 63q-13 22 -1 45q15 28 23 56q7 25 33 31l73 15q5 40 0 81l-73 16
q-26 5 -33 30q-9 27 -23 56q-12 23 1 45l41 63q-26 31 -57 57l-63 -41q-22 -13 -45 -1q-31 15 -56 23zM550 426q72 0 125 -51q51 -53 51 -124q0 -73 -51 -124q-52 -52 -125 -52q-72 0 -123 52q-52 51 -52 124q0 72 52 124q51 51 123 51zM550 378q-52 0 -89 -37
q-38 -38 -38 -90q0 -53 37 -90q38 -38 90 -38q53 0 91 38q37 37 37 90t-37 90t-91 37z" />
    <glyph glyph-name="j" unicode="j" horiz-adv-x="1050" 
d="M910 672q31 -8 35 -36q15 -88 -9 -193q-26 -107 -83 -164q-91 -91 -280 -133l6 -111q1 -19 -13 -34l-98 -98l-5 -3q-49 -26 -68 19l-53 149l-149 54q-23 8 -28 31.5t12 40.5l98 99q14 14 34 12l111 -6q44 192 133 280q59 60 164 86q103 24 193 7zM899 626q-78 14 -169 -7
q-93 -21 -143 -73q-83 -83 -121 -260q-4 -16 -16.5 -25.5t-29.5 -8.5l-112 6l-94 -93l145 -53q20 -8 27 -26l52 -145l94 93l-7 113q-1 16 9 28.5t26 16.5q180 39 259 121q50 50 71 143t9 170zM796 392q-28 -28 -67 -28t-66 28q-28 27 -28 66t28 67q27 27 66 27t67 -27
q27 -28 27 -67t-27 -66zM729 510q-21 0 -36 -15t-15 -37q0 -21 15 -36t36 -15q22 0 37 15t15 36q0 22 -15 37t-37 15zM342 -88q-78 -75 -195 -83q-20 -2 -33.5 12t-12.5 35q3 54 26 107t60 90q9 9 18 0l16 -15q8 -8 -1 -18q-63 -64 -72 -163q96 7 161 69q10 10 19 0l14 -15
q9 -9 0 -19z" />
    <glyph glyph-name="k" unicode="k" horiz-adv-x="851" 
d="M402 154v481l-92 -92q-10 -9 -19 0l-15 15q-10 10 0 19l128 127q9 9 22 9t22 -9l127 -127q9 -9 0 -19l-15 -15q-9 -9 -18 0l-92 92v-481q0 -13 -13 -13h-22q-13 0 -13 13zM312 438v-21q0 -13 -13 -13h-33q-49 0 -83.5 -34.5t-34.5 -83.5v-320q0 -49 34.5 -83.5
t83.5 -34.5h320q49 0 83 34t34 84v320q0 50 -34 84t-83 34h-34q-13 0 -13 13v21q0 13 13 13h34q68 0 117 -48q48 -49 48 -117v-320q0 -69 -48 -118q-49 -48 -117 -48h-320q-69 0 -117 48q-49 49 -49 118v320q0 68 49 117q48 48 117 48h33q13 0 13 -13z" />
    <glyph glyph-name="l" unicode="l" horiz-adv-x="851" 
d="M402 176v481q0 13 13 13h21q13 0 13 -13v-481l92 92q9 10 19 0l15 -15q9 -9 0 -19l-128 -128q-9 -9 -21.5 -9t-21.5 9l-128 128q-10 10 0 19l15 15q9 10 19 0zM312 438v-21q0 -13 -14 -13h-33q-49 0 -83.5 -34.5t-34.5 -83.5v-320q0 -49 34.5 -83.5t83.5 -34.5h320
q49 0 83.5 34.5t34.5 83.5v320q0 49 -34.5 83.5t-83.5 34.5h-33q-13 0 -13 13v21q0 13 13 13h33q67 0 117 -48q49 -49 49 -117v-320q0 -69 -49 -118q-50 -48 -117 -48h-320q-68 0 -116 48q-49 49 -49 118v320q0 68 49 117q48 48 116 48h33q14 0 14 -13z" />
    <glyph glyph-name="m" unicode="m" horiz-adv-x="1065" 
d="M819 644l136 -136q22 -22 0 -44l-141 -140q-10 -10 -18 -1l-15 15q-9 10 0 19l108 106q-213 -2 -339.5 -90t-177.5 -280q-3 -14 -16 -10l-21 6q-12 2 -9 16q56 208 194.5 305.5t367.5 99.5l-103 101q-9 9 0 18l15 15q10 10 19 0zM452 525v-22q0 -13 -13 -13h-174
q-48 0 -83 -34q-34 -35 -34 -84v-336q0 -48 34 -83q35 -34 83 -34h508q49 0 84 34q34 35 34 83v213q0 13 13 13h22q13 0 13 -13v-213q0 -68 -49 -117q-50 -48 -117 -48h-508q-68 0 -116 48q-49 49 -49 117v336q0 68 49 117q46 49 116 49h174q13 0 13 -13z" />
    <glyph glyph-name="n" unicode="n" 
d="M291 6l364 518q13 19 36 19h215l-86 86q-8 9 0 18l16 15q9 9 18 0l122 -122q9 -8 9 -21t-9 -22l-122 -121q-10 -10 -18 -1l-16 16q-8 9 0 18l86 86h-214l-363 -517q-13 -19 -36 -19h-180q-13 0 -13 13v21q0 13 13 13h178zM293 543q23 0 36 -19l120 -171q7 -11 -3 -18
l-17 -13q-11 -8 -19 3l-119 170h-178q-13 0 -13 13v22q0 13 13 13h180zM692 6h216l-86 86q-10 10 0 19l16 15q9 9 18 0l122 -122q9 -9 9 -21.5t-9 -21.5l-122 -122q-9 -9 -18 0l-16 15q-10 10 0 19l86 86h-217q-23 0 -36 19l-117 166q-8 10 3 18l17 13q10 7 18 -3z" />
    <glyph glyph-name="o" unicode="o" horiz-adv-x="985" 
d="M847 619q38 -40 38 -93q0 -55 -38 -93q-37 -39 -93 -39q-67 0 -107 55l-293 -151q9 -21 9 -47q0 -22 -6 -43l294 -151q39 50 103 50q55 0 93 -38q38 -40 38 -94q0 -53 -38 -93q-38 -38 -93 -38t-93 38q-39 39 -39 93q0 20 7 40l-296 152q-41 -48 -101 -48q-56 0 -93 39
q-39 38 -39 93q0 54 39 93q38 38 93 38q57 0 97 -43l298 153q-5 20 -5 34q0 54 39 93q38 38 93 38t93 -38zM695 585q-25 -25 -25 -59q0 -35 24.5 -59.5t59.5 -24.5t59.5 24.5t24.5 59.5q1 34 -25.5 59t-58.5 25t-59 -25zM173 310q-19 -17 -23 -43t5 -48.5t30 -38t47 -13.5
q35 0 59.5 24.5t24.5 59.5q2 34 -24.5 58.5t-59.5 24.5t-59 -24zM695 35q-25 -25 -25 -60t25 -60q25 -24 59 -24t59 24q25 25 25 60t-24 60q-25 24 -60 24t-59 -24z" />
    <glyph glyph-name="p" unicode="p" 
d="M544 694q183 0 313 -130t130 -314t-130 -314q-131 -129 -313 -129q-118 -3 -221.5 57.5t-164 164.5t-58.5 221q-4 179 130.5 313.5t313.5 130.5zM264 530q-116 -116 -116 -280q0 -162 116 -280q115 -115 280 -115t280 115q115 116 115 280q0 165 -115 280
q-116 116 -280 116t-280 -116zM376 384q-5 -15 8 -19l21 -6q12 -5 17 9q35 86 131 86q55 0 87 -28t32 -73q0 -51 -28 -80q-19 -19 -24 -23q-3 -2 -7.5 -5.5t-11.5 -8.5t-13 -9q-41 -26 -59 -53t-18 -73q0 -13 13 -13h16q14 0 14 13q3 34 17 52.5t46 40.5q2 1 8 5
q43 29 65 53q32 35 32 103q0 63 -45.5 104t-121.5 41q-134 0 -179 -116zM535 35h-4q-17 0 -23 -6t-6 -22v-4q0 -16 6 -22t23 -6h4q16 0 21.5 6t5.5 22v4q0 16 -5.5 22t-21.5 6z" />
    <glyph glyph-name="q" unicode="q" horiz-adv-x="895" 
d="M100 -163v783q0 16 10 28.5t26 15.5q114 18 210 -15q38 -13 91 -28q3 -1 18.5 -5.5t19 -5t17.5 -4.5t18.5 -4.5t17 -3.5t19 -3.5t18 -1.5t20 -1t19 0.5t21.5 1.5q54 6 108 31q22 10 42 -3t20 -37v-356q0 -29 -26 -40q-56 -29 -109 -40.5t-103 -5.5t-83 15.5t-81 27.5
q-137 50 -246 31v-380q0 -13 -13 -13h-21q-13 0 -13 13zM147 617v-352q112 17 247 -30q46 -18 105 -34q121 -33 249 30v348q-68 -31 -138.5 -36t-116.5 12q-49 15 -108 33t-111 30q-54 11 -127 -1z" />
    <glyph glyph-name="r" unicode="r" horiz-adv-x="982" 
d="M757 35q-13 0 -13 13v21q0 13 13 13h78v509h-509v-77q0 -13 -13 -13h-22q-13 0 -13 13v81q0 18 13 31t31 13h516q18 0 31 -13t13 -31v-516q0 -18 -12.5 -31t-31.5 -13h-81zM144 461h516q18 0 31 -12.5t13 -31.5v-516q0 -18 -13 -31t-31 -13h-516q-19 0 -31.5 13t-12.5 31
v516q0 19 12.5 31.5t31.5 12.5zM656 -95v509h-509v-509h509z" />
    <glyph glyph-name="s" unicode="s" horiz-adv-x="1120" 
d="M690 673h287q17 0 30 -13t13 -30v-673q0 -17 -13 -30t-30 -13h-285q-74 0 -103 -74q-8 -20 -29 -20q-22 0 -30 20q-29 74 -103 74h-284q-18 0 -30.5 13t-12.5 30v673q0 17 12.5 30t30.5 13h286q38 0 73.5 -18.5t57.5 -49.5q22 31 57 49.5t73 18.5zM536 -82v609
q0 41 -32 69.5t-75 28.5h-282v-663h280q65 0 109 -44zM584 527v-609q44 44 108 44h280v663h-282q-43 0 -74.5 -28.5t-31.5 -69.5z" />
    <glyph glyph-name="t" unicode="t" horiz-adv-x="1029" 
d="M927 568q10 -45 -19 -74l-383 -383q-7 -7 -18 -10l-160 -42q-19 -5 -34 9.5t-10 34.5l41 161q3 10 11 18l382 382q29 29 75 20q41 -7 74 -40.5t41 -75.5zM881 560q-5 27 -28.5 50t-49.5 27q-21 4 -32 -7l-381 -380l-36 -140l139 36l381 381q10 12 7 33zM823 241v-381
q0 -18 -13 -31t-31 -13h-635q-18 0 -31 13t-13 31v686q0 18 13 31t31 13h355q13 0 13 -13v-22q0 -13 -13 -13h-351v-679h627v378q0 13 13 13h22q13 0 13 -13z" />
    <glyph glyph-name="u" unicode="u" horiz-adv-x="1084" 
d="M988 534q11 -63 -26 -98l-553 -554q-12 -9 -20 -11l-232 -61q-23 -5 -39.5 11.5t-10.5 38.5l59 233q3 12 12 21l553 553q37 37 98 26q58 -11 103 -56t56 -103zM765 633l-48 -47q54 -23 97.5 -66.5t66.5 -97.5l48 47q20 20 12 56q-7 39 -43 78q-35 35 -78 43
q-36 7 -55 -13zM680 549l-445 -446q54 -22 97.5 -65.5t66.5 -98.5l445 446q-17 55 -62.5 101t-101.5 63zM156 -141l202 53q-18 50 -59.5 91.5t-91.5 59.5z" />
    <glyph glyph-name="v" unicode="v" horiz-adv-x="1132" 
d="M101 316q7 161 123 277q116 114 277 123q19 1 32.5 -12t13.5 -32v-359q0 -18 -12.5 -31t-31.5 -13h-358q-19 0 -32 14t-12 33zM149 317h351v351q-142 -9 -242 -109t-109 -242zM235 182q11 -147 120 -249q109 -101 255 -101q154 0 266 110q110 112 110 266q0 148 -102 257
q-102 108 -252 119q-13 0 -12 13l1 22q0 14 14 12q168 -11 283 -133t115 -290q0 -176 -124 -300q-125 -123 -299 -123q-166 0 -288 114t-135 279q-2 14 12 14l22 2q13 0 14 -12z" />
    <glyph glyph-name="w" unicode="w" horiz-adv-x="1193" 
d="M796 450v-64l233 123q22 11 43 -2t21 -38v-442q0 -24 -21 -37.5t-43 -1.5l-233 122v-65q0 -68 -49 -117q-49 -48 -117 -48h-365q-68 0 -116 48q-49 49 -49 117v405q0 69 49 118q48 48 116 48h365q68 0 117 -48q49 -49 49 -118zM748 380v70q0 49 -34.5 83.5t-83.5 34.5
h-365q-49 0 -83.5 -34.5t-34.5 -83.5v-405q0 -49 34.5 -83.5t83.5 -34.5h365q49 0 83.5 34.5t34.5 83.5v70q0 25 21.5 38t43.5 1l232 -121v431l-229 -121q-23 -13 -45.5 -1.5t-22.5 38.5z" />
    <glyph glyph-name="x" unicode="x" horiz-adv-x="820" 
d="M234 261v258q0 48 19.5 85.5t50.5 56.5t68.5 28.5t75 0t68.5 -28.5t50.5 -56.5t19.5 -85.5v-258q0 -48 -19.5 -85.5t-50.5 -56.5t-68.5 -28.5t-75 0t-68.5 28.5t-50.5 56.5t-19.5 85.5zM282 519v-258q0 -60 40 -94t89 -34q48 0 88 34t40 94v258q0 60 -40 94t-88 34
q-49 0 -89 -34t-40 -94zM434 -41v-98h137q13 0 13 -13v-21q0 -13 -13 -13h-322q-13 0 -13 13v21q0 13 13 13h137v98q-120 8 -202 87q-84 80 -84 215v116q0 13 13 13h22q13 0 13 -13v-116q0 -62 22.5 -111.5t59.5 -80.5t84 -47.5t96.5 -16.5t96.5 16.5t84 47.5t59.5 80.5
t22.5 111.5v116q0 13 13 13h21q13 0 13 -13v-116q0 -135 -83 -215q-84 -79 -203 -87z" />
    <glyph glyph-name="y" unicode="y" horiz-adv-x="1126" 
d="M542 -141l-371 388q-70 76 -58 174q11 97 90 162q83 66 172 58t161 -89l38 -42l38 42q72 81 161 89t172 -58q79 -64 91 -162q11 -98 -59 -174l-371 -388q-14 -14 -32.5 -14t-31.5 14zM542 474l-41 46q-59 66 -129.5 73.5t-138.5 -46.5q-62 -52 -73 -129q-10 -78 47 -140
l367 -383l367 383q56 62 47 139q-10 78 -73 130q-68 54 -138.5 46.5t-129.5 -73.5l-42 -46q-12 -14 -31 -14t-32 14z" />
    <glyph glyph-name="z" unicode="z" horiz-adv-x="1116" 
d="M432 591h252v83q0 13 13 13h22q13 0 13 -13v-83h118q68 0 117 -48q49 -49 49 -118v-432q0 -68 -49 -117q-49 -48 -117 -48h-584q-69 0 -117 48q-49 49 -49 117v432q0 69 49 118q48 48 117 48h118v83q0 13 13 13h22q13 0 13 -13v-83zM384 491v52h-118q-49 0 -83.5 -34.5
t-34.5 -83.5v-432q0 -49 34.5 -83.5t83.5 -34.5h584q49 0 83.5 34.5t34.5 83.5v432q0 49 -34.5 83.5t-83.5 34.5h-118v-52q0 -13 -13 -13h-22q-13 0 -13 13v52h-252v-52q0 -13 -13 -13h-22q-13 0 -13 13zM282 349q17 17 42 17t43 -17q17 -18 17 -43t-17 -42q-18 -18 -43 -18
t-42 18q-18 17 -18 42t18 43zM516 349q17 17 42 17t43 -17q17 -18 17 -43t-17 -42q-18 -18 -43 -18t-42 18q-18 17 -18 42t18 43zM750 349q17 17 42 17t43 -17q17 -18 17 -43t-17 -42q-18 -18 -43 -18t-42 18q-18 17 -18 42t18 43zM324 154q39 2 55.5 -37t-12.5 -65
q-26 -29 -65.5 -13t-37.5 55q0 26 17 43t43 17zM516 137q17 17 42 17t43 -17q17 -18 17 -43t-17 -42q-18 -18 -43 -18t-42 18q-18 17 -18 42t18 43zM750 137q17 17 42 17t43 -17q17 -18 17 -43t-17 -42q-18 -18 -43 -18t-42 18q-18 17 -18 42t18 43z" />
    <glyph glyph-name="NULL" horiz-adv-x="0" 
 />
  </font>
</defs>
</svg>
