<?xml version="1.0" standalone="no"?>
<!DOCTYPE svg PUBLIC "-//W3C//DTD SVG 1.1//EN" "http://www.w3.org/Graphics/SVG/1.1/DTD/svg11.dtd" >
<svg xmlns="http://www.w3.org/2000/svg" xmlns:xlink="http://www.w3.org/1999/xlink" version="1.1">
<metadata>
Created by FontForge 20170731 at Fri Dec 12 19:18:15 2014
 By Aleksey,,,
Copyright (c) 2014 by . All rights reserved.
</metadata>
<defs>
<font id="PantonIconsC-Regular" horiz-adv-x="1058" >
  <font-face 
    font-family="Panton Icons C "
    font-weight="400"
    font-stretch="normal"
    units-per-em="1000"
    panose-1="0 0 5 0 0 0 0 0 0 0"
    ascent="774"
    descent="-226"
    x-height="604"
    cap-height="679"
    bbox="93 -250 1634 750"
    underline-thickness="50"
    underline-position="-200"
    unicode-range="U+0020-007A"
  />
<missing-glyph horiz-adv-x="500" 
d="M410 750v-1000h-317v1000h317zM333 683h-165v-33h65v-37h-66v-33h166v33h-66v37h66v33zM267 554h-100v-104h166v34h-66v70zM233 520v-36h-33v36h33zM333 423h-166v-33h66v-37h-66v-33h100v70h66v33zM333 363h-33v-66h-133v-34h166v100zM333 241h-100v-56h34v23h33v-47
h-100v80h-33v-113h166v113zM333 68h-166v-113h166v113zM300 35v-47h-100v47h100zM333 -68h-166v-33h70l-70 -47v-33h166v33h-102l70 47h32v33z" />
    <glyph glyph-name=".notdef" horiz-adv-x="500" 
d="M410 750v-1000h-317v1000h317zM333 683h-165v-33h65v-37h-66v-33h166v33h-66v37h66v33zM267 554h-100v-104h166v34h-66v70zM233 520v-36h-33v36h33zM333 423h-166v-33h66v-37h-66v-33h100v70h66v33zM333 363h-33v-66h-133v-34h166v100zM333 241h-100v-56h34v23h33v-47
h-100v80h-33v-113h166v113zM333 68h-166v-113h166v113zM300 35v-47h-100v47h100zM333 -68h-166v-33h70l-70 -47v-33h166v33h-102l70 47h32v33z" />
    <glyph glyph-name=".null" horiz-adv-x="0" 
 />
    <glyph glyph-name="nonmarkingreturn" horiz-adv-x="333" 
 />
    <glyph glyph-name="space" unicode=" " horiz-adv-x="0" 
 />
    <glyph glyph-name="A" unicode="A" horiz-adv-x="1228" 
d="M866 669h232q12 0 21 -8.5t9 -20.5v-783q0 -13 -9 -21.5t-21 -8.5h-232q-12 0 -21 8.5t-9 21.5v783q0 12 9 20.5t21 8.5zM1098 650h-232q-11 0 -11 -10v-783q0 -11 11 -11h232q11 0 11 11v783q0 10 -11 10zM130 387h232q12 0 21 -8.5t9 -20.5v-501q0 -13 -9 -21.5
t-21 -8.5h-232q-12 0 -21 8.5t-9 21.5v501q0 12 9 20.5t21 8.5zM362 368h-232q-11 0 -11 -10v-501q0 -11 11 -11h232q11 0 11 11v501q0 10 -11 10zM499 218h232q12 0 21 -8.5t9 -21.5v-331q0 -13 -9 -21.5t-21 -8.5h-232q-12 0 -21 8.5t-9 21.5v331q0 13 9 21.5t21 8.5z
M731 199h-232q-11 0 -11 -11v-331q0 -11 11 -11h232q11 0 11 11v331q0 11 -11 11z" />
    <glyph glyph-name="B" unicode="B" 
d="M833 554q125 -127 125 -304t-125 -304q-127 -125 -304 -125q-178 0 -303 125q-126 126 -126 304t126 304q125 125 303 125q177 0 304 -125zM529 660q-169 0 -289 -120q-121 -120 -121 -290t120 -290t290 -120t290 120t120 290t-120 290t-290 120zM679 274q3 -4 7 0l6 6
q4 4 0 7l-152 152q-11 11 -22 0l-152 -152q-4 -3 0 -7l6 -6q4 -4 8 0l140 140v-353q0 -5 5 -5h9q5 0 5 5v353z" />
    <glyph glyph-name="C" unicode="C" 
d="M833 -54q-127 -125 -304 -125q-178 0 -303 125q-126 126 -126 304t126 304q125 125 303 125q177 0 304 -125q125 -127 125 -304t-125 -304zM819 540q-120 120 -290 120q-169 0 -289 -120q-121 -120 -121 -290t120 -290t290 -120t290 120t120 290t-120 290zM553 100
q-3 -4 0 -7l6 -6q4 -4 8 0l152 152q11 11 0 22l-152 152q-4 4 -8 0l-6 -6q-4 -4 0 -8l140 -140h-352q-6 0 -6 -5v-8q0 -6 6 -6h352z" />
    <glyph glyph-name="D" unicode="D" horiz-adv-x="1059" 
d="M226 -54q-126 126 -126 304t126 304q125 125 303 125q177 0 304 -125q126 -126 126 -304t-126 -304q-127 -125 -304 -125q-178 0 -303 125zM240 540q-121 -120 -121 -290t120 -290t290 -120t290 120t120 290t-120 290t-290 120q-169 0 -289 -120zM505 100l-140 140h353
q5 0 5 6v8q0 5 -5 5h-353l140 140q4 4 0 8l-6 6q-3 4 -7 0l-152 -152q-11 -11 0 -22l152 -152q4 -4 7 0l6 6q3 3 0 7z" />
    <glyph glyph-name="E" unicode="E" 
d="M833 -54q-127 -125 -304 -125q-178 0 -303 125q-126 126 -126 304t126 304q125 125 303 125q177 0 304 -125q125 -127 125 -304t-125 -304zM239 -40q120 -120 290 -120t290 120t120 290t-120 290t-290 120q-169 0 -289 -120q-121 -120 -121 -290t120 -290zM679 226
l-140 -140v352q0 6 -5 6h-9q-5 0 -5 -6v-352l-140 140q-4 4 -8 0l-6 -6q-4 -4 0 -8l152 -152q11 -11 22 0l152 152q4 4 0 8l-6 6q-4 4 -7 0z" />
    <glyph glyph-name="F" unicode="F" 
d="M226 -54q-126 126 -126 304t126 304q125 125 303 125q177 0 304 -125q125 -127 125 -304t-125 -304q-127 -125 -304 -125q-178 0 -303 125zM246 546l580 -579q113 119 113 283q0 170 -120 290t-290 120q-165 0 -283 -114zM812 -47l-579 580q-114 -119 -114 -283
q0 -170 120 -290t290 -120q164 0 283 113z" />
    <glyph glyph-name="G" unicode="G" 
d="M226 -54q-126 126 -126 304t126 304q125 125 303 125q177 0 304 -125q125 -127 125 -304t-125 -304q-127 -125 -304 -125q-178 0 -303 125zM819 -40q120 120 120 290t-120 290t-290 120q-169 0 -289 -120q-121 -120 -121 -290t120 -290t290 -120t290 120zM489 94l264 297
q3 4 -1 7l-6 6q-4 3 -8 -1l-261 -293l-145 149q-4 4 -8 0l-6 -6q-4 -4 0 -8l147 -151q12 -12 24 0z" />
    <glyph glyph-name="H" unicode="H" 
d="M226 -54q-126 126 -126 304t126 304q125 125 303 125q177 0 304 -125q125 -127 125 -304t-125 -304q-127 -125 -304 -125q-178 0 -303 125zM819 -40q120 120 120 290t-120 290t-290 120q-169 0 -289 -120q-121 -120 -121 -290t120 -290t290 -120t290 120zM305 45
q-3 -4 0 -8l6 -6q4 -4 8 0l221 212l3 3v4v204q0 6 -6 6h-8q-5 0 -5 -6v-200z" />
    <glyph glyph-name="I" unicode="I" horiz-adv-x="1059" 
d="M226 -54q-126 126 -126 304t126 304q125 125 303 125q177 0 304 -125q126 -126 126 -304t-126 -304q-127 -125 -304 -125q-178 0 -303 125zM820 -40q120 120 120 290t-120 290q-122 120 -291 120t-289 -120q-121 -120 -121 -290t120 -290t290 -120q169 0 291 120z
M516 250l-151 -151q-3 -3 0 -7l6 -6q4 -4 8 0l150 150l151 -150q4 -4 7 0l6 6q4 4 0 7l-150 151l150 150q4 4 0 8l-6 6q-3 4 -7 0l-151 -151l-150 151q-4 4 -8 0l-6 -6q-3 -4 0 -8z" />
    <glyph glyph-name="J" unicode="J" horiz-adv-x="868" 
d="M749 -135v769q0 6 5 6h8q6 0 6 -6v-769q0 -5 -6 -5h-8q-5 0 -5 5zM100 -104v707q0 8 4 15q5 7 12 11q4 4 15 4q7 0 15 -5l561 -353q6 -4 10 -11q4 -4 4 -14q0 -8 -4 -15q-3 -7 -10 -10l-561 -354q-7 -4 -15 -4q-6 -1 -15 3q-8 5 -12 11q-4 9 -4 15zM119 603v-707l1 -2
q0 -2 1 -3q0 -3 4 -4q1 -1 5 -1q5 0 6 1l561 354l4 4l1 2v6l-1 2l-4 4l-561 353l-6 2q-1 0 -5 -2t-4 -3z" />
    <glyph glyph-name="K" unicode="K" horiz-adv-x="1083" 
d="M461 -41v154q0 7 -5.5 10t-10.5 -1l-300 -188q-14 -10 -29.5 -1t-15.5 26v582q0 17 15.5 25.5t29.5 -0.5l300 -189q5 -3 10.5 0t5.5 9v155q0 17 15.5 25.5t30.5 -0.5l462 -291q13 -9 13 -25.5t-13 -24.5l-462 -291q-15 -10 -30.5 -1t-15.5 26zM480 113v-154q0 -7 6 -10
t11 1l462 291q5 3 5 9t-5 9l-462 291q-5 3 -11 0t-6 -9v-155q0 -17 -15 -25.5t-30 0.5l-300 189q-5 3 -10.5 0t-5.5 -9v-582q0 -7 5.5 -10t10.5 1l300 188q15 10 30 1.5t15 -26.5z" />
    <glyph glyph-name="L" unicode="L" horiz-adv-x="807" 
d="M129 631h183q12 0 21 -9t9 -21v-709q0 -12 -9 -20.5t-21 -8.5h-183q-12 0 -20.5 8.5t-8.5 20.5v709q0 12 8.5 21t20.5 9zM495 631h182q13 0 21.5 -9t8.5 -21v-709q0 -12 -8.5 -20.5t-21.5 -8.5h-182q-13 0 -21.5 8.5t-8.5 20.5v709q0 12 8.5 21t21.5 9zM312 612h-183
q-10 0 -10 -11v-709q0 -10 10 -10h183q11 0 11 10v709q0 11 -11 11zM677 612h-182q-11 0 -11 -11v-709q0 -10 11 -10h182q11 0 11 10v709q0 11 -11 11z" />
    <glyph glyph-name="M" unicode="M" horiz-adv-x="821" 
d="M100 -103v706q0 17 15 26t31 -1l561 -353q13 -9 13 -25.5t-13 -24.5l-561 -354q-15 -9 -30.5 -0.5t-15.5 26.5zM119 603v-706q0 -7 5.5 -10t11.5 0l561 354q5 3 5 9t-5 9l-561 353q-6 4 -11.5 0.5t-5.5 -9.5z" />
    <glyph glyph-name="N" unicode="N" horiz-adv-x="1082" 
d="M621 113v-154q0 -17 -15.5 -26t-30.5 1l-461 291q-14 8 -14 24.5t14 25.5l461 291q15 9 30.5 0.5t15.5 -25.5v-155q0 -6 5.5 -9t11.5 0l299 189q15 9 30 0.5t15 -25.5v-582q0 -17 -15 -26t-30 1l-299 188q-6 4 -11.5 1t-5.5 -10zM602 -41v154q0 18 15.5 26.5t30.5 -1.5
l299 -188q5 -4 10.5 -1t5.5 10v582q0 6 -5.5 9t-10.5 0l-299 -189q-15 -9 -30.5 -0.5t-15.5 25.5v155q0 6 -5.5 9t-10.5 0l-462 -291q-5 -3 -5 -9t5 -9l462 -291q5 -4 10.5 -1t5.5 10z" />
    <glyph glyph-name="O" unicode="O" horiz-adv-x="868" 
d="M119 635v-769q0 -5 -5 -5h-8q-6 0 -6 5v769q0 6 6 6h8q5 0 5 -6zM768 604v-707q0 -6 -4 -15q-4 -6 -12 -11q-9 -5 -15 -3q-8 0 -15 4l-561 354q-7 3 -10 10q-4 7 -4 15q0 10 4 14q4 7 10 11l561 353q8 5 15 5q11 0 15 -4q7 -4 12 -11q4 -7 4 -15zM749 -103v707q0 1 -1 3
t-1 3q-1 0 -2 1l-2 2t-3 1l-2 1l-6 -2l-561 -353q-3 -1 -4 -4l-1 -2v-6l1 -2q1 -3 4 -4l561 -354q1 -1 6 -1q4 0 5 1q3 1 4 4q1 2 1 3q1 1 1 2z" />
    <glyph glyph-name="P" unicode="P" horiz-adv-x="990" 
d="M577 -125l-129 323q-3 5 -7 6l-322 130q-19 8 -19 28.5t20 27.5l730 254q18 7 31 -6.5t7 -31.5l-254 -730q-7 -20 -28 -20t-29 19zM465 205l130 -323q3 -7 11 -7t10 7l254 730q2 7 -2.5 11.5t-11.5 2.5l-730 -254q-8 -2 -8 -10t8 -11l323 -130q11 -4 16 -16z" />
    <glyph glyph-name="Q" unicode="Q" horiz-adv-x="1076" 
d="M226 -193q0 -5 -6 -5h-8q-5 0 -5 5v311q-45 3 -76 36.5t-31 79.5t31 79t76 37v338q0 5 5 5h8q6 0 6 -5v-338q45 -4 76 -37t31 -79t-31 -79.5t-76 -36.5v-311zM547 -193q0 -5 -5 -5h-9q-5 0 -5 5v134q-45 4 -76 37.5t-31 79.5t31 79t76 37v514q0 5 5 5h9q5 0 5 -5v-514
q45 -4 76 -37t31 -79t-31 -79.5t-76 -37.5v-134zM869 -193q0 -5 -6 -5h-8q-6 0 -6 5v533q-45 3 -76 36.5t-31 79.5t31 79t76 37v116q0 5 6 5h8q6 0 6 -5v-116q45 -4 76 -37t31 -79t-31 -79.5t-76 -36.5v-533zM790 525q-28 -29 -28 -69t28 -69t69 -29t70 29t29 69t-29 69
t-70 29t-69 -29zM216 331q-40 0 -68.5 -28.5t-28.5 -68.5q-2 -31 16 -55.5t44 -35t56 -6t50 27.5q23 20 27.5 50t-6 56t-35 44t-55.5 16zM538 155q-31 2 -55.5 -16t-35 -44t-6 -56t27.5 -50q20 -23 50 -27.5t56 6.5t44 35.5t16 54.5q0 40 -28.5 68.5t-68.5 28.5z" />
    <glyph glyph-name="R" unicode="R" horiz-adv-x="1280" 
d="M194 56q25 0 46 -12l149 212q-32 29 -32 71q0 38 27.5 65.5t66.5 27.5t66.5 -27.5t27.5 -65.5q0 -17 -4 -26l204 -82q27 50 84 50q24 0 43 -10l155 235q-2 1 -7 6q-28 28 -28 66q0 39 28 67q27 27 66 27q40 0 67 -27t27 -67q0 -39 -27 -66q-28 -28 -67 -28q-23 0 -43 11
l-155 -235q35 -29 35 -72q0 -39 -27.5 -66.5t-66.5 -27.5t-66.5 27.5t-27.5 66.5q0 13 3 25l-204 82q-26 -50 -83 -50q-25 0 -46 12l-150 -212q1 -1 3 -2.5l2 -1.5q27 -27 27 -67q0 -39 -27 -66q-28 -28 -66 -28q-39 0 -67 28q-27 27 -27 66q0 40 27 67t67 27zM1086 641
q-31 0 -53 -22t-22 -53q0 -30 22 -53q22 -21 53 -21q32 0 53 21q22 22 22 53q0 34 -22 53q-19 22 -53 22zM398 380q-22 -22 -22 -53t22 -53t53 -22t53 22t22 53t-22 53q-22 21 -53 21t-53 -21zM776 229q-22 -22 -22 -53q0 -32 22 -53.5t53 -21.5t53 22t22 53q2 31 -22 52.5
t-53 21.5t-53 -21zM194 37q-34 0 -53 -22q-22 -19 -22 -53q0 -31 22 -53q21 -21 53 -21q30 0 53 21q21 23 21 53q0 32 -21 53q-22 22 -53 22z" />
    <glyph glyph-name="S" unicode="S" horiz-adv-x="1006" 
d="M130 658h270q12 0 21 -8.5t9 -21.5v-270q0 -12 -9 -21t-21 -9h-270q-13 0 -21.5 9t-8.5 21v270q0 13 8.5 21.5t21.5 8.5zM606 658h270q13 0 21.5 -8.5t8.5 -21.5v-270q0 -12 -8.5 -21t-21.5 -9h-270q-12 0 -21 9t-9 21v270q0 13 9 21.5t21 8.5zM400 639h-270
q-11 0 -11 -11v-270q0 -11 11 -11h270q11 0 11 11v270q0 11 -11 11zM876 639h-270q-11 0 -11 -11v-270q0 -11 11 -11h270q11 0 11 11v270q0 11 -11 11zM130 182h270q12 0 21 -9t9 -21v-270q0 -13 -9 -21.5t-21 -8.5h-270q-13 0 -21.5 8.5t-8.5 21.5v270q0 12 8.5 21t21.5 9z
M606 182h270q12 0 21 -9t9 -21v-270q0 -13 -8.5 -21.5t-21.5 -8.5h-270q-12 0 -21 8.5t-9 21.5v270q0 12 9 21t21 9zM400 163h-270q-11 0 -11 -11v-270q0 -11 11 -11h270q11 0 11 11v270q0 11 -11 11zM876 163h-270q-11 0 -11 -11v-270q0 -11 11 -11h270q11 0 11 11v270
q0 4 -3 7q-4 4 -8 4z" />
    <glyph glyph-name="T" unicode="T" horiz-adv-x="1048" 
d="M936 222l-68 72v-434q0 -13 -9 -21.5t-21 -8.5h-177q-12 0 -20.5 8.5t-8.5 21.5v288q0 10 -11 10h-186q-11 0 -11 -10v-288q0 -13 -9 -21.5t-21 -8.5h-176q-13 0 -21.5 8.5t-8.5 21.5v434l-68 -72q-4 -4 -8 0l-6 6q-4 4 0 7l401 420q8 10 21 10t21 -10l401 -420
q4 -3 0 -7l-6 -6q-4 -4 -8 0zM207 314v-454q0 -11 11 -11h176q11 0 11 11v288q0 12 8.5 21t21.5 9h186q12 0 21 -9t9 -21v-288q0 -11 10 -11h177q10 0 10 11v454l-313 328q-7 8 -15 0z" />
    <glyph glyph-name="U" unicode="U" horiz-adv-x="970" 
d="M316 545v169q0 11 8 18.5t19 7.5h500q11 0 19 -7.5t8 -18.5v-796q0 -5 -5 -5h-9q-5 0 -5 5v796q0 7 -8 7h-500q-8 0 -8 -7v-169q0 -5 -5 -5h-8q-6 0 -6 5zM537 579h-75q-22 0 -22 22v21q0 22 22 22h75q22 0 22 -22v-21q0 -22 -22 -22zM724 579h-75q-22 0 -22 22v21
q0 22 22 22h75q22 0 22 -22v-21q0 -22 -22 -22zM462 596h75q5 0 5 5v21q0 5 -5 5h-75q-5 0 -5 -5v-21q0 -5 5 -5zM649 596h75q5 0 5 5v21q0 5 -5 5h-75q-5 0 -5 -5v-21q0 -5 5 -5zM755 459v-673q0 -12 -8.5 -20.5t-20.5 -8.5h-181q-12 0 -20.5 8.5t-8.5 20.5v127
q0 10 -10 10h-97q-10 0 -10 -10v-127q0 -12 -8.5 -20.5t-20.5 -8.5h-241q-12 0 -20.5 8.5t-8.5 20.5v673q0 11 8 18.5t18 7.5h602q11 0 19 -7.5t8 -18.5zM736 -214v673q0 7 -8 7h-602q-7 0 -7 -7v-673q0 -10 10 -10h241q10 0 10 10v127q0 12 8.5 20.5t20.5 8.5h97
q12 0 20.5 -8.5t8.5 -20.5v-127q0 -10 10 -10h181q10 0 10 10zM297 309h-76q-21 0 -21 22v21q0 22 21 22h76q21 0 21 -22v-21q0 -22 -21 -22zM464 309h-76q-21 0 -21 22v21q0 22 21 22h76q21 0 21 -22v-21q0 -22 -21 -22zM631 309h-76q-21 0 -21 22v21q0 22 21 22h76
q21 0 21 -22v-21q0 -22 -21 -22zM221 326h76q4 0 4 5v21q0 5 -4 5h-76q-5 0 -5 -5v-21q0 -5 5 -5zM388 326h76q5 0 5 5v21q0 5 -5 5h-76q-5 0 -5 -5v-21q0 -5 5 -5zM555 326h76q5 0 5 5v21q0 5 -5 5h-76q-4 0 -4 -5v-21q0 -5 4 -5zM297 169h-76q-21 0 -21 21v22q0 21 21 21
h76q21 0 21 -21v-22q0 -21 -21 -21zM464 169h-76q-21 0 -21 21v22q0 21 21 21h76q21 0 21 -21v-22q0 -21 -21 -21zM631 169h-76q-21 0 -21 21v22q0 21 21 21h76q21 0 21 -21v-22q0 -21 -21 -21zM221 186h76q4 0 4 4v22q0 5 -4 5h-76q-5 0 -5 -5v-22q0 -4 5 -4zM388 186h76
q5 0 5 4v22q0 5 -5 5h-76q-5 0 -5 -5v-22q0 -4 5 -4zM555 186h76q5 0 5 4v22q0 5 -5 5h-76q-4 0 -4 -5v-22q0 -4 4 -4zM297 29h-76q-21 0 -21 21v22q0 21 21 21h76q21 0 21 -21v-22q0 -21 -21 -21zM464 29h-76q-21 0 -21 21v22q0 21 21 21h76q21 0 21 -21v-22q0 -21 -21 -21
zM631 29h-76q-21 0 -21 21v22q0 21 21 21h76q21 0 21 -21v-22q0 -21 -21 -21zM221 45h76q4 0 4 5v22q0 4 -4 4h-76q-5 0 -5 -4v-22q0 -5 5 -5zM388 45h76q5 0 5 5v22q0 4 -5 4h-76q-5 0 -5 -4v-22q0 -5 5 -5zM555 45h76q5 0 5 5v22q0 4 -5 4h-76q-4 0 -4 -4v-22q0 -5 4 -5z
" />
    <glyph glyph-name="V" unicode="V" horiz-adv-x="1734" 
d="M1213 569q132 -132 132 -318t-132 -318t-318 -132q-187 0 -317 132q-132 132 -132 318t132 318q131 131 317 131q185 0 318 -131zM895 681q-114 2 -214.5 -56.5t-159 -159t-56.5 -214.5q0 -179 126 -305t304 -126q88 0 167.5 34t137.5 92t92 137.5t34 167.5
q0 178 -126 304t-305 126zM1604 146h-111v-297h-19v813q77 0 118.5 -43.5t41.5 -118.5v-324q0 -12 -9 -21t-21 -9zM221 -145q0 -6 5 -6h9q5 0 5 6v442q52 2 86.5 36t34.5 89v223q0 5 -5 5h-8q-6 0 -6 -5v-223q1 -60 -46 -88.5t-98 -13.5q-34 6 -56.5 34.5t-22.5 67.5v223
q0 5 -5 5h-9q-5 0 -5 -5v-223q0 -55 34.5 -89t86.5 -36v-442zM201 428v217q0 5 -5 5h-9q-5 0 -5 -5v-217q0 -6 5 -6h9q5 0 5 6zM279 428v217q0 5 -5 5h-9q-5 0 -5 -5v-217q0 -6 5 -6h9q5 0 5 6zM1493 165h111q11 0 11 11v324q0 66 -36 105q-32 35 -86 38v-478zM895 542
q121 0 206 -85t85 -206t-85 -206t-206 -85q-120 0 -205 85q-86 86 -86 206t86 206q85 85 205 85zM703 444q-80 -80 -80 -193q0 -112 80 -192t192 -80q113 0 193 80q79 79 79 192q0 114 -79 193t-193 79q-113 0 -192 -79z" />
    <glyph glyph-name="W" unicode="W" horiz-adv-x="921" 
d="M217 533q20 -21 20 -49t-20 -48q-21 -20 -49 -20t-48 20t-20 48t20 49q20 20 48 20t49 -20zM134 519q-15 -15 -15 -35t15 -34q14 -15 34 -15t35 15q15 14 15 34t-15 35q-15 14 -35 14t-34 -14zM816 475h-469q-5 0 -5 5v9q0 5 5 5h469q5 0 5 -5v-9q0 -5 -5 -5zM217 298
q20 -20 20 -49q2 -44 -43.5 -62.5t-73.5 14.5q-20 20 -20 48t20 49q20 20 48 20t49 -20zM134 285q-15 -15 -15 -36q0 -20 14.5 -34.5t34.5 -14.5t35 14.5t15 34.5q0 33 -31 45.5t-53 -9.5zM816 241h-469q-5 0 -5 5v8q0 6 5 6h469q5 0 5 -6v-8q0 -5 -5 -5zM217 63
q20 -21 20 -49t-20 -48q-21 -20 -49 -20t-48 20t-20 48t20 49q20 20 48 20t49 -20zM134 50q-15 -15 -15 -36q0 -20 14.5 -34.5t34.5 -14.5t35 14.5t15 34.5q0 33 -31 45.5t-53 -9.5zM816 5h-469q-5 0 -5 5v9q0 5 5 5h469q5 0 5 -5v-9q0 -5 -5 -5z" />
    <glyph glyph-name="X" unicode="X" horiz-adv-x="1060" 
d="M427 105q0 5 5 5h9q5 0 5 -5v-128q0 -56 40 -96t96 -40h237q56 0 96 40q39 41 39 96v546q0 55 -39 96q-41 39 -96 39h-237q-56 0 -96 -39q-40 -40 -40 -96v-129q0 -5 -5 -5h-9q-5 0 -5 5v129q0 64 46 109q45 45 109 45h237q63 0 110 -45q45 -45 45 -109v-546
q0 -63 -45 -110q-47 -45 -110 -45h-237q-64 0 -109 45q-46 46 -46 110v128zM291 408q4 3 0 7l-6 6q-4 4 -8 0l-157 -157q-14 -14 0 -27l157 -158q4 -4 8 0l6 6q4 4 0 8l-148 147h552q5 0 5 6v8q0 6 -5 6h-552z" />
    <glyph glyph-name="Y" unicode="Y" horiz-adv-x="983" 
d="M337 105q0 5 5 5h8q6 0 6 -5v-128q0 -56 40 -96q39 -40 95 -40h237q56 0 96 40t40 96v546q0 56 -40 96q-40 39 -96 39h-237q-55 0 -95 -40t-40 -95v-129q0 -5 -6 -5h-8q-5 0 -5 5v129q0 64 45 109t109 45h237q64 0 110 -45q45 -45 45 -109v-546q0 -63 -45 -110
q-46 -45 -110 -45h-237q-64 0 -109 45q-45 47 -45 110v128zM509 408q-4 3 0 7l6 6q4 4 8 0l157 -157q14 -14 0 -27l-157 -158q-4 -4 -8 0l-6 6q-4 4 0 8l148 147h-552q-5 0 -5 6v8q0 6 5 6h552z" />
    <glyph glyph-name="Z" unicode="Z" horiz-adv-x="1137" 
d="M318 -59h-67q-62 0 -106 44q-45 45 -45 108v314q0 62 45 107q44 44 106 44h635q63 0 107 -44q44 -46 44 -107v-314q0 -62 -44 -108q-44 -44 -107 -44h-365l118 -117q3 -4 0 -8l-6 -6q-4 -4 -8 0l-128 129q-13 11 0 24l128 128q4 4 8 0l6 -6q1 -4 0 -7l-118 -118h365
q55 0 94 39q38 40 38 94v314q0 54 -38 94q-40 38 -94 38h-635q-55 0 -93 -38q-39 -39 -39 -94v-314q0 -55 39 -94q38 -39 93 -39h67q5 0 5 -5v-8q0 -6 -5 -6z" />
    <glyph glyph-name="a" unicode="a" horiz-adv-x="1125" 
d="M262 538h130v26q0 58 31.5 90.5t88.5 32.5h101q57 0 88.5 -32.5t31.5 -90.5v-26h130q66 0 115 -47q47 -49 47 -115v-399q0 -66 -47 -115q-49 -47 -115 -47h-601q-67 0 -114 47q-48 48 -48 115v399q0 67 48 115q47 47 114 47zM411 538h303v26q0 50 -26 77t-75 27h-101
q-101 0 -101 -104v-26zM863 519h-601q-59 0 -101 -42t-42 -101v-107h356v65q0 14 9.5 23.5t23.5 9.5h108q14 0 24 -9.5t10 -23.5v-65h356v107q0 58 -42 101q-42 42 -101 42zM631 148v186q0 14 -15 14h-108q-14 0 -14 -14v-186q0 -15 14 -15h108q6 0 10.5 4.5t4.5 10.5z
M475 148v101h-356v-272q0 -59 42 -101t101 -42h601q59 0 101 42t42 101v272h-356v-101q0 -14 -10 -24t-24 -10h-108q-14 0 -23.5 10t-9.5 24z" />
    <glyph glyph-name="b" unicode="b" 
d="M532 555l356 111q4 1 6 -4l3 -8q1 -4 -3 -6l-356 -111q-9 -3 -18 0l-355 111q-6 1 -4 6l3 8q2 5 6 4l356 -111q3 -1 6 0zM139 607l387 -121h6l388 121q14 5 26 -4t12 -24v-597q0 -22 -21 -28l-399 -125q-9 -3 -18 0l-399 125q-21 6 -21 28v597q0 15 12 23.5t27 4.5z
M127 -28l393 -123v619l-387 121q-14 2 -14 -10v-597q0 -8 8 -10zM925 589l-386 -121v-619l393 123q7 1 7 10v597q0 12 -14 10z" />
    <glyph glyph-name="c" unicode="c" 
d="M138 659l388 -121h6l387 121q15 4 27 -4.5t12 -23.5v-640q0 -22 -21 -28l-399 -125q-9 -3 -18 0l-399 125q-21 6 -21 28v640q0 15 12 24t26 4zM126 -19l393 -123v662l-386 121q-14 2 -14 -10v-640q0 -9 7 -10zM925 641l-387 -121v-662l393 123q8 2 8 10v640q0 12 -14 10z
M434 334l-231 71q-5 3 -4 7l3 8q2 5 7 4l230 -72q5 -2 4 -7l-3 -8q-2 -6 -6 -3zM633 334l231 71q4 3 3 7l-2 8q-2 5 -7 4l-230 -72q-5 -2 -4 -7l3 -8q1 -6 6 -3zM434 182l-231 72q-6 1 -4 6l3 9q1 4 7 3l230 -72q6 -1 4 -6l-3 -9q-2 -5 -6 -3zM633 182l231 72q6 2 3 6l-2 9
q-1 4 -7 3l-230 -72q-6 -1 -4 -6l3 -9q1 -5 6 -3zM434 26l-231 71q-5 3 -4 7l3 8q2 5 7 4l230 -72q5 -2 4 -7l-3 -8q-2 -6 -6 -3zM633 26l231 71q4 3 3 7l-2 8q-2 5 -7 4l-230 -72q-5 -2 -4 -7l3 -8q1 -6 6 -3z" />
    <glyph glyph-name="d" unicode="d" horiz-adv-x="872" 
d="M243 552h57v118q0 12 8.5 20.5t20.5 8.5h214q12 0 20.5 -8.5t8.5 -20.5v-118h57q59 0 101 -42t42 -101v-463q0 -58 -42 -102q-42 -42 -101 -42h-386q-59 0 -101 42q-42 44 -42 102v463q0 59 42 101t101 42zM319 670v-118h234v118q0 10 -10 10h-214q-10 0 -10 -10z
M629 533h-57v-120q0 -6 -6 -6h-8q-5 0 -5 6v120h-234v-120q0 -6 -5 -6h-9q-5 0 -5 6v120h-57q-51 0 -87 -36q-37 -36 -37 -88v-463q0 -52 37 -88q36 -36 87 -36h386q51 0 88 36q36 36 36 88v463q0 52 -36 88q-37 36 -88 36z" />
    <glyph glyph-name="e" unicode="e" horiz-adv-x="1138" 
d="M522 627v-157q261 -21 386 -161.5t130 -410.5q0 -22 -23 -28q-24 -6 -34 13q-149 254 -459 257v-170q0 -19 -17 -27t-30 5l-365 328q-10 9 -10 22.5t10 21.5l365 329q13 12 30 4t17 -26zM503 452v175q0 6 -5.5 9t-10.5 -1l-364 -329q-9 -7 0 -16l364 -328q5 -4 10.5 -1.5
t5.5 9.5v190q337 0 494 -267q4 -7 13 -5t9 10q-5 267 -129 401t-387 153z" />
    <glyph glyph-name="f" unicode="f" horiz-adv-x="1137" 
d="M616 469v157q0 18 17 26t31 -4l364 -329q10 -8 10 -21.5t-10 -22.5l-364 -328q-14 -13 -31 -5t-17 27v170q-309 -3 -458 -257q-10 -19 -34 -13t-23 28q5 269 130.5 410t384.5 162zM635 626v-175q-264 -19 -387 -153q-124 -136 -128 -401q-1 -8 8 -10t13 5
q157 267 494 267v-190q0 -7 6 -10t10 2l365 328q7 9 0 16l-365 329q-4 4 -10 1t-6 -9z" />
    <glyph glyph-name="g" unicode="g" horiz-adv-x="1123" 
d="M338 61v-9q0 -5 -5 -5q-104 0 -152 27q-80 44 -71 155q4 62 48 109q44 45 105 45h12q10 0 11 10q2 103 62 175q60 71 159 91q96 19 181 -25q82 -43 120 -136q1 -7 10 -7q93 -2 153 -62q61 -61 61 -155t-53 -159q-54 -65 -147 -68q-5 0 -5 5v9q0 5 5 5q85 3 133 62
q48 58 48 146q0 86 -55 141q-56 55 -141 57q-20 0 -27 19q-34 85 -111 126q-78 40 -169 24q-93 -18 -148 -85t-57 -163q0 -12 -9 -20.5t-21 -8.5h-12q-55 0 -92 -40t-42 -97q-7 -98 61 -136q44 -25 143 -25q5 0 5 -5zM746 28l-152 -152q-11 -11 -22 0l-152 152q-4 4 0 8l6 6
q3 4 7 0l140 -140v372q0 5 5 5h9q5 0 5 -5v-372l140 140q4 4 8 0l6 -6q4 -4 0 -8z" />
    <glyph glyph-name="h" unicode="h" horiz-adv-x="1123" 
d="M336 62v-9q0 -5 -5 -5q-103 0 -152 27q-78 44 -71 155q4 62 48 109q44 45 105 45h12q11 0 11 10q2 103 62 175q60 71 159 91q96 19 181 -25q82 -43 120 -136q3 -7 10 -7q93 -2 153 -62q61 -61 61 -155t-53 -159q-54 -65 -146 -68q-6 0 -6 5v9q0 5 6 5q84 3 132 62
q48 58 48 146q0 86 -55 141q-56 56 -140 57q-21 0 -28 19q-34 86 -111 126q-78 40 -169 24q-93 -18 -148 -85t-57 -163q0 -12 -8.5 -20.5t-21.5 -8.5h-12q-54 0 -91 -40q-39 -42 -43 -97q-7 -98 61 -136q44 -25 143 -25q5 0 5 -5zM744 148l-152 152q-11 11 -22 0l-152 -152
q-4 -4 0 -8l6 -6q4 -4 8 0l140 140v-372q0 -5 5 -5h8q6 0 6 5v372l140 -140q3 -4 7 0l6 6q4 4 0 8z" />
    <glyph glyph-name="i" unicode="i" horiz-adv-x="1060" 
d="M632 571q35 -11 63 -26q5 -3 11 0l65 42q19 11 35 -2q36 -29 65 -65q14 -17 2 -35l-42 -65q-3 -6 0 -11q13 -26 26 -63q1 -6 8 -7l75 -16q21 -4 24 -26q4 -47 0 -93q-3 -22 -24 -26l-75 -16q-6 -2 -8 -8q-13 -37 -26 -62q-3 -6 0 -11l42 -65q12 -18 -2 -35
q-28 -34 -65 -66q-17 -14 -35 -2l-65 42q-6 4 -11 1q-34 -18 -63 -26q-6 -2 -7 -8l-17 -76q-3 -21 -26 -23q-46 -6 -92 0q-21 2 -26 23l-16 76q-2 6 -8 8q-31 9 -62 26q-7 3 -11 -1l-66 -42q-18 -11 -34 2q-37 29 -66 66q-14 17 -2 35l42 65q4 4 1 11q-18 35 -26 62
q-2 6 -8 8l-76 16q-21 5 -23 26q-6 46 0 93q2 21 23 26l76 16q6 1 8 7q8 29 26 63q3 7 -1 11l-42 65q-12 18 2 35q32 37 66 65q15 14 34 2l66 -42q5 -3 11 0q25 14 62 26q6 2 8 8l16 76q5 21 26 23q46 4 92 0q21 -1 26 -23l17 -76q1 -6 7 -8zM627 553q-18 4 -21 22l-16 76
q-2 8 -10 8q-44 5 -88 0q-8 0 -10 -8l-16 -76q-3 -17 -20 -22q-38 -13 -59 -25q-17 -8 -31 1l-65 42q-7 5 -12 0q-39 -31 -63 -63q-4 -5 -1 -13l42 -65q10 -15 1 -30q-16 -30 -24 -59q-5 -17 -22 -21l-76 -16q-8 -2 -9 -9q-5 -44 0 -89q1 -8 9 -9l76 -17q17 -3 22 -20
q8 -29 24 -59q9 -15 -1 -30l-42 -66q-4 -7 1 -12q28 -35 63 -63q5 -5 12 -1l65 42q15 10 31 2q33 -18 59 -25q17 -5 20 -22l16 -76q2 -8 10 -8q44 -5 88 0q8 0 10 8l16 76q3 18 21 22q24 7 59 25q16 8 30 -2l65 -42q8 -3 13 1q34 26 62 63q6 6 1 12l-42 66q-9 13 -1 30
q16 30 24 59q8 17 23 20l75 17q8 1 9 9q5 45 0 89q-1 7 -9 9l-75 16q-18 4 -23 21q-8 29 -24 59q-8 17 1 30l42 65q4 5 -1 13q-25 32 -62 63q-6 4 -13 0l-65 -42q-13 -10 -30 -1q-25 13 -59 25zM653 367q48 -49 48 -117t-48 -116q-49 -49 -117 -49t-116 49q-49 48 -49 116
t49 117q48 48 116 48t117 -48zM536 396q-60 0 -103 -42q-43 -43 -43 -104q0 -60 43 -102q43 -43 103 -43q61 0 104 43q42 42 42 102t-42 104q-44 42 -104 42z" />
    <glyph glyph-name="j" unicode="j" horiz-adv-x="1020" 
d="M892 655q21 -3 24 -24q13 -85 -9 -187q-22 -101 -79 -158q-90 -88 -276 -129q-9 -5 -9 -11l7 -114q0 -14 -9 -23l-98 -98q-12 -12 -28 -8.5t-21 18.5l-55 150q-2 6 -6 7l-150 54q-16 6 -19.5 22t8.5 27l98 99q8 10 23 8l114 -6q9 0 11 9q40 185 130 275q56 58 158 82
q99 24 186 7zM889 636q-81 16 -177 -6q-97 -23 -151 -77q-85 -85 -124 -267q-7 -24 -31 -23l-114 6q-4 1 -8 -3l-99 -98q-4 -4 -2.5 -10t6.5 -8l150 -54q13 -4 18 -18l54 -150q2 -6 8 -7.5t10 3.5l99 98l3 8l-7 115q0 25 24 30q178 37 266 125q52 52 75 150q22 95 8 178
q0 6 -8 8zM777 399q-26 -24 -58 -24t-58.5 24t-24.5 58q-2 35 24.5 59.5t58.5 24t58 -24.5q24 -25 24 -59t-24 -58zM674 502q-19 -19 -19 -45t19 -44q19 -19 45 -19t45 19q18 18 18 44t-18 45q-19 18 -45 18t-45 -18zM330 -66q-35 -39 -89 -64t-109 -28q-13 -1 -22.5 8
t-8.5 23q3 55 28 109.5t64 89.5q4 3 8 -1l5 -6q4 -4 0 -7q-36 -33 -59.5 -83.5t-26.5 -102.5q-1 -5 2.5 -8.5t8.5 -2.5q52 3 102.5 26.5t83.5 59.5q2 3 7 0l6 -6q4 -3 0 -7z" />
    <glyph glyph-name="k" unicode="k" horiz-adv-x="823" 
d="M543 548l-122 122v-523q0 -5 -5 -5h-9q-5 0 -5 5v523l-122 -122q-4 -1 -7 0l-6 6q-4 4 0 8l133 133q10 13 24 0l133 -133q4 -4 0 -8l-6 -6q-4 -3 -8 0zM311 403h-59q-55 0 -93 -38q-39 -39 -39 -94v-320q0 -55 39 -94q38 -38 93 -38h320q54 0 94 38q38 40 38 94v320
q0 54 -38 94q-40 38 -94 38h-59q-6 0 -6 6v8q0 5 5 5h60q61 0 107 -44q44 -46 44 -107v-320q0 -61 -44 -107q-46 -44 -107 -44h-320q-63 0 -107 44q-45 45 -45 107v320q0 62 45 107q44 44 107 44h59q5 0 5 -5v-8q0 -6 -5 -6z" />
    <glyph glyph-name="l" unicode="l" horiz-adv-x="822" 
d="M421 102l122 122q3 4 7 0l6 -6q4 -4 0 -7l-133 -133q-12 -12 -24 0l-133 133q-4 3 0 7l6 6q4 4 8 0l122 -122v523q0 6 5 6h8q6 0 6 -6v-523zM311 403h-60q-55 0 -93 -38q-39 -39 -39 -94v-320q0 -55 39 -94q38 -38 93 -38h320q54 0 94 38q38 40 38 94v320q0 54 -38 94
q-40 38 -94 38h-59q-5 0 -5 6v8q0 5 5 5h59q63 0 107 -44q44 -46 44 -107v-320q0 -61 -44 -107q-44 -44 -107 -44h-320q-62 0 -106 44q-45 45 -45 107v320q0 62 45 107q44 44 106 44h60q5 0 5 -5v-8q0 -6 -5 -6z" />
    <glyph glyph-name="m" unicode="m" horiz-adv-x="1036" 
d="M334 61l-8 2q-6 2 -4 7q54 216 200 317q142 96 384 92l-130 130q-4 4 0 8l6 6q3 3 7 0l142 -142q12 -12 0 -24l-146 -146q-4 -4 -8 0l-6 6q-4 4 0 7l136 136q-240 5 -374 -89q-141 -95 -193 -306q-2 -5 -6 -4zM251 487q-55 0 -93 -38q-39 -39 -39 -94v-336q0 -54 39 -93
t93 -39h508q55 0 94 39q38 38 38 93v210q0 5 6 5h8q5 0 5 -5v-210q0 -60 -44 -107q-44 -44 -107 -44h-508q-60 0 -107 44q-44 47 -44 107v336q0 63 44 107q45 45 107 45h182q5 0 5 -6v-8q0 -6 -5 -6h-182z" />
    <glyph glyph-name="n" unicode="n" horiz-adv-x="1073" 
d="M294 -9q6 0 9 5l364 519q9 12 24 12h253l-116 116q-4 4 0 8l6 6q3 1 7 0l127 -127q12 -12 0 -24l-127 -127q-3 -3 -7 0l-6 6q-4 4 0 7l116 116h-253q-5 0 -8 -4l-365 -519q-7 -13 -24 -13h-188q-6 0 -6 5v9q0 5 6 5h188zM106 508q-6 0 -6 6v8q0 5 6 5h188q16 0 24 -12
l125 -178q3 -4 -1 -7l-7 -5q-4 -3 -8 1l-124 178q-3 4 -9 4h-188zM561 169q-3 4 -7 1l-7 -5q-3 -3 -1 -8l121 -172q9 -13 24 -13h253l-116 -116q-4 -4 0 -7l6 -6q4 -3 7 0l127 127q14 12 0 23l-127 127q-3 4 -7 0l-6 -6q-4 -4 0 -7l116 -116h-253q-5 0 -8 5z" />
    <glyph glyph-name="o" unicode="o" horiz-adv-x="957" 
d="M311 321l319 164q-8 21 -8 41q0 48 35 83q34 34 83 34t83 -34t34 -83t-34 -83q-35 -35 -83 -35q-67 0 -102 59l-316 -162q13 -25 13 -55q0 -24 -11 -48l317 -163q35 53 99 53q49 0 83 -34t34 -83t-34 -83t-83 -34t-83.5 34t-34.5 83q0 26 10 47l-317 163q-34 -52 -97 -52
q-48 0 -83 35t-35 82q0 49 34.5 83.5t83.5 34.5q58 0 93 -47zM740 624q-31 2 -55.5 -16t-35.5 -44.5t-6.5 -56.5t27.5 -51q21 -23 51 -27.5t56.5 6.5t44.5 35.5t16 55.5q0 40 -29 69t-69 29zM148 320q-23 -21 -27.5 -51t6.5 -56.5t35.5 -44.5t55.5 -16q40 0 69 29t29 69
q2 31 -16 55.5t-44.5 35.5t-56.5 6.5t-51 -27.5zM740 73q-41 0 -70 -28.5t-29 -69.5t29 -69.5t70 -28.5q40 0 69 28.5t29 69.5t-29 69.5t-69 28.5z" />
    <glyph glyph-name="p" unicode="p" 
d="M833 554q125 -127 125 -304t-125 -304q-127 -125 -304 -125q-178 0 -303 125q-126 126 -126 304t126 304q125 125 303 125q177 0 304 -125zM239 540q-120 -120 -120 -290t121 -290q120 -120 289 -120q170 0 290 120t120 290t-120 290t-290 120t-290 -120zM363 384
q-1 -6 3 -7l8 -3q6 -3 7 3q41 104 155 104q66 0 105 -35.5t39 -90.5q0 -36 -14 -66.5t-31 -45.5q-13 -12 -44 -33q-32 -21 -45 -33.5t-26 -37.5q-14 -28 -14 -62q0 -6 5 -6h7q6 0 6 6q0 53 40 89q18 16 38 29q39 28 49 36q17 13 33 48q17 34 17 76q0 63 -45 104t-119 41
q-130 0 -174 -116zM517 7h-3q-14 0 -14 -14v-4q0 -8 3 -10.5t11 -2.5h3q8 0 10.5 2.5t2.5 10.5v4q0 14 -13 14z" />
    <glyph glyph-name="q" unicode="q" horiz-adv-x="867" 
d="M100 -168v790q0 26 24 30q113 18 208 -15q54 -18 91 -29q59 -18 99.5 -25t90.5 -1q53 6 112 32q15 7 28.5 -2t13.5 -25v-356q0 -19 -17 -27q-124 -63 -227 -41q-40 8 -96 23q-21 6 -59 19.5t-69 21.5t-65 11q-53 4 -115 -7v-399q0 -6 -5 -6h-9q-5 0 -5 6zM119 622v-372
q118 19 215 -15q44 -17 93 -30q42 -12 63 -17t63.5 -9.5t70.5 3.5q56 9 118 39q6 3 6 10v356q0 6 -5 9t-10 0q-117 -52 -217 -32q-45 9 -92 24q-14 4 -55.5 18t-70 21t-61.5 10q-56 5 -109 -4q-9 -1 -9 -11z" />
    <glyph glyph-name="r" unicode="r" horiz-adv-x="950" 
d="M722 48q-5 0 -5 5v8q0 6 5 6h98q11 0 11 10v516q0 11 -11 11h-515q-11 0 -11 -11v-102q0 -5 -5 -5h-9q-5 0 -5 5v102q0 13 8.5 21.5t21.5 8.5h515q13 0 21.5 -8.5t8.5 -21.5v-516q0 -12 -8.5 -20.5t-21.5 -8.5h-98zM129 448h516q13 0 21.5 -9t8.5 -21v-516
q0 -12 -8.5 -21t-21.5 -9h-516q-12 0 -20.5 9t-8.5 21v516q0 12 8.5 21t20.5 9zM645 429h-516q-10 0 -10 -11v-516q0 -10 10 -10h516q11 0 11 10v516q0 11 -11 11z" />
    <glyph glyph-name="s" unicode="s" horiz-adv-x="1091" 
d="M676 658h286q12 0 20.5 -8.5t8.5 -20.5v-672q0 -12 -8.5 -20.5t-20.5 -8.5h-284q-83 0 -116 -83q-4 -11 -16 -11t-17 11q-33 83 -116 83h-284q-12 0 -20.5 8.5t-8.5 20.5v672q0 12 8.5 20.5t20.5 8.5h286q42 0 78.5 -23t52.5 -61q15 38 51 61t79 23zM536 -125v652
q0 47 -36 80q-38 32 -85 32h-286q-10 0 -10 -10v-672q0 -10 10 -10h284q83 0 123 -72zM555 527v-652q41 72 123 72h284q10 0 10 10v672q0 10 -10 10h-286q-47 0 -84 -32q-37 -33 -37 -80z" />
    <glyph glyph-name="t" unicode="t" horiz-adv-x="1001" 
d="M899 569q8 -38 -15 -62l-383 -383q-5 -5 -11 -6l-161 -42q-11 -3 -20 6t-6 20l41 162q2 6 6 10l383 383q25 25 62 16q37 -7 67 -37t37 -67zM881 566q-6 31 -32 57t-57 32q-29 5 -45 -11l-383 -383q-1 -1 -1 -2l-41 -161q0 -2 3 -3l160 41l2 2l383 383q16 14 11 45z
M522 560h-392q-11 0 -11 -11v-686q0 -11 11 -11h635q11 0 11 11v210q-1 93 -1 209q0 5 6 5h8q6 0 6 -5v-419q0 -12 -9 -21t-21 -9h-635q-12 0 -21 9t-9 21v686q0 13 9 21.5t21 8.5h392q5 0 5 -5v-9q0 -5 -5 -5z" />
    <glyph glyph-name="u" unicode="u" horiz-adv-x="1056" 
d="M958 530q10 -54 -22 -86l-554 -554q-6 -6 -13 -7l-232 -60q-14 -4 -25 7t-7 25l59 233q2 8 8 14l553 553q33 33 85 22q52 -10 95 -52q43 -43 53 -95zM807 658q-44 8 -68 -16l-64 -64q64 -20 114.5 -71t69.5 -113l64 64q24 24 16 68q-7 45 -47 85t-85 47zM660 563
l-467 -467q62 -19 113.5 -70.5t70.5 -113.5l467 467q-16 65 -68 116t-116 68zM133 -159l227 59q-16 61 -67 111.5t-112 67.5l-58 -228q-1 -5 2 -8t8 -2z" />
    <glyph glyph-name="v" unicode="v" horiz-adv-x="1104" 
d="M100 312q7 156 119 268t268 119q13 1 22 -8t9 -22v-358q0 -13 -8.5 -21.5t-21.5 -8.5h-358q-13 0 -21.5 9t-8.5 22zM119 311q0 -11 11 -11h358q11 0 11 11v358q0 11 -11 11q-148 -8 -255 -114t-114 -255zM205 191q6 -156 119 -266q112 -109 271 -109q161 0 276 114
q114 114 114 275q0 158 -109 271q-110 113 -266 119q-5 0 -5 5v9q0 5 6 5q163 -6 279 -125q114 -118 114 -284q0 -169 -120 -289t-289 -120q-165 0 -284 114q-119 116 -125 280q0 4 6 6h8q5 0 5 -5z" />
    <glyph glyph-name="w" unicode="w" horiz-adv-x="1165" 
d="M768 452v-70q0 -8 6 -10t13 2l235 124q14 8 28.5 -1.5t14.5 -25.5v-442q0 -16 -14.5 -25.5t-28.5 -1.5l-238 125q-6 3 -11 0t-5 -10v-70q0 -61 -44 -107q-46 -44 -108 -44h-365q-62 0 -106 44q-45 45 -45 107v405q0 63 45 108q44 44 106 44h365q62 0 108 -44
q44 -46 44 -108zM749 382v70q0 55 -39 94t-94 39h-365q-55 0 -93 -39q-39 -39 -39 -94v-405q0 -55 39 -94q38 -38 93 -38h365q54 0 94 38q39 39 39 94v70q0 18 14 26t30 0l238 -124q5 -3 10 0.5t5 9.5v442q0 6 -5 9.5t-10 0.5l-236 -124q-16 -9 -31 -1t-15 26z" />
    <glyph glyph-name="x" unicode="x" horiz-adv-x="792" 
d="M234 260v259q0 51 24 88.5t60 54t78 16.5t78 -16.5t60 -54t24 -88.5v-259q0 -51 -24 -88.5t-60 -54t-78 -16.5t-78 16.5t-60 54t-24 88.5zM254 519v-259q0 -66 45 -104q44 -38 98 -38q52 0 98 38q44 38 44 104v259q0 45 -21 77.5t-53 47.5t-68.5 15t-68.5 -15t-53 -47.5
t-21 -77.5zM692 384q0 5 -5 5h-9q-5 0 -5 -5v-124q0 -65 -24 -117.5t-62.5 -85t-88.5 -50t-101.5 -17.5t-101.5 17.5t-88.5 50t-62.5 85t-24 117.5v124q0 5 -6 5h-8q-6 0 -6 -5q0 -34 1 -62v-62q0 -134 84 -210q83 -76 202 -79v-128h-159q-5 0 -5 -5v-9q0 -5 5 -5h336
q6 0 6 5v9q0 5 -6 5h-158v128q117 3 202 79q84 76 84 210v124z" />
    <glyph glyph-name="y" unicode="y" horiz-adv-x="1100" 
d="M554 -115l-374 390q-36 36 -50 86q-24 91 37 179q57 80 147 100q116 25 211 -80l42 -47q7 -7 14 0l42 47q47 51 100 72q98 36 191 -27q79 -52 103 -141q29 -108 -49 -189l-374 -390q-8 -9 -20 -9t-20 9zM553 501l-42 47q-36 40 -78 60q-91 44 -183 -15q-74 -47 -99 -129
q-30 -101 43 -177l374 -389q6 -8 12 0l374 389q29 31 41 66q30 84 -26 170q-50 77 -133 97q-111 27 -199 -72l-42 -47q-8 -10 -21 -10t-21 10z" />
    <glyph glyph-name="z" unicode="z" horiz-adv-x="1087" 
d="M704 562h132q63 0 107 -44q44 -46 44 -108v-432q0 -61 -44 -107q-44 -44 -107 -44h-584q-63 0 -107 44q-45 45 -45 107v432q0 63 45 108q44 44 107 44h132v103q0 5 6 5h8q5 0 5 -5v-103h281v103q0 5 6 5h8q6 0 6 -5v-103zM684 469v74h-281v-74q0 -6 -5 -6h-8q-6 0 -6 6
v74h-132q-55 0 -94 -39t-39 -94v-432q0 -54 39 -93t94 -39h584q55 0 94 39q38 40 38 93v432q0 54 -38 94q-39 39 -94 39h-132v-74q0 -6 -6 -6h-8q-6 0 -6 6zM310 360q-29 0 -49.5 -20t-20.5 -49t20.5 -49.5t49.5 -20.5t49 20.5t20 49.5t-20.5 49t-48.5 20zM544 360
q-28 0 -48.5 -20t-20.5 -49t20 -49.5t49 -20.5t49.5 20.5t20.5 49.5t-20.5 49t-49.5 20zM778 360q-28 0 -48.5 -20t-20.5 -49t20 -49.5t49 -20.5t49.5 20.5t20.5 49.5t-20.5 49t-49.5 20zM274 327q15 14 36 14t36 -14q14 -15 14 -36t-14 -36q-15 -15 -36 -15t-36 15t-15 36
t15 36zM509 327q14 14 35 14t36 -14q15 -15 15 -36t-15 -36t-36 -15t-35 15q-15 15 -15 36t15 36zM743 327q14 14 35 14t36 -14q15 -15 15 -36t-15 -36t-36 -15t-35 15q-15 15 -15 36t15 36zM310 149q-45 3 -64 -42.5t15 -75.5q30 -34 75.5 -15t42.5 64q0 28 -20.5 48.5
t-48.5 20.5zM544 149q-28 0 -48.5 -20.5t-20.5 -48.5q-3 -45 42.5 -64t76.5 15q33 30 14 75.5t-64 42.5zM778 149q-28 0 -48.5 -20.5t-20.5 -48.5q-3 -45 42.5 -64t76.5 15q33 30 14 75.5t-64 42.5zM274 115q24 24 55 11t31 -46q0 -21 -14.5 -36t-35.5 -15t-36 15t-15 36
q0 20 15 35zM509 115q23 24 54.5 10.5t31.5 -45.5q0 -21 -15 -36t-36 -15t-35.5 15t-14.5 36q0 20 15 35zM743 115q23 24 54.5 10.5t31.5 -45.5q0 -21 -15 -36t-36 -15t-35.5 15t-14.5 36q0 20 15 35z" />
    <glyph glyph-name="NULL" horiz-adv-x="0" 
 />
  </font>
</defs>
</svg>
