<?xml version="1.0" standalone="no"?>
<!DOCTYPE svg PUBLIC "-//W3C//DTD SVG 1.1//EN" "http://www.w3.org/Graphics/SVG/1.1/DTD/svg11.dtd" >
<svg xmlns="http://www.w3.org/2000/svg" xmlns:xlink="http://www.w3.org/1999/xlink" version="1.1">
<metadata>
Created by FontForge 20170731 at Fri Dec 12 19:18:17 2014
 By Aleksey,,,
Copyright (c) 2014 by Fontfabric LLC. All rights reserved.
</metadata>
<defs>
<font id="Panton-SemiBoldItalic" horiz-adv-x="647" >
  <font-face 
    font-family="Panton SemiBold"
    font-weight="600"
    font-style="italic"
    font-stretch="normal"
    units-per-em="1000"
    panose-1="0 0 7 0 0 0 0 0 0 0"
    ascent="754"
    descent="-246"
    x-height="516"
    cap-height="710"
    bbox="-195.48 -256 1142.03 966.259"
    underline-thickness="50"
    underline-position="-200"
    unicode-range="U+0020-FB02"
  />
<missing-glyph horiz-adv-x="686" 
d="M610 683v-656q0 -15 -6 -21t-20 -6h-477q-15 0 -20.5 6t-5.5 21v656q0 15 5.5 21t20.5 6h477q14 0 20 -6t6 -21zM514 620h-337v-530h337v530z" />
    <glyph glyph-name="fi" unicode="fi" horiz-adv-x="570" 
d="M406 740h158q13 0 17 -5t2 -19l-6 -34q-2 -14 -8 -19.5t-20 -5.5h-158q-71 0 -105 -27.5t-46 -94.5l-3 -19h287q25 0 19 -24l-81 -468q-4 -24 -29 -24h-42q-13 0 -17 5t-2 19l72 409h-221l-73 -409q-4 -24 -29 -24h-40q-26 0 -20 24l72 409h-76q-24 0 -20 24l6 35
q5 24 29 24h75l4 19q19 107 80 156t175 49z" />
    <glyph glyph-name="fl" unicode="fl" horiz-adv-x="563" 
d="M406 740h148q13 0 17 -5t2 -19l-122 -692q-5 -24 -28 -24h-42q-25 0 -19 24l111 633h-82q-72 0 -105.5 -27t-45.5 -95l-3 -19h98q25 0 19 -24l-5 -35q-5 -24 -28 -24h-98l-73 -409q-4 -24 -29 -24h-40q-26 0 -20 24l72 409h-76q-24 0 -20 24l6 35q5 24 29 24h75l4 20
q19 105 80 154.5t175 49.5z" />
    <glyph glyph-name=".notdef" horiz-adv-x="686" 
d="M610 683v-656q0 -15 -6 -21t-20 -6h-477q-15 0 -20.5 6t-5.5 21v656q0 15 5.5 21t20.5 6h477q14 0 20 -6t6 -21zM514 620h-337v-530h337v530z" />
    <glyph glyph-name=".null" horiz-adv-x="0" 
 />
    <glyph glyph-name="nonmarkingreturn" horiz-adv-x="333" 
 />
    <glyph glyph-name="space" unicode=" " horiz-adv-x="231" 
 />
    <glyph glyph-name="exclam" unicode="!" horiz-adv-x="222" 
d="M172 740h45q25 0 19 -24l-100 -508q-4 -24 -28 -24h-24q-13 0 -17.5 5t-2.5 19l79 508q5 24 29 24zM78 103h7q28 0 37 -11t4 -40l-1 -8q-5 -29 -18 -39.5t-42 -10.5h-6q-29 0 -38 10.5t-4 39.5l1 8q5 29 18.5 40t41.5 11z" />
    <glyph glyph-name="quotedbl" unicode="&#x22;" horiz-adv-x="318" 
d="M210 689l-47 -204q-4 -13 -8.5 -16.5t-18.5 -3.5h-25q-13 0 -16.5 3.5t-1.5 16.5l36 204q2 13 7 17t18 4h37q14 0 18 -4t1 -17zM333 689l-47 -204q-3 -13 -8 -16.5t-19 -3.5h-24q-14 0 -17.5 3.5t-1.5 16.5l37 204q1 13 6 17t19 4h37q13 0 17 -4.5t1 -16.5z" />
    <glyph glyph-name="numbersign" unicode="#" horiz-adv-x="697" 
d="M587 490h94q13 0 16 -5t-2 -19l-18 -36q-10 -22 -35 -22h-94l-69 -145h95q14 0 17 -5.5t-3 -18.5l-18 -36q-10 -22 -36 -22h-94l-74 -157q-14 -24 -35 -24h-39q-26 0 -12 24l74 157h-141l-74 -157q-14 -24 -35 -24h-39q-23 0 -13 24l74 157h-92q-24 0 -13 23l17 37
q10 22 36 22h92l68 145h-93q-25 0 -13 23l17 37q10 22 35 22h94l68 146q14 24 36 24h38q26 0 13 -24l-69 -146h141l69 146q10 24 34 24h39q27 0 13 -24zM462 408h-141l-69 -145h141z" />
    <glyph glyph-name="dollar" unicode="$" horiz-adv-x="590" 
d="M362 779h42q14 0 18 -5.5t2 -18.5l-10 -57q68 -8 107 -43.5t60 -99.5q8 -26 -22 -38l-37 -15q-14 -6 -21.5 -3.5t-12.5 16.5q-18 50 -48.5 72t-90.5 22q-143 0 -163 -107q-3 -36 9 -54t45 -28q37 -11 91 -16q78 -7 128 -28q31 -13 50 -34q43 -50 28 -138
q-15 -87 -75 -133t-169 -57l-10 -59q-5 -24 -28 -24h-42q-24 0 -20 24l10 58q-149 15 -181 161q-4 26 24 36l40 14q16 5 23 1.5t11 -18.5q12 -54 46 -80.5t96 -26.5q159 0 180 110q3 37 -9.5 56.5t-44.5 29.5q-40 11 -91 16q-77 7 -128 30q-31 13 -50 34q-45 48 -29 134
q29 170 234 188l10 57q4 24 28 24z" />
    <glyph glyph-name="percent" unicode="%" horiz-adv-x="814" 
d="M72 506l13 73q12 69 61 108t126 39t112.5 -39.5t23.5 -109.5l-13 -73q-12 -69 -60.5 -107t-126.5 -38q-77 0 -112.5 39t-23.5 108zM726 710h34q14 0 16 -7.5t-7 -17.5l-603 -662q-14 -16 -23 -19.5t-33 -3.5h-31q-14 0 -16 8t7 19l605 661q13 15 21.5 18.5t29.5 3.5z
M321 510l11 64q7 38 -11.5 59t-60.5 21q-87 0 -101 -80l-11 -64q-7 -38 11.5 -59t60.5 -21q87 0 101 80zM429 133l13 72q12 69 60.5 107.5t126.5 38.5q77 0 113 -39.5t24 -109.5l-13 -73q-12 -69 -61 -107t-127 -38q-77 0 -112.5 39.5t-23.5 109.5zM679 136l11 63
q7 38 -12 59t-61 21q-86 0 -100 -80l-12 -63q-7 -38 12 -59t61 -21q87 0 101 80z" />
    <glyph glyph-name="ampersand" unicode="&#x26;" horiz-adv-x="664" 
d="M166 552q14 72 72 123q59 50 145 50q77 0 121 -51q44 -52 31 -123q-12 -64 -53 -105t-127 -78l-10 -5l125 -152l78 64q17 17 32 0l25 -31q11 -14 -7 -28l-80 -67l102 -125q16 -24 -16 -24h-55q-23 0 -33 15l-65 78q-77 -62 -132 -86q-51 -22 -112 -22q-89 0 -137 58
q-48 59 -32 147q21 127 178 198q-64 79 -50 164zM451 553q6 39 -17.5 66t-64.5 27q-45 0 -78.5 -28.5t-40.5 -70.5q-6 -32 5 -58t42 -64l32 15q61 26 87.5 49.5t34.5 63.5zM402 156l-139 170q-119 -51 -134 -139q-9 -50 18.5 -83.5t78.5 -33.5q40 0 77.5 18.5t98.5 67.5z
" />
    <glyph glyph-name="quotesingle" unicode="'" horiz-adv-x="195" 
d="M210 689l-47 -204q-4 -13 -8.5 -16.5t-18.5 -3.5h-25q-13 0 -16.5 3.5t-1.5 16.5l36 204q2 13 7 17t18 4h37q14 0 18 -4t1 -17z" />
    <glyph glyph-name="parenleft" unicode="(" horiz-adv-x="271" 
d="M39 100l90 510q17 92 61 148.5t122 89.5q23 9 29 -15l11 -39q3 -13 -1 -19t-18 -13q-50 -22 -77.5 -57t-37.5 -93l-93 -525q-11 -59 4.5 -93.5t58.5 -56.5q12 -8 13.5 -14t-6.5 -18l-22 -28q-17 -23 -35 -15q-67 34 -91.5 90t-7.5 148z" />
    <glyph glyph-name="parenright" unicode=")" horiz-adv-x="270" 
d="M114 806l22 27q12 13 16.5 15.5t17.5 -0.5q67 -34 92 -90.5t8 -147.5l-91 -510q-16 -92 -59.5 -148t-122.5 -90q-23 -11 -29 15l-11 39q-3 12 1 18.5t18 14.5q50 21 77.5 56t38.5 94l93 524q10 60 -5 94.5t-58 56.5q-23 14 -8 32z" />
    <glyph glyph-name="asterisk" unicode="*" horiz-adv-x="369" 
d="M241 673h28q17 0 10 -15l-26 -97l96 39q15 6 18 -8l4 -26q2 -15 -14 -18l-99 -20l51 -74q10 -10 -5 -20l-24 -16q-16 -10 -20 5l-34 83l-64 -83q-10 -15 -22 -6l-19 17q-12 10 2 21l78 73l-91 20q-15 3 -8 19l13 25q9 16 21 8l82 -39l8 97q0 15 15 15z" />
    <glyph glyph-name="plus" unicode="+" horiz-adv-x="554" 
d="M333 369h168q15 0 19.5 -5.5t2.5 -20.5l-5 -31q-4 -27 -31 -27h-168l-30 -168q-5 -26 -31 -26h-32q-14 0 -19 6t-2 20l30 168h-168q-15 0 -19.5 6t-1.5 21l5 31q2 15 9 20.5t22 5.5h167l30 168q5 26 30 26h32q15 0 19.5 -6t2.5 -20z" />
    <glyph glyph-name="comma" unicode="," horiz-adv-x="195" 
d="M110 71l-68 -169q-8 -24 -30 -24h-17q-11 0 -14.5 4t-1.5 15l40 174q2 17 9 23t23 6h35q36 0 24 -29z" />
    <glyph glyph-name="hyphen" unicode="-" horiz-adv-x="417" 
d="M89 308h246q14 0 19 -5.5t2 -20.5l-6 -34q-2 -15 -9 -20.5t-21 -5.5h-246q-15 0 -19.5 5.5t-2.5 20.5l6 34q3 15 9.5 20.5t21.5 5.5z" />
    <glyph glyph-name="period" unicode="." horiz-adv-x="203" 
d="M73 103h7q28 0 37 -11t4 -40l-1 -8q-5 -28 -18 -39t-42 -11h-7q-29 0 -38 10.5t-3 39.5l1 8q5 29 18.5 40t41.5 11z" />
    <glyph glyph-name="slash" unicode="/" horiz-adv-x="428" 
d="M475 689l-399 -727q-12 -22 -35 -22h-44q-24 0 -12 22l399 727q12 22 35 22h44q24 0 12 -22z" />
    <glyph glyph-name="zero" unicode="0" horiz-adv-x="629" 
d="M64 229l47 266q19 109 96.5 169.5t200.5 60.5q121 0 179 -67q59 -68 39 -177l-47 -266q-20 -110 -97 -170t-200 -60q-122 0 -180 66t-38 178zM484 222l47 266q12 70 -23.5 108.5t-113.5 38.5t-127 -38.5t-61 -108.5l-47 -266q-13 -69 23 -108t114 -39q77 0 126.5 39
t61.5 108z" />
    <glyph glyph-name="one" unicode="1" horiz-adv-x="425" 
d="M360 710h37q15 0 20 -6t2 -20l-116 -658q-5 -26 -31 -26h-44q-15 0 -19.5 6t-2.5 20l101 567l-183 -92q-29 -17 -38 9l-14 35q-8 23 19 36l230 118q20 11 39 11z" />
    <glyph glyph-name="two" unicode="2" horiz-adv-x="591" 
d="M101 561q98 164 285 164q110 0 162 -63q53 -65 37 -163q-16 -71 -44 -112t-86 -74q-39 -22 -81 -40q-47 -20 -105 -41q-12 -4 -25.5 -9t-14.5 -5l-34 -16q-25 -12 -36 -21q-34 -32 -39 -62l-5 -29h364q14 0 19 -6t2 -20l-6 -38q-5 -26 -31 -26h-438q-15 0 -19.5 6
t-2.5 21l13 73q19 99 91 147q35 24 69 40q36 15 82 33q115 43 148 65q67 45 79 117q11 62 -20 97.5t-95 35.5q-61 0 -104 -25.5t-79 -80.5q-13 -25 -36 -17l-39 16q-25 9 -11 33z" />
    <glyph glyph-name="three" unicode="3" horiz-adv-x="604" 
d="M578 518q-20 -109 -111 -149q99 -48 76 -176q-18 -100 -89 -154t-193 -54q-212 0 -238 172q-4 25 23 34l43 14q27 9 31 -16q9 -62 42.5 -88t110.5 -26q150 0 171 125q20 118 -99 118h-127q-15 0 -19.5 5.5t-1.5 20.5l6 35q2 15 9 20.5t21 5.5h114q53 0 89.5 30.5
t45.5 79.5q10 58 -19 89t-93 31q-73 0 -113 -25t-71 -85q-15 -25 -37 -16l-39 14q-23 9 -10 34q43 86 112 127t176 41q105 0 156 -56t34 -151z" />
    <glyph glyph-name="four" unicode="4" horiz-adv-x="620" 
d="M482 266h82q15 0 19.5 -6t1.5 -20l-5 -34q-5 -26 -31 -26h-82l-27 -154q-5 -26 -31 -26h-38q-15 0 -19.5 6t-2.5 20l28 154h-345q-15 0 -19.5 6t-2.5 20l5 28q3 20 15 32l422 430q19 19 40 19h43q15 0 20 -5.5t2 -20.5zM392 266l56 318l-314 -318h258z" />
    <glyph glyph-name="five" unicode="5" horiz-adv-x="591" 
d="M215 710h357q14 0 19 -6t2 -20l-6 -38q-5 -26 -31 -26h-312l-51 -183h141q117 0 169 -64q53 -65 36 -165q-18 -98 -92 -160q-73 -63 -194 -63q-208 0 -238 160q-4 23 22 34l45 15q25 10 30 -16q19 -103 155 -103q68 0 113.5 37.5t56.5 101.5q11 63 -21 98t-99 35h-212
q-31 0 -22 32l81 292q7 23 17.5 31t33.5 8z" />
    <glyph glyph-name="six" unicode="6" horiz-adv-x="627" 
d="M202 469l-12 -65q87 26 181 26q252 0 213 -230q-19 -105 -96 -160t-204 -55q-126 0 -182.5 70.5t-35.5 193.5l40 226q22 122 100.5 186t206.5 64q193 0 226 -156q5 -23 -22 -33l-44 -15q-14 -5 -20.5 -1.5t-9.5 17.5q-23 98 -145 98q-168 0 -196 -166zM174 310l-12 -69
q-14 -80 21 -123t116 -43q80 0 129.5 34.5t60.5 98.5q12 67 -21.5 99.5t-118.5 32.5q-111 0 -175 -30z" />
    <glyph glyph-name="seven" unicode="7" horiz-adv-x="527" 
d="M134 710h437q14 0 19 -6t3 -20l-5 -27q-5 -24 -14 -37l-372 -597q-9 -15 -18.5 -19t-33.5 -4h-43q-26 0 -8 26l371 594h-351q-15 0 -19.5 6t-2.5 20l7 38q5 26 30 26z" />
    <glyph glyph-name="eight" unicode="8" horiz-adv-x="620" 
d="M126 537q16 90 87.5 139t186.5 49q118 0 172 -50t38 -142q-14 -75 -65 -114q-38 -28 -85 -50q66 -29 93.5 -72.5t15.5 -116.5q-33 -195 -299 -195q-135 0 -191.5 48t-40.5 140q22 126 178 184q-112 60 -90 180zM516 531q10 54 -24 82t-106 28q-145 0 -165 -110
q-10 -58 30 -85q34 -24 95 -40l30 -8q35 11 75 35q53 30 65 98zM470 185q14 72 -54 102q-38 16 -97 31q-5 1 -12 3t-12 3q-139 -39 -157 -142q-9 -56 26 -84.5t121 -28.5q165 0 185 116z" />
    <glyph glyph-name="nine" unicode="9" horiz-adv-x="628" 
d="M470 241l12 65q-87 -26 -181 -26q-252 0 -213 230q19 105 96 160t204 55q126 0 182.5 -70.5t35.5 -193.5l-40 -226q-22 -122 -100.5 -186t-206.5 -64q-193 0 -226 156q-5 23 23 33l43 15q14 5 20.5 1.5t9.5 -17.5q23 -98 145 -98q168 0 196 166zM499 400l11 69
q15 80 -20.5 123t-116.5 43q-80 0 -129 -34t-61 -99q-11 -68 22 -100t118 -32q109 0 176 30z" />
    <glyph glyph-name="colon" unicode=":" horiz-adv-x="236" 
d="M122 319h7q29 0 37.5 -11t3.5 -40l-1 -7q0 -1 -2 -8.5t-2 -9.5q0 -1 -2 -19l-2 -8q-5 -29 -18 -40t-42 -11h-6q-29 0 -38 11t-4 40l2 8q0 3 1 6l2 6t1 4q-1 6 2 21l1 7q5 29 18 40t42 11z" />
    <glyph glyph-name="semicolon" unicode=";" horiz-adv-x="235" 
d="M143 491h6q29 0 38 -11t4 -40l-2 -8q-5 -29 -18 -39.5t-42 -10.5h-6q-29 0 -38 10.5t-4 39.5l2 8q4 29 17 40t43 11zM134 71l-88 -169q-14 -24 -33 -24h-17q-11 0 -14 4t0 15l61 174q5 17 13 23t25 6h34q36 0 19 -29z" />
    <glyph glyph-name="less" unicode="&#x3c;" horiz-adv-x="491" 
d="M68 372l383 190q17 8 22.5 3t2.5 -23l-6 -34q-4 -21 -9.5 -28.5t-23.5 -15.5l-286 -135l-1 -4l239 -135q15 -8 17.5 -14.5t-0.5 -28.5l-6 -37q-7 -33 -32 -20l-316 191q-18 10 -17 32l5 26q5 22 28 33z" />
    <glyph glyph-name="equal" unicode="=" horiz-adv-x="596" 
d="M119 469h420q14 0 19 -6t2 -20l-6 -35q-3 -15 -9.5 -20.5t-21.5 -5.5h-420q-14 0 -19 5.5t-2 20.5l6 35q5 26 31 26zM84 271h420q14 0 19 -5.5t2 -20.5l-6 -34q-3 -15 -9.5 -20.5t-20.5 -5.5h-420q-15 0 -20 5.5t-2 20.5l6 34q3 15 9.5 20.5t21.5 5.5z" />
    <glyph glyph-name="greater" unicode="&#x3e;" horiz-adv-x="491" 
d="M98 511l6 32q8 36 31 19l317 -190q20 -13 16 -33l-5 -25q-5 -22 -27 -33l-384 -190q-16 -8 -21.5 -3t-2.5 23l6 39q4 19 9.5 26.5t22.5 16.5l287 135l1 5l-238 134q-15 8 -18 15t0 29z" />
    <glyph glyph-name="question" unicode="?" horiz-adv-x="564" 
d="M83 577q91 162 278 162q111 0 170 -60q57 -62 41 -149q-9 -47 -30 -90q-12 -23 -50 -61q-17 -17 -58 -41q-5 -3 -30 -17t-28 -16q-46 -26 -68.5 -50t-28.5 -61q-3 -15 -9 -20t-20 -5h-31q-15 0 -19.5 5t-1.5 20q11 62 42 99.5t92 73.5q1 0 12 7q48 27 82 57q39 35 50 98
q10 56 -23 90.5t-102 34.5q-126 0 -190 -109q-17 -27 -36 -17l-32 16q-13 6 -15.5 12t5.5 21zM220 103h7q28 0 37 -11t4 -40l-1 -8q-5 -28 -18 -39t-42 -11h-6q-29 0 -38 10.5t-4 39.5l1 8q5 29 18.5 40t41.5 11z" />
    <glyph glyph-name="at" unicode="@" horiz-adv-x="901" 
d="M72 256l12 73q33 184 157 290t315 106q194 0 280 -107t54 -289l-13 -73q-18 -101 -77 -157q-61 -56 -133 -56q-30 0 -44 8.5t-26 31.5q-98 -32 -187 -32q-86 0 -122.5 42.5t-22.5 123.5l27 149q29 167 203 167q104 0 176 -30q19 -8 24 -17.5t1 -30.5l-53 -305
q-8 -41 37 -41q44 0 79 37t47 108l13 76q29 160 -41.5 245.5t-232.5 85.5q-158 0 -260 -87t-130 -244l-13 -76q-28 -156 43 -239.5t231 -83.5q73 0 221 26q8 2 10.5 0.5t1.5 -8.5l-6 -35q-1 -15 -18 -20q-106 -26 -220 -26q-192 0 -279 102t-54 286zM606 447q-39 16 -113 16
q-108 0 -126 -99l-25 -145q-18 -99 91 -99q69 0 133 24l50 285q3 14 -10 18z" />
    <glyph glyph-name="A" unicode="A" 
d="M461 691l142 -665q5 -26 -22 -26h-36q-25 0 -33.5 4.5t-10.5 18.5l-33 163h-296l-91 -163q-8 -14 -18 -18.5t-34 -4.5h-39q-28 0 -13 26l377 664q12 22 37 22h40q15 0 21.5 -4.5t8.5 -16.5zM455 265l-54 263q-7 75 -2 91v3h-5q-10 -48 -34 -93l-146 -264h241z" />
    <glyph glyph-name="B" unicode="B" 
d="M175 710h279q93 0 137.5 -50.5t29.5 -137.5q-22 -112 -113 -152l-1 -3q51 -16 72 -63.5t9 -116.5q-17 -90 -83 -138.5t-166 -48.5h-289q-15 0 -19.5 6t-2.5 20l116 658q5 26 31 26zM520 512q20 108 -92 108h-198l-39 -215h199q110 0 130 107zM488 203q10 55 -15 84.5
t-81 29.5h-216l-40 -227h216q116 0 136 113z" />
    <glyph glyph-name="C" unicode="C" horiz-adv-x="635" 
d="M65 246l40 228q21 120 104.5 185.5t217.5 65.5q210 0 234 -172q3 -14 -1 -21.5t-20 -12.5l-38 -12q-15 -5 -21.5 -1.5t-9.5 17.5q-9 58 -46.5 85t-110.5 27q-90 0 -144.5 -43t-67.5 -122l-41 -229q-14 -80 26 -122.5t128 -42.5q74 0 121 27.5t77 85.5q14 26 37 17l41 -16
q24 -11 11 -34q-86 -171 -300 -171q-132 0 -195 70t-42 191z" />
    <glyph glyph-name="D" unicode="D" horiz-adv-x="659" 
d="M175 710h217q136 0 200.5 -73.5t42.5 -198.5l-32 -182q-22 -123 -107.5 -189.5t-223.5 -66.5h-222q-15 0 -19.5 6t-2.5 20l116 658q5 26 31 26zM508 263l32 184q14 83 -28 128t-135 45h-147l-94 -530h148q93 0 151 45t73 128z" />
    <glyph glyph-name="E" unicode="E" horiz-adv-x="576" 
d="M175 710h402q14 0 19 -6t3 -20l-7 -38q-5 -26 -31 -26h-331l-38 -215h285q15 0 19.5 -6t2.5 -21l-7 -37q-5 -26 -31 -26h-286l-39 -225h344q14 0 19 -6t2 -20l-6 -38q-5 -26 -31 -26h-414q-15 0 -19.5 6t-2.5 20l116 658q5 26 31 26z" />
    <glyph glyph-name="F" unicode="F" horiz-adv-x="564" 
d="M175 710h402q14 0 19 -6t3 -20l-7 -38q-5 -26 -31 -26h-331l-40 -225h283q14 0 19 -6t2 -20l-6 -38q-5 -26 -31 -26h-283l-49 -279q-5 -26 -31 -26h-44q-15 0 -19.5 6t-2.5 20l116 658q5 26 31 26z" />
    <glyph glyph-name="G" unicode="G" horiz-adv-x="656" 
d="M378 378h243q15 0 19.5 -6t1.5 -21l-23 -134q-19 -109 -103 -170.5t-216 -61.5t-194 70.5t-41 192.5l40 228q21 120 104.5 184.5t218.5 64.5q208 0 234 -171q3 -14 -1 -21.5t-19 -12.5l-41 -13q-27 -9 -31 16q-9 58 -46.5 85t-110.5 27q-89 0 -143.5 -43t-68.5 -122
l-40 -229q-14 -79 25.5 -122.5t128.5 -43.5q86 0 142 40t68 108l11 65h-174q-14 0 -18.5 5.5t-2.5 20.5l6 38q5 26 31 26z" />
    <glyph glyph-name="H" unicode="H" horiz-adv-x="685" 
d="M614 710h44q14 0 19 -6t3 -20l-116 -658q-5 -26 -31 -26h-44q-15 0 -19.5 6t-2.5 20l51 289h-343l-50 -289q-5 -26 -31 -26h-44q-15 0 -19.5 6t-2.5 20l116 658q5 26 31 26h44q15 0 20 -6t2 -20l-49 -279h342l49 279q5 26 31 26z" />
    <glyph glyph-name="I" unicode="I" horiz-adv-x="247" 
d="M28 26l116 658q5 26 31 26h44q15 0 20 -6t2 -20l-116 -658q-5 -26 -31 -26h-44q-15 0 -19.5 6t-2.5 20z" />
    <glyph glyph-name="J" unicode="J" horiz-adv-x="571" 
d="M504 710h45q14 0 19 -6t2 -20l-82 -468q-42 -231 -282 -231q-196 0 -212 178q-2 15 2 22t19 12l41 14q27 8 31 -17q9 -119 128 -119q74 0 119.5 39.5t58.5 112.5l81 457q2 14 8.5 20t21.5 6z" />
    <glyph glyph-name="K" unicode="K" horiz-adv-x="617" 
d="M469 272l83 -245q9 -27 -18 -27h-44q-24 0 -33 4.5t-14 18.5l-70 214q-15 46 -39 62.5t-78 16.5h-80l-51 -290q-5 -26 -31 -26h-44q-15 0 -19.5 6t-2.5 20l116 658q5 26 31 26h44q15 0 20 -6t2 -20l-50 -280h71h18l263 284q13 14 23 18t33 4h49q14 0 16 -8t-7 -17
l-286 -303q69 -23 98 -110z" />
    <glyph glyph-name="L" unicode="L" horiz-adv-x="519" 
d="M175 710h44q15 0 20 -6t2 -20l-105 -594h315q15 0 19.5 -6t2.5 -20l-7 -38q-5 -26 -31 -26h-385q-15 0 -19.5 6t-2.5 20l116 658q5 26 31 26z" />
    <glyph glyph-name="M" unicode="M" horiz-adv-x="807" 
d="M740 710h39q15 0 20 -6t2 -20l-116 -658q-5 -26 -31 -26h-39q-15 0 -19.5 6t-2.5 20l64 361q15 80 51 188h-5q-49 -88 -110 -168l-166 -226q-15 -19 -34 -19h-21q-12 0 -17.5 3.5t-10.5 15.5l-89 228q-29 70 -46 166h-5q-2 -100 -18 -188l-63 -361q-5 -26 -31 -26h-42
q-15 0 -19.5 6t-2.5 20l116 658q5 26 31 26h33q16 0 22.5 -4t11.5 -16l158 -409l300 408q16 21 40 21z" />
    <glyph glyph-name="N" unicode="N" horiz-adv-x="694" 
d="M624 710h43q14 0 19 -6t3 -20l-116 -658q-5 -26 -31 -26h-44q-18 0 -24 13l-210 415q-19 42 -34 93q-6 19 -20 61h-4q0 -1 -5 -70q-4 -66 -12 -116l-65 -370q-5 -26 -31 -26h-43q-15 0 -19.5 6t-2.5 20l116 658q5 26 31 26h40q19 0 26 -13l208 -408q22 -45 38 -98
q18 -57 20 -62h5q0 1 5 72q3 69 12 121l64 362q5 26 31 26z" />
    <glyph glyph-name="O" unicode="O" horiz-adv-x="667" 
d="M66 247l40 228q21 120 103.5 185t217.5 65q133 0 195 -71t41 -193l-40 -228q-21 -120 -103.5 -184t-216.5 -64q-133 0 -195.5 70.5t-41.5 191.5zM528 241l41 228q14 80 -26 123t-128 43q-89 0 -144 -43t-69 -123l-40 -228q-14 -80 26 -123t128 -43t143 43t69 123z" />
    <glyph glyph-name="P" unicode="P" horiz-adv-x="627" 
d="M175 710h267q104 0 157 -65q51 -64 31 -171q-19 -104 -89 -160t-179 -56h-196l-41 -232q-5 -26 -31 -26h-44q-15 0 -19.5 6t-2.5 20l116 658q5 26 31 26zM181 348h188q65 0 108 35.5t55 99.5q11 64 -19.5 100.5t-95.5 36.5h-187z" />
    <glyph glyph-name="Q" unicode="Q" horiz-adv-x="682" 
d="M66 247l40 228q21 120 103.5 185t217.5 65q133 0 195 -71t41 -193l-40 -228q-18 -103 -81 -163l50 -73q13 -19 -10 -38l-34 -24q-22 -17 -36 3l-53 79q-66 -32 -156 -32q-133 0 -195.5 70.5t-41.5 191.5zM415 635q-89 0 -144 -43t-69 -123l-40 -228q-14 -80 26 -123
t128 -43t143 43t69 123l41 228q14 80 -26 123t-128 43z" />
    <glyph glyph-name="R" unicode="R" horiz-adv-x="646" 
d="M175 710h280q101 0 149 -59.5t29 -160.5q-27 -158 -181 -192q27 -16 40 -56l73 -215q9 -27 -18 -27h-44q-25 0 -35 4.5t-14 18.5l-58 183q-14 46 -36 63q-22 16 -77 16h-112l-46 -259q-5 -26 -31 -26h-44q-15 0 -19.5 6t-2.5 20l116 658q5 26 31 26zM533 497
q11 59 -15.5 91t-86.5 32h-201l-44 -245h202q59 0 97 32t48 90z" />
    <glyph glyph-name="S" unicode="S" horiz-adv-x="623" 
d="M91 530q17 94 93 144.5t203 50.5q96 0 150.5 -38.5t79.5 -116.5q4 -13 0 -19.5t-19 -12.5l-42 -18q-14 -6 -20.5 -3.5t-11.5 15.5q-32 100 -151 100q-166 0 -186 -110q-10 -64 45 -88q42 -20 126 -30q100 -12 161 -52q73 -49 53 -166q-34 -201 -307 -201q-213 0 -249 171
q-4 25 22 34l45 15q14 5 20 1.5t10 -17.5q29 -113 161 -113q179 0 202 122q11 70 -59 94q-38 13 -99 20q-81 7 -139 34q-35 17 -56 39q-49 53 -32 145z" />
    <glyph glyph-name="T" unicode="T" horiz-adv-x="551" 
d="M111 710h474q15 0 20 -6t2 -20l-7 -38q-5 -26 -30 -26h-189l-105 -594q-5 -26 -31 -26h-44q-14 0 -19 6t-2 20l105 594h-189q-15 0 -19.5 6t-2.5 20l7 38q5 26 30 26z" />
    <glyph glyph-name="U" unicode="U" horiz-adv-x="685" 
d="M255 684l-78 -442q-14 -79 24 -123t124 -44t139 43.5t67 123.5l78 442q5 26 31 26h44q15 0 20 -6t2 -20l-80 -451q-21 -120 -101 -184t-214 -64q-132 0 -191 74q-60 74 -38 193l77 432q5 26 30 26h44q15 0 20 -6t2 -20z" />
    <glyph glyph-name="V" unicode="V" horiz-adv-x="628" 
d="M636 710h41q27 0 12 -26l-366 -662q-12 -22 -37 -22h-41q-25 0 -29 21l-133 663q-5 26 22 26h39q23 0 31.5 -5t9.5 -18l89 -480q3 -15 5 -38t3 -38t1 -16h5q23 58 40 91l259 481q8 14 17 18.5t32 4.5z" />
    <glyph glyph-name="W" unicode="W" horiz-adv-x="887" 
d="M873 710h49q14 0 16.5 -6t-3.5 -20l-286 -662q-9 -22 -37 -22h-45q-29 0 -29 21l-42 445q-5 48 0 104h-5q-13 -50 -37 -104l-200 -444q-10 -22 -38 -22h-43q-15 0 -21 4.5t-7 16.5l-55 663q-2 14 3 20t19 6h51q18 0 24 -4.5t7 -18.5l29 -433q1 -27 -3 -120h4
q29 90 42 119l194 426q11 23 39 23h39q29 0 31 -23l41 -426q5 -50 1 -119h5q16 60 38 118l180 435q6 14 13.5 18.5t25.5 4.5z" />
    <glyph glyph-name="X" unicode="X" horiz-adv-x="626" 
d="M606 710h56q12 0 15 -8t-6 -17l-285 -324l177 -334q7 -10 2 -18.5t-20 -8.5h-51q-24 0 -32 4t-15 19l-136 263l-222 -263q-13 -16 -22 -19.5t-33 -3.5h-54q-15 0 -16.5 8t8.5 19l293 335l-169 323q-6 9 -1 17t18 8h50q23 0 31 -4t17 -18l128 -250l216 250q13 14 21.5 18
t29.5 4z" />
    <glyph glyph-name="Y" unicode="Y" horiz-adv-x="631" 
d="M629 710h51q14 0 16 -8t-7 -18l-324 -400l-46 -258q-5 -26 -30 -26h-45q-14 0 -19 6t-2 20l45 260l-183 398q-6 10 -1 18t19 8h52q25 0 33 -4t14 -19l133 -303l239 303q11 15 20.5 19t34.5 4z" />
    <glyph glyph-name="Z" unicode="Z" horiz-adv-x="571" 
d="M137 710h445q15 0 20 -6t2 -20l-6 -37q-4 -18 -14 -28l-468 -529h366q14 0 19 -5.5t2 -20.5l-6 -38q-5 -26 -31 -26h-459q-14 0 -19 6t-2 20l6 37q3 14 14 29l467 528h-352q-14 0 -19 6t-3 20l7 38q5 26 31 26z" />
    <glyph glyph-name="bracketleft" unicode="[" horiz-adv-x="284" 
d="M190 856h155q15 0 18.5 -4t0.5 -19l-6 -34q-2 -15 -7 -19t-20 -4h-93l-149 -841h94q15 0 18 -4t1 -19l-6 -35q-3 -15 -8 -19t-20 -4h-155q-15 0 -18.5 4.5t-0.5 19.5l168 954q2 15 7.5 19.5t20.5 4.5z" />
    <glyph glyph-name="backslash" unicode="\" horiz-adv-x="419" 
d="M244 -38l-141 726q-4 22 19 22h41q23 0 28 -22l142 -726q2 -12 -2 -17t-18 -5h-40q-14 0 -20 4.5t-9 17.5z" />
    <glyph glyph-name="bracketright" unicode="]" horiz-adv-x="284" 
d="M141 856h155q15 0 19 -4.5t1 -19.5l-168 -954q-3 -15 -8.5 -19.5t-20.5 -4.5h-155q-15 0 -18 4t0 19l6 35q2 14 7 18.5t20 4.5h94l148 841h-94q-14 0 -17.5 4t-1.5 19l6 34q2 15 7 19t20 4z" />
    <glyph glyph-name="asciicircum" unicode="^" horiz-adv-x="587" 
d="M400 810h25q1 0 3 -1q15 -3 19 -9q1 -1 2 -4q3 -4 5 -7l156 -241q19 -28 -18 -28h-39q-21 0 -28 3.5t-16 17.5l-111 179h-4l-174 -179q-15 -15 -22.5 -18t-28.5 -3h-36q-37 0 -9 28l239 241q21 21 37 21z" />
    <glyph glyph-name="underscore" unicode="_" horiz-adv-x="501" 
d="M-40 0h399q15 0 19.5 -6t2.5 -20l-6 -34q-2 -15 -9 -20.5t-22 -5.5h-399q-15 0 -19.5 5.5t-2.5 20.5l6 34q5 26 31 26z" />
    <glyph glyph-name="grave" unicode="`" horiz-adv-x="257" 
d="M101 703l24 23q18 18 44 1l138 -95q14 -9 -3 -26l-13 -13q-11 -11 -31 -2l-160 84q-10 6 -9.5 11t10.5 17z" />
    <glyph glyph-name="a" unicode="a" horiz-adv-x="535" 
d="M43 198l25 140q18 101 78.5 147t174.5 46q107 0 170 -31q22 -11 27 -21t1 -34l-71 -402q-2 -14 -8.5 -20t-21.5 -10q-96 -28 -205 -28q-99 0 -143.5 57.5t-26.5 155.5zM412 434q-47 15 -98 15q-72 0 -109.5 -28.5t-49.5 -94.5l-24 -135q-10 -60 16.5 -92t86.5 -32
q71 0 132 19l58 327q1 9 -1 12.5t-11 8.5z" />
    <glyph glyph-name="b" unicode="b" horiz-adv-x="538" 
d="M167 740h42q13 0 17 -5t2 -19l-37 -210q81 25 145 25q100 0 142 -53.5t24 -151.5l-25 -140q-35 -201 -255 -201q-103 0 -169 31q-22 12 -27.5 22t-0.5 33l114 645q5 24 28 24zM389 196l24 136q21 119 -104 119q-59 0 -132 -26l-57 -323q-3 -15 10 -19q42 -16 100 -16
q138 0 159 129z" />
    <glyph glyph-name="c" unicode="c" horiz-adv-x="511" 
d="M42 192l26 144q33 195 253 195q166 0 187 -134q5 -26 -20 -34l-31 -11q-27 -9 -31 16q-17 84 -118 84q-129 0 -152 -119l-26 -150q-11 -56 17 -87.5t92 -31.5q102 0 147 87q12 26 37 16l33 -11q23 -9 10 -34q-74 -137 -239 -137q-107 0 -154.5 55t-30.5 152z" />
    <glyph glyph-name="d" unicode="d" horiz-adv-x="537" 
d="M44 195l25 140q34 196 237 196q58 0 136 -22l37 207q5 24 28 24h42q13 0 17 -5t2 -19l-114 -645q-5 -25 -14 -35t-35 -20q-84 -31 -184 -31q-106 0 -150.5 55t-26.5 155zM371 102l57 325q-67 22 -119 22q-130 0 -153 -125l-24 -135q-21 -122 111 -122q63 0 111 16
q14 6 17 19z" />
    <glyph glyph-name="e" unicode="e" horiz-adv-x="526" 
d="M44 202l22 125q18 98 86.5 151t176.5 53q103 0 155 -49.5t35 -132.5q-29 -137 -240 -137q-60 0 -142 14l-8 -43q-10 -58 18.5 -89t94.5 -31q98 0 151 66q21 24 41 10l24 -16q22 -15 2 -39q-76 -99 -232 -99q-109 0 -156 59t-28 158zM432 360q10 46 -20 70.5t-96 24.5
q-64 0 -107 -34t-54 -94l-6 -31q72 -15 142 -15q123 0 141 79z" />
    <glyph glyph-name="f" unicode="f" horiz-adv-x="357" 
d="M392 740h14q14 0 18 -5t2 -19l-6 -31q-4 -25 -29 -25q-75 0 -107 -27q-32 -29 -44 -99l-3 -18h131q13 0 17 -5t2 -19l-6 -35q-5 -24 -27 -24h-131l-73 -409q-4 -24 -29 -24h-40q-26 0 -20 24l72 409h-76q-24 0 -20 24l6 35q5 24 29 24h75l3 18q20 108 76.5 156.5
t165.5 49.5z" />
    <glyph glyph-name="g" unicode="g" horiz-adv-x="538" 
d="M41 213l22 122q17 101 79.5 148.5t174.5 47.5q107 0 170 -31q22 -11 27 -21t1 -34l-84 -473q-37 -213 -250 -213q-144 0 -184 103q-12 26 16 39l30 14q15 7 22.5 5t14.5 -14q25 -67 111 -67q127 0 151 132l10 57q-81 -25 -141 -25q-100 0 -144 56t-26 154zM409 434
q-45 15 -99 15q-137 0 -160 -127l-21 -117q-19 -120 104 -120q52 0 133 22l54 307q2 9 0 12.5t-11 7.5z" />
    <glyph glyph-name="h" unicode="h" horiz-adv-x="552" 
d="M167 740h42q23 0 19 -24l-37 -207q50 22 144 22q101 0 142.5 -53t24.5 -151l-53 -303q-5 -24 -29 -24h-41q-14 0 -18 5t-2 19l54 306q23 119 -105 119q-82 0 -131 -23l-71 -402q-5 -24 -28 -24h-42q-25 0 -19 24l121 692q4 24 29 24z" />
    <glyph glyph-name="i" unicode="i" horiz-adv-x="213" 
d="M178 705h6q27 0 35.5 -10.5t3.5 -37.5v-8q-5 -27 -17.5 -37.5t-39.5 -10.5h-6q-28 0 -36 10t-3 38v8q5 27 17.5 37.5t39.5 10.5zM127 516h42q13 0 17 -5t2 -19l-82 -468q-5 -24 -28 -24h-42q-25 0 -19 24l82 468q5 24 28 24z" />
    <glyph glyph-name="j" unicode="j" horiz-adv-x="214" 
d="M177 705h6q27 0 35.5 -10.5t3.5 -37.5v-8q-5 -27 -17.5 -37.5t-39.5 -10.5h-6q-28 0 -36 10t-3 38v8q5 27 17.5 37.5t39.5 10.5zM127 516h40q14 0 18 -5t2 -19l-88 -500q-39 -222 -256 -222q-14 0 -18 5t-2 19l6 35q5 24 29 24q68 0 104 34.5t48 106.5l88 498q4 24 29 24
z" />
    <glyph glyph-name="k" unicode="k" horiz-adv-x="513" 
d="M387 206l58 -178q5 -15 0.5 -21.5t-21.5 -6.5h-38q-19 0 -25.5 4t-11.5 18l-44 149q-8 30 -26 42.5t-52 12.5h-86l-35 -201q-4 -25 -30 -25h-39q-14 0 -18.5 5.5t-1.5 19.5l121 691q4 24 30 24h39q14 0 18.5 -5t2.5 -19l-72 -411h72h8l183 193q11 12 19.5 15t30.5 3h38
q35 0 10 -28l-195 -201q44 -17 65 -81z" />
    <glyph glyph-name="l" unicode="l" horiz-adv-x="220" 
d="M229 716l-121 -692q-4 -24 -29 -24h-41q-14 0 -18 5t-2 19l122 692q4 24 29 24h41q25 0 19 -24z" />
    <glyph glyph-name="m" unicode="m" horiz-adv-x="820" 
d="M431 491q96 40 185 40q94 0 132.5 -52t21.5 -149l-54 -306q-4 -24 -28 -24h-42q-25 0 -19 24l54 310q21 115 -91 115q-57 0 -123 -27q9 -35 0 -85l-55 -313q-5 -24 -28 -24h-42q-25 0 -19 24l54 310q22 115 -93 115q-52 0 -97 -16q-15 -8 -16 -21l-68 -388
q-5 -24 -29 -24h-42q-23 0 -19 24l73 417q5 24 14.5 35.5t33.5 21.5q86 33 176 33q81 0 121 -40z" />
    <glyph glyph-name="n" unicode="n" horiz-adv-x="549" 
d="M134 497q90 34 197 34q100 0 142 -53t26 -152l-54 -302q-5 -24 -28 -24h-42q-13 0 -17 5t-2 19l54 306q21 119 -105 119q-59 0 -119 -18q-14 -5 -15 -18l-68 -389q-5 -24 -29 -24h-42q-23 0 -19 24l73 417q5 24 14.5 35t33.5 21z" />
    <glyph glyph-name="o" unicode="o" horiz-adv-x="541" 
d="M39 179l29 163q16 89 83.5 139t172.5 50q106 0 157 -52.5t35 -143.5l-28 -163q-16 -90 -82 -138.5t-174 -48.5q-105 0 -156.5 52t-36.5 142zM399 176l29 164q9 52 -21.5 81t-94.5 29q-63 0 -104 -29t-51 -81l-28 -164q-10 -52 21 -81t94 -29q64 0 104.5 29t50.5 81z" />
    <glyph glyph-name="p" unicode="p" horiz-adv-x="538" 
d="M138 502q82 29 189 29q104 0 147 -53.5t26 -153.5l-25 -140q-34 -199 -248 -199q-53 0 -125 27l-37 -208q-5 -24 -28 -24h-42q-25 0 -19 24l113 641q5 25 14.5 36t34.5 21zM387 192l24 135q21 122 -110 122q-57 0 -110 -15q-17 -8 -18 -21l-57 -320q72 -26 119 -26
q129 0 152 125z" />
    <glyph glyph-name="q" unicode="q" horiz-adv-x="539" 
d="M323 531q108 0 169 -31q22 -10 27.5 -20.5t0.5 -34.5l-113 -641q-5 -24 -28 -24h-42q-25 0 -19 24l37 209q-83 -28 -146 -28q-100 0 -141.5 53t-24.5 151l25 140q34 202 255 202zM156 321l-24 -135q-23 -119 104 -119q47 0 133 26l56 320q1 9 -1 12.5t-11 8.5
q-46 15 -98 15q-136 0 -159 -128z" />
    <glyph glyph-name="r" unicode="r" horiz-adv-x="347" 
d="M327 531h32q25 0 20 -24l-6 -34q-5 -24 -28 -24h-34q-60 0 -120 -17q-14 -6 -17 -20l-68 -388q-5 -24 -28 -24h-42q-24 0 -19 24l73 420q5 24 14.5 35t34.5 21q82 30 188 31z" />
    <glyph glyph-name="s" unicode="s" horiz-adv-x="497" 
d="M60 381q12 72 70 111t157 39q157 0 188 -108q7 -25 -17 -35l-33 -13q-14 -5 -20 -3t-12 14q-21 64 -118 64q-113 0 -127 -72q-9 -54 41 -67q20 -6 80 -12q88 -10 133 -40q54 -37 38 -121q-13 -73 -73.5 -113t-162.5 -40q-172 0 -199 123q-5 23 21 32l37 12q13 4 18.5 1
t10.5 -16q11 -39 40.5 -55.5t81.5 -16.5q126 0 139 76q6 40 -20.5 56t-99.5 23q-43 4 -72.5 12t-58 24.5t-39.5 48t-3 76.5z" />
    <glyph glyph-name="t" unicode="t" horiz-adv-x="367" 
d="M196 636h42q23 0 19 -24l-17 -96h131q25 0 19 -24l-6 -35q-2 -14 -8 -19t-19 -5h-131l-41 -233q-13 -80 9 -105t97 -25q14 0 18.5 -5t1.5 -19l-6 -36q-3 -14 -8.5 -18.5t-20.5 -5.5q-122 -3 -162 43q-41 47 -19 169l42 235h-83q-14 0 -18 5.5t-2 18.5l6 35q4 24 28 24h83
l17 96q4 24 28 24z" />
    <glyph glyph-name="u" unicode="u" horiz-adv-x="550" 
d="M479 516h42q23 0 19 -24l-73 -417q-5 -24 -14.5 -35t-33.5 -21q-96 -34 -197 -34q-100 0 -142 53t-26 152l54 302q4 24 28 24h42q13 0 17 -5t2 -19l-54 -306q-21 -119 105 -119q57 0 116 17q16 7 19 23l67 385q4 24 29 24z" />
    <glyph glyph-name="v" unicode="v" horiz-adv-x="506" 
d="M481 516h33q17 0 20 -5t-6 -22l-276 -469q-13 -22 -37 -22h-25q-25 0 -29 22l-111 468q-3 16 2.5 22t22.5 6h29q21 0 28.5 -5t9.5 -19l66 -289q10 -49 10 -96h5q1 1 7.5 17t17 39t19.5 39l166 290q9 15 18 19.5t30 4.5z" />
    <glyph glyph-name="w" unicode="w" horiz-adv-x="730" 
d="M699 516h30q17 0 20 -6t-6 -22l-221 -469q-9 -21 -36 -21h-30q-28 0 -29 21l-37 295q-2 16 -2.5 38.5t-1 38t-0.5 16.5h-3q-29 -75 -36 -93l-141 -295q-10 -21 -37 -21h-26q-27 0 -29 21l-58 469q-2 17 3 22.5t22 5.5h28q22 0 30 -4.5t8 -19.5l28 -271v-87q-1 -15 0 -25
h3q0 1 2.5 6.5t6.5 16.5t8 24q13 36 26 66l130 262q7 15 15 20t28 5h17q21 0 27 -4.5t8 -19.5l36 -261q4 -27 4 -90q-1 -16 0 -25h4q1 1 15 44q17 51 25 70l122 269q7 15 16 19.5t31 4.5z" />
    <glyph glyph-name="x" unicode="x" horiz-adv-x="494" 
d="M445 516h44q35 0 11 -28l-202 -223l132 -237q13 -28 -23 -28h-33q-19 0 -25.5 3.5t-12.5 16.5l-100 181l-159 -181q-11 -13 -19.5 -16.5t-27.5 -3.5h-42q-37 0 -12 28l213 237l-125 223q-13 28 24 28h30q19 0 26.5 -3.5t13.5 -16.5l93 -166l149 166q12 13 19.5 16.5
t25.5 3.5z" />
    <glyph glyph-name="y" unicode="y" horiz-adv-x="552" 
d="M475 516h42q25 0 19 -24l-91 -517q-37 -216 -253 -216q-143 0 -183 103q-13 25 16 39l30 14q15 7 22.5 5t14.5 -14q25 -67 112 -67q127 0 151 132l10 54q-83 -21 -144 -21q-100 0 -142 53.5t-24 151.5l49 283q4 24 28 24h42q25 0 19 -24l-50 -287q-22 -119 105 -119
q60 0 131 21l68 385q5 24 28 24z" />
    <glyph glyph-name="z" unicode="z" horiz-adv-x="458" 
d="M106 81h265q13 0 17 -5t2 -19l-5 -33q-5 -24 -28 -24h-355q-25 0 -19 24l5 33q5 16 14 25l335 353h-254q-23 0 -19 24l5 33q5 24 28 24h346q25 0 19 -24l-5 -33q-1 -11 -14 -27z" />
    <glyph glyph-name="braceleft" unicode="{" horiz-adv-x="333" 
d="M345 856h49q13 0 17.5 -5t2.5 -19l-6 -34q-5 -23 -28 -23h-46q-50 0 -61 -54l-42 -244q-16 -90 -91 -124q64 -28 46 -124l-42 -241q-8 -54 42 -54h46q13 0 17 -5t2 -18l-6 -34q-5 -24 -28 -24h-48q-72 0 -97.5 30.5t-12.5 99.5l41 234q7 46 -6 68t-53 22h-9q-19 0 -16 24
l8 44q5 23 24 23h9q75 0 91 91l41 236q12 69 48 100t108 31z" />
    <glyph glyph-name="bar" unicode="|" horiz-adv-x="215" 
d="M190 856h38q24 0 19 -24l-168 -955q-5 -24 -28 -24h-38q-25 0 -19 24l168 955q4 24 28 24z" />
    <glyph glyph-name="braceright" unicode="}" horiz-adv-x="332" 
d="M139 856h49q72 0 97 -31t12 -100l-41 -236q-16 -91 59 -91h9q20 0 15 -23l-8 -44q-3 -24 -24 -24h-8q-76 0 -91 -90l-41 -234q-12 -69 -48.5 -99.5t-108.5 -30.5h-48q-13 0 -17 5t-2 19l6 34q3 23 28 23h46q49 0 60 54l42 241q16 96 91 125q-62 35 -47 123l43 244
q10 54 -42 54h-45q-24 0 -20 23l6 34q5 24 28 24z" />
    <glyph glyph-name="asciitilde" unicode="~" horiz-adv-x="556" 
d="M89 335q64 49 129 49q42 0 89 -19q45 -19 75 -19q38 0 78 29q13 9 19.5 9t15.5 -10l20 -23q17 -20 -7 -37q-61 -49 -129 -49q-44 0 -89 19q-47 19 -75 19q-38 0 -78 -29q-13 -10 -19.5 -9.5t-14.5 10.5l-20 23q-17 20 6 37z" />
    <glyph glyph-name="exclamdown" unicode="&#xa1;" horiz-adv-x="212" 
d="M132 412h-7q-29 0 -37.5 11t-3.5 40l1 7q5 29 18 40t42 11h6q29 0 38 -11t4 -40l-2 -7q-4 -29 -17 -40t-42 -11zM38 -225h-45q-14 0 -18 5t-1 18l100 508q4 24 28 24h24q13 0 17.5 -5t2.5 -19l-79 -508q-5 -23 -29 -23z" />
    <glyph glyph-name="cent" unicode="&#xa2;" horiz-adv-x="531" 
d="M428 167l33 -10q25 -10 10 -34q-61 -116 -193 -133l-9 -50q-5 -24 -28 -24h-43q-23 0 -19 24l9 48q-85 10 -120.5 63.5t-20.5 141.5l26 144q30 169 209 190l11 59q5 24 28 24h43q13 0 17 -5t2 -19l-11 -59q127 -15 142 -131q2 -15 -2.5 -22t-18.5 -12l-34 -10
q-15 -5 -21 -1.5t-9 17.5q-13 84 -115 84q-131 0 -152 -118l-27 -151q-10 -57 18.5 -88t91.5 -31q103 0 146 87q15 25 37 16z" />
    <glyph glyph-name="sterling" unicode="&#xa3;" horiz-adv-x="637" 
d="M152 380l27 153q15 86 82 139t172 53q92 0 141.5 -38t64.5 -117q6 -25 -20 -33l-40 -14q-15 -4 -20 -1t-11 18q-13 51 -42.5 73t-83.5 22q-59 0 -97.5 -31.5t-47.5 -82.5l-24 -141h239q15 0 19.5 -6t1.5 -20l-5 -32q-5 -26 -31 -26h-239l-19 -105q-10 -70 -68 -106l-1 -4
q93 9 142 9h239q14 0 19 -6t2 -20l-6 -38q-5 -26 -31 -26h-497q-15 0 -19 5.5t-1 20.5l7 39q5 21 18 21h13q65 12 82 104l19 106h-60q-14 0 -19 6t-2 20l5 32q5 26 31 26h60z" />
    <glyph glyph-name="currency" unicode="&#xa4;" horiz-adv-x="606" 
d="M188 575l43 -51q61 40 131 40q64 0 117 -39l60 51q20 17 34 0l25 -29q14 -17 -6 -34l-60 -51q32 -56 20 -125q-11 -65 -59 -125l42 -51q13 -17 -6 -33l-34 -30q-19 -16 -34 0l-42 51q-62 -39 -131 -39q-70 0 -118 39l-61 -52q-19 -16 -34 0l-24 29q-15 17 5 34l62 53
q-31 51 -20 124q12 69 60 123l-43 52q-15 17 5 34l34 29q19 18 34 0zM471 337q10 61 -24 103q-35 42 -97 42q-60 0 -110 -42q-51 -43 -61 -103q-10 -61 24 -103q34 -43 96 -43t111 43q51 43 61 103z" />
    <glyph glyph-name="yen" unicode="&#xa5;" horiz-adv-x="652" 
d="M628 710h48q14 0 16 -8t-7 -18l-266 -325h103q13 0 17 -5t2 -18l-4 -23q-5 -23 -28 -23h-138l-13 -77h138q13 0 17 -5t2 -18l-5 -24q-3 -23 -27 -23h-138l-20 -117q-5 -26 -31 -26h-44q-15 0 -19.5 6t-2.5 20l21 117h-139q-13 0 -17 5t-2 18l5 24q3 23 27 23h139l13 77
h-139q-13 0 -17 5t-2 18l4 23q5 23 28 23h104l-152 325q-6 10 -1 18t19 8h45q25 0 33 -4t14 -19l130 -295l233 295q11 15 20 19t34 4z" />
    <glyph glyph-name="brokenbar" unicode="&#xa6;" horiz-adv-x="225" 
d="M194 856h37q13 0 17.5 -5t2.5 -19l-67 -377q-4 -24 -28 -24h-37q-24 0 -20 24l67 377q4 24 28 24zM92 279h37q24 0 20 -24l-66 -377q-5 -24 -29 -24h-37q-13 0 -17.5 5t-2.5 19l67 377q4 24 28 24z" />
    <glyph glyph-name="section" unicode="&#xa7;" horiz-adv-x="600" 
d="M107 542q16 89 85.5 137.5t187.5 48.5q166 0 206 -154q4 -15 0 -22.5t-19 -13.5l-37 -15q-27 -11 -34 14q-22 99 -132 99q-142 0 -160 -101q-4 -34 8.5 -52.5t43.5 -27.5q32 -10 84 -17q112 -15 156 -44q64 -41 47 -136q-17 -87 -103 -141q78 -40 58 -153
q-15 -88 -86 -136.5t-192 -48.5q-96 0 -156 41.5t-74 119.5q-4 26 24 36l41 13q16 5 22.5 2t10.5 -19q18 -103 142 -103q154 0 171 101q4 34 -8 52.5t-43 27.5q-32 10 -87 15q-115 12 -157 34q-79 40 -61 144q17 96 120 148q-77 42 -58 151zM304 347q-49 7 -62 10
q-85 -36 -97 -103q-11 -65 56 -84q33 -10 91 -15q44 -3 64 -8q78 41 89 103q8 46 -26.5 67t-114.5 30z" />
    <glyph glyph-name="dieresis" unicode="&#xa8;" horiz-adv-x="439" 
d="M196 697h7q24 0 31.5 -9t2.5 -32l-1 -9q-5 -24 -15 -32.5t-34 -8.5h-7q-23 0 -30.5 9t-3.5 32l1 9q4 23 15 32t34 9zM394 697h6q23 0 30.5 -9t3.5 -32l-2 -9q-4 -23 -14.5 -32t-33.5 -9h-7q-24 0 -31.5 9t-3.5 32l2 9q4 23 14.5 32t35.5 9z" />
    <glyph glyph-name="copyright" unicode="&#xa9;" horiz-adv-x="802" 
d="M78 351q26 152 148 256q121 103 273 103q150 0 236 -104q85 -104 60 -255q-26 -152 -146 -255q-122 -104 -272 -104q-151 0 -238 105q-87 103 -61 254zM741 351q22 130 -50 217t-200 87t-232 -87q-104 -89 -126 -217q-23 -130 50 -217q72 -88 201 -88q128 0 232 89
q102 87 125 216zM272 294l20 111q11 66 57 103t120 37q117 0 131 -95q4 -19 -16 -25l-23 -8q-11 -4 -15.5 -1.5t-6.5 13.5q-5 31 -23 44t-57 13q-90 0 -106 -82l-19 -111q-13 -82 76 -82q71 0 101 58q12 19 28 13l19 -8q17 -8 8 -25q-52 -97 -166 -97q-72 0 -105.5 38
t-22.5 104z" />
    <glyph glyph-name="ordfeminine" unicode="&#xaa;" horiz-adv-x="362" 
d="M120 614q50 56 132 56q127 0 104 -125l-22 -125q-4 -22 -12 -32t-29 -18q-38 -15 -100 -15q-67 0 -93 24t-19 70q9 47 42.5 68.5t103.5 21.5q38 0 58 -4l3 17q5 31 -5.5 45t-42.5 14q-36 0 -71 -32q-10 -9 -24 -4l-18 10q-22 10 -7 29zM267 433l9 52q-18 3 -62 3
q-58 0 -66 -41q-4 -20 8 -29t43 -9q37 0 54 6q12 4 14 18z" />
    <glyph glyph-name="guillemotleft" unicode="&#xab;" horiz-adv-x="573" 
d="M374 261l125 -151q11 -15 -6 -30l-29 -25q-20 -13 -30 0l-159 193q-14 15 5 29l227 195q19 15 30 0l22 -28q11 -14 -6 -30zM142 261l124 -151q13 -15 -5 -30l-29 -25q-18 -15 -31 0l-159 193q-12 14 6 29l227 195q18 15 30 0l22 -28q12 -15 -6 -30z" />
    <glyph glyph-name="logicalnot" unicode="&#xac;" horiz-adv-x="582" 
d="M102 399h415q14 0 18 -5.5t2 -18.5l-38 -212q-2 -14 -8 -19t-19 -5h-42q-24 0 -20 24l27 152h-350q-24 0 -19 24l6 36q4 24 28 24z" />
    <glyph glyph-name="registered" unicode="&#xae;" horiz-adv-x="474" 
d="M94 516q13 80 80 138q67 56 149 56q79 0 126 -57t33 -137q-13 -81 -79 -137q-65 -57 -147 -57q-80 0 -128 57t-34 137zM131 516q-12 -66 27 -112q38 -47 104 -47q69 0 121 46q54 48 64 113q12 65 -26 112q-37 46 -103 46q-70 0 -122 -45q-53 -47 -65 -113zM242 615h79
q33 0 49.5 -18t10.5 -48q-7 -46 -53 -60l25 -58q6 -14 -10 -14h-14q-11 0 -16 8l-23 60h-46l-10 -59q-2 -9 -11 -9h-18q-9 0 -8 9l31 178q2 11 14 11zM261 580l-11 -61h55q32 0 38 31q5 30 -28 30h-54z" />
    <glyph glyph-name="overscore" unicode="&#xaf;" horiz-adv-x="352" 
d="M136 686h234q13 0 17 -4.5t2 -18.5l-4 -20q-2 -13 -7 -17.5t-19 -4.5h-234q-13 0 -17 4t-2 18l4 20q5 23 26 23z" />
    <glyph glyph-name="degree" unicode="&#xb0;" horiz-adv-x="389" 
d="M405 554q-10 -63 -63 -110t-117 -47q-65 0 -104 47q-41 47 -30 113t63 111q53 44 118 44t104 -46q39 -47 29 -112zM199 615q-30 -25 -36 -60.5t15 -60.5q20 -25 55 -25t65 25q31 23 36 59t-15 62.5t-55 24.5q-37 0 -65 -25z" />
    <glyph glyph-name="plusminus" unicode="&#xb1;" horiz-adv-x="615" 
d="M376 434h169q14 0 19 -6t2 -20l-4 -25q-3 -15 -9.5 -20.5t-20.5 -5.5h-169l-18 -97q-5 -26 -31 -26h-29q-15 0 -19.5 6t-2.5 20l18 97h-169q-15 0 -20 5.5t-2 20.5l4 25q5 26 31 26h169l18 101q5 26 31 26h29q15 0 19.5 -6t1.5 -20zM82 190h420q14 0 19 -6t2 -20l-4 -25
q-3 -15 -9.5 -20.5t-20.5 -5.5h-420q-15 0 -20 5.5t-2 20.5l4 25q5 26 31 26z" />
    <glyph glyph-name="twosuperior" unicode="&#xb2;" horiz-adv-x="355" 
d="M115 716q55 103 163 103q64 0 95 -35.5t22 -90.5q-9 -50 -40 -78.5t-96 -49.5l-61 -17q-45 -13 -51 -47l-4 -17h187q24 0 19 -23l-4 -24q-4 -22 -27 -22h-235q-24 0 -21 24l7 35q9 51 32.5 79.5t71.5 46.5l61 23q31 10 42 15.5t24 18.5q12 12 17 34q5 25 -9 40.5
t-44 15.5q-49 0 -77 -48l-5 -7q-9 -16 -15 -19t-21 2l-21 7q-23 10 -10 34z" />
    <glyph glyph-name="threesuperior" unicode="&#xb3;" horiz-adv-x="363" 
d="M111 717q51 102 170 102q62 0 92 -32t22 -84q-9 -56 -60 -82q51 -33 39 -104q-19 -110 -163 -110q-122 0 -137 100q-5 26 19 34l23 7q14 5 20.5 1.5t10.5 -17.5q4 -31 20.5 -44t54.5 -13q70 0 78 53q5 24 -6 38.5t-35 14.5h-50q-14 0 -17.5 4.5t-1.5 18.5l4 20q3 17 8 21
t21 4h43q47 0 57 49q5 24 -9 38.5t-42 14.5q-69 0 -96 -56q-9 -16 -17 -19t-24 3l-14 6q-22 9 -10 32z" />
    <glyph glyph-name="acute" unicode="&#xb4;" horiz-adv-x="257" 
d="M103 633l171 94q33 16 44 -1l15 -24q13 -19 -8 -28l-189 -83q-25 -9 -31 1l-9 15q-11 17 7 26z" />
    <glyph glyph-name="mu" unicode="&#xb5;" horiz-adv-x="552" 
d="M467 516h42q25 0 19 -24l-73 -417q-4 -24 -13.5 -35t-34.5 -21q-81 -34 -171 -34q-94 0 -128 63l-43 -244q-5 -24 -29 -24h-42q-23 0 -19 24l121 688q4 24 29 24h41q14 0 18 -5t2 -19l-54 -306q-21 -119 105 -119q57 0 116 17q15 6 18 22l68 386q4 24 28 24z" />
    <glyph glyph-name="paragraph" unicode="&#xb6;" horiz-adv-x="496" 
d="M292 710h193q14 0 18 -5t2 -19l-132 -751q-5 -24 -29 -24h-36q-13 0 -17 5t-2 19l121 685h-56l-120 -685q-4 -24 -29 -24h-36q-23 0 -19 24l78 437q-72 2 -108.5 51t-23.5 124t66.5 119t129.5 44z" />
    <glyph glyph-name="middot" unicode="&#xb7;" horiz-adv-x="231" 
d="M123 332h7q29 0 37.5 -11t3.5 -39l-1 -8q-5 -29 -18.5 -40t-41.5 -11h-7q-29 0 -38 11t-3 40l1 8q5 28 18 39t42 11z" />
    <glyph glyph-name="cedilla" unicode="&#xb8;" horiz-adv-x="251" 
d="M118 0l-39 -72q16 2 19 2q44 0 63 -23.5t10 -62.5q-11 -44 -49.5 -68t-92.5 -24q-48 0 -74 19q-14 8 -10 23l4 24q2 18 14 10q28 -21 64 -21q63 0 71 47q6 37 -48 37q-16 0 -30 -3q-11 -1 -13.5 4t4.5 16l53 92h54z" />
    <glyph glyph-name="onesuperior" unicode="&#xb9;" horiz-adv-x="273" 
d="M276 811h12q28 0 24 -27l-60 -343q-5 -26 -31 -26h-23q-15 0 -19.5 5.5t-2.5 20.5l49 274l-88 -44q-25 -12 -36 9l-8 19q-7 22 19 36l132 68q14 8 32 8z" />
    <glyph glyph-name="ordmasculine" unicode="&#xba;" horiz-adv-x="367" 
d="M90 481l13 74q20 115 154 115q65 0 95 -34t19 -92l-14 -73q-18 -115 -155 -115q-63 0 -93 34t-19 91zM286 474l14 78q5 25 -9 40t-44 15q-62 0 -72 -55l-14 -78q-5 -26 9 -40.5t44 -14.5q62 0 72 55z" />
    <glyph glyph-name="guillemotright" unicode="&#xbb;" horiz-adv-x="576" 
d="M213 265l-126 153q-12 16 5 30l31 26q18 16 30 0l162 -197q12 -14 -6 -29l-226 -192q-18 -15 -30 0l-24 28q-13 16 6 30zM444 265l-125 153q-13 16 6 30l32 24q19 14 30 0l160 -195q11 -14 -5 -29l-224 -191q-17 -14 -31 0l-25 27q-15 15 5 30z" />
    <glyph glyph-name="onequarter" unicode="&#xbc;" horiz-adv-x="843" 
d="M275 717h12q29 0 24 -27l-60 -343q-5 -26 -31 -26h-23q-15 0 -19.5 5.5t-2.5 20.5l49 274l-89 -44q-25 -12 -35 9l-8 19q-8 23 18 36l132 68q16 8 33 8zM695 710h34q13 0 16.5 -7.5t-3.5 -17.5l-486 -661q-12 -16 -20.5 -20t-31.5 -4h-31q-15 0 -18.5 8t5.5 19l486 661
q11 15 19.5 18.5t29.5 3.5zM738 157h31q14 0 17.5 -4t1.5 -17l-4 -22q-2 -13 -7 -17t-20 -4h-30l-12 -71q-3 -13 -8 -17.5t-18 -4.5h-29q-13 0 -16 4.5t-1 17.5l13 71h-181q-14 0 -17.5 5t-0.5 18l2 19q3 15 13 25l218 222q14 14 35 14h33q15 0 18 -4.5t1 -19.5zM667 157
l26 145l-144 -145h118z" />
    <glyph glyph-name="onehalf" unicode="&#xbd;" horiz-adv-x="888" 
d="M275 717h12q29 0 24 -27l-60 -343q-5 -26 -31 -26h-23q-15 0 -19.5 5.5t-2.5 20.5l49 274l-89 -44q-25 -12 -35 9l-8 19q-8 23 18 36l132 68q16 8 33 8zM689 710h34q14 0 17.5 -7.5t-4.5 -17.5l-486 -661q-11 -16 -19.5 -20t-32.5 -4h-30q-15 0 -18.5 8t5.5 19l486 661
q11 15 19 18.5t29 3.5zM571 301q58 103 163 103q64 0 95 -35.5t22 -90.5q-9 -51 -40.5 -79.5t-95.5 -47.5l-61 -18q-45 -13 -51 -46l-4 -18h187q24 0 19 -23l-4 -23q-5 -23 -27 -23h-235q-24 0 -21 24l7 35q9 51 32.5 80t71.5 47l61 22q31 10 42 15.5t24 18.5q12 12 17 34
q5 25 -8.5 40.5t-43.5 15.5q-50 0 -78 -48l-5 -7q-9 -16 -15 -19t-21 2l-21 8q-25 9 -10 33z" />
    <glyph glyph-name="threequarters" unicode="&#xbe;" horiz-adv-x="885" 
d="M102 623q50 102 170 102q62 0 92 -31.5t22 -83.5q-9 -57 -60 -83q51 -32 39 -103q-19 -111 -163 -111q-122 0 -137 101q-5 26 18 33l24 8q14 5 20.5 1.5t10.5 -18.5q4 -31 20.5 -44t54.5 -13q33 0 53.5 14.5t24.5 39.5q5 24 -6 38.5t-35 14.5h-50q-15 0 -18 4t-1 19l4 20
q3 17 8 21t21 4h43q47 0 57 48q4 26 -9.5 40t-41.5 14q-69 0 -96 -56q-9 -17 -16.5 -20t-24.5 3l-14 6q-22 10 -10 32zM738 710h34q13 0 17 -7.5t-4 -17.5l-486 -661q-12 -16 -20.5 -20t-31.5 -4h-31q-14 0 -17.5 8t4.5 19l486 661q11 14 19.5 18t29.5 4zM781 156h30
q15 0 18 -4t1 -16l-3 -22q-3 -14 -7.5 -17.5t-19.5 -3.5h-30l-13 -72q-2 -13 -7 -17.5t-18 -4.5h-30q-13 0 -16 4.5t0 17.5l12 72h-181q-13 0 -16.5 4.5t-1.5 18.5l3 18q5 17 12 26l219 221q14 14 35 14h32q15 0 18.5 -4t0.5 -19zM709 156l26 145l-144 -145h118z" />
    <glyph glyph-name="questiondown" unicode="&#xbf;" horiz-adv-x="559" 
d="M344 412h-7q-29 0 -37.5 11t-3.5 39l1 8q5 29 18 40t42 11h6q29 0 38 -11t4 -40l-2 -8q-4 -28 -17 -39t-42 -11zM481 -63q-47 -81 -113.5 -121.5t-165.5 -40.5q-111 0 -168 60q-58 61 -42 149q11 65 38 102q34 46 59 64q34 24 68 43l14 8t11 6l6 3q46 26 68.5 50t28.5 61
q4 25 29 25h31q14 0 18.5 -5.5t2.5 -19.5q-11 -62 -42.5 -100t-91.5 -74q-72 -41 -95 -65q-38 -38 -49 -96q-10 -56 23.5 -91t101.5 -35q126 0 190 109q10 15 16.5 18.5t19.5 -1.5l31 -16q13 -6 15 -12.5t-4 -20.5z" />
    <glyph glyph-name="Agrave" unicode="&#xc0;" 
d="M330 871l24 24q19 19 45 1l139 -92q14 -10 -2 -26l-14 -14q-8 -10 -30 -2l-163 82q-18 8 1 27zM461 691l142 -665q5 -26 -22 -26h-36q-25 0 -33.5 4.5t-10.5 18.5l-33 163h-296l-91 -163q-8 -14 -18 -18.5t-34 -4.5h-39q-28 0 -13 26l377 664q12 22 37 22h40
q15 0 21.5 -4.5t8.5 -16.5zM455 265l-54 263q-7 75 -2 91v3h-5q-10 -48 -34 -93l-146 -264h241z" />
    <glyph glyph-name="Aacute" unicode="&#xc1;" 
d="M319 805l172 95q32 17 45 -1l15 -24q14 -20 -9 -28l-189 -83q-25 -9 -31 1l-8 15q-7 10 -6 15t11 10zM461 691l142 -665q5 -26 -22 -26h-36q-25 0 -33.5 4.5t-10.5 18.5l-33 163h-296l-91 -163q-8 -14 -18 -18.5t-34 -4.5h-39q-28 0 -13 26l377 664q12 22 37 22h40
q15 0 21.5 -4.5t8.5 -16.5zM455 265l-54 263q-7 75 -2 91v3h-5q-10 -48 -34 -93l-146 -264h241z" />
    <glyph glyph-name="Acircumflex" unicode="&#xc2;" 
d="M442 905h10q15 0 21.5 -3.5t18.5 -17.5l95 -103q14 -20 -15 -20h-32q-25 0 -36 14l-66 71l-93 -71q-17 -14 -39 -14h-37q-31 0 -8 20l131 103q18 15 25.5 18t24.5 3zM461 691l142 -665q5 -26 -22 -26h-36q-25 0 -33.5 4.5t-10.5 18.5l-33 163h-296l-91 -163
q-8 -14 -18 -18.5t-34 -4.5h-39q-28 0 -13 26l377 664q12 22 37 22h40q15 0 21.5 -4.5t8.5 -16.5zM455 265l-54 263q-7 75 -2 91v3h-5q-10 -48 -34 -93l-146 -264h241z" />
    <glyph glyph-name="Atilde" unicode="&#xc3;" 
d="M552 888h25q16 0 13 -15q-10 -55 -33.5 -80t-65.5 -25q-31 0 -70.5 31.5t-57.5 31.5q-33 0 -41 -48q-3 -15 -17 -15h-26q-15 0 -12 15q17 105 98 105q33 0 73 -31.5t57 -31.5q33 0 40 48q3 15 17 15zM461 691l142 -665q5 -26 -22 -26h-36q-25 0 -33.5 4.5t-10.5 18.5
l-33 163h-296l-91 -163q-8 -14 -18 -18.5t-34 -4.5h-39q-28 0 -13 26l377 664q12 22 37 22h40q15 0 21.5 -4.5t8.5 -16.5zM455 265l-54 263q-7 75 -2 91v3h-5q-10 -48 -34 -93l-146 -264h241z" />
    <glyph glyph-name="Adieresis" unicode="&#xc4;" 
d="M338 875h6q24 0 32 -9t3 -32l-1 -9q-5 -24 -15.5 -32.5t-34.5 -8.5h-6q-24 0 -31.5 9t-2.5 32l2 9q4 23 14 32t34 9zM535 875h6q24 0 31.5 -9t3.5 -32l-2 -9q-4 -23 -14.5 -32t-34.5 -9h-6q-24 0 -31.5 9t-3.5 32l2 9q4 23 14.5 32t34.5 9zM461 691l142 -665
q5 -26 -22 -26h-36q-25 0 -33.5 4.5t-10.5 18.5l-33 163h-296l-91 -163q-8 -14 -18 -18.5t-34 -4.5h-39q-28 0 -13 26l377 664q12 22 37 22h40q15 0 21.5 -4.5t8.5 -16.5zM455 265l-54 263q-7 75 -2 91v3h-5q-10 -48 -34 -93l-146 -264h241z" />
    <glyph glyph-name="Aring" unicode="&#xc5;" 
d="M302 775q9 52 48 84t93 32q52 0 79 -32.5t18 -84.5q-12 -71 -76 -96l139 -652q5 -26 -22 -26h-36q-25 0 -33.5 4.5t-10.5 18.5l-33 163h-296l-91 -163q-8 -14 -18 -18.5t-34 -4.5h-39q-28 0 -13 26l370 651q-59 26 -45 98zM485 775q5 29 -9 46t-42 17q-30 0 -51 -17
t-26 -46q-5 -28 9.5 -45.5t44.5 -17.5q28 0 49 17.5t25 45.5zM455 265l-54 263q-7 75 -2 91v3h-5q-10 -48 -34 -93l-146 -264h241z" />
    <glyph glyph-name="AE" unicode="&#xc6;" horiz-adv-x="843" 
d="M495 90h267q14 0 19 -6t2 -20l-6 -38q-5 -26 -31 -26h-332q-15 0 -19.5 6t-2.5 20l25 137h-232l-109 -140q-12 -14 -21.5 -18.5t-30.5 -4.5h-44q-28 0 -13 26l522 662q19 22 37 22h333q14 0 19 -6t3 -20l-7 -38q-5 -26 -31 -26h-255l-38 -216h209q15 0 19.5 -5.5
t2.5 -20.5l-7 -37q-4 -27 -31 -27h-209zM430 243l56 312l-239 -312h183z" />
    <glyph glyph-name="Ccedilla" unicode="&#xc7;" horiz-adv-x="635" 
d="M427 725q210 0 234 -172q3 -14 -1 -21.5t-20 -12.5l-38 -12q-15 -5 -21.5 -1.5t-9.5 17.5q-9 58 -46.5 85t-110.5 27q-90 0 -144.5 -43t-67.5 -122l-41 -229q-14 -80 26 -122.5t128 -42.5q74 0 121 27.5t77 85.5q14 26 37 17l41 -16q24 -11 11 -34q-40 -79 -103 -120.5
t-157 -48.5l-33 -60q6 2 19 2q44 0 63.5 -23t9.5 -62q-11 -46 -49.5 -69.5t-92.5 -23.5q-45 0 -74 19q-13 7 -10 24l4 23q2 18 14 10q29 -21 64 -21q63 0 71 47q6 37 -48 37q-16 0 -30 -3q-11 -1 -13 4.5t4 16.5l46 78q-125 4 -184 73.5t-38 186.5l40 228
q21 120 104.5 185.5t217.5 65.5z" />
    <glyph glyph-name="Egrave" unicode="&#xc8;" horiz-adv-x="576" 
d="M296 871l24 24q19 19 44 1l140 -92q14 -9 -3 -26l-13 -14q-8 -10 -30 -2l-163 82q-19 7 1 27zM175 710h402q14 0 19 -6t3 -20l-7 -38q-5 -26 -31 -26h-331l-38 -215h285q15 0 19.5 -6t2.5 -21l-7 -37q-5 -26 -31 -26h-286l-39 -225h344q14 0 19 -6t2 -20l-6 -38
q-5 -26 -31 -26h-414q-15 0 -19.5 6t-2.5 20l116 658q5 26 31 26z" />
    <glyph glyph-name="Eacute" unicode="&#xc9;" horiz-adv-x="576" 
d="M285 805l172 95q32 17 44 -1l15 -24q14 -20 -8 -28l-190 -83q-23 -9 -30 1l-9 15q-6 10 -5 15t11 10zM175 710h402q14 0 19 -6t3 -20l-7 -38q-5 -26 -31 -26h-331l-38 -215h285q15 0 19.5 -6t2.5 -21l-7 -37q-5 -26 -31 -26h-286l-39 -225h344q14 0 19 -6t2 -20l-6 -38
q-5 -26 -31 -26h-414q-15 0 -19.5 6t-2.5 20l116 658q5 26 31 26z" />
    <glyph glyph-name="Ecircumflex" unicode="&#xca;" horiz-adv-x="576" 
d="M408 905h10q15 0 21.5 -3.5t18.5 -17.5l95 -103q14 -20 -15 -20h-32q-26 0 -37 14l-65 71l-93 -71q-17 -14 -40 -14h-36q-31 0 -8 20l131 103q17 15 24.5 18t25.5 3zM175 710h402q14 0 19 -6t3 -20l-7 -38q-5 -26 -31 -26h-331l-38 -215h285q15 0 19.5 -6t2.5 -21l-7 -37
q-5 -26 -31 -26h-286l-39 -225h344q14 0 19 -6t2 -20l-6 -38q-5 -26 -31 -26h-414q-15 0 -19.5 6t-2.5 20l116 658q5 26 31 26z" />
    <glyph glyph-name="Edieresis" unicode="&#xcb;" horiz-adv-x="576" 
d="M304 875h6q24 0 31.5 -9t3.5 -32l-1 -9q-5 -23 -15.5 -32t-34.5 -9h-7q-23 0 -30.5 9t-2.5 32l1 9q5 24 15 32.5t34 8.5zM501 875h6q24 0 31.5 -9t3.5 -32l-2 -9q-4 -23 -15 -32t-34 -9h-6q-25 0 -32.5 9t-2.5 32l2 9q4 23 14.5 32t34.5 9zM175 710h402q14 0 19 -6t3 -20
l-7 -38q-5 -26 -31 -26h-331l-38 -215h285q15 0 19.5 -6t2.5 -21l-7 -37q-5 -26 -31 -26h-286l-39 -225h344q14 0 19 -6t2 -20l-6 -38q-5 -26 -31 -26h-414q-15 0 -19.5 6t-2.5 20l116 658q5 26 31 26z" />
    <glyph glyph-name="Igrave" unicode="&#xcc;" horiz-adv-x="247" 
d="M117 871l24 24q18 19 44 1l140 -92q14 -9 -3 -26l-13 -14q-10 -10 -31 -2l-162 82q-20 8 1 27zM28 26l116 658q5 26 31 26h44q15 0 20 -6t2 -20l-116 -658q-5 -26 -31 -26h-44q-15 0 -19.5 6t-2.5 20z" />
    <glyph glyph-name="Iacute" unicode="&#xcd;" horiz-adv-x="247" 
d="M106 805l172 95q32 17 44 -1l15 -24q14 -20 -8 -28l-190 -83q-24 -9 -30 1l-9 15q-6 10 -5 15t11 10zM28 26l116 658q5 26 31 26h44q15 0 20 -6t2 -20l-116 -658q-5 -26 -31 -26h-44q-15 0 -19.5 6t-2.5 20z" />
    <glyph glyph-name="Icircumflex" unicode="&#xce;" horiz-adv-x="247" 
d="M229 905h10q15 0 21.5 -3.5t18.5 -17.5l95 -103q14 -20 -15 -20h-32q-26 0 -37 14l-65 71l-94 -71q-16 -14 -39 -14h-36q-31 0 -8 20l131 103q17 15 24.5 18t25.5 3zM28 26l116 658q5 26 31 26h44q15 0 20 -6t2 -20l-116 -658q-5 -26 -31 -26h-44q-15 0 -19.5 6t-2.5 20z
" />
    <glyph glyph-name="Idieresis" unicode="&#xcf;" horiz-adv-x="247" 
d="M124 875h7q24 0 31.5 -9t3.5 -32l-2 -9q-4 -23 -14.5 -32t-34.5 -9h-7q-23 0 -30.5 9t-3.5 32l2 9q4 23 14.5 32t33.5 9zM322 875h6q23 0 31 -9t4 -32l-2 -9q-4 -23 -15 -32t-34 -9h-7q-24 0 -31.5 9t-2.5 32l1 9q5 23 15.5 32t34.5 9zM28 26l116 658q5 26 31 26h44
q15 0 20 -6t2 -20l-116 -658q-5 -26 -31 -26h-44q-15 0 -19.5 6t-2.5 20z" />
    <glyph glyph-name="Eth" unicode="&#xd0;" horiz-adv-x="672" 
d="M187 710h217q136 0 201 -74q64 -75 42 -199l-32 -182q-22 -123 -108.5 -189t-227.5 -66h-217q-15 0 -19.5 6t-2.5 20l54 306h-67q-17 0 -13 17l5 29q3 17 20 17h67l50 289q5 26 31 26zM520 263l32 184q29 173 -163 173h-147l-40 -225h155q17 0 12 -17l-5 -29
q-2 -17 -19 -17h-154l-43 -242h148q93 0 151 45t73 128z" />
    <glyph glyph-name="Ntilde" unicode="&#xd1;" horiz-adv-x="694" 
d="M563 888h25q16 0 12 -15q-9 -55 -33 -80t-66 -25q-31 0 -70.5 31.5t-57.5 31.5q-33 0 -40 -48q-3 -15 -18 -15h-25q-16 0 -13 15q18 105 98 105q40 0 74 -31q35 -32 56 -32q31 0 41 48q3 15 17 15zM624 710h43q14 0 19 -6t3 -20l-116 -658q-5 -26 -31 -26h-44
q-18 0 -24 13l-210 415q-19 42 -34 93q-6 19 -20 61h-4q0 -1 -5 -70q-4 -66 -12 -116l-65 -370q-5 -26 -31 -26h-43q-15 0 -19.5 6t-2.5 20l116 658q5 26 31 26h40q19 0 26 -13l208 -408q22 -45 38 -98q18 -57 20 -62h5q0 1 5 72q3 69 12 121l64 362q5 26 31 26z" />
    <glyph glyph-name="Ograve" unicode="&#xd2;" horiz-adv-x="667" 
d="M350 881l23 24q19 19 45 1l139 -92q14 -10 -2 -26l-13 -14q-10 -10 -31 -2l-163 82q-18 7 2 27zM66 247l40 228q21 120 103.5 185t217.5 65q133 0 195 -71t41 -193l-40 -228q-21 -120 -103.5 -184t-216.5 -64q-133 0 -195.5 70.5t-41.5 191.5zM528 241l41 228
q14 80 -26 123t-128 43q-89 0 -144 -43t-69 -123l-40 -228q-14 -80 26 -123t128 -43t143 43t69 123z" />
    <glyph glyph-name="Oacute" unicode="&#xd3;" horiz-adv-x="667" 
d="M338 815l172 95q32 17 45 -1l15 -24q14 -20 -8 -28l-190 -83q-25 -9 -31 1l-8 15q-10 16 5 25zM66 247l40 228q21 120 103.5 185t217.5 65q133 0 195 -71t41 -193l-40 -228q-21 -120 -103.5 -184t-216.5 -64q-133 0 -195.5 70.5t-41.5 191.5zM528 241l41 228
q14 80 -26 123t-128 43q-89 0 -144 -43t-69 -123l-40 -228q-14 -80 26 -123t128 -43t143 43t69 123z" />
    <glyph glyph-name="Ocircumflex" unicode="&#xd4;" horiz-adv-x="667" 
d="M462 915h9q15 0 21.5 -3.5t18.5 -17.5l95 -103q15 -20 -15 -20h-32q-25 0 -36 14l-66 71l-93 -71q-16 -14 -39 -14h-37q-28 0 -8 20l131 103q18 15 25.5 18t25.5 3zM66 247l40 228q21 120 103.5 185t217.5 65q133 0 195 -71t41 -193l-40 -228q-21 -120 -103.5 -184
t-216.5 -64q-133 0 -195.5 70.5t-41.5 191.5zM528 241l41 228q14 80 -26 123t-128 43q-89 0 -144 -43t-69 -123l-40 -228q-14 -80 26 -123t128 -43t143 43t69 123z" />
    <glyph glyph-name="Otilde" unicode="&#xd5;" horiz-adv-x="667" 
d="M571 898h26q15 0 12 -15q-10 -55 -33.5 -80t-65.5 -25q-31 0 -70.5 31.5t-57.5 31.5q-34 0 -41 -48q-3 -15 -17 -15h-26q-15 0 -12 15q18 105 98 105q33 0 73 -31.5t57 -31.5q32 0 40 48q3 15 17 15zM66 247l40 228q21 120 103.5 185t217.5 65q133 0 195 -71t41 -193
l-40 -228q-21 -120 -103.5 -184t-216.5 -64q-133 0 -195.5 70.5t-41.5 191.5zM528 241l41 228q14 80 -26 123t-128 43q-89 0 -144 -43t-69 -123l-40 -228q-14 -80 26 -123t128 -43t143 43t69 123z" />
    <glyph glyph-name="Odieresis" unicode="&#xd6;" horiz-adv-x="667" 
d="M357 885h7q24 0 31.5 -9t3.5 -32l-2 -9q-5 -24 -15.5 -32.5t-34.5 -8.5h-6q-24 0 -31.5 9t-2.5 32l2 9q4 23 14 32t34 9zM554 885h6q24 0 32 -9t3 -32l-1 -9q-5 -23 -15.5 -32t-34.5 -9h-6q-24 0 -31.5 9t-3.5 32l2 9q4 23 14.5 32t34.5 9zM66 247l40 228
q21 120 103.5 185t217.5 65q133 0 195 -71t41 -193l-40 -228q-21 -120 -103.5 -184t-216.5 -64q-133 0 -195.5 70.5t-41.5 191.5zM528 241l41 228q14 80 -26 123t-128 43q-89 0 -144 -43t-69 -123l-40 -228q-14 -80 26 -123t128 -43t143 43t69 123z" />
    <glyph glyph-name="multiply" unicode="&#xd7;" horiz-adv-x="507" 
d="M330 324l110 -134q15 -20 -6 -36l-24 -20q-21 -17 -36 0l-111 134l-156 -134q-21 -16 -36 0l-17 21q-16 18 6 36l156 134l-109 133q-15 20 6 36l24 21q21 17 36 0l110 -134l157 134q22 19 37 0l17 -21q15 -18 -7 -36z" />
    <glyph glyph-name="Oslash" unicode="&#xd8;" horiz-adv-x="668" 
d="M653 752h52q11 0 3 -9l-86 -106q46 -70 27 -176l-40 -228q-21 -120 -103.5 -184t-216.5 -64q-104 0 -162 43l-51 -61q-8 -8 -19 -8h-51q-9 0 -2 10l80 99q-52 67 -32 179l40 228q21 120 103.5 185t217.5 65q107 0 168 -49l54 68q8 8 18 8zM158 158l360 441
q-39 36 -117 36q-89 0 -144 -43t-69 -123l-40 -228q-9 -52 10 -83zM514 241l41 228q8 46 -8 76l-358 -439q40 -31 113 -31q88 0 143 43t69 123z" />
    <glyph glyph-name="Ugrave" unicode="&#xd9;" horiz-adv-x="685" 
d="M357 871l23 24q19 19 45 1l139 -92q14 -10 -2 -26l-13 -14q-10 -10 -31 -2l-163 82q-18 7 2 27zM255 684l-78 -442q-14 -79 24 -123t124 -44t139 43.5t67 123.5l78 442q5 26 31 26h44q15 0 20 -6t2 -20l-80 -451q-21 -120 -101 -184t-214 -64q-132 0 -191 74
q-60 74 -38 193l77 432q5 26 30 26h44q15 0 20 -6t2 -20z" />
    <glyph glyph-name="Uacute" unicode="&#xda;" horiz-adv-x="685" 
d="M345 805l172 95q32 17 45 -1l15 -24q14 -20 -8 -28l-190 -83q-25 -9 -31 1l-8 15q-10 16 5 25zM255 684l-78 -442q-14 -79 24 -123t124 -44t139 43.5t67 123.5l78 442q5 26 31 26h44q15 0 20 -6t2 -20l-80 -451q-21 -120 -101 -184t-214 -64q-132 0 -191 74
q-60 74 -38 193l77 432q5 26 30 26h44q15 0 20 -6t2 -20z" />
    <glyph glyph-name="Ucircumflex" unicode="&#xdb;" horiz-adv-x="685" 
d="M469 905h9q15 0 21.5 -3.5t18.5 -17.5l95 -103q15 -20 -15 -20h-32q-25 0 -36 14l-66 71l-93 -71q-16 -14 -39 -14h-37q-28 0 -8 20l131 103q18 15 25.5 18t25.5 3zM255 684l-78 -442q-14 -79 24 -123t124 -44t139 43.5t67 123.5l78 442q5 26 31 26h44q15 0 20 -6t2 -20
l-80 -451q-21 -120 -101 -184t-214 -64q-132 0 -191 74q-60 74 -38 193l77 432q5 26 30 26h44q15 0 20 -6t2 -20z" />
    <glyph glyph-name="Udieresis" unicode="&#xdc;" horiz-adv-x="685" 
d="M364 875h7q24 0 31.5 -9t3.5 -32l-2 -9q-5 -24 -15.5 -32.5t-34.5 -8.5h-6q-24 0 -31.5 9t-2.5 32l2 9q4 23 14 32t34 9zM561 875h6q24 0 32 -9t3 -32l-1 -9q-5 -23 -15.5 -32t-34.5 -9h-6q-24 0 -31.5 9t-3.5 32l2 9q4 23 14.5 32t34.5 9zM255 684l-78 -442
q-14 -79 24 -123t124 -44t139 43.5t67 123.5l78 442q5 26 31 26h44q15 0 20 -6t2 -20l-80 -451q-21 -120 -101 -184t-214 -64q-132 0 -191 74q-60 74 -38 193l77 432q5 26 30 26h44q15 0 20 -6t2 -20z" />
    <glyph glyph-name="Yacute" unicode="&#xdd;" horiz-adv-x="631" 
d="M303 805l172 95q30 16 44 -1l15 -24q14 -20 -8 -28l-190 -83q-24 -9 -31 1l-8 15q-6 10 -5 15t11 10zM629 710h51q14 0 16 -8t-7 -18l-324 -400l-46 -258q-5 -26 -30 -26h-45q-14 0 -19 6t-2 20l45 260l-183 398q-6 10 -1 18t19 8h52q25 0 33 -4t14 -19l133 -303l239 303
q11 15 20.5 19t34.5 4z" />
    <glyph glyph-name="Thorn" unicode="&#xde;" horiz-adv-x="624" 
d="M225 596h187q109 0 163 -67q52 -67 33 -178q-19 -107 -93.5 -167t-186.5 -60h-186l-17 -98q-5 -26 -31 -26h-44q-15 0 -19.5 6t-2.5 20l116 658q5 26 31 26h44q15 0 20 -6t2 -20zM158 214h177q69 0 116.5 39.5t57.5 105.5q12 66 -21 106.5t-101 40.5h-177z" />
    <glyph glyph-name="germandbls" unicode="&#xdf;" horiz-adv-x="549" 
d="M17 26l89 506q18 101 83 159.5t164 58.5q103 0 149 -56.5t28 -154.5q-21 -109 -109 -149v-3q103 -36 77 -182q-18 -100 -82 -152.5t-165 -52.5h-67q-15 0 -19.5 6t-2.5 20l7 37q5 27 30 27h59q122 0 144 126q10 56 -15.5 89t-80.5 33h-61q-15 0 -19.5 6t-1.5 20l6 35
q2 15 9 20.5t22 5.5h53q47 0 80 32t42 81q23 122 -99 122q-56 0 -94 -35t-49 -96l-88 -503q-5 -26 -31 -26h-37q-14 0 -19 6t-2 20z" />
    <glyph glyph-name="agrave" unicode="&#xe0;" horiz-adv-x="535" 
d="M255 699l23 23q19 19 45 2l138 -95q14 -9 -3 -26l-13 -13q-11 -11 -31 -2l-160 84q-18 8 1 27zM43 198l25 140q18 101 78.5 147t174.5 46q107 0 170 -31q22 -11 27 -21t1 -34l-71 -402q-2 -14 -8.5 -20t-21.5 -10q-96 -28 -205 -28q-99 0 -143.5 57.5t-26.5 155.5z
M412 434q-47 15 -98 15q-72 0 -109.5 -28.5t-49.5 -94.5l-24 -135q-10 -60 16.5 -92t86.5 -32q71 0 132 19l58 327q1 9 -1 12.5t-11 8.5z" />
    <glyph glyph-name="aacute" unicode="&#xe1;" horiz-adv-x="535" 
d="M242 629l172 95q32 17 44 -2l15 -24q14 -20 -8 -27l-190 -84q-26 -8 -30 2l-9 14q-11 17 6 26zM43 198l25 140q18 101 78.5 147t174.5 46q107 0 170 -31q22 -11 27 -21t1 -34l-71 -402q-2 -14 -8.5 -20t-21.5 -10q-96 -28 -205 -28q-99 0 -143.5 57.5t-26.5 155.5z
M412 434q-47 15 -98 15q-72 0 -109.5 -28.5t-49.5 -94.5l-24 -135q-10 -60 16.5 -92t86.5 -32q71 0 132 19l58 327q1 9 -1 12.5t-11 8.5z" />
    <glyph glyph-name="acircumflex" unicode="&#xe2;" horiz-adv-x="535" 
d="M364 725h10q16 0 22.5 -3.5t18.5 -17.5l94 -103q15 -19 -15 -19h-31q-26 0 -36 13l-66 72l-92 -72q-16 -13 -39 -13h-39q-28 0 -8 19l132 103q17 15 24.5 18t24.5 3zM43 198l25 140q18 101 78.5 147t174.5 46q107 0 170 -31q22 -11 27 -21t1 -34l-71 -402
q-2 -14 -8.5 -20t-21.5 -10q-96 -28 -205 -28q-99 0 -143.5 57.5t-26.5 155.5zM412 434q-47 15 -98 15q-72 0 -109.5 -28.5t-49.5 -94.5l-24 -135q-10 -60 16.5 -92t86.5 -32q71 0 132 19l58 327q1 9 -1 12.5t-11 8.5z" />
    <glyph glyph-name="atilde" unicode="&#xe3;" horiz-adv-x="535" 
d="M475 714h25q16 0 13 -15q-10 -55 -33.5 -80t-64.5 -25q-36 0 -71 32q-35 31 -58 31q-34 0 -41 -48q-3 -15 -17 -15h-26q-14 0 -13 15q18 105 98 105q33 0 74 -31t57 -31q32 0 40 47q3 15 17 15zM43 198l25 140q18 101 78.5 147t174.5 46q107 0 170 -31q22 -11 27 -21
t1 -34l-71 -402q-2 -14 -8.5 -20t-21.5 -10q-96 -28 -205 -28q-99 0 -143.5 57.5t-26.5 155.5zM412 434q-47 15 -98 15q-72 0 -109.5 -28.5t-49.5 -94.5l-24 -135q-10 -60 16.5 -92t86.5 -32q71 0 132 19l58 327q1 9 -1 12.5t-11 8.5z" />
    <glyph glyph-name="adieresis" unicode="&#xe4;" horiz-adv-x="535" 
d="M261 697h6q24 0 31.5 -9t3.5 -32l-2 -8q-5 -24 -15 -33t-34 -9h-7q-23 0 -30.5 9t-3.5 33l2 8q4 23 14.5 32t34.5 9zM458 697h6q24 0 31.5 -9t2.5 -32l-1 -8q-4 -24 -14.5 -33t-34.5 -9h-6q-24 0 -32 9t-4 33l2 8q4 23 15 32t35 9zM43 198l25 140q18 101 78.5 147
t174.5 46q107 0 170 -31q22 -11 27 -21t1 -34l-71 -402q-2 -14 -8.5 -20t-21.5 -10q-96 -28 -205 -28q-99 0 -143.5 57.5t-26.5 155.5zM412 434q-47 15 -98 15q-72 0 -109.5 -28.5t-49.5 -94.5l-24 -135q-10 -60 16.5 -92t86.5 -32q71 0 132 19l58 327q1 9 -1 12.5t-11 8.5z
" />
    <glyph glyph-name="aring" unicode="&#xe5;" horiz-adv-x="535" 
d="M254 675q7 45 41 73.5t82 28.5q46 0 69.5 -28.5t15.5 -74.5q-7 -45 -40.5 -73t-79.5 -28q-47 0 -71.5 28.5t-16.5 73.5zM416 674q5 26 -7.5 41.5t-38.5 15.5q-28 0 -47 -15.5t-23 -41.5q-5 -25 8.5 -40.5t40.5 -15.5q26 0 44.5 15.5t22.5 40.5zM43 198l25 140
q18 101 78.5 147t174.5 46q107 0 170 -31q22 -11 27 -21t1 -34l-71 -402q-2 -14 -8.5 -20t-21.5 -10q-96 -28 -205 -28q-99 0 -143.5 57.5t-26.5 155.5zM412 434q-47 15 -98 15q-72 0 -109.5 -28.5t-49.5 -94.5l-24 -135q-10 -60 16.5 -92t86.5 -32q71 0 132 19l58 327
q1 9 -1 12.5t-11 8.5z" />
    <glyph glyph-name="ae" unicode="&#xe6;" horiz-adv-x="779" 
d="M425 447q61 84 172 84q96 0 142 -46.5t30 -129.5q-14 -70 -72 -106.5t-152 -36.5q-57 0 -125 15l-8 -44q-19 -120 98 -120q88 0 134 67q18 22 37 9l25 -16q20 -15 0 -39q-69 -99 -210 -99q-91 0 -130 52q-64 -52 -171 -52q-103 0 -145.5 41.5t-28.5 123.5q14 77 70 113.5
t162 36.5q43 0 98 -7l6 36q7 27 6 57t-19 46q-22 19 -68 19q-73 0 -119 -58q-10 -12 -16 -14.5t-18 3.5l-29 13q-23 10 -7 34q70 102 205 102q58 0 89 -21t44 -63zM681 360q11 46 -14 70.5t-83 24.5t-97 -33t-49 -93l-6 -34q67 -14 126 -14q107 0 123 79zM331 179l7 43
q-66 7 -107 7q-106 0 -121 -85q-8 -44 13 -64t76 -20q11 0 22 1t21 3l17.5 3.5t16 5t14 6t12.5 6.5t10 5.5t9.5 5.5t7.5 5q-6 30 2 78z" />
    <glyph glyph-name="ccedilla" unicode="&#xe7;" horiz-adv-x="511" 
d="M42 192l25 144q34 195 253 195q165 0 188 -134q3 -26 -21 -34l-31 -11q-15 -5 -21.5 -1.5t-9.5 17.5q-13 84 -117 84q-63 0 -102.5 -31t-49.5 -88l-27 -150q-10 -57 18.5 -88t91.5 -31q102 0 147 87q12 26 36 16l34 -11q25 -9 9 -34q-64 -124 -208 -135l-32 -59
q16 2 19 2q44 0 63.5 -23.5t9.5 -62.5q-11 -45 -49.5 -68.5t-92.5 -23.5q-45 0 -74 19q-13 6 -10 23l4 24q2 18 14 10q31 -21 65 -21q62 0 70 47q6 37 -48 37q-16 0 -30 -3q-11 -1 -13 4t4 16l46 78q-95 7 -136 61t-25 145z" />
    <glyph glyph-name="egrave" unicode="&#xe8;" horiz-adv-x="526" 
d="M250 699l23 23q18 20 44 2l138 -95q14 -9 -3 -26l-12 -13q-11 -11 -31 -2l-160 84q-19 7 1 27zM44 202l22 125q18 98 86.5 151t176.5 53q103 0 155 -49.5t35 -132.5q-29 -137 -240 -137q-60 0 -142 14l-8 -43q-10 -58 18.5 -89t94.5 -31q98 0 151 66q21 24 41 10l24 -16
q22 -15 2 -39q-76 -99 -232 -99q-109 0 -156 59t-28 158zM432 360q10 46 -20 70.5t-96 24.5q-64 0 -107 -34t-54 -94l-6 -31q72 -15 142 -15q123 0 141 79z" />
    <glyph glyph-name="eacute" unicode="&#xe9;" horiz-adv-x="526" 
d="M237 629l171 95q31 16 45 -2l15 -24q14 -20 -8 -27l-190 -84q-25 -7 -31 2l-8 14q-11 17 6 26zM44 202l22 125q18 98 86.5 151t176.5 53q103 0 155 -49.5t35 -132.5q-29 -137 -240 -137q-60 0 -142 14l-8 -43q-10 -58 18.5 -89t94.5 -31q98 0 151 66q21 24 41 10l24 -16
q22 -15 2 -39q-76 -99 -232 -99q-109 0 -156 59t-28 158zM432 360q10 46 -20 70.5t-96 24.5q-64 0 -107 -34t-54 -94l-6 -31q72 -15 142 -15q123 0 141 79z" />
    <glyph glyph-name="ecircumflex" unicode="&#xea;" horiz-adv-x="526" 
d="M224 582h-38q-28 0 -9 19l132 103q17 15 24.5 18t25.5 3h10q16 0 22.5 -3.5t17.5 -17.5l95 -103q7 -7 3 -13t-18 -6h-31q-27 0 -36 13l-66 72l-92 -72q-16 -13 -40 -13zM329 531q103 0 155 -49.5t35 -132.5q-29 -137 -240 -137q-60 0 -142 14l-8 -43q-10 -58 18.5 -89
t94.5 -31q98 0 151 66q21 24 41 10l24 -16q22 -15 2 -39q-76 -99 -232 -99q-109 0 -156 59t-28 158l22 125q18 98 86.5 151t176.5 53zM432 360q10 46 -20 70.5t-96 24.5q-64 0 -107 -34t-54 -94l-6 -31q72 -15 142 -15q123 0 141 79z" />
    <glyph glyph-name="edieresis" unicode="&#xeb;" horiz-adv-x="526" 
d="M255 697h7q24 0 31.5 -9t2.5 -32l-1 -8q-5 -24 -15 -33t-34 -9h-7q-23 0 -30.5 9t-3.5 33l1 8q4 23 15 32t34 9zM453 697h6q23 0 30.5 -9t3.5 -32l-2 -8q-4 -24 -14.5 -33t-33.5 -9h-7q-24 0 -31.5 9t-3.5 33l2 8q4 23 14.5 32t35.5 9zM44 202l22 125q18 98 86.5 151
t176.5 53q103 0 155 -49.5t35 -132.5q-29 -137 -240 -137q-60 0 -142 14l-8 -43q-10 -58 18.5 -89t94.5 -31q98 0 151 66q21 24 41 10l24 -16q22 -15 2 -39q-76 -99 -232 -99q-109 0 -156 59t-28 158zM432 360q10 46 -20 70.5t-96 24.5q-64 0 -107 -34t-54 -94l-6 -31
q72 -15 142 -15q123 0 141 79z" />
    <glyph glyph-name="igrave" unicode="&#xec;" horiz-adv-x="213" 
d="M72 699l20 20q22 21 42 4l111 -97q13 -10 -3 -27l-10 -11q-13 -11 -31 -1l-130 84q-11 6 -10.5 11.5t11.5 16.5zM127 516h42q13 0 17 -5t2 -19l-82 -468q-5 -24 -28 -24h-42q-25 0 -19 24l82 468q5 24 28 24z" />
    <glyph glyph-name="iacute" unicode="&#xed;" horiz-adv-x="213" 
d="M73 629l145 95q31 17 44 -2l15 -24q15 -17 -9 -27l-163 -84q-23 -11 -31 1l-8 15q-10 15 7 26zM127 516h42q13 0 17 -5t2 -19l-82 -468q-5 -24 -28 -24h-42q-25 0 -19 24l82 468q5 24 28 24z" />
    <glyph glyph-name="icircumflex" unicode="&#xee;" horiz-adv-x="213" 
d="M234 701l70 -98q13 -19 -15 -19h-31q-24 0 -33 17l-42 59l-68 -63q-12 -13 -38 -13h-35q-28 0 -9 19l105 98q14 14 22 17.5t27 3.5h9q16 0 22.5 -3.5t15.5 -17.5zM138 516h42q13 0 17 -5t2 -19l-82 -468q-5 -24 -28 -24h-42q-25 0 -19 24l82 468q4 24 28 24z" />
    <glyph glyph-name="idieresis" unicode="&#xef;" horiz-adv-x="213" 
d="M95 705h7q24 0 31.5 -9.5t3.5 -32.5l-2 -8q-5 -24 -15 -32.5t-34 -8.5h-6q-24 0 -31.5 9t-3.5 32l2 8q4 23 14.5 32.5t33.5 9.5zM256 705h6q24 0 31.5 -9.5t3.5 -32.5l-2 -8q-4 -23 -14.5 -32t-33.5 -9h-7q-24 0 -31.5 9t-3.5 32l2 8q4 23 14.5 32.5t34.5 9.5zM127 516
h42q13 0 17 -5t2 -19l-82 -468q-5 -24 -28 -24h-42q-25 0 -19 24l82 468q5 24 28 24z" />
    <glyph glyph-name="eth" unicode="&#xf0;" horiz-adv-x="552" 
d="M448 699l53 48q10 9 18 1l21 -18q10 -8 -1 -19l-49 -43q72 -81 40 -270l-38 -215q-17 -94 -84.5 -146t-175.5 -52t-157.5 55t-32.5 151l22 123q16 90 80 140.5t161 50.5q115 0 146 -70q17 115 -30 168l-64 -58q-10 -8 -18 -1l-20 16q-9 8 2 19l58 52q-52 29 -151 29
q-14 0 -18.5 5t-2.5 18l5 35q4 24 28 24q138 0 208 -43zM402 184l22 123q10 57 -19 87t-95 30q-67 0 -107 -30.5t-50 -87.5l-22 -122q-10 -57 19.5 -87.5t95.5 -30.5q134 0 156 118z" />
    <glyph glyph-name="ntilde" unicode="&#xf1;" horiz-adv-x="549" 
d="M454 714h25q15 0 12 -15q-10 -55 -33 -80t-65 -25q-34 0 -71 32q-35 31 -58 31q-32 0 -41 -48q-3 -15 -17 -15h-26q-15 0 -12 15q16 105 97 105q33 0 74 -31t57 -31q32 0 40 47q3 15 18 15zM134 497q90 34 197 34q100 0 142 -53t26 -152l-54 -302q-5 -24 -28 -24h-42
q-13 0 -17 5t-2 19l54 306q21 119 -105 119q-59 0 -119 -18q-14 -5 -15 -18l-68 -389q-5 -24 -29 -24h-42q-23 0 -19 24l73 417q5 24 14.5 35t33.5 21z" />
    <glyph glyph-name="ograve" unicode="&#xf2;" horiz-adv-x="541" 
d="M248 699l23 23q19 18 44 2l138 -96q13 -9 -3 -25l-12 -14q-10 -10 -31 -1l-160 83q-11 6 -10.5 11.5t11.5 16.5zM39 179l29 163q16 89 83.5 139t172.5 50q106 0 157 -52.5t35 -143.5l-28 -163q-16 -90 -82 -138.5t-174 -48.5q-105 0 -156.5 52t-36.5 142zM399 176l29 164
q9 52 -21.5 81t-94.5 29q-63 0 -104 -29t-51 -81l-28 -164q-10 -52 21 -81t94 -29q64 0 104.5 29t50.5 81z" />
    <glyph glyph-name="oacute" unicode="&#xf3;" horiz-adv-x="541" 
d="M235 629l171 95q33 15 45 -2l15 -24q14 -20 -8 -27l-190 -84q-24 -7 -31 1l-8 15q-11 17 6 26zM39 179l29 163q16 89 83.5 139t172.5 50q106 0 157 -52.5t35 -143.5l-28 -163q-16 -90 -82 -138.5t-174 -48.5q-105 0 -156.5 52t-36.5 142zM399 176l29 164q9 52 -21.5 81
t-94.5 29q-63 0 -104 -29t-51 -81l-28 -164q-10 -52 21 -81t94 -29q64 0 104.5 29t50.5 81z" />
    <glyph glyph-name="ocircumflex" unicode="&#xf4;" horiz-adv-x="541" 
d="M222 581h-38q-14 0 -16 6.5t7 13.5l132 103q17 15 24.5 18t25.5 3h10q15 0 21.5 -3.5t18.5 -17.5l95 -103q7 -7 3 -13.5t-18 -6.5h-31q-27 0 -36 14l-66 72l-92 -72q-17 -14 -40 -14zM324 531q106 0 157 -52.5t35 -143.5l-28 -163q-16 -90 -82 -138.5t-174 -48.5
q-105 0 -156.5 52t-36.5 142l29 163q16 89 83.5 139t172.5 50zM399 176l29 164q9 52 -21.5 81t-94.5 29q-63 0 -104 -29t-51 -81l-28 -164q-10 -52 21 -81t94 -29q64 0 104.5 29t50.5 81z" />
    <glyph glyph-name="otilde" unicode="&#xf5;" horiz-adv-x="541" 
d="M468 714h25q17 0 12 -15q-9 -55 -32.5 -80t-65.5 -25q-31 0 -71 31t-58 31q-32 0 -40 -47q-3 -15 -17 -15h-26q-16 0 -13 15q18 105 98 105q38 0 73 -31q37 -32 57 -32q34 0 41 48q3 15 17 15zM39 179l29 163q16 89 83.5 139t172.5 50q106 0 157 -52.5t35 -143.5
l-28 -163q-16 -90 -82 -138.5t-174 -48.5q-105 0 -156.5 52t-36.5 142zM399 176l29 164q9 52 -21.5 81t-94.5 29q-63 0 -104 -29t-51 -81l-28 -164q-10 -52 21 -81t94 -29q64 0 104.5 29t50.5 81z" />
    <glyph glyph-name="odieresis" unicode="&#xf6;" horiz-adv-x="541" 
d="M253 697h7q24 0 31.5 -9t2.5 -32l-1 -9q-5 -24 -15 -32.5t-34 -8.5h-7q-23 0 -30.5 9t-3.5 32l1 9q4 23 15 32t34 9zM451 697h6q23 0 30.5 -9t3.5 -32l-2 -9q-4 -23 -14.5 -32t-33.5 -9h-7q-24 0 -31.5 9t-3.5 32l2 9q4 23 14.5 32t35.5 9zM39 179l29 163q16 89 83.5 139
t172.5 50q106 0 157 -52.5t35 -143.5l-28 -163q-16 -90 -82 -138.5t-174 -48.5q-105 0 -156.5 52t-36.5 142zM399 176l29 164q9 52 -21.5 81t-94.5 29q-63 0 -104 -29t-51 -81l-28 -164q-10 -52 21 -81t94 -29q64 0 104.5 29t50.5 81z" />
    <glyph glyph-name="divide" unicode="&#xf7;" horiz-adv-x="567" 
d="M330 570h6q29 0 38 -10.5t4 -39.5l-2 -8q-4 -28 -17 -39.5t-42 -11.5h-7q-28 0 -37 11t-4 40l1 8q5 29 18 39.5t42 10.5zM88 368h419q14 0 19 -5.5t3 -20.5l-6 -34q-5 -26 -31 -26h-419q-15 0 -19.5 5.5t-1.5 20.5l5 34q3 15 9.5 20.5t21.5 5.5zM263 190h7q28 0 37 -11
t4 -40l-1 -8q-5 -29 -18 -39.5t-42 -10.5h-6q-29 0 -38 10.5t-4 39.5l1 8q5 29 18.5 40t41.5 11z" />
    <glyph glyph-name="oslash" unicode="&#xf8;" horiz-adv-x="541" 
d="M493 552h37q8 0 2 -9l-56 -69q47 -53 32 -139l-29 -163q-16 -90 -82 -138.5t-174 -48.5q-70 0 -120 26l-32 -38q-8 -8 -19 -8h-35q-11 0 -3 9l52 63q-50 53 -35 142l29 163q16 89 83 139t173 50q75 0 125 -29l35 42q8 8 17 8zM131 118l253 313q-31 19 -81 19
q-63 0 -103.5 -29t-50.5 -81l-29 -164q-6 -34 11 -58zM408 389l-248 -306q29 -17 75 -17q64 0 105.5 29t50.5 81l28 161q5 31 -11 52z" />
    <glyph glyph-name="ugrave" unicode="&#xf9;" horiz-adv-x="550" 
d="M253 699l23 23q18 18 44 2l138 -96q13 -9 -3 -25l-12 -14q-10 -10 -31 -1l-160 83q-11 6 -10.5 11.5t11.5 16.5zM479 516h42q23 0 19 -24l-73 -417q-5 -24 -14.5 -35t-33.5 -21q-96 -34 -197 -34q-100 0 -142 53t-26 152l54 302q4 24 28 24h42q13 0 17 -5t2 -19l-54 -306
q-21 -119 105 -119q57 0 116 17q16 7 19 23l67 385q4 24 29 24z" />
    <glyph glyph-name="uacute" unicode="&#xfa;" horiz-adv-x="550" 
d="M240 629l171 95q33 15 45 -2l15 -24q14 -20 -8 -27l-190 -84q-24 -7 -31 1l-8 15q-11 17 6 26zM479 516h42q23 0 19 -24l-73 -417q-5 -24 -14.5 -35t-33.5 -21q-96 -34 -197 -34q-100 0 -142 53t-26 152l54 302q4 24 28 24h42q13 0 17 -5t2 -19l-54 -306
q-21 -119 105 -119q57 0 116 17q16 7 19 23l67 385q4 24 29 24z" />
    <glyph glyph-name="ucircumflex" unicode="&#xfb;" horiz-adv-x="550" 
d="M362 725h10q15 0 21.5 -3.5t18.5 -17.5l95 -103q7 -7 3 -13.5t-18 -6.5h-31q-27 0 -36 14l-66 72l-92 -72q-17 -14 -40 -14h-38q-14 0 -16 6.5t7 13.5l132 103q17 15 24.5 18t25.5 3zM479 516h42q23 0 19 -24l-73 -417q-5 -24 -14.5 -35t-33.5 -21q-96 -34 -197 -34
q-100 0 -142 53t-26 152l54 302q4 24 28 24h42q13 0 17 -5t2 -19l-54 -306q-21 -119 105 -119q57 0 116 17q16 7 19 23l67 385q4 24 29 24z" />
    <glyph glyph-name="udieresis" unicode="&#xfc;" horiz-adv-x="550" 
d="M258 697h7q24 0 31.5 -9t2.5 -32l-1 -9q-5 -24 -15 -32.5t-34 -8.5h-7q-23 0 -30.5 9t-3.5 32l1 9q4 23 15 32t34 9zM456 697h6q23 0 30.5 -9t3.5 -32l-2 -9q-4 -23 -14.5 -32t-33.5 -9h-7q-24 0 -31.5 9t-3.5 32l2 9q4 23 14.5 32t35.5 9zM479 516h42q23 0 19 -24
l-73 -417q-5 -24 -14.5 -35t-33.5 -21q-96 -34 -197 -34q-100 0 -142 53t-26 152l54 302q4 24 28 24h42q13 0 17 -5t2 -19l-54 -306q-21 -119 105 -119q57 0 116 17q16 7 19 23l67 385q4 24 29 24z" />
    <glyph glyph-name="yacute" unicode="&#xfd;" horiz-adv-x="552" 
d="M236 629l172 95q32 15 44 -2l15 -24q14 -20 -8 -27l-190 -84q-24 -9 -30 1l-9 15q-11 17 6 26zM475 516h42q25 0 19 -24l-91 -517q-37 -216 -253 -216q-143 0 -183 103q-13 25 16 39l30 14q15 7 22.5 5t14.5 -14q25 -67 112 -67q127 0 151 132l10 54q-83 -21 -144 -21
q-100 0 -142 53.5t-24 151.5l49 283q4 24 28 24h42q25 0 19 -24l-50 -287q-22 -119 105 -119q60 0 131 21l68 385q5 24 28 24z" />
    <glyph glyph-name="thorn" unicode="&#xfe;" horiz-adv-x="541" 
d="M-23 -196l161 912q5 23 28 23h42q13 0 17 -5t2 -18l-37 -210q74 21 138 21q104 0 147.5 -52.5t25.5 -151.5l-24 -138q-35 -200 -249 -200q-52 0 -124 27l-37 -208q-5 -24 -29 -24h-42q-23 0 -19 24zM388 191l24 133q21 122 -110 122q-49 0 -127 -24l-57 -330
q65 -25 118 -25q130 0 152 124z" />
    <glyph glyph-name="ydieresis" unicode="&#xff;" horiz-adv-x="552" 
d="M255 697h6q24 0 31.5 -8.5t3.5 -32.5l-2 -9q-5 -24 -15 -32.5t-34 -8.5h-6q-24 0 -31.5 9t-3.5 32l2 9q4 23 14.5 32t34.5 9zM452 697h6q24 0 31.5 -9t2.5 -32l-1 -9q-5 -24 -15 -32.5t-34 -8.5h-6q-24 0 -31.5 9t-3.5 32l1 9q4 23 15 32t35 9zM475 516h42q25 0 19 -24
l-91 -517q-37 -216 -253 -216q-143 0 -183 103q-13 25 16 39l30 14q15 7 22.5 5t14.5 -14q25 -67 112 -67q127 0 151 132l10 54q-83 -21 -144 -21q-100 0 -142 53.5t-24 151.5l49 283q4 24 28 24h42q25 0 19 -24l-50 -287q-22 -119 105 -119q60 0 131 21l68 385q5 24 28 24z
" />
    <glyph glyph-name="Amacron" unicode="&#x100;" 
d="M320 859h234q13 0 17 -4.5t2 -17.5l-4 -20q-2 -14 -7.5 -18.5t-18.5 -4.5h-234q-13 0 -17 4.5t-2 18.5l4 20q4 22 26 22zM461 691l142 -665q5 -26 -22 -26h-36q-25 0 -33.5 4.5t-10.5 18.5l-33 163h-296l-91 -163q-8 -14 -18 -18.5t-34 -4.5h-39q-28 0 -13 26l377 664
q12 22 37 22h40q15 0 21.5 -4.5t8.5 -16.5zM455 265l-54 263q-7 75 -2 91v3h-5q-10 -48 -34 -93l-146 -264h241z" />
    <glyph glyph-name="amacron" unicode="&#x101;" horiz-adv-x="535" 
d="M242 682h234q13 0 17 -4.5t2 -17.5l-4 -20q-1 -23 -26 -23h-234q-13 0 -16.5 4.5t-1.5 18.5l3 20q4 22 26 22zM43 198l25 140q18 101 78.5 147t174.5 46q107 0 170 -31q22 -11 27 -21t1 -34l-71 -402q-2 -14 -8.5 -20t-21.5 -10q-96 -28 -205 -28q-99 0 -143.5 57.5
t-26.5 155.5zM412 434q-47 15 -98 15q-72 0 -109.5 -28.5t-49.5 -94.5l-24 -135q-10 -60 16.5 -92t86.5 -32q71 0 132 19l58 327q1 9 -1 12.5t-11 8.5z" />
    <glyph glyph-name="Abreve" unicode="&#x102;" 
d="M592 867q-52 -105 -171 -105q-58 0 -93 27t-42 78q-2 17 15 23l33 11q20 6 22 -8q8 -66 76 -66q67 0 98 66q9 14 23 9l32 -12q15 -7 7 -23zM461 691l142 -665q5 -26 -22 -26h-36q-25 0 -33.5 4.5t-10.5 18.5l-33 163h-296l-91 -163q-8 -14 -18 -18.5t-34 -4.5h-39
q-28 0 -13 26l377 664q12 22 37 22h40q15 0 21.5 -4.5t8.5 -16.5zM455 265l-54 263q-7 75 -2 91v3h-5q-10 -48 -34 -93l-146 -264h241z" />
    <glyph glyph-name="abreve" unicode="&#x103;" horiz-adv-x="535" 
d="M515 690q-54 -106 -168 -106q-58 0 -94.5 27.5t-43.5 78.5q-3 17 15 22l30 10q18 6 23 -8q6 -65 77 -65q66 0 99 66q8 15 22 10l33 -13q14 -7 7 -22zM43 198l25 140q18 101 78.5 147t174.5 46q107 0 170 -31q22 -11 27 -21t1 -34l-71 -402q-2 -14 -8.5 -20t-21.5 -10
q-96 -28 -205 -28q-99 0 -143.5 57.5t-26.5 155.5zM412 434q-47 15 -98 15q-72 0 -109.5 -28.5t-49.5 -94.5l-24 -135q-10 -60 16.5 -92t86.5 -32q71 0 132 19l58 327q1 9 -1 12.5t-11 8.5z" />
    <glyph glyph-name="Aogonek" unicode="&#x104;" 
d="M391 712h40q15 0 21.5 -4.5t8.5 -16.5l142 -665q3 -14 -5 -22q-55 -45 -83.5 -88.5t-25.5 -69.5q5 -26 28 -26q22 0 43 18q12 8 14 -4l8 -32q3 -11 -5 -17q-35 -31 -98 -31q-31 0 -51 16.5t-22 46.5q-8 88 127 185q-17 1 -23.5 6t-8.5 17l-33 161h-296l-91 -163
q-8 -14 -18 -18.5t-34 -4.5h-39q-28 0 -13 26l377 664q12 22 37 22zM455 265l-54 263q-7 75 -2 91v3h-5q-10 -48 -34 -93l-146 -264h241z" />
    <glyph glyph-name="aogonek" unicode="&#x105;" horiz-adv-x="536" 
d="M43 198l25 140q18 101 78.5 147t174.5 46q107 0 170 -31q22 -11 27 -21t1 -34l-71 -402q-3 -16 -10 -20q-57 -51 -87.5 -100t-27.5 -77q5 -26 28 -26q22 0 43 18q12 7 15 -4l7 -32q3 -11 -5 -17q-35 -31 -98 -31q-31 0 -51 16.5t-22 46.5q-7 83 118 183q-74 -15 -145 -15
q-99 0 -143.5 57.5t-26.5 155.5zM412 434q-47 15 -98 15q-72 0 -109.5 -28.5t-49.5 -94.5l-24 -135q-10 -60 16.5 -92t86.5 -32q71 0 132 19l58 327q1 9 -1 12.5t-11 8.5z" />
    <glyph glyph-name="Cacute" unicode="&#x106;" horiz-adv-x="635" 
d="M339 805l172 95q32 17 44 -1l15 -24q14 -20 -8 -28l-190 -83q-23 -9 -30 1l-9 15q-6 10 -5 15t11 10zM65 246l40 228q21 120 104.5 185.5t217.5 65.5q210 0 234 -172q3 -14 -1 -21.5t-20 -12.5l-38 -12q-15 -5 -21.5 -1.5t-9.5 17.5q-9 58 -46.5 85t-110.5 27
q-90 0 -144.5 -43t-67.5 -122l-41 -229q-14 -80 26 -122.5t128 -42.5q74 0 121 27.5t77 85.5q14 26 37 17l41 -16q24 -11 11 -34q-86 -171 -300 -171q-132 0 -195 70t-42 191z" />
    <glyph glyph-name="cacute" unicode="&#x107;" horiz-adv-x="511" 
d="M222 629l172 95q32 15 44 -2l15 -24q14 -20 -8 -27l-190 -84q-24 -9 -31 1l-8 15q-11 17 6 26zM42 192l26 144q33 195 253 195q166 0 187 -134q5 -26 -20 -34l-31 -11q-27 -9 -31 16q-17 84 -118 84q-129 0 -152 -119l-26 -150q-11 -56 17 -87.5t92 -31.5q102 0 147 87
q12 26 37 16l33 -11q23 -9 10 -34q-74 -137 -239 -137q-107 0 -154.5 55t-30.5 152z" />
    <glyph glyph-name="Ccircumflex" unicode="&#x108;" horiz-adv-x="635" 
d="M462 905h10q16 0 22 -3t18 -18l95 -103q14 -20 -15 -20h-32q-26 0 -37 14l-65 71l-93 -71q-17 -14 -40 -14h-36q-31 0 -8 20l131 103q17 15 24.5 18t25.5 3zM65 246l40 228q21 120 104.5 185.5t217.5 65.5q210 0 234 -172q3 -14 -1 -21.5t-20 -12.5l-38 -12
q-15 -5 -21.5 -1.5t-9.5 17.5q-9 58 -46.5 85t-110.5 27q-90 0 -144.5 -43t-67.5 -122l-41 -229q-14 -80 26 -122.5t128 -42.5q74 0 121 27.5t77 85.5q14 26 37 17l41 -16q24 -11 11 -34q-86 -171 -300 -171q-132 0 -195 70t-42 191z" />
    <glyph glyph-name="ccircumflex" unicode="&#x109;" horiz-adv-x="511" 
d="M209 581h-38q-14 0 -16 6.5t8 13.5l131 103q18 15 25.5 18t24.5 3h10q15 0 21.5 -3.5t18.5 -17.5l95 -103q7 -7 3 -13.5t-18 -6.5h-31q-25 0 -36 14l-66 72l-92 -72q-17 -14 -40 -14zM508 397q5 -26 -20 -34l-31 -11q-27 -9 -31 16q-17 84 -118 84q-129 0 -152 -119
l-26 -150q-11 -56 17 -87.5t92 -31.5q102 0 147 87q12 26 37 16l33 -11q23 -9 10 -34q-74 -137 -239 -137q-107 0 -154.5 55t-30.5 152l26 144q33 195 253 195q166 0 187 -134z" />
    <glyph glyph-name="Cdotaccent" unicode="&#x10a;" horiz-adv-x="635" 
d="M456 874h6q25 0 32.5 -9t3.5 -34l-2 -7q-4 -25 -14.5 -34t-35.5 -9h-6q-25 0 -32 9t-3 34l2 7q4 25 14 34t35 9zM65 246l40 228q21 120 104.5 185.5t217.5 65.5q210 0 234 -172q3 -14 -1 -21.5t-20 -12.5l-38 -12q-15 -5 -21.5 -1.5t-9.5 17.5q-9 58 -46.5 85t-110.5 27
q-90 0 -144.5 -43t-67.5 -122l-41 -229q-14 -80 26 -122.5t128 -42.5q74 0 121 27.5t77 85.5q14 26 37 17l41 -16q24 -11 11 -34q-86 -171 -300 -171q-132 0 -195 70t-42 191z" />
    <glyph glyph-name="cdotaccent" unicode="&#x10b;" horiz-adv-x="511" 
d="M339 696h5q25 0 32.5 -9t3.5 -34l-1 -7q-4 -25 -15 -34t-36 -9h-5q-25 0 -32.5 9t-2.5 34l1 7q5 25 15.5 34t34.5 9zM42 192l26 144q33 195 253 195q166 0 187 -134q5 -26 -20 -34l-31 -11q-27 -9 -31 16q-17 84 -118 84q-129 0 -152 -119l-26 -150q-11 -56 17 -87.5
t92 -31.5q102 0 147 87q12 26 37 16l33 -11q23 -9 10 -34q-74 -137 -239 -137q-107 0 -154.5 55t-30.5 152z" />
    <glyph glyph-name="Ccaron" unicode="&#x10c;" horiz-adv-x="635" 
d="M580 904h35q14 0 15.5 -6t-8.5 -14l-130 -103q-25 -21 -48 -21h-10q-17 0 -23.5 3t-18.5 18l-95 103q-7 8 -3 14t18 6h33q16 0 21.5 -2.5t12.5 -11.5l67 -71l92 71q16 14 42 14zM65 246l40 228q21 120 104.5 185.5t217.5 65.5q210 0 234 -172q3 -14 -1 -21.5t-20 -12.5
l-38 -12q-15 -5 -21.5 -1.5t-9.5 17.5q-9 58 -46.5 85t-110.5 27q-90 0 -144.5 -43t-67.5 -122l-41 -229q-14 -80 26 -122.5t128 -42.5q74 0 121 27.5t77 85.5q14 26 37 17l41 -16q24 -11 11 -34q-86 -171 -300 -171q-132 0 -195 70t-42 191z" />
    <glyph glyph-name="ccaron" unicode="&#x10d;" horiz-adv-x="511" 
d="M274 601l-95 103q-6 8 -2.5 14t17.5 6h32q25 0 34 -14l68 -71l91 71q16 14 41 14h37q14 0 15.5 -6t-8.5 -14l-131 -103q-17 -14 -24.5 -17.5t-21.5 -3.5h-9q-18 0 -25 3t-19 18zM321 531q166 0 187 -134q5 -26 -20 -34l-31 -11q-27 -9 -31 16q-17 84 -118 84
q-129 0 -152 -119l-26 -150q-11 -56 17 -87.5t92 -31.5q102 0 147 87q12 26 37 16l33 -11q23 -9 10 -34q-74 -137 -239 -137q-107 0 -154.5 55t-30.5 152l26 144q33 195 253 195z" />
    <glyph glyph-name="Dcaron" unicode="&#x10e;" horiz-adv-x="659" 
d="M536 904h35q30 0 8 -20l-131 -103q-17 -14 -25 -17.5t-23 -3.5h-10q-17 0 -23.5 3t-18.5 18l-95 103q-7 8 -2.5 14t18.5 6h33q15 0 20.5 -2t13.5 -12l67 -71l92 71q14 14 41 14zM175 710h217q136 0 200.5 -73.5t42.5 -198.5l-32 -182q-22 -123 -107.5 -189.5
t-223.5 -66.5h-222q-15 0 -19.5 6t-2.5 20l116 658q5 26 31 26zM508 263l32 184q14 83 -28 128t-135 45h-147l-94 -530h148q93 0 151 45t73 128z" />
    <glyph glyph-name="dcaron" unicode="&#x10f;" horiz-adv-x="597" 
d="M44 195l25 140q34 196 237 196q58 0 136 -22l37 207q5 24 28 24h42q13 0 17 -5t2 -19l-114 -645q-5 -25 -14 -35t-35 -20q-84 -31 -184 -31q-106 0 -150.5 55t-26.5 155zM741 716l-76 -185q-3 -8 -4 -10t-4 -6t-6.5 -5t-9.5 -1h-23q-11 0 -14 3.5t-1 13.5l55 190
q4 15 9 19.5t19 4.5h33q33 0 22 -24zM371 102l57 325q-67 22 -119 22q-130 0 -153 -125l-24 -135q-21 -122 111 -122q63 0 111 16q14 6 17 19z" />
    <glyph glyph-name="Dcroat" unicode="&#x110;" horiz-adv-x="672" 
d="M187 710h217q136 0 201 -74q64 -75 42 -199l-32 -182q-22 -123 -108.5 -189t-227.5 -66h-217q-15 0 -19.5 6t-2.5 20l54 306h-67q-17 0 -13 17l5 29q3 17 20 17h67l50 289q5 26 31 26zM520 263l32 184q29 173 -163 173h-147l-40 -225h155q17 0 12 -17l-5 -29
q-2 -17 -19 -17h-154l-43 -242h148q93 0 151 45t73 128z" />
    <glyph glyph-name="dslash" unicode="&#x111;" horiz-adv-x="539" 
d="M558 660h61q10 0 12.5 -3.5t0.5 -13.5l-4 -22q-2 -17 -19 -17h-61l-94 -533q-5 -25 -14 -35t-35 -20q-84 -31 -184 -31q-106 0 -150.5 54t-27.5 154l26 140q33 197 237 197q61 0 136 -21l17 95h-138q-9 0 -12 3.5t-2 13.5l4 22q5 17 20 17h138l10 56q5 24 28 24h42
q13 0 17 -5t2 -19zM371 102l57 325q-59 22 -119 22q-68 0 -104.5 -30t-48.5 -95l-24 -135q-21 -122 111 -122q63 0 111 16q14 6 17 19z" />
    <glyph glyph-name="Emacron" unicode="&#x112;" horiz-adv-x="576" 
d="M286 859h234q13 0 17 -4.5t1 -17.5l-3 -20q-4 -23 -26 -23h-234q-13 0 -17 4.5t-2 18.5l3 20q4 22 27 22zM175 710h402q14 0 19 -6t3 -20l-7 -38q-5 -26 -31 -26h-331l-38 -215h285q15 0 19.5 -6t2.5 -21l-7 -37q-5 -26 -31 -26h-286l-39 -225h344q14 0 19 -6t2 -20
l-6 -38q-5 -26 -31 -26h-414q-15 0 -19.5 6t-2.5 20l116 658q5 26 31 26z" />
    <glyph glyph-name="emacron" unicode="&#x113;" horiz-adv-x="526" 
d="M460 617h-234q-13 0 -17 4.5t-2 18.5l4 20q4 22 26 22h234q13 0 17 -4.5t2 -17.5l-4 -20q-4 -23 -26 -23zM329 531q103 0 155 -49.5t35 -132.5q-29 -137 -240 -137q-60 0 -142 14l-8 -43q-10 -58 18.5 -89t94.5 -31q98 0 151 66q21 24 41 10l24 -16q22 -15 2 -39
q-76 -99 -232 -99q-109 0 -156 59t-28 158l22 125q18 98 86.5 151t176.5 53zM432 360q10 46 -20 70.5t-96 24.5q-64 0 -107 -34t-54 -94l-6 -31q72 -15 142 -15q123 0 141 79z" />
    <glyph glyph-name="Ebreve" unicode="&#x114;" horiz-adv-x="576" 
d="M558 867q-52 -105 -172 -105q-117 0 -134 105q-1 16 14 23l34 11q18 4 22 -8q8 -66 75 -66t99 66q9 13 22 9l33 -12q14 -8 7 -23zM175 710h402q14 0 19 -6t3 -20l-7 -38q-5 -26 -31 -26h-331l-38 -215h285q15 0 19.5 -6t2.5 -21l-7 -37q-5 -26 -31 -26h-286l-39 -225h344
q14 0 19 -6t2 -20l-6 -38q-5 -26 -31 -26h-414q-15 0 -19.5 6t-2.5 20l116 658q5 26 31 26z" />
    <glyph glyph-name="ebreve" unicode="&#x115;" horiz-adv-x="526" 
d="M509 690q-52 -106 -168 -106q-58 0 -94 27.5t-43 78.5q-4 16 14 22l30 10q18 6 23 -8q8 -65 77 -65q67 0 100 66q8 14 21 10l34 -13q13 -6 6 -22zM44 202l22 125q18 98 86.5 151t176.5 53q103 0 155 -49.5t35 -132.5q-29 -137 -240 -137q-60 0 -142 14l-8 -43
q-10 -58 18.5 -89t94.5 -31q98 0 151 66q21 24 41 10l24 -16q22 -15 2 -39q-76 -99 -232 -99q-109 0 -156 59t-28 158zM432 360q10 46 -20 70.5t-96 24.5q-64 0 -107 -34t-54 -94l-6 -31q72 -15 142 -15q123 0 141 79z" />
    <glyph glyph-name="Edotaccent" unicode="&#x116;" horiz-adv-x="576" 
d="M403 874h5q25 0 32.5 -9t3.5 -34l-2 -7q-4 -25 -14.5 -34t-35.5 -9h-6q-25 0 -32 9t-3 34l2 7q4 25 14.5 34t35.5 9zM175 710h402q14 0 19 -6t3 -20l-7 -38q-5 -26 -31 -26h-331l-38 -215h285q15 0 19.5 -6t2.5 -21l-7 -37q-5 -26 -31 -26h-286l-39 -225h344q14 0 19 -6
t2 -20l-6 -38q-5 -26 -31 -26h-414q-15 0 -19.5 6t-2.5 20l116 658q5 26 31 26z" />
    <glyph glyph-name="edotaccent" unicode="&#x117;" horiz-adv-x="526" 
d="M354 696h5q25 0 32.5 -9t3.5 -34l-2 -6q-4 -25 -14.5 -34t-35.5 -9h-5q-25 0 -32.5 9t-3.5 34l2 6q4 25 14.5 34t35.5 9zM44 202l22 125q18 98 86.5 151t176.5 53q103 0 155 -49.5t35 -132.5q-29 -137 -240 -137q-60 0 -142 14l-8 -43q-10 -58 18.5 -89t94.5 -31
q98 0 151 66q21 24 41 10l24 -16q22 -15 2 -39q-76 -99 -232 -99q-109 0 -156 59t-28 158zM432 360q10 46 -20 70.5t-96 24.5q-64 0 -107 -34t-54 -94l-6 -31q72 -15 142 -15q123 0 141 79z" />
    <glyph glyph-name="Eogonek" unicode="&#x118;" horiz-adv-x="576" 
d="M175 710h402q14 0 19 -6t3 -20l-7 -38q-5 -26 -31 -26h-331l-38 -215h285q15 0 19.5 -6t2.5 -21l-7 -37q-5 -26 -31 -26h-286l-39 -225h344q14 0 19 -6t2 -20l-6 -38q-5 -15 -11 -21q-119 -104 -112 -159q5 -26 28 -26q22 0 43 18q12 7 15 -4l7 -32q3 -11 -5 -17
q-35 -31 -98 -31q-31 0 -51 16.5t-22 46.5q-7 85 129 183h-368q-15 0 -19.5 6t-2.5 20l116 658q5 26 31 26z" />
    <glyph glyph-name="eogonek" unicode="&#x119;" horiz-adv-x="526" 
d="M44 202l22 125q18 98 86.5 151t176.5 53q103 0 155 -49.5t35 -132.5q-29 -137 -240 -137q-60 0 -142 14l-8 -43q-10 -58 18.5 -89t94.5 -31q98 0 151 66q21 24 41 10l24 -16q22 -15 2 -39q-18 -25 -40 -40q-64 -63 -99 -117.5t-31 -79.5q3 -26 28 -26q23 0 43 17
q11 6 14 -4l8 -32q3 -11 -5 -17q-37 -31 -99 -31q-31 0 -51 17t-21 46q-5 84 107 178q-40 -10 -86 -10q-109 0 -156 59t-28 158zM291 281q123 0 141 79q10 46 -20 70.5t-96 24.5q-64 0 -107 -34t-54 -94l-6 -31q72 -15 142 -15z" />
    <glyph glyph-name="Ecaron" unicode="&#x11a;" horiz-adv-x="576" 
d="M526 904h35q14 0 15.5 -6t-8.5 -14l-130 -103q-25 -21 -48 -21h-10q-17 0 -23.5 3t-18.5 18l-95 103q-7 8 -3 14t18 6h33q16 0 21.5 -2.5t12.5 -11.5l68 -71l91 71q16 14 42 14zM175 710h402q14 0 19 -6t3 -20l-7 -38q-5 -26 -31 -26h-331l-38 -215h285q15 0 19.5 -6
t2.5 -21l-7 -37q-5 -26 -31 -26h-286l-39 -225h344q14 0 19 -6t2 -20l-6 -38q-5 -26 -31 -26h-414q-15 0 -19.5 6t-2.5 20l116 658q5 26 31 26z" />
    <glyph glyph-name="ecaron" unicode="&#x11b;" horiz-adv-x="526" 
d="M289 602l-95 103q-7 7 -3 13t18 6h32q24 0 34 -13l68 -71l91 71q13 13 41 13h36q30 0 8 -20l-131 -102q-17 -15 -24.5 -18.5t-22.5 -3.5h-9q-17 0 -23.5 3.5t-19.5 18.5zM329 531q103 0 155 -49.5t35 -132.5q-29 -137 -240 -137q-60 0 -142 14l-8 -43q-10 -58 18.5 -89
t94.5 -31q98 0 151 66q21 24 41 10l24 -16q22 -15 2 -39q-76 -99 -232 -99q-109 0 -156 59t-28 158l22 125q18 98 86.5 151t176.5 53zM432 360q10 46 -20 70.5t-96 24.5q-64 0 -107 -34t-54 -94l-6 -31q72 -15 142 -15q123 0 141 79z" />
    <glyph glyph-name="Gcircumflex" unicode="&#x11c;" horiz-adv-x="656" 
d="M460 915h10q15 0 21.5 -3.5t18.5 -17.5l95 -103q14 -20 -16 -20h-31q-26 0 -37 14l-65 71l-94 -71q-16 -14 -39 -14h-36q-29 0 -9 20l132 103q17 15 24.5 18t25.5 3zM378 378h243q15 0 19.5 -6t1.5 -21l-23 -134q-19 -109 -103 -170.5t-216 -61.5t-194 70.5t-41 192.5
l40 228q21 120 104.5 184.5t218.5 64.5q208 0 234 -171q3 -14 -1 -21.5t-19 -12.5l-41 -13q-27 -9 -31 16q-9 58 -46.5 85t-110.5 27q-89 0 -143.5 -43t-68.5 -122l-40 -229q-14 -79 25.5 -122.5t128.5 -43.5q86 0 142 40t68 108l11 65h-174q-14 0 -18.5 5.5t-2.5 20.5l6 38
q5 26 31 26z" />
    <glyph glyph-name="gcircumflex" unicode="&#x11d;" horiz-adv-x="538" 
d="M224 581h-38q-14 0 -16 6.5t7 13.5l132 103q17 15 24.5 18t25.5 3h10q15 0 21.5 -3.5t18.5 -17.5l95 -103q7 -7 3 -13.5t-18 -6.5h-31q-27 0 -36 14l-66 72l-92 -72q-17 -14 -40 -14zM487 500q22 -11 27 -21t1 -34l-84 -473q-37 -213 -250 -213q-144 0 -184 103
q-12 26 16 39l30 14q15 7 22.5 5t14.5 -14q25 -67 111 -67q127 0 151 132l10 57q-81 -25 -141 -25q-100 0 -144 56t-26 154l22 122q17 101 79.5 148.5t174.5 47.5q107 0 170 -31zM366 107l54 307q2 9 0 12.5t-11 7.5q-45 15 -99 15q-137 0 -160 -127l-21 -117
q-19 -120 104 -120q52 0 133 22z" />
    <glyph glyph-name="Gbreve" unicode="&#x11e;" horiz-adv-x="656" 
d="M610 877q-54 -105 -172 -105q-58 0 -92.5 27t-41.5 78q-3 17 14 23l33 11q21 5 22 -8q9 -66 76 -66t98 66q9 14 23 9l32 -12q9 -5 10.5 -9t-2.5 -14zM378 378h243q15 0 19.5 -6t1.5 -21l-23 -134q-19 -109 -103 -170.5t-216 -61.5t-194 70.5t-41 192.5l40 228
q21 120 104.5 184.5t218.5 64.5q208 0 234 -171q3 -14 -1 -21.5t-19 -12.5l-41 -13q-27 -9 -31 16q-9 58 -46.5 85t-110.5 27q-89 0 -143.5 -43t-68.5 -122l-40 -229q-14 -79 25.5 -122.5t128.5 -43.5q86 0 142 40t68 108l11 65h-174q-14 0 -18.5 5.5t-2.5 20.5l6 38
q5 26 31 26z" />
    <glyph glyph-name="gbreve" unicode="&#x11f;" horiz-adv-x="538" 
d="M509 689q-53 -105 -168 -105q-59 0 -94.5 27t-42.5 78q-4 15 14 23l30 10q19 6 23 -9q7 -64 77 -64q67 0 100 66q8 13 21 9l34 -12q13 -7 6 -23zM41 213l22 122q17 101 79.5 148.5t174.5 47.5q107 0 170 -31q22 -11 27 -21t1 -34l-84 -473q-37 -213 -250 -213
q-144 0 -184 103q-12 26 16 39l30 14q15 7 22.5 5t14.5 -14q25 -67 111 -67q127 0 151 132l10 57q-81 -25 -141 -25q-100 0 -144 56t-26 154zM409 434q-45 15 -99 15q-137 0 -160 -127l-21 -117q-19 -120 104 -120q52 0 133 22l54 307q2 9 0 12.5t-11 7.5z" />
    <glyph glyph-name="Gdotaccent" unicode="&#x120;" horiz-adv-x="656" 
d="M454 884h5q25 0 32.5 -9t3.5 -34l-1 -7q-4 -25 -15 -34t-36 -9h-5q-25 0 -32.5 9t-2.5 34l1 7q5 25 15.5 34t34.5 9zM378 378h243q15 0 19.5 -6t1.5 -21l-23 -134q-19 -109 -103 -170.5t-216 -61.5t-194 70.5t-41 192.5l40 228q21 120 104.5 184.5t218.5 64.5
q208 0 234 -171q3 -14 -1 -21.5t-19 -12.5l-41 -13q-27 -9 -31 16q-9 58 -46.5 85t-110.5 27q-89 0 -143.5 -43t-68.5 -122l-40 -229q-14 -79 25.5 -122.5t128.5 -43.5q86 0 142 40t68 108l11 65h-174q-14 0 -18.5 5.5t-2.5 20.5l6 38q5 26 31 26z" />
    <glyph glyph-name="gdotaccent" unicode="&#x121;" horiz-adv-x="538" 
d="M354 696h5q25 0 32.5 -9t3.5 -34l-2 -7q-4 -25 -14.5 -34t-35.5 -9h-5q-25 0 -32.5 9t-3.5 34l2 7q4 25 14.5 34t35.5 9zM41 213l22 122q17 101 79.5 148.5t174.5 47.5q107 0 170 -31q22 -11 27 -21t1 -34l-84 -473q-37 -213 -250 -213q-144 0 -184 103q-12 26 16 39
l30 14q15 7 22.5 5t14.5 -14q25 -67 111 -67q127 0 151 132l10 57q-81 -25 -141 -25q-100 0 -144 56t-26 154zM409 434q-45 15 -99 15q-137 0 -160 -127l-21 -117q-19 -120 104 -120q52 0 133 22l54 307q2 9 0 12.5t-11 7.5z" />
    <glyph glyph-name="Gcommaaccent" unicode="&#x122;" horiz-adv-x="656" 
d="M378 378h243q15 0 19.5 -6t1.5 -21l-23 -134q-19 -109 -103 -170.5t-216 -61.5t-194 70.5t-41 192.5l40 228q21 120 104.5 184.5t218.5 64.5q208 0 234 -171q3 -14 -1 -21.5t-19 -12.5l-41 -13q-27 -9 -31 16q-9 58 -46.5 85t-110.5 27q-89 0 -143.5 -43t-68.5 -122
l-40 -229q-14 -79 25.5 -122.5t128.5 -43.5q86 0 142 40t68 108l11 65h-174q-14 0 -18.5 5.5t-2.5 20.5l6 38q5 26 31 26zM348 -92l-71 -138q-11 -23 -32 -23h-28q-11 0 -13.5 3.5t0.5 14.5l53 143q4 15 11 20t22 5h40q31 0 18 -25z" />
    <glyph glyph-name="gcommaaccent" unicode="&#x123;" horiz-adv-x="538" 
d="M284 611l68 117q7 13 12 16t18 3h24q22 0 16 -18l-53 -118q-5 -18 -10.5 -23t-20.5 -5h-33q-31 0 -21 28zM41 213l22 122q17 101 79.5 148.5t174.5 47.5q107 0 170 -31q22 -11 27 -21t1 -34l-84 -473q-37 -213 -250 -213q-144 0 -184 103q-12 26 16 39l30 14q15 7 22.5 5
t14.5 -14q25 -67 111 -67q127 0 151 132l10 57q-81 -25 -141 -25q-100 0 -144 56t-26 154zM409 434q-45 15 -99 15q-137 0 -160 -127l-21 -117q-19 -120 104 -120q52 0 133 22l54 307q2 9 0 12.5t-11 7.5z" />
    <glyph glyph-name="Hcircumflex" unicode="&#x124;" horiz-adv-x="685" 
d="M448 905h10q15 0 21.5 -3.5t18.5 -17.5l95 -103q14 -20 -15 -20h-32q-26 0 -37 14l-65 71l-93 -71q-17 -14 -40 -14h-36q-31 0 -8 20l131 103q17 15 24.5 18t25.5 3zM614 710h44q14 0 19 -6t3 -20l-116 -658q-5 -26 -31 -26h-44q-15 0 -19.5 6t-2.5 20l51 289h-343
l-50 -289q-5 -26 -31 -26h-44q-15 0 -19.5 6t-2.5 20l116 658q5 26 31 26h44q15 0 20 -6t2 -20l-49 -279h342l49 279q5 26 31 26z" />
    <glyph glyph-name="hcircumflex" unicode="&#x125;" horiz-adv-x="552" 
d="M84 790h-39q-14 0 -15.5 6t7.5 14l132 103q17 15 24.5 18t25.5 3h9q15 0 22 -3.5t19 -17.5l94 -103q7 -8 3.5 -14t-18.5 -6h-30q-26 0 -37 14l-66 72l-92 -72q-17 -14 -39 -14zM335 531q101 0 142.5 -53t24.5 -151l-53 -303q-5 -24 -29 -24h-41q-14 0 -18 5t-2 19l54 306
q23 119 -105 119q-82 0 -131 -23l-71 -402q-5 -24 -28 -24h-42q-25 0 -19 24l121 692q4 24 29 24h42q23 0 19 -24l-37 -207q50 22 144 22z" />
    <glyph glyph-name="Hbar" unicode="&#x126;" horiz-adv-x="694" 
d="M670 599h55q17 0 12 -17l-3 -22q-4 -18 -19 -18h-55l-91 -516q-5 -26 -31 -26h-44q-15 0 -19.5 6t-2.5 20l51 289h-342l-51 -289q-5 -26 -31 -26h-44q-15 0 -19.5 6t-1.5 20l91 516h-54q-16 0 -13 18l4 22q5 17 19 17h54l15 85q2 14 8.5 20t21.5 6h44q15 0 20 -6t2 -20
l-15 -85h343l14 85q5 26 31 26h44q15 0 20 -6t2 -20zM564 542h-343l-24 -137h342z" />
    <glyph glyph-name="hbar" unicode="&#x127;" horiz-adv-x="552" 
d="M208 607l-17 -98q50 22 144 22q101 0 142.5 -53t24.5 -151l-53 -303q-5 -24 -29 -24h-41q-14 0 -18 5t-2 19l54 306q23 119 -105 119q-82 0 -131 -23l-71 -402q-5 -24 -28 -24h-42q-25 0 -19 24l102 583h-53q-16 0 -12 18l3 19q3 17 19 17h52l10 55q4 24 29 24h42
q23 0 19 -24l-10 -55h147q10 0 12.5 -3.5t0.5 -13.5l-3 -19q-2 -11 -6 -14.5t-14 -3.5h-147z" />
    <glyph glyph-name="Itilde" unicode="&#x128;" horiz-adv-x="247" 
d="M339 888h25q15 0 12 -15q-10 -55 -33.5 -80t-65.5 -25q-31 0 -70.5 31.5t-57.5 31.5q-33 0 -40 -48q-5 -15 -18 -15h-26q-15 0 -12 15q18 105 98 105q33 0 73.5 -31.5t56.5 -31.5q33 0 40 48q5 15 18 15zM28 26l116 658q5 26 31 26h44q15 0 20 -6t2 -20l-116 -658
q-5 -26 -31 -26h-44q-15 0 -19.5 6t-2.5 20z" />
    <glyph glyph-name="itilde" unicode="&#x129;" horiz-adv-x="213" 
d="M266 720h28q13 0 10 -15q-18 -103 -89 -103q-26 0 -47 29q-22 28 -39 28q-32 0 -39 -43q-3 -16 -15 -16h-30q-14 0 -11 16q18 104 90 104q24 0 39 -15t27 -30t28 -15q26 0 33 45q5 15 15 15zM127 516h42q13 0 17 -5t2 -19l-82 -468q-5 -24 -28 -24h-42q-25 0 -19 24
l82 468q5 24 28 24z" />
    <glyph glyph-name="Imacron" unicode="&#x12a;" horiz-adv-x="247" 
d="M107 859h234q13 0 16.5 -4.5t1.5 -17.5l-3 -20q-3 -14 -8.5 -18.5t-18.5 -4.5h-234q-13 0 -16.5 5t-1.5 18l3 20q4 22 27 22zM28 26l116 658q5 26 31 26h44q15 0 20 -6t2 -20l-116 -658q-5 -26 -31 -26h-44q-15 0 -19.5 6t-2.5 20z" />
    <glyph glyph-name="imacron" unicode="&#x12b;" horiz-adv-x="213" 
d="M87 679h168q14 0 10 -22l-3 -19q-2 -13 -5.5 -17.5t-12.5 -4.5h-167q-9 0 -11 4.5t0 17.5l4 19q2 13 5.5 17.5t11.5 4.5zM127 516h42q13 0 17 -5t2 -19l-82 -468q-5 -24 -28 -24h-42q-25 0 -19 24l82 468q5 24 28 24z" />
    <glyph glyph-name="Ibreve" unicode="&#x12c;" horiz-adv-x="247" 
d="M379 867q-54 -105 -172 -105q-58 0 -92.5 27t-41.5 78q-3 17 14 23l34 11q18 4 22 -8q7 -66 75 -66q66 0 98 66q9 15 23 9l33 -12q14 -8 7 -23zM28 26l116 658q5 26 31 26h44q15 0 20 -6t2 -20l-116 -658q-5 -26 -31 -26h-44q-15 0 -19.5 6t-2.5 20z" />
    <glyph glyph-name="ibreve" unicode="&#x12d;" horiz-adv-x="213" 
d="M273 723l33 -12q14 -6 7 -22q-47 -104 -151 -104q-52 0 -82.5 27t-35.5 77q-3 17 15 22l32 11q18 4 22 -8q5 -63 58 -63q55 0 80 63q8 15 22 9zM127 516h42q13 0 17 -5t2 -19l-82 -468q-5 -24 -28 -24h-42q-25 0 -19 24l82 468q5 24 28 24z" />
    <glyph glyph-name="Iogonek" unicode="&#x12e;" horiz-adv-x="247" 
d="M120 -167l7 -26q3 -11 -5 -17q-44 -36 -99 -36q-69 0 -72 55q-6 86 102 193q-15 0 -19 5t-1 20l116 657q5 26 30 26h44q15 0 20 -6t2 -20l-116 -658q-3 -16 -10 -23q-44 -46 -66 -89t-19 -69q4 -24 27 -24q26 0 45 16q13 9 14 -4z" />
    <glyph glyph-name="iogonek" unicode="&#x12f;" horiz-adv-x="213" 
d="M163 601h-6q-28 0 -36 10t-3 38v8q5 27 17.5 37.5t39.5 10.5h6q27 0 35.5 -10.5t3.5 -37.5v-8q-5 -27 -17.5 -37.5t-39.5 -10.5zM95 -167l5 -24q4 -10 -4 -18q-36 -36 -87 -36q-73 0 -74 64q0 75 95 182q-21 0 -16 23l82 468q4 24 28 24h42q13 0 17 -5t2 -19l-82 -468
q-3 -15 -9 -19q-71 -92 -76 -152q-2 -33 29 -33q18 0 33 16q12 8 15 -3z" />
    <glyph glyph-name="Idot" unicode="&#x130;" horiz-adv-x="247" 
d="M223 874h5q25 0 33 -9.5t3 -33.5l-1 -7q-4 -25 -15 -34t-36 -9h-5q-25 0 -32.5 9t-2.5 34l1 7q5 25 15.5 34t34.5 9zM28 26l116 658q5 26 31 26h44q15 0 20 -6t2 -20l-116 -658q-5 -26 -31 -26h-44q-15 0 -19.5 6t-2.5 20z" />
    <glyph glyph-name="dotlessi" unicode="&#x131;" horiz-adv-x="213" 
d="M127 516h42q13 0 17 -5t2 -19l-82 -468q-5 -24 -28 -24h-42q-25 0 -19 24l82 468q5 24 28 24z" />
    <glyph glyph-name="IJ" unicode="&#x132;" horiz-adv-x="822" 
d="M28 26l116 658q5 26 31 26h44q15 0 20 -6t2 -20l-116 -658q-5 -26 -31 -26h-44q-15 0 -19.5 6t-2.5 20zM755 710h45q15 0 19.5 -6t2.5 -20l-83 -468q-41 -231 -282 -231q-195 0 -211 178q-3 14 1 21.5t19 12.5l42 14q14 4 20.5 0.5t9.5 -17.5q5 -60 36.5 -89.5
t92.5 -29.5q149 0 178 152l80 457q3 15 9 20.5t21 5.5z" />
    <glyph glyph-name="ij" unicode="&#x133;" horiz-adv-x="456" 
d="M178 705h6q27 0 35.5 -10.5t3.5 -37.5v-8q-5 -27 -17.5 -37.5t-39.5 -10.5h-6q-28 0 -36 10t-3 38v8q5 27 17.5 37.5t39.5 10.5zM420 705h7q27 0 35.5 -10.5t3.5 -37.5l-1 -8q-5 -27 -17.5 -37.5t-39.5 -10.5h-6q-27 0 -35.5 10t-3.5 38v8q5 27 17.5 37.5t39.5 10.5z
M127 516h42q13 0 17 -5t2 -19l-82 -468q-5 -24 -28 -24h-42q-25 0 -19 24l82 468q5 24 28 24zM370 516h41q25 0 19 -24l-88 -500q-39 -222 -256 -222q-13 0 -17.5 5t-2.5 19l6 35q4 24 29 24q68 0 104 34.5t49 106.5l87 498q5 24 29 24z" />
    <glyph glyph-name="Jcircumflex" unicode="&#x134;" horiz-adv-x="571" 
d="M560 905h10q15 0 21.5 -3.5t18.5 -17.5l95 -103q14 -20 -15 -20h-32q-26 0 -37 14l-65 71l-94 -71q-16 -14 -39 -14h-36q-31 0 -8 20l131 103q17 15 24.5 18t25.5 3zM505 710h46q14 0 18.5 -6t2.5 -20l-83 -468q-41 -231 -282 -231q-195 0 -211 178q-3 14 1 21.5t19 12.5
l42 14q14 4 20.5 0.5t9.5 -17.5q5 -60 36.5 -89.5t92.5 -29.5q149 0 178 152l80 457q5 26 30 26z" />
    <glyph glyph-name="jcircumflex" unicode="&#x135;" horiz-adv-x="213" 
d="M177 720h9q15 0 21.5 -3t17.5 -17l81 -101q13 -19 -15 -19h-29q-27 0 -36 13l-52 70l-80 -70q-16 -13 -39 -13h-36q-28 0 -8 19l117 101q15 14 23 17t26 3zM127 516h40q14 0 18 -5t2 -19l-88 -500q-39 -222 -256 -222q-14 0 -18 5t-2 19l6 35q5 24 29 24q68 0 104 34.5
t48 106.5l88 498q4 24 29 24z" />
    <glyph glyph-name="Kcommaaccent" unicode="&#x136;" horiz-adv-x="617" 
d="M469 272l83 -245q9 -27 -18 -27h-44q-24 0 -33 4.5t-14 18.5l-70 214q-15 46 -39 62.5t-78 16.5h-80l-51 -290q-5 -26 -31 -26h-44q-15 0 -19.5 6t-2.5 20l116 658q5 26 31 26h44q15 0 20 -6t2 -20l-50 -280h71h18l263 284q13 14 23 18t33 4h49q14 0 16 -8t-7 -17
l-286 -303q69 -23 98 -110zM308 -92l-71 -138q-11 -23 -31 -23h-29q-11 0 -13.5 3.5t0.5 14.5l53 143q4 15 11 20t22 5h40q31 0 18 -25z" />
    <glyph glyph-name="kcommaaccent" unicode="&#x137;" horiz-adv-x="513" 
d="M387 206l58 -178q5 -15 0.5 -21.5t-21.5 -6.5h-38q-19 0 -25.5 4t-11.5 18l-44 149q-8 30 -26 42.5t-52 12.5h-86l-35 -201q-4 -25 -30 -25h-39q-14 0 -18.5 5.5t-1.5 19.5l121 691q4 24 30 24h39q14 0 18.5 -5t2.5 -19l-72 -411h72h8l183 193q11 12 19.5 15t30.5 3h38
q35 0 10 -28l-195 -201q44 -17 65 -81zM258 -79l-61 -128q-12 -22 -34 -22h-23q-12 0 -14.5 3.5t-0.5 15.5l47 131q5 16 12.5 21.5t23.5 5.5h34q31 0 16 -27z" />
    <glyph glyph-name="kgreenlandic" unicode="&#x138;" horiz-adv-x="505" 
d="M289 287l116 -258q11 -29 -25 -29h-37q-21 0 -28.5 3.5t-11.5 15.5l-90 203l-94 -81l-29 -116q-9 -25 -34 -25h-40q-14 0 -17.5 5.5t1.5 19.5l130 467q9 24 35 24h39q14 0 17.5 -5t-1.5 -19l-57 -221l265 227q14 12 23.5 15t30.5 3h38q39 0 5 -28z" />
    <glyph glyph-name="Lacute" unicode="&#x139;" horiz-adv-x="519" 
d="M106 805l172 95q32 17 44 -1l15 -24q16 -18 -8 -28l-189 -83q-25 -9 -31 1l-9 15q-6 10 -5 15t11 10zM175 710h44q15 0 20 -6t2 -20l-105 -594h315q15 0 19.5 -6t2.5 -20l-7 -38q-5 -26 -31 -26h-385q-15 0 -19.5 6t-2.5 20l116 658q5 26 31 26z" />
    <glyph glyph-name="lacute" unicode="&#x13a;" horiz-adv-x="220" 
d="M105 825l148 80q28 13 40 -4l17 -28q12 -21 -8 -27l-164 -67q-24 -8 -30 2l-10 18q-9 17 7 26zM229 716l-121 -692q-4 -24 -29 -24h-41q-14 0 -18 5t-2 19l122 692q4 24 29 24h41q25 0 19 -24z" />
    <glyph glyph-name="Lcommaaccent" unicode="&#x13b;" horiz-adv-x="519" 
d="M175 710h44q15 0 20 -6t2 -20l-105 -594h315q15 0 19.5 -6t2.5 -20l-7 -38q-5 -26 -31 -26h-385q-15 0 -19.5 6t-2.5 20l116 658q5 26 31 26zM272 -92l-72 -138q-11 -23 -31 -23h-29q-11 0 -13.5 3.5t0.5 14.5l53 143q4 15 11 20t22 5h40q31 0 19 -25z" />
    <glyph glyph-name="lcommaaccent" unicode="&#x13c;" horiz-adv-x="220" 
d="M230 716l-122 -692q-4 -24 -28 -24h-42q-25 0 -19 24l121 692q4 24 29 24h42q13 0 17 -5t2 -19zM91 -73l-65 -138q-10 -22 -34 -22h-22q-12 0 -14.5 4t0.5 15l50 141q5 16 12.5 22t23.5 6h33q31 0 16 -28z" />
    <glyph glyph-name="Lcaron" unicode="&#x13d;" horiz-adv-x="520" 
d="M175 710h44q15 0 20 -6t2 -20l-105 -594h315q15 0 19.5 -6t2.5 -20l-7 -38q-5 -26 -31 -26h-385q-15 0 -19.5 6t-2.5 20l116 658q5 26 31 26zM505 685l-84 -180q-11 -21 -31 -21h-21q-11 0 -13.5 3t0.5 13l63 186q4 14 10.5 19t21.5 5h37q30 0 17 -25z" />
    <glyph glyph-name="lcaron" unicode="&#x13e;" horiz-adv-x="227" 
d="M229 716l-121 -692q-4 -24 -29 -24h-41q-14 0 -18 5t-2 19l122 692q4 24 29 24h41q25 0 19 -24zM395 715l-70 -157q-1 -1 -2.5 -4l-2 -4t-2 -3.5t-2.5 -3t-2.5 -2t-3 -2t-3.5 -1.5t-4.5 -1h-5.5h-21q-20 0 -13 21l52 158q7 24 28 24h31q33 0 21 -25z" />
    <glyph glyph-name="Ldot" unicode="&#x13f;" horiz-adv-x="520" 
d="M175 710h44q15 0 20 -6t2 -20l-105 -594h315q15 0 19.5 -6t2.5 -20l-7 -38q-5 -26 -31 -26h-385q-15 0 -19.5 6t-2.5 20l116 658q5 26 31 26zM359 426h6q29 0 38 -10.5t4 -39.5l-2 -8q-5 -29 -18 -40t-42 -11h-6q-29 0 -38 11t-4 40l2 8q4 28 17.5 39t42.5 11z" />
    <glyph glyph-name="ldot" unicode="&#x140;" horiz-adv-x="342" 
d="M229 716l-121 -692q-4 -24 -29 -24h-41q-14 0 -18 5t-2 19l122 692q4 24 29 24h41q25 0 19 -24zM302 430h7q29 0 37.5 -11t3.5 -40l-1 -7q-5 -29 -18 -40t-42 -11h-7q-29 0 -38 11t-3 40l1 7q5 29 18 40t42 11z" />
    <glyph glyph-name="Lslash" unicode="&#x141;" horiz-adv-x="543" 
d="M163 90h315q14 0 19 -6t2 -20l-6 -38q-5 -26 -31 -26h-386q-14 0 -19 6t-2 20l43 247l-72 -31q-19 -10 -24 8l-10 28q-4 16 12 23l107 47l60 336q5 26 30 26h45q14 0 19 -6t2 -20l-51 -292l187 82q19 7 26 -9l9 -29q4 -16 -13 -22l-222 -97z" />
    <glyph glyph-name="lslash" unicode="&#x142;" horiz-adv-x="305" 
d="M312 463l11 -26q6 -15 -11 -23l-104 -54l-59 -336q-5 -24 -29 -24h-41q-25 0 -19 24l50 288l-60 -32q-20 -11 -26 6l-11 26q-4 16 11 24l99 51l58 329q5 24 29 24h41q13 0 17.5 -5t2.5 -19l-49 -281l65 35q12 5 16.5 3.5t8.5 -10.5z" />
    <glyph glyph-name="Nacute" unicode="&#x143;" horiz-adv-x="694" 
d="M330 805l172 95q32 17 44 -1l15 -24q14 -20 -8 -28l-190 -83q-24 -9 -30 1l-9 15q-6 10 -5 15t11 10zM624 710h43q14 0 19 -6t3 -20l-116 -658q-5 -26 -31 -26h-44q-18 0 -24 13l-210 415q-19 42 -34 93q-6 19 -20 61h-4q0 -1 -5 -70q-4 -66 -12 -116l-65 -370
q-5 -26 -31 -26h-43q-15 0 -19.5 6t-2.5 20l116 658q5 26 31 26h40q19 0 26 -13l208 -408q22 -45 38 -98q18 -57 20 -62h5q0 1 5 72q3 69 12 121l64 362q5 26 31 26z" />
    <glyph glyph-name="nacute" unicode="&#x144;" horiz-adv-x="549" 
d="M221 629l171 95q33 17 44 -2l15 -24q14 -20 -8 -27l-190 -84q-24 -7 -30 2l-9 14q-11 17 7 26zM134 497q90 34 197 34q100 0 142 -53t26 -152l-54 -302q-5 -24 -28 -24h-42q-13 0 -17 5t-2 19l54 306q21 119 -105 119q-59 0 -119 -18q-14 -5 -15 -18l-68 -389
q-5 -24 -29 -24h-42q-23 0 -19 24l73 417q5 24 14.5 35t33.5 21z" />
    <glyph glyph-name="Ncommaaccent" unicode="&#x145;" horiz-adv-x="694" 
d="M624 710h43q14 0 19 -6t3 -20l-116 -658q-5 -26 -31 -26h-44q-18 0 -24 13l-210 415q-19 42 -34 93q-6 19 -20 61h-4q0 -1 -5 -70q-4 -66 -12 -116l-65 -370q-5 -26 -31 -26h-43q-15 0 -19.5 6t-2.5 20l116 658q5 26 31 26h40q19 0 26 -13l208 -408q22 -45 38 -98
q18 -57 20 -62h5q0 1 5 72q3 69 12 121l64 362q5 26 31 26zM337 -92l-71 -138q-11 -23 -31 -23h-29q-11 0 -13.5 3.5t0.5 14.5l53 143q4 15 11 20t22 5h40q31 0 18 -25z" />
    <glyph glyph-name="ncommaaccent" unicode="&#x146;" horiz-adv-x="549" 
d="M134 497q90 34 197 34q100 0 142 -53t26 -152l-54 -302q-5 -24 -28 -24h-42q-13 0 -17 5t-2 19l54 306q21 119 -105 119q-59 0 -119 -18q-14 -5 -15 -18l-68 -389q-5 -24 -29 -24h-42q-23 0 -19 24l73 417q5 24 14.5 35t33.5 21zM275 -66l-63 -130q-7 -13 -13.5 -17.5
t-20.5 -4.5h-23q-12 0 -14.5 4t0.5 14l49 134q5 16 12 21.5t23 5.5h34q31 0 16 -27z" />
    <glyph glyph-name="Ncaron" unicode="&#x147;" horiz-adv-x="694" 
d="M571 904h35q14 0 15.5 -6t-8.5 -14l-130 -103q-25 -21 -48 -21h-10q-17 0 -23.5 3t-19.5 18l-94 103q-7 8 -3.5 14t18.5 6h33q24 0 34 -14l67 -71l92 71q16 14 42 14zM624 710h43q14 0 19 -6t3 -20l-116 -658q-5 -26 -31 -26h-44q-18 0 -24 13l-210 415q-19 42 -34 93
q-6 19 -20 61h-4q0 -1 -5 -70q-4 -66 -12 -116l-65 -370q-5 -26 -31 -26h-43q-15 0 -19.5 6t-2.5 20l116 658q5 26 31 26h40q19 0 26 -13l208 -408q22 -45 38 -98q18 -57 20 -62h5q0 1 5 72q3 69 12 121l64 362q5 26 31 26z" />
    <glyph glyph-name="ncaron" unicode="&#x148;" horiz-adv-x="549" 
d="M273 602l-95 103q-15 19 14 19h32q16 0 21.5 -2t12.5 -11l68 -71l91 71q14 13 42 13h36q28 0 8 -20l-131 -102q-18 -15 -25 -18.5t-22 -3.5h-9q-17 0 -24 3.5t-19 18.5zM331 531q100 0 142 -53t26 -152l-54 -302q-5 -24 -28 -24h-42q-13 0 -17 5t-2 19l54 306
q21 119 -105 119q-59 0 -119 -18q-14 -5 -15 -18l-68 -389q-5 -24 -29 -24h-42q-23 0 -19 24l73 417q5 24 14.5 35t33.5 21q90 34 197 34z" />
    <glyph glyph-name="napostrophe" unicode="&#x149;" horiz-adv-x="549" 
d="M204 715l-105 -159q-7 -11 -12 -14t-17 -3h-25q-21 0 -12 17l84 163q1 1 2 3q7 15 16 17l11 1h42q32 0 16 -25zM134 497q90 34 197 34q100 0 142 -53t26 -152l-54 -302q-5 -24 -28 -24h-42q-13 0 -17 5t-2 19l54 306q21 119 -105 119q-59 0 -119 -18q-14 -5 -15 -18
l-68 -389q-5 -24 -29 -24h-42q-23 0 -19 24l73 417q5 24 14.5 35t33.5 21z" />
    <glyph glyph-name="Eng" unicode="&#x14a;" horiz-adv-x="695" 
d="M625 710h42q15 0 20 -6t2 -20l-122 -694q-18 -106 -87 -163t-181 -57q-14 0 -18.5 5t-1.5 19l6 35q2 14 8.5 19t20.5 5q136 0 160 140l2 16l-211 419q-19 39 -35 94q-15 52 -19 60h-5q0 -1 -1.5 -31t-5 -73t-8.5 -74l-67 -378q-5 -26 -31 -26h-43q-15 0 -19.5 6t-2.5 20
l116 658q5 26 31 26h42q17 0 24 -13l208 -409q21 -43 39 -98q18 -57 20 -62h4q0 1 5 72q5 75 13 122l64 362q5 26 31 26z" />
    <glyph glyph-name="eng" unicode="&#x14b;" horiz-adv-x="549" 
d="M134 497q90 34 197 34q100 0 142 -53t26 -152l-61 -342q-17 -102 -84.5 -158t-175.5 -56q-14 0 -18 5t-1 18l5 33q4 24 28 24q133 0 157 137l61 343q21 119 -105 119q-59 0 -119 -18q-14 -5 -15 -18l-68 -389q-5 -24 -29 -24h-42q-23 0 -19 24l73 417q5 24 14.5 35
t33.5 21z" />
    <glyph glyph-name="Omacron" unicode="&#x14c;" horiz-adv-x="667" 
d="M339 869h234q13 0 17 -4.5t2 -17.5l-4 -20q-2 -14 -7.5 -18.5t-18.5 -4.5h-234q-13 0 -17 4.5t-2 18.5l4 20q4 22 26 22zM66 247l40 228q21 120 103.5 185t217.5 65q133 0 195 -71t41 -193l-40 -228q-21 -120 -103.5 -184t-216.5 -64q-133 0 -195.5 70.5t-41.5 191.5z
M528 241l41 228q14 80 -26 123t-128 43q-89 0 -144 -43t-69 -123l-40 -228q-14 -80 26 -123t128 -43t143 43t69 123z" />
    <glyph glyph-name="omacron" unicode="&#x14d;" horiz-adv-x="541" 
d="M458 617h-234q-14 0 -17.5 4.5t-1.5 17.5l4 20q5 23 26 23h234q13 0 17 -4.5t2 -18.5l-4 -20q-2 -13 -7.5 -17.5t-18.5 -4.5zM324 531q106 0 157 -52.5t35 -143.5l-28 -163q-16 -90 -82 -138.5t-174 -48.5q-105 0 -156.5 52t-36.5 142l29 163q16 89 83.5 139t172.5 50z
M399 176l29 164q9 52 -21.5 81t-94.5 29q-63 0 -104 -29t-51 -81l-28 -164q-10 -52 21 -81t94 -29q64 0 104.5 29t50.5 81z" />
    <glyph glyph-name="Obreve" unicode="&#x14e;" horiz-adv-x="667" 
d="M611 877q-53 -105 -171 -105q-58 0 -92.5 27t-41.5 78q-3 17 14 23l33 11q20 6 22 -8q9 -66 76 -66t98 66q9 14 23 9l32 -12q9 -5 10.5 -9t-3.5 -14zM66 247l40 228q21 120 103.5 185t217.5 65q133 0 195 -71t41 -193l-40 -228q-21 -120 -103.5 -184t-216.5 -64
q-133 0 -195.5 70.5t-41.5 191.5zM528 241l41 228q14 80 -26 123t-128 43q-89 0 -144 -43t-69 -123l-40 -228q-14 -80 26 -123t128 -43t143 43t69 123z" />
    <glyph glyph-name="obreve" unicode="&#x14f;" horiz-adv-x="541" 
d="M507 689q-53 -105 -168 -105q-58 0 -94 27t-43 78q-4 15 14 23l30 10q19 6 23 -9q7 -64 77 -64q67 0 100 66q8 13 21 9l34 -12q13 -7 6 -23zM39 179l29 163q16 89 83.5 139t172.5 50q106 0 157 -52.5t35 -143.5l-28 -163q-16 -90 -82 -138.5t-174 -48.5q-105 0 -156.5 52
t-36.5 142zM399 176l29 164q9 52 -21.5 81t-94.5 29q-63 0 -104 -29t-51 -81l-28 -164q-10 -52 21 -81t94 -29q64 0 104.5 29t50.5 81z" />
    <glyph glyph-name="Ohungarumlaut" unicode="&#x150;" horiz-adv-x="667" 
d="M302 801l99 101q19 23 42 16l26 -9q24 -9 3 -27l-123 -100q-19 -15 -30 -10l-13 5q-20 6 -4 24zM468 798l104 104q20 24 43 16l28 -9q25 -9 3 -27l-131 -103q-20 -14 -30 -10l-13 5q-21 4 -4 24zM66 247l40 228q21 120 103.5 185t217.5 65q133 0 195 -71t41 -193
l-40 -228q-21 -120 -103.5 -184t-216.5 -64q-133 0 -195.5 70.5t-41.5 191.5zM528 241l41 228q14 80 -26 123t-128 43q-89 0 -144 -43t-69 -123l-40 -228q-14 -80 26 -123t128 -43t143 43t69 123z" />
    <glyph glyph-name="ohungarumlaut" unicode="&#x151;" horiz-adv-x="541" 
d="M214 579l-14 4q-20 6 -3 24l99 101q19 24 42 16l26 -9q24 -8 3 -26l-123 -100q-19 -15 -30 -10zM511 724l27 -9q27 -9 3 -27l-132 -101q-19 -16 -30 -10l-13 4q-21 7 -4 24l106 103q19 22 43 16zM324 531q106 0 157 -52.5t35 -143.5l-28 -163q-16 -90 -82 -138.5
t-174 -48.5q-105 0 -156.5 52t-36.5 142l29 163q16 89 83.5 139t172.5 50zM399 176l29 164q9 52 -21.5 81t-94.5 29q-63 0 -104 -29t-51 -81l-28 -164q-10 -52 21 -81t94 -29q64 0 104.5 29t50.5 81z" />
    <glyph glyph-name="OE" unicode="&#x152;" horiz-adv-x="850" 
d="M500 90h274q15 0 19.5 -6t2.5 -20l-7 -38q-5 -26 -31 -26h-344q-51 -15 -114 -15q-131 0 -193 72t-41 194l40 228q21 119 104.5 182.5t219.5 63.5q62 0 109 -15h332q15 0 20 -6t2 -20l-7 -38q-5 -26 -30 -26h-263l-38 -216h217q14 0 18.5 -5.5t2.5 -20.5l-6 -37
q-5 -27 -32 -27h-216zM202 469l-41 -228q-14 -80 26 -123t129 -43q54 0 87 13l94 534q-32 13 -83 13q-88 0 -143 -43t-69 -123z" />
    <glyph glyph-name="oe" unicode="&#x153;" horiz-adv-x="807" 
d="M455 442q62 89 173 89q96 0 140.5 -45t28.5 -128q-14 -71 -71 -108.5t-149 -37.5q-51 0 -124 14l-7 -43q-10 -58 14 -89t81 -31q86 0 133 65q18 23 37 10l24 -17q20 -14 1 -38q-69 -98 -209 -98q-107 0 -140 77q-65 -77 -174 -77q-96 0 -141.5 52.5t-30.5 143.5l29 164
q16 89 78 137.5t160 48.5q121 0 147 -89zM709 360q20 95 -94 95q-57 0 -95 -33t-49 -93l-5 -33q68 -15 123 -15q102 0 120 79zM366 190l24 137q10 59 -15 91t-80 32t-91 -29t-45 -81l-29 -164q-10 -52 16 -81t81 -29t92 33t47 91z" />
    <glyph glyph-name="Racute" unicode="&#x154;" horiz-adv-x="646" 
d="M303 805l172 95q32 17 45 -1l15 -24q14 -20 -9 -28l-189 -83q-25 -9 -31 1l-8 15q-7 10 -6 15t11 10zM175 710h280q101 0 149 -59.5t29 -160.5q-27 -158 -181 -192q27 -16 40 -56l73 -215q9 -27 -18 -27h-44q-25 0 -35 4.5t-14 18.5l-58 183q-14 46 -36 63q-22 16 -77 16
h-112l-46 -259q-5 -26 -31 -26h-44q-15 0 -19.5 6t-2.5 20l116 658q5 26 31 26zM533 497q11 59 -15.5 91t-86.5 32h-201l-44 -245h202q59 0 97 32t48 90z" />
    <glyph glyph-name="racute" unicode="&#x155;" horiz-adv-x="346" 
d="M156 629l172 95q32 15 44 -2l15 -24q14 -20 -8 -27l-190 -84q-24 -9 -30 1l-9 15q-11 17 6 26zM323 531h32q24 0 20 -24l-6 -34q-5 -24 -28 -24h-34q-60 0 -119 -17q-15 -6 -17 -20l-68 -388q-5 -24 -29 -24h-42q-23 0 -19 24l74 420q5 24 14.5 35t33.5 21q86 30 188 31z
" />
    <glyph glyph-name="Rcommaaccent" unicode="&#x156;" horiz-adv-x="646" 
d="M175 710h280q101 0 149 -59.5t29 -160.5q-27 -158 -181 -192q27 -16 40 -56l73 -215q9 -27 -18 -27h-44q-25 0 -35 4.5t-14 18.5l-58 183q-14 46 -36 63q-22 16 -77 16h-112l-46 -259q-5 -26 -31 -26h-44q-15 0 -19.5 6t-2.5 20l116 658q5 26 31 26zM533 497
q11 59 -15.5 91t-86.5 32h-201l-44 -245h202q59 0 97 32t48 90zM322 -92l-71 -138q-12 -23 -32 -23h-29q-11 0 -13.5 3.5t1.5 14.5l52 143q4 15 11 20t22 5h41q31 0 18 -25z" />
    <glyph glyph-name="rcommaaccent" unicode="&#x157;" horiz-adv-x="346" 
d="M324 531h31q26 0 20 -24l-5 -34q-4 -24 -28 -24h-35q-59 0 -119 -17q-14 -5 -17 -20l-68 -388q-5 -24 -28 -24h-42q-25 0 -19 24l73 420q5 24 14.5 35t33.5 21q86 30 189 31zM94 -68l-61 -133q-11 -23 -34 -23h-24q-12 0 -14.5 4t0.5 15l48 137q6 27 35 27h34
q30 0 16 -27z" />
    <glyph glyph-name="Rcaron" unicode="&#x158;" horiz-adv-x="646" 
d="M544 904h35q10 0 13.5 -2.5t2 -7t-8.5 -10.5l-130 -103q-17 -14 -25 -17.5t-23 -3.5h-10q-17 0 -23.5 3t-18.5 18l-95 103q-7 8 -3 14t18 6h33q15 0 21 -2t14 -12l67 -71l91 71q16 14 42 14zM175 710h280q101 0 149 -59.5t29 -160.5q-27 -158 -181 -192q27 -16 40 -56
l73 -215q9 -27 -18 -27h-44q-25 0 -35 4.5t-14 18.5l-58 183q-14 46 -36 63q-22 16 -77 16h-112l-46 -259q-5 -26 -31 -26h-44q-15 0 -19.5 6t-2.5 20l116 658q5 26 31 26zM533 497q11 59 -15.5 91t-86.5 32h-201l-44 -245h202q59 0 97 32t48 90z" />
    <glyph glyph-name="rcaron" unicode="&#x159;" horiz-adv-x="346" 
d="M394 724h37q28 0 8 -20l-131 -103q-17 -14 -25 -17.5t-22 -3.5h-9q-18 0 -25 3t-19 18l-94 103q-7 8 -3.5 14t17.5 6h32q25 0 34 -14l68 -71l91 71q16 14 41 14zM323 531h32q24 0 20 -24l-6 -34q-5 -24 -28 -24h-34q-60 0 -119 -17q-15 -6 -17 -20l-68 -388
q-5 -24 -29 -24h-42q-23 0 -19 24l74 420q5 24 14.5 35t33.5 21q86 30 188 31z" />
    <glyph glyph-name="Sacute" unicode="&#x15a;" horiz-adv-x="623" 
d="M301 815l172 95q32 17 44 -2l15 -24q13 -19 -8 -27l-190 -84q-22 -9 -30 2l-9 14q-11 17 6 26zM91 530q17 94 93 144.5t203 50.5q96 0 150.5 -38.5t79.5 -116.5q4 -13 0 -19.5t-19 -12.5l-42 -18q-14 -6 -20.5 -3.5t-11.5 15.5q-32 100 -151 100q-166 0 -186 -110
q-10 -64 45 -88q42 -20 126 -30q100 -12 161 -52q73 -49 53 -166q-34 -201 -307 -201q-213 0 -249 171q-4 25 22 34l45 15q14 5 20 1.5t10 -17.5q29 -113 161 -113q179 0 202 122q11 70 -59 94q-38 13 -99 20q-81 7 -139 34q-35 17 -56 39q-49 53 -32 145z" />
    <glyph glyph-name="sacute" unicode="&#x15b;" horiz-adv-x="497" 
d="M204 629l171 95q33 17 44 -2l15 -24q14 -20 -8 -27l-190 -84q-26 -8 -30 2l-9 14q-11 17 7 26zM60 381q12 72 70 111t157 39q157 0 188 -108q7 -25 -17 -35l-33 -13q-14 -5 -20 -3t-12 14q-21 64 -118 64q-113 0 -127 -72q-9 -54 41 -67q20 -6 80 -12q88 -10 133 -40
q54 -37 38 -121q-13 -73 -73.5 -113t-162.5 -40q-172 0 -199 123q-5 23 21 32l37 12q13 4 18.5 1t10.5 -16q11 -39 40.5 -55.5t81.5 -16.5q126 0 139 76q6 40 -20.5 56t-99.5 23q-43 4 -72.5 12t-58 24.5t-39.5 48t-3 76.5z" />
    <glyph glyph-name="Scircumflex" unicode="&#x15c;" horiz-adv-x="623" 
d="M424 914h10q15 0 21.5 -3t18.5 -18l95 -103q13 -19 -15 -19h-32q-27 0 -37 13l-65 71l-93 -71q-14 -13 -40 -13h-36q-30 0 -8 19l131 103q17 15 24.5 18t25.5 3zM91 530q17 94 93 144.5t203 50.5q96 0 150.5 -38.5t79.5 -116.5q4 -13 0 -19.5t-19 -12.5l-42 -18
q-14 -6 -20.5 -3.5t-11.5 15.5q-32 100 -151 100q-166 0 -186 -110q-10 -64 45 -88q42 -20 126 -30q100 -12 161 -52q73 -49 53 -166q-34 -201 -307 -201q-213 0 -249 171q-4 25 22 34l45 15q14 5 20 1.5t10 -17.5q29 -113 161 -113q179 0 202 122q11 70 -59 94
q-38 13 -99 20q-81 7 -139 34q-35 17 -56 39q-49 53 -32 145z" />
    <glyph glyph-name="scircumflex" unicode="&#x15d;" horiz-adv-x="497" 
d="M191 582h-38q-29 0 -9 19l132 103q17 15 24.5 18t25.5 3h9q16 0 22.5 -3.5t18.5 -17.5l94 -103q15 -19 -15 -19h-30q-27 0 -37 13l-66 72l-92 -72q-16 -13 -39 -13zM475 423q7 -25 -17 -35l-33 -13q-14 -5 -20 -3t-12 14q-21 64 -118 64q-113 0 -127 -72q-9 -54 41 -67
q20 -6 80 -12q88 -10 133 -40q54 -37 38 -121q-13 -73 -73.5 -113t-162.5 -40q-172 0 -199 123q-5 23 21 32l37 12q13 4 18.5 1t10.5 -16q11 -39 40.5 -55.5t81.5 -16.5q126 0 139 76q6 40 -20.5 56t-99.5 23q-43 4 -72.5 12t-58 24.5t-39.5 48t-3 76.5q12 72 70 111t157 39
q157 0 188 -108z" />
    <glyph glyph-name="Scedilla" unicode="&#x15e;" horiz-adv-x="623" 
d="M91 530q17 94 93 144.5t203 50.5q96 0 150.5 -38.5t79.5 -116.5q4 -13 0 -19.5t-19 -12.5l-42 -18q-14 -6 -20.5 -3.5t-11.5 15.5q-32 100 -151 100q-166 0 -186 -110q-10 -64 45 -88q42 -20 126 -30q100 -12 161 -52q73 -49 53 -166q-31 -182 -264 -199l-32 -61
q14 2 19 2q44 0 63.5 -23.5t9.5 -62.5q-11 -44 -49.5 -68t-92.5 -24q-45 0 -74 19q-13 7 -10 23l4 24q2 18 14 10q28 -21 64 -21q63 0 71 47q6 37 -48 37q-17 0 -30 -3q-11 -1 -13 4t4 16l45 79q-201 5 -237 171q-4 25 22 34l45 15q14 5 20 1.5t10 -17.5q29 -113 161 -113
q179 0 202 122q11 70 -59 94q-38 13 -99 20q-81 7 -139 34q-35 17 -56 39q-49 53 -32 145z" />
    <glyph glyph-name="scedilla" unicode="&#x15f;" horiz-adv-x="497" 
d="M60 381q12 72 70 111t157 39q157 0 188 -108q7 -25 -17 -35l-33 -13q-14 -5 -20 -3t-12 14q-21 64 -118 64q-113 0 -127 -72q-9 -54 41 -67q20 -6 80 -12q88 -10 133 -40q54 -37 38 -121q-24 -135 -195 -150l-34 -61q16 2 19 2q44 0 63.5 -23.5t9.5 -62.5
q-11 -44 -49 -68t-92 -24q-46 0 -75 19q-13 6 -10 23l4 24q2 18 14 10q31 -21 65 -21q62 0 70 47q4 18 -9 27.5t-39 9.5q-16 0 -30 -3q-11 -1 -13 4t4 16l46 79q-158 4 -184 122q-5 23 21 32l37 12q13 4 18.5 1t10.5 -16q11 -39 40.5 -55.5t81.5 -16.5q126 0 139 76
q6 40 -20.5 56t-99.5 23q-43 4 -72.5 12t-58 24.5t-39.5 48t-3 76.5z" />
    <glyph glyph-name="Scaron" unicode="&#x160;" horiz-adv-x="623" 
d="M542 914h35q14 0 15.5 -6t-8.5 -14l-130 -103q-17 -14 -24.5 -17.5t-23.5 -3.5h-10q-17 0 -23.5 3t-18.5 18l-95 103q-7 7 -3 13.5t18 6.5h33q16 0 21.5 -2.5t12.5 -11.5l68 -71l91 71q16 14 42 14zM91 530q17 94 93 144.5t203 50.5q96 0 150.5 -38.5t79.5 -116.5
q4 -13 0 -19.5t-19 -12.5l-42 -18q-14 -6 -20.5 -3.5t-11.5 15.5q-32 100 -151 100q-166 0 -186 -110q-10 -64 45 -88q42 -20 126 -30q100 -12 161 -52q73 -49 53 -166q-34 -201 -307 -201q-213 0 -249 171q-4 25 22 34l45 15q14 5 20 1.5t10 -17.5q29 -113 161 -113
q179 0 202 122q11 70 -59 94q-38 13 -99 20q-81 7 -139 34q-35 17 -56 39q-49 53 -32 145z" />
    <glyph glyph-name="scaron" unicode="&#x161;" horiz-adv-x="497" 
d="M442 724h36q28 0 8 -20l-131 -102q-17 -15 -25 -18.5t-22 -3.5h-9q-17 0 -24 3.5t-20 18.5l-94 103q-15 19 14 19h32q24 0 34 -13l68 -71l91 71q14 13 42 13zM287 531q157 0 188 -108q7 -25 -17 -35l-33 -13q-14 -5 -20 -3t-12 14q-21 64 -118 64q-113 0 -127 -72
q-9 -54 41 -67q20 -6 80 -12q88 -10 133 -40q54 -37 38 -121q-13 -73 -73.5 -113t-162.5 -40q-172 0 -199 123q-5 23 21 32l37 12q13 4 18.5 1t10.5 -16q11 -39 40.5 -55.5t81.5 -16.5q126 0 139 76q6 40 -20.5 56t-99.5 23q-43 4 -72.5 12t-58 24.5t-39.5 48t-3 76.5
q12 72 70 111t157 39z" />
    <glyph glyph-name="Tcaron" unicode="&#x164;" horiz-adv-x="551" 
d="M498 904h35q30 0 8 -20l-131 -103q-23 -21 -48 -21h-9q-18 0 -24.5 3t-18.5 18l-95 103q-7 8 -2.5 14t18.5 6h33q24 0 34 -14l67 -71l92 71q16 14 41 14zM111 710h474q15 0 20 -6t2 -20l-7 -38q-5 -26 -30 -26h-189l-105 -594q-5 -26 -31 -26h-44q-14 0 -19 6t-2 20
l105 594h-189q-15 0 -19.5 6t-2.5 20l7 38q5 26 30 26z" />
    <glyph glyph-name="tcaron" unicode="&#x165;" horiz-adv-x="367" 
d="M456 716l-66 -135q-14 -21 -31 -21h-22q-10 0 -12.5 3t0.5 13l45 140q6 24 33 24h36q31 0 17 -24zM196 636h42q23 0 19 -24l-17 -96h131q25 0 19 -24l-6 -35q-2 -14 -8 -19t-19 -5h-131l-41 -233q-13 -80 9 -105t97 -25q14 0 18.5 -5t1.5 -19l-6 -36q-3 -14 -8.5 -18.5
t-20.5 -5.5q-122 -3 -162 43q-41 47 -19 169l42 235h-83q-14 0 -18 5.5t-2 18.5l6 35q4 24 28 24h83l17 96q4 24 28 24z" />
    <glyph glyph-name="Tbar" unicode="&#x166;" horiz-adv-x="572" 
d="M122 710h474q14 0 19 -6t3 -20l-7 -38q-5 -26 -31 -26h-189l-45 -257h131q10 0 12.5 -3.5t0.5 -13.5l-6 -35q-2 -11 -6 -14.5t-14 -3.5h-131l-46 -267q-5 -26 -31 -26h-44q-15 0 -19.5 6t-2.5 20l47 267h-131q-16 0 -12 18l6 35q3 17 19 17h131l45 257h-189
q-15 0 -19.5 6t-2.5 20l7 38q5 26 31 26z" />
    <glyph glyph-name="tbar" unicode="&#x167;" horiz-adv-x="370" 
d="M198 637h42q14 0 18 -5.5t2 -18.5l-17 -96h131q23 0 19 -24l-6 -35q-5 -24 -28 -24h-130l-25 -137h104q10 0 12.5 -3.5t0.5 -13.5l-4 -29q-4 -17 -20 -17h-104l-6 -35q-13 -79 9 -103q22 -25 97 -25q14 0 18.5 -5t2.5 -19l-7 -36q-5 -24 -28 -24q-122 -3 -162 43
q-41 46 -19 168l6 36h-71q-10 0 -12.5 3.5t-0.5 13.5l4 29q5 17 20 17h71l24 137h-83q-24 0 -20 24l7 35q5 24 28 24h83l16 96q4 24 28 24z" />
    <glyph glyph-name="Utilde" unicode="&#x168;" horiz-adv-x="685" 
d="M578 888h26q15 0 12 -15q-10 -55 -33.5 -80t-65.5 -25q-31 0 -70.5 31.5t-57.5 31.5q-33 0 -41 -48q-3 -15 -17 -15h-26q-15 0 -12 15q18 105 98 105q33 0 73 -31.5t57 -31.5q33 0 40 48q3 15 17 15zM255 684l-78 -442q-14 -79 24 -123t124 -44t139 43.5t67 123.5l78 442
q5 26 31 26h44q15 0 20 -6t2 -20l-80 -451q-21 -120 -101 -184t-214 -64q-132 0 -191 74q-60 74 -38 193l77 432q5 26 30 26h44q15 0 20 -6t2 -20z" />
    <glyph glyph-name="utilde" unicode="&#x169;" horiz-adv-x="550" 
d="M473 714h25q16 0 12 -15q-9 -55 -32.5 -80t-65.5 -25q-31 0 -71 31t-58 31q-32 0 -40 -47q-3 -15 -17 -15h-26q-16 0 -13 15q18 105 98 105q38 0 73 -31q37 -32 57 -32q33 0 41 48q3 15 17 15zM479 516h42q23 0 19 -24l-73 -417q-5 -24 -14.5 -35t-33.5 -21
q-96 -34 -197 -34q-100 0 -142 53t-26 152l54 302q4 24 28 24h42q13 0 17 -5t2 -19l-54 -306q-21 -119 105 -119q57 0 116 17q16 7 19 23l67 385q4 24 29 24z" />
    <glyph glyph-name="Umacron" unicode="&#x16a;" horiz-adv-x="685" 
d="M346 859h234q13 0 17 -4.5t2 -17.5l-4 -20q-2 -14 -7.5 -18.5t-18.5 -4.5h-234q-13 0 -17 4.5t-2 18.5l4 20q4 22 26 22zM255 684l-78 -442q-14 -79 24 -123t124 -44t139 43.5t67 123.5l78 442q5 26 31 26h44q15 0 20 -6t2 -20l-80 -451q-21 -120 -101 -184t-214 -64
q-132 0 -191 74q-60 74 -38 193l77 432q5 26 30 26h44q15 0 20 -6t2 -20z" />
    <glyph glyph-name="umacron" unicode="&#x16b;" horiz-adv-x="550" 
d="M240 682h234q13 0 17 -4.5t2 -18.5l-4 -20q-2 -13 -7.5 -17.5t-18.5 -4.5h-234q-14 0 -17.5 4.5t-1.5 17.5l4 20q5 23 26 23zM479 516h42q23 0 19 -24l-73 -417q-5 -24 -14.5 -35t-33.5 -21q-96 -34 -197 -34q-100 0 -142 53t-26 152l54 302q4 24 28 24h42q13 0 17 -5
t2 -19l-54 -306q-21 -119 105 -119q57 0 116 17q16 7 19 23l67 385q4 24 29 24z" />
    <glyph glyph-name="Ubreve" unicode="&#x16c;" horiz-adv-x="685" 
d="M618 867q-52 -105 -171 -105q-58 0 -92.5 27t-41.5 78q-3 17 14 23l33 11q20 6 22 -8q9 -66 76 -66q66 0 98 66q9 14 23 9l32 -12q9 -5 10.5 -9t-3.5 -14zM255 684l-78 -442q-14 -79 24 -123t124 -44t139 43.5t67 123.5l78 442q5 26 31 26h44q15 0 20 -6t2 -20l-80 -451
q-21 -120 -101 -184t-214 -64q-132 0 -191 74q-60 74 -38 193l77 432q5 26 30 26h44q15 0 20 -6t2 -20z" />
    <glyph glyph-name="ubreve" unicode="&#x16d;" horiz-adv-x="550" 
d="M512 689q-52 -105 -168 -105q-58 0 -94 27t-43 78q-4 15 14 23l30 10q19 6 23 -9q7 -64 77 -64q67 0 100 66q7 13 21 9l34 -12q13 -7 6 -23zM479 516h42q23 0 19 -24l-73 -417q-5 -24 -14.5 -35t-33.5 -21q-96 -34 -197 -34q-100 0 -142 53t-26 152l54 302q4 24 28 24h42
q13 0 17 -5t2 -19l-54 -306q-21 -119 105 -119q57 0 116 17q16 7 19 23l67 385q4 24 29 24z" />
    <glyph glyph-name="Uring" unicode="&#x16e;" horiz-adv-x="685" 
d="M361 844q7 45 41 73.5t82 28.5q46 0 69.5 -28t15.5 -74q-8 -45 -41.5 -73t-79.5 -28q-47 0 -71 28t-16 73zM523 844q4 27 -8 42t-38 15q-28 0 -46.5 -15.5t-23.5 -41.5t8.5 -41t41.5 -15q26 0 44 15.5t22 40.5zM255 684l-78 -442q-14 -79 24 -123t124 -44t139 43.5
t67 123.5l78 442q5 26 31 26h44q15 0 20 -6t2 -20l-80 -451q-21 -120 -101 -184t-214 -64q-132 0 -191 74q-60 74 -38 193l77 432q5 26 30 26h44q15 0 20 -6t2 -20z" />
    <glyph glyph-name="uring" unicode="&#x16f;" horiz-adv-x="550" 
d="M250 648q7 45 41 73.5t82 28.5q46 0 69.5 -28.5t15.5 -74.5q-7 -45 -40.5 -73t-79.5 -28q-47 0 -71.5 28.5t-16.5 73.5zM412 647q5 26 -7.5 41.5t-38.5 15.5q-28 0 -47 -15.5t-23 -41.5q-5 -25 8.5 -40.5t40.5 -15.5q26 0 44.5 15.5t22.5 40.5zM479 516h42q23 0 19 -24
l-73 -417q-5 -24 -14.5 -35t-33.5 -21q-96 -34 -197 -34q-100 0 -142 53t-26 152l54 302q4 24 28 24h42q13 0 17 -5t2 -19l-54 -306q-21 -119 105 -119q57 0 116 17q16 7 19 23l67 385q4 24 29 24z" />
    <glyph glyph-name="Uhungarumlaut" unicode="&#x170;" horiz-adv-x="685" 
d="M309 791l99 101q19 23 42 16l26 -9q24 -9 3 -27l-123 -100q-19 -15 -30 -10l-13 5q-20 6 -4 24zM475 788l104 104q20 24 43 16l28 -9q26 -9 3 -27l-131 -103q-20 -14 -30 -10l-13 5q-21 4 -4 24zM255 684l-78 -442q-14 -79 24 -123t124 -44t139 43.5t67 123.5l78 442
q5 26 31 26h44q15 0 20 -6t2 -20l-80 -451q-21 -120 -101 -184t-214 -64q-132 0 -191 74q-60 74 -38 193l77 432q5 26 30 26h44q15 0 20 -6t2 -20z" />
    <glyph glyph-name="uhungarumlaut" unicode="&#x171;" horiz-adv-x="550" 
d="M202 607l99 101q19 24 42 16l26 -9q24 -8 3 -26l-123 -100q-19 -15 -30 -10l-14 4q-19 6 -3 24zM367 605l106 103q19 22 43 16l27 -9q27 -9 3 -27l-132 -101q-19 -16 -30 -10l-13 4q-21 7 -4 24zM479 516h42q23 0 19 -24l-73 -417q-5 -24 -14.5 -35t-33.5 -21
q-96 -34 -197 -34q-100 0 -142 53t-26 152l54 302q4 24 28 24h42q13 0 17 -5t2 -19l-54 -306q-21 -119 105 -119q57 0 116 17q16 7 19 23l67 385q4 24 29 24z" />
    <glyph glyph-name="Uogonek" unicode="&#x172;" horiz-adv-x="685" 
d="M640 710h44q15 0 20 -6t2 -20l-80 -451q-22 -128 -122 -199q-70 -50 -105 -105q-36 -56 -32 -83q5 -26 28 -26q22 0 43 18q12 8 14 -4l8 -32q3 -11 -5 -17q-35 -31 -98 -31q-31 0 -51 16.5t-22 46.5q-3 38 25.5 85.5t83.5 91.5q-37 -9 -82 -9q-132 0 -191 74
q-60 74 -38 193l77 432q5 26 30 26h44q15 0 20 -6t2 -20l-78 -442q-14 -79 24 -123t124 -44t139 43.5t67 123.5l78 442q5 26 31 26z" />
    <glyph glyph-name="uogonek" unicode="&#x173;" horiz-adv-x="550" 
d="M480 516h42q23 0 19 -24l-73 -417q-6 -27 -21 -41q-57 -52 -90 -108t-30 -81q3 -24 28 -24q24 0 43 16q13 9 14 -4l7 -26q3 -11 -5 -17q-42 -36 -98 -36q-70 0 -73 55q-3 39 28.5 92.5t85.5 100.5q-62 -17 -134 -17q-101 0 -143.5 54t-24.5 152l54 301q4 24 28 24h42
q13 0 17 -5t2 -19l-54 -306q-21 -119 105 -119q57 0 116 17q16 7 19 23l67 385q4 24 29 24z" />
    <glyph glyph-name="Wcircumflex" unicode="&#x174;" horiz-adv-x="887" 
d="M553 905h10q15 0 21.5 -3.5t18.5 -17.5l95 -103q14 -20 -15 -20h-32q-27 0 -36 14l-66 71l-93 -71q-17 -14 -39 -14h-37q-31 0 -8 20l131 103q18 15 25.5 18t24.5 3zM873 710h49q14 0 16.5 -6t-3.5 -20l-286 -662q-9 -22 -37 -22h-45q-29 0 -29 21l-42 445q-5 48 0 104
h-5q-13 -50 -37 -104l-200 -444q-10 -22 -38 -22h-43q-15 0 -21 4.5t-7 16.5l-55 663q-2 14 3 20t19 6h51q18 0 24 -4.5t7 -18.5l29 -433q1 -27 -3 -120h4q29 90 42 119l194 426q11 23 39 23h39q29 0 31 -23l41 -426q5 -50 1 -119h5q16 60 38 118l180 435q6 14 13.5 18.5
t25.5 4.5z" />
    <glyph glyph-name="wcircumflex" unicode="&#x175;" horiz-adv-x="730" 
d="M306 581h-38q-14 0 -16.5 6.5t7.5 13.5l132 103q17 15 24.5 18t25.5 3h10q15 0 21.5 -3.5t18.5 -17.5l94 -103q7 -7 3 -13.5t-18 -6.5h-30q-27 0 -36 14l-67 72l-92 -72q-16 -14 -39 -14zM699 516h30q17 0 20 -6t-6 -22l-221 -469q-9 -21 -36 -21h-30q-28 0 -29 21
l-37 295q-2 16 -2.5 38.5t-1 38t-0.5 16.5h-3q-29 -75 -36 -93l-141 -295q-10 -21 -37 -21h-26q-27 0 -29 21l-58 469q-2 17 3 22.5t22 5.5h28q22 0 30 -4.5t8 -19.5l28 -271v-87q-1 -15 0 -25h3q0 1 2.5 6.5t6.5 16.5t8 24q13 36 26 66l130 262q7 15 15 20t28 5h17
q21 0 27 -4.5t8 -19.5l36 -261q4 -27 4 -90q-1 -16 0 -25h4q1 1 15 44q17 51 25 70l122 269q7 15 16 19.5t31 4.5z" />
    <glyph glyph-name="Ycircumflex" unicode="&#x176;" horiz-adv-x="631" 
d="M426 905h9q15 0 22 -3.5t19 -17.5l94 -103q15 -20 -15 -20h-32q-25 0 -36 14l-65 71l-94 -71q-16 -14 -39 -14h-36q-29 0 -9 20l132 103q17 15 24.5 18t25.5 3zM629 710h51q14 0 16 -8t-7 -18l-324 -400l-46 -258q-5 -26 -30 -26h-45q-14 0 -19 6t-2 20l45 260l-183 398
q-6 10 -1 18t19 8h52q25 0 33 -4t14 -19l133 -303l239 303q11 15 20.5 19t34.5 4z" />
    <glyph glyph-name="ycircumflex" unicode="&#x177;" horiz-adv-x="552" 
d="M224 581h-39q-14 0 -16 6.5t8 13.5l132 103q17 15 24.5 18t25.5 3h9q15 0 22 -3.5t19 -17.5l94 -103q7 -7 3 -13.5t-18 -6.5h-30q-26 0 -37 14l-66 72l-92 -72q-17 -14 -39 -14zM475 516h42q25 0 19 -24l-91 -517q-37 -216 -253 -216q-143 0 -183 103q-13 25 16 39l30 14
q15 7 22.5 5t14.5 -14q25 -67 112 -67q127 0 151 132l10 54q-83 -21 -144 -21q-100 0 -142 53.5t-24 151.5l49 283q4 24 28 24h42q25 0 19 -24l-50 -287q-22 -119 105 -119q60 0 131 21l68 385q5 24 28 24z" />
    <glyph glyph-name="Ydieresis" unicode="&#x178;" horiz-adv-x="631" 
d="M321 875h7q24 0 31.5 -9t3.5 -32l-2 -9q-5 -24 -15 -32.5t-34 -8.5h-7q-24 0 -31 8.5t-3 32.5l2 9q4 23 14.5 32t33.5 9zM518 875h7q24 0 31.5 -9t2.5 -32l-1 -9q-5 -23 -15.5 -32t-34.5 -9h-6q-24 0 -31.5 9t-3.5 32l2 9q4 23 14.5 32t34.5 9zM629 710h51q14 0 16 -8
t-7 -18l-324 -400l-46 -258q-5 -26 -30 -26h-45q-14 0 -19 6t-2 20l45 260l-183 398q-6 10 -1 18t19 8h52q25 0 33 -4t14 -19l133 -303l239 303q11 15 20.5 19t34.5 4z" />
    <glyph glyph-name="Zacute" unicode="&#x179;" horiz-adv-x="571" 
d="M274 805l172 95q32 17 45 -1l15 -24q14 -20 -9 -28l-189 -83q-25 -9 -31 1l-8 15q-7 10 -6 15t11 10zM137 710h445q15 0 20 -6t2 -20l-6 -37q-4 -18 -14 -28l-468 -529h366q14 0 19 -5.5t2 -20.5l-6 -38q-5 -26 -31 -26h-459q-14 0 -19 6t-2 20l6 37q3 14 14 29l467 528
h-352q-14 0 -19 6t-3 20l7 38q5 26 31 26z" />
    <glyph glyph-name="zacute" unicode="&#x17a;" horiz-adv-x="458" 
d="M182 629l172 95q32 15 44 -2l15 -24q14 -20 -8 -27l-190 -84q-24 -9 -31 1l-8 15q-11 17 6 26zM106 81h265q13 0 17 -5t2 -19l-5 -33q-5 -24 -28 -24h-355q-25 0 -19 24l5 33q5 16 14 25l335 353h-254q-23 0 -19 24l5 33q5 24 28 24h346q25 0 19 -24l-5 -33
q-1 -11 -14 -27z" />
    <glyph glyph-name="Zdotaccent" unicode="&#x17b;" horiz-adv-x="571" 
d="M392 874h5q25 0 32.5 -9t3.5 -34l-2 -7q-4 -25 -14.5 -34t-35.5 -9h-5q-25 0 -32.5 9t-3.5 34l2 7q5 25 15.5 34t34.5 9zM137 710h445q15 0 20 -6t2 -20l-6 -37q-4 -18 -14 -28l-468 -529h366q14 0 19 -5.5t2 -20.5l-6 -38q-5 -26 -31 -26h-459q-14 0 -19 6t-2 20l6 37
q3 14 14 29l467 528h-352q-14 0 -19 6t-3 20l7 38q5 26 31 26z" />
    <glyph glyph-name="zdotaccent" unicode="&#x17c;" horiz-adv-x="458" 
d="M299 696h5q25 0 32.5 -9t3.5 -34l-1 -7q-4 -25 -15 -34t-36 -9h-5q-25 0 -32.5 9t-2.5 34l1 7q4 25 14.5 34t35.5 9zM106 81h265q13 0 17 -5t2 -19l-5 -33q-5 -24 -28 -24h-355q-25 0 -19 24l5 33q5 16 14 25l335 353h-254q-23 0 -19 24l5 33q5 24 28 24h346q25 0 19 -24
l-5 -33q-1 -11 -14 -27z" />
    <glyph glyph-name="Zcaron" unicode="&#x17d;" horiz-adv-x="571" 
d="M515 904h35q10 0 13.5 -2.5t2 -7t-8.5 -10.5l-130 -103q-17 -14 -25 -17.5t-23 -3.5h-10q-17 0 -23.5 3t-18.5 18l-95 103q-7 8 -3 14t18 6h33q15 0 21 -2t14 -12l67 -71l91 71q16 14 42 14zM137 710h445q15 0 20 -6t2 -20l-6 -37q-4 -18 -14 -28l-468 -529h366
q14 0 19 -5.5t2 -20.5l-6 -38q-5 -26 -31 -26h-459q-14 0 -19 6t-2 20l6 37q3 14 14 29l467 528h-352q-14 0 -19 6t-3 20l7 38q5 26 31 26z" />
    <glyph glyph-name="zcaron" unicode="&#x17e;" horiz-adv-x="458" 
d="M420 724h37q14 0 15.5 -6t-8.5 -14l-131 -103q-17 -14 -24.5 -17.5t-21.5 -3.5h-9q-18 0 -25 3t-19 18l-95 103q-6 8 -2.5 14t17.5 6h32q24 0 34 -14l68 -71l91 71q16 14 41 14zM97 516h346q25 0 19 -24l-5 -33q-1 -11 -14 -27l-337 -351h265q13 0 17 -5t2 -19l-5 -33
q-5 -24 -28 -24h-355q-25 0 -19 24l5 33q5 16 14 25l335 353h-254q-23 0 -19 24l5 33q5 24 28 24z" />
    <glyph glyph-name="longs" unicode="&#x17f;" horiz-adv-x="273" 
d="M143 516l4 19q19 106 80 155.5t175 49.5q25 0 19 -24l-5 -35q-4 -24 -30 -24q-71 0 -105 -29.5t-46 -99.5l-89 -504q-4 -24 -29 -24h-40q-26 0 -20 24l72 409h-69q-24 0 -20 24l6 35q4 24 29 24h68z" />
    <glyph glyph-name="florin" unicode="&#x192;" horiz-adv-x="432" 
d="M185 399l25 131q21 106 78.5 158t162.5 52q14 0 18.5 -5.5t3.5 -18.5l-3 -35q-2 -24 -26 -24q-65 0 -98.5 -32t-45.5 -99l-25 -127h121q14 0 18.5 -5.5t3.5 -18.5l-3 -35q-2 -14 -7.5 -19t-18.5 -5h-130l-63 -325q-21 -106 -79 -158.5t-163 -52.5q-13 0 -18 5t-4 19l3 35
q1 24 27 24q64 0 98 32.5t46 98.5l63 322h-115q-13 0 -18 5t-4 19l3 35q1 24 26 24h124z" />
    <glyph glyph-name="Aringacute" unicode="&#x1fa;" 
d="M354 895l151 65q29 13 42 -1l15 -20q13 -14 -7 -19l-177 -60q-22 -7 -27 1l-9 11q-10 13 12 23zM310 750q8 44 43 71t83 27t73.5 -28t17.5 -75q-9 -52 -65 -75l141 -644q5 -26 -22 -26h-36q-25 0 -33.5 4.5t-10.5 18.5l-34 166h-292l-94 -166q-8 -14 -18 -18.5t-34 -4.5
h-39q-28 0 -13 26l370 644q-45 24 -37 80zM474 748q4 24 -8.5 39t-37.5 15t-44 -15t-23 -39q-4 -22 9.5 -36.5t38.5 -14.5q24 0 42.5 14.5t22.5 36.5zM454 269l-43 215q-7 38 -8 84q-1 49 -3 52h-6q0 -1 -2.5 -6.5t-7 -18t-10.5 -26.5q-20 -49 -39 -84l-119 -216h238z" />
    <glyph glyph-name="aringacute" unicode="&#x1fb;" horiz-adv-x="535" 
d="M247 825l161 70q28 13 41 -1l14 -18q12 -14 -8 -20l-177 -62q-23 -6 -29 1l-8 11q-10 12 6 19zM269 598q-25 27 -17 74q7 44 43 74q35 27 81 27t69.5 -28.5t15.5 -74.5q-8 -45 -41.5 -72.5t-79.5 -27.5q-47 0 -71 28zM415 671q4 25 -8.5 41t-38.5 16q-27 0 -46 -15.5
t-24 -41.5q-4 -26 9.5 -41.5t40.5 -15.5q25 0 43.5 15.5t23.5 41.5zM43 198l25 140q18 101 78.5 147t174.5 46q107 0 170 -31q22 -11 27 -21t1 -34l-71 -402q-2 -14 -8.5 -20t-21.5 -10q-96 -28 -205 -28q-99 0 -143.5 57.5t-26.5 155.5zM412 434q-47 15 -98 15
q-72 0 -109.5 -28.5t-49.5 -94.5l-24 -135q-10 -60 16.5 -92t86.5 -32q71 0 132 19l58 327q1 9 -1 12.5t-11 8.5z" />
    <glyph glyph-name="AEacute" unicode="&#x1fc;" horiz-adv-x="843" 
d="M604 805l172 95q32 17 44 -1l15 -24q14 -20 -8 -28l-190 -83q-24 -9 -30 1l-9 15q-6 10 -5 15t11 10zM495 90h267q14 0 19 -6t2 -20l-6 -38q-5 -26 -31 -26h-332q-15 0 -19.5 6t-2.5 20l25 137h-232l-109 -140q-12 -14 -21.5 -18.5t-30.5 -4.5h-44q-28 0 -13 26l522 662
q19 22 37 22h333q14 0 19 -6t3 -20l-7 -38q-5 -26 -31 -26h-255l-38 -216h209q15 0 19.5 -5.5t2.5 -20.5l-7 -37q-4 -27 -31 -27h-209zM430 243l56 312l-239 -312h183z" />
    <glyph glyph-name="aeacute" unicode="&#x1fd;" horiz-adv-x="779" 
d="M354 629l171 95q33 15 45 -2l15 -24q14 -20 -9 -27l-189 -84q-24 -7 -31 1l-8 15q-12 17 6 26zM425 447q61 84 172 84q96 0 142 -46.5t30 -129.5q-14 -70 -72 -106.5t-152 -36.5q-57 0 -125 15l-8 -44q-19 -120 98 -120q88 0 134 67q18 22 37 9l25 -16q20 -15 0 -39
q-69 -99 -210 -99q-91 0 -130 52q-64 -52 -171 -52q-103 0 -145.5 41.5t-28.5 123.5q14 77 70 113.5t162 36.5q43 0 98 -7l6 36q7 27 6 57t-19 46q-22 19 -68 19q-73 0 -119 -58q-10 -12 -16 -14.5t-18 3.5l-29 13q-23 10 -7 34q70 102 205 102q58 0 89 -21t44 -63zM681 360
q11 46 -14 70.5t-83 24.5t-97 -33t-49 -93l-6 -34q67 -14 126 -14q107 0 123 79zM331 179l7 43q-66 7 -107 7q-106 0 -121 -85q-8 -44 13 -64t76 -20q11 0 22 1t21 3l17.5 3.5t16 5t14 6t12.5 6.5t10 5.5t9.5 5.5t7.5 5q-6 30 2 78z" />
    <glyph glyph-name="Oslashacute" unicode="&#x1fe;" horiz-adv-x="668" 
d="M324 815l172 95q32 17 45 -1l15 -24q14 -20 -8 -28l-190 -83q-25 -9 -31 1l-8 15q-10 16 5 25zM653 752h52q11 0 3 -9l-86 -106q46 -70 27 -176l-40 -228q-21 -120 -103.5 -184t-216.5 -64q-104 0 -162 43l-51 -61q-8 -8 -19 -8h-51q-9 0 -2 10l80 99q-52 67 -32 179
l40 228q21 120 103.5 185t217.5 65q107 0 168 -49l54 68q8 8 18 8zM158 158l360 441q-39 36 -117 36q-89 0 -144 -43t-69 -123l-40 -228q-9 -52 10 -83zM514 241l41 228q8 46 -8 76l-358 -439q40 -31 113 -31q88 0 143 43t69 123z" />
    <glyph glyph-name="oslashacute" unicode="&#x1ff;" horiz-adv-x="541" 
d="M229 629l172 95q32 15 44 -2l15 -24q14 -20 -8 -27l-190 -84q-24 -9 -31 1l-8 15q-11 17 6 26zM493 552h37q8 0 2 -9l-56 -69q47 -53 32 -139l-29 -163q-16 -90 -82 -138.5t-174 -48.5q-70 0 -120 26l-32 -38q-8 -8 -19 -8h-35q-11 0 -3 9l52 63q-50 53 -35 142l29 163
q16 89 83 139t173 50q75 0 125 -29l35 42q8 8 17 8zM131 118l253 313q-31 19 -81 19q-63 0 -103.5 -29t-50.5 -81l-29 -164q-6 -34 11 -58zM408 389l-248 -306q29 -17 75 -17q64 0 105.5 29t50.5 81l28 161q5 31 -11 52z" />
    <glyph glyph-name="Scommaaccent" unicode="&#x218;" horiz-adv-x="623" 
d="M91 530q17 94 93 144.5t203 50.5q96 0 150.5 -38.5t79.5 -116.5q4 -13 0 -19.5t-19 -12.5l-42 -18q-14 -6 -20.5 -3.5t-11.5 15.5q-32 100 -151 100q-166 0 -186 -110q-10 -64 45 -88q42 -20 126 -30q100 -12 161 -52q73 -49 53 -166q-34 -201 -307 -201q-213 0 -249 171
q-4 25 22 34l45 15q14 5 20 1.5t10 -17.5q29 -113 161 -113q179 0 202 122q11 70 -59 94q-38 13 -99 20q-81 7 -139 34q-35 17 -56 39q-49 53 -32 145zM307 -96l-72 -138q-10 -22 -31 -22h-29q-20 0 -12 17l52 143q4 15 11 20t22 5h40q32 0 19 -25z" />
    <glyph glyph-name="scommaaccent" unicode="&#x219;" horiz-adv-x="497" 
d="M60 381q12 72 70 111t157 39q157 0 188 -108q7 -25 -17 -35l-33 -13q-14 -5 -20 -3t-12 14q-21 64 -118 64q-113 0 -127 -72q-9 -54 41 -67q20 -6 80 -12q88 -10 133 -40q54 -37 38 -121q-13 -73 -73.5 -113t-162.5 -40q-172 0 -199 123q-5 23 21 32l37 12q13 4 18.5 1
t10.5 -16q11 -39 40.5 -55.5t81.5 -16.5q126 0 139 76q6 40 -20.5 56t-99.5 23q-43 4 -72.5 12t-58 24.5t-39.5 48t-3 76.5zM253 -85l-60 -125q-14 -22 -34 -22h-23q-12 0 -14.5 4t0.5 15l46 128q7 28 36 28h34q30 0 15 -28z" />
    <glyph glyph-name="uni021A" unicode="&#x21a;" horiz-adv-x="551" 
d="M111 710h474q15 0 20 -6t2 -20l-7 -38q-5 -26 -30 -26h-189l-105 -594q-5 -26 -31 -26h-44q-14 0 -19 6t-2 20l105 594h-189q-15 0 -19.5 6t-2.5 20l7 38q5 26 30 26zM263 -92l-71 -138q-11 -23 -32 -23h-28q-11 0 -13.5 3.5t0.5 14.5l53 143q4 15 11 20t22 5h40
q31 0 18 -25z" />
    <glyph glyph-name="uni021B" unicode="&#x21b;" horiz-adv-x="367" 
d="M196 636h42q23 0 19 -24l-17 -96h131q25 0 19 -24l-6 -35q-2 -14 -8 -19t-19 -5h-131l-41 -233q-13 -80 9 -105t97 -25q14 0 18.5 -5t1.5 -19l-6 -36q-3 -14 -8.5 -18.5t-20.5 -5.5q-122 -3 -162 43q-41 47 -19 169l42 235h-83q-14 0 -18 5.5t-2 18.5l6 35q4 24 28 24h83
l17 96q4 24 28 24zM213 -92l-72 -138q-11 -23 -31 -23h-29q-11 0 -13.5 3.5t1.5 14.5l52 143q7 25 33 25h40q32 0 19 -25z" />
    <glyph glyph-name="dotlessj" unicode="&#x237;" horiz-adv-x="215" 
d="M127 516h41q14 0 18 -5t2 -19l-88 -500q-39 -222 -256 -222q-14 0 -18.5 5t-2.5 19l6 35q5 24 29 24q68 0 104 34.5t49 106.5l87 498q4 24 29 24z" />
    <glyph glyph-name="circumflex" unicode="&#x2c6;" horiz-adv-x="385" 
d="M271 729h10q15 0 21.5 -3t18.5 -18l95 -103q7 -7 3 -13.5t-18 -6.5h-31q-27 0 -36 14l-66 71l-92 -71q-17 -14 -40 -14h-38q-14 0 -16 6.5t7 13.5l132 103q17 15 24.5 18t25.5 3z" />
    <glyph glyph-name="caron" unicode="&#x2c7;" horiz-adv-x="332" 
d="M365 728h37q28 0 8 -20l-131 -103q-17 -14 -25 -17.5t-22 -3.5h-9q-18 0 -25 3t-19 18l-94 103q-7 8 -3.5 14t17.5 6h32q25 0 34 -14l68 -71l91 71q17 14 41 14z" />
    <glyph glyph-name="breve" unicode="&#x2d8;" horiz-adv-x="287" 
d="M372 693q-52 -106 -168 -106q-58 0 -94 27.5t-43 78.5q-4 16 14 22l30 11q19 4 23 -9q7 -64 77 -64q67 0 100 66q7 13 21 9l34 -13q13 -6 6 -22z" />
    <glyph glyph-name="dotaccent" unicode="&#x2d9;" horiz-adv-x="216" 
d="M187 699h5q25 0 32.5 -8.5t3.5 -33.5l-1 -7q-4 -25 -15 -34t-36 -9h-5q-25 0 -32.5 9t-3.5 34l2 7q4 25 14.5 33.5t35.5 8.5z" />
    <glyph glyph-name="ring" unicode="&#x2da;" horiz-adv-x="240" 
d="M94 654q8 46 42.5 74t81.5 28q46 0 69 -28.5t15 -74.5q-7 -45 -40.5 -73t-79.5 -28q-47 0 -71.5 28.5t-16.5 73.5zM256 653q5 26 -7.5 41.5t-38.5 15.5q-28 0 -47 -15.5t-23 -41.5q-5 -25 8.5 -40.5t40.5 -15.5q26 0 44.5 15.5t22.5 40.5z" />
    <glyph glyph-name="ogonek" unicode="&#x2db;" horiz-adv-x="252" 
d="M94 0h60q-53 -47 -80 -88t-24 -66q5 -26 28 -26q22 0 43 18q12 7 15 -4l7 -32q5 -11 -5 -17q-35 -31 -98 -31q-31 0 -51 16.5t-22 46.5q-8 87 127 183z" />
    <glyph glyph-name="tilde" unicode="&#x2dc;" horiz-adv-x="305" 
d="M350 718h25q16 0 13 -15q-10 -55 -33.5 -80t-65.5 -25q-31 0 -71 31t-58 31q-32 0 -40 -47q-3 -15 -17 -15h-26q-16 0 -13 15q18 105 98 105q39 0 74 -31q35 -32 56 -32q34 0 41 48q3 15 17 15z" />
    <glyph glyph-name="hungarumlaut" unicode="&#x2dd;" horiz-adv-x="395" 
d="M134 611l98 101q19 23 43 16l26 -9q23 -7 3 -27l-123 -99q-21 -14 -31 -10l-13 4q-19 6 -3 24zM299 609l105 102q19 24 43 16l28 -9q26 -9 3 -26l-132 -102q-19 -15 -30 -10l-14 5q-20 6 -3 24z" />
    <glyph glyph-name="uni0326" unicode="&#x326;" horiz-adv-x="0" 
d="M123 -92l-72 -138q-11 -23 -31 -23h-29q-11 0 -13.5 3.5t1.5 14.5l52 143q4 15 11 20t22 5h41q31 0 18 -25z" />
    <glyph glyph-name="pi" unicode="&#x3c0;" horiz-adv-x="625" 
d="M208 516h416q25 0 19 -24l-6 -34q-3 -24 -27 -24h-45l-51 -286q-9 -56 5 -98q7 -25 -19 -36l-37 -14q-25 -11 -32 13q-20 58 -5 139l50 282h-224l-72 -410q-4 -24 -29 -24h-42q-13 0 -17 5t-2 19l72 410q-38 -2 -84 -23q-25 -12 -30 10l-8 33q-7 22 17 31q63 31 151 31z
" />
    <glyph glyph-name="uni0401" unicode="&#x401;" horiz-adv-x="576" 
d="M311 867h7q24 0 31.5 -9t2.5 -32l-1 -9q-5 -24 -15 -32.5t-34 -8.5h-7q-23 0 -30.5 9t-3.5 32l1 9q4 23 15 32t34 9zM509 867h6q23 0 30.5 -9t3.5 -32l-2 -9q-4 -23 -14.5 -32t-33.5 -9h-7q-24 0 -31.5 9t-3.5 32l2 9q4 23 14.5 32t35.5 9zM175 710h402q14 0 19 -6t3 -20
l-7 -38q-5 -26 -31 -26h-331l-38 -215h285q15 0 19.5 -6t2.5 -21l-7 -37q-5 -26 -31 -26h-286l-39 -225h344q14 0 19 -6t2 -20l-6 -38q-5 -26 -31 -26h-414q-15 0 -19.5 6t-2.5 20l116 658q5 26 31 26z" />
    <glyph glyph-name="uni0410" unicode="&#x410;" 
d="M461 691l142 -665q5 -26 -22 -26h-36q-25 0 -33.5 4.5t-10.5 18.5l-33 163h-296l-91 -163q-8 -14 -18 -18.5t-34 -4.5h-39q-28 0 -13 26l377 664q12 22 37 22h40q15 0 21.5 -4.5t8.5 -16.5zM455 265l-54 263q-7 75 -2 91v3h-5q-10 -48 -34 -93l-146 -264h241z" />
    <glyph glyph-name="uni0411" unicode="&#x411;" horiz-adv-x="631" 
d="M175 710h423q15 0 20 -6t2 -20l-7 -38q-5 -26 -31 -26h-352l-36 -199h210q99 0 149 -58.5t32 -157.5q-17 -98 -82 -151.5t-164 -53.5h-290q-14 0 -18.5 5.5t-2.5 19.5l116 659q5 26 31 26zM485 211q11 56 -16 88t-85 32h-206l-42 -241h205q58 0 96.5 32.5t47.5 88.5z" />
    <glyph glyph-name="uni0412" unicode="&#x412;" 
d="M175 710h279q93 0 137.5 -50.5t29.5 -137.5q-22 -112 -113 -152l-1 -3q51 -16 72 -63.5t9 -116.5q-17 -90 -83 -138.5t-166 -48.5h-289q-15 0 -19.5 6t-2.5 20l116 658q5 26 31 26zM520 512q20 108 -92 108h-198l-39 -215h199q110 0 130 107zM488 203q10 55 -15 84.5
t-81 29.5h-216l-40 -227h216q116 0 136 113z" />
    <glyph glyph-name="uni0413" unicode="&#x413;" horiz-adv-x="520" 
d="M175 710h374q14 0 19 -6t3 -20l-7 -38q-5 -26 -31 -26h-303l-105 -594q-5 -26 -31 -26h-44q-15 0 -19.5 6t-2.5 20l116 658q5 26 31 26z" />
    <glyph glyph-name="uni0414" unicode="&#x414;" horiz-adv-x="727" 
d="M272 710h397q15 0 20 -6t2 -20l-105 -594h59q14 0 19 -6t2 -20l-33 -191q-5 -26 -31 -26h-43q-14 0 -19 6t-2 20l22 127h-499l-22 -127q-5 -26 -31 -26h-42q-15 0 -19.5 6t-2.5 20l34 191q5 26 31 26h30q44 29 81 94q49 87 86 295l36 205q2 14 8.5 20t21.5 6zM583 620
h-260l-24 -141q-51 -288 -146 -389h337z" />
    <glyph glyph-name="uni0415" unicode="&#x415;" horiz-adv-x="576" 
d="M175 710h402q14 0 19 -6t3 -20l-7 -38q-5 -26 -31 -26h-331l-38 -215h285q15 0 19.5 -6t2.5 -21l-7 -37q-5 -26 -31 -26h-286l-39 -225h344q14 0 19 -6t2 -20l-6 -38q-5 -26 -31 -26h-414q-15 0 -19.5 6t-2.5 20l116 658q5 26 31 26z" />
    <glyph glyph-name="uni0416" unicode="&#x416;" horiz-adv-x="927" 
d="M927 710h49q13 0 15.5 -8t-7.5 -17l-261 -311q47 -27 73 -102l84 -245q9 -27 -19 -27h-42q-24 0 -32.5 4t-13.5 19l-69 214q-14 45 -40 62t-82 17h-47l-51 -290q-5 -26 -31 -26h-44q-15 0 -19.5 6t-2.5 20l51 290h-47q-53 0 -83.5 -16.5t-61.5 -62.5l-145 -214
q-10 -14 -21 -18.5t-36 -4.5h-44q-28 0 -9 27l170 245q53 77 112 102l-154 311q-6 10 -1.5 17.5t18.5 7.5h45q24 0 32 -3.5t15 -18.5l137 -286q18 2 42 2h47l49 280q5 26 31 26h44q14 0 19 -6t3 -20l-50 -280h47q23 0 37 -2l237 286q12 15 21.5 18.5t34.5 3.5z" />
    <glyph glyph-name="uni0417" unicode="&#x417;" horiz-adv-x="624" 
d="M601 515q-21 -107 -112 -146q100 -52 78 -178q-38 -206 -292 -206q-235 0 -262 172q-4 25 23 34l43 14q27 8 31 -17q9 -59 50 -86t128 -27q155 0 178 125q10 55 -15 86.5t-79 31.5h-158q-15 0 -19.5 5.5t-1.5 20.5l5 35q5 26 31 26h147q52 0 85.5 29.5t42.5 80.5
q10 59 -21 89.5t-102 30.5q-81 0 -128.5 -26.5t-77.5 -85.5q-14 -23 -37 -16l-38 15q-25 9 -11 33q45 88 118 129t189 41q114 0 168 -56.5t37 -153.5z" />
    <glyph glyph-name="uni0418" unicode="&#x418;" horiz-adv-x="698" 
d="M626 710h45q14 0 19 -6t3 -20l-116 -658q-5 -26 -31 -26h-44q-15 0 -19.5 6t-2.5 20l62 348q17 102 56 215h-4q-45 -73 -136 -183l-334 -393q-10 -13 -29 -13h-45q-15 0 -19.5 6t-2.5 20l116 658q5 26 31 26h44q15 0 20 -6t2 -20l-61 -341q-17 -102 -56 -222h3
q51 80 143 192l327 384q10 13 29 13z" />
    <glyph glyph-name="uni0419" unicode="&#x419;" horiz-adv-x="698" 
d="M433 762q-117 0 -134 105q-1 16 14 23l34 11q18 4 22 -8q7 -66 75 -66t99 66q8 15 22 9l33 -12q14 -8 7 -23q-53 -105 -172 -105zM626 710h45q14 0 19 -6t3 -20l-116 -658q-5 -26 -31 -26h-44q-15 0 -19.5 6t-2.5 20l62 348q17 102 56 215h-4q-45 -73 -136 -183
l-334 -393q-10 -13 -29 -13h-45q-15 0 -19.5 6t-2.5 20l116 658q5 26 31 26h44q15 0 20 -6t2 -20l-61 -341q-17 -102 -56 -222h3q51 80 143 192l327 384q10 13 29 13z" />
    <glyph glyph-name="uni041A" unicode="&#x41a;" horiz-adv-x="617" 
d="M469 272l83 -245q9 -27 -18 -27h-44q-24 0 -33 4.5t-14 18.5l-70 214q-15 46 -39 62.5t-78 16.5h-80l-51 -290q-5 -26 -31 -26h-44q-15 0 -19.5 6t-2.5 20l116 658q5 26 31 26h44q15 0 20 -6t2 -20l-50 -280h71h18l263 284q13 14 23 18t33 4h49q14 0 16 -8t-7 -17
l-286 -303q69 -23 98 -110z" />
    <glyph glyph-name="uni041B" unicode="&#x41b;" horiz-adv-x="666" 
d="M252 710h392q15 0 20 -6t2 -20l-116 -658q-5 -26 -31 -26h-44q-15 0 -19.5 6t-2.5 20l105 594h-253l-27 -156q-35 -202 -91 -314q-22 -45 -55 -80q-32 -34 -56 -48q-23 -15 -61 -32q-27 -10 -33 12l-13 38q-8 26 19 36q22 10 31 14.5t21.5 15.5t28.5 28q24 26 41 64
q44 98 73 266l38 220q5 26 31 26z" />
    <glyph glyph-name="uni041C" unicode="&#x41c;" horiz-adv-x="807" 
d="M740 710h39q15 0 20 -6t2 -20l-116 -658q-5 -26 -31 -26h-39q-15 0 -19.5 6t-2.5 20l64 361q15 80 51 188h-5q-49 -88 -110 -168l-166 -226q-15 -19 -34 -19h-21q-12 0 -17.5 3.5t-10.5 15.5l-89 228q-29 70 -46 166h-5q-2 -100 -18 -188l-63 -361q-5 -26 -31 -26h-42
q-15 0 -19.5 6t-2.5 20l116 658q5 26 31 26h33q16 0 22.5 -4t11.5 -16l158 -409l300 408q16 21 40 21z" />
    <glyph glyph-name="uni041D" unicode="&#x41d;" horiz-adv-x="685" 
d="M614 710h44q14 0 19 -6t3 -20l-116 -658q-5 -26 -31 -26h-44q-15 0 -19.5 6t-2.5 20l51 289h-343l-50 -289q-5 -26 -31 -26h-44q-15 0 -19.5 6t-2.5 20l116 658q5 26 31 26h44q15 0 20 -6t2 -20l-49 -279h342l49 279q5 26 31 26z" />
    <glyph glyph-name="uni041E" unicode="&#x41e;" horiz-adv-x="667" 
d="M66 247l40 228q21 120 103.5 185t217.5 65q133 0 195 -71t41 -193l-40 -228q-21 -120 -103.5 -184t-216.5 -64q-133 0 -195.5 70.5t-41.5 191.5zM528 241l41 228q14 80 -26 123t-128 43q-89 0 -144 -43t-69 -123l-40 -228q-14 -80 26 -123t128 -43t143 43t69 123z" />
    <glyph glyph-name="uni041F" unicode="&#x41f;" horiz-adv-x="680" 
d="M175 710h477q15 0 20 -6t2 -20l-116 -658q-5 -26 -31 -26h-44q-15 0 -19.5 6t-2.5 20l105 594h-336l-105 -594q-5 -26 -31 -26h-44q-15 0 -19.5 6t-2.5 20l116 658q5 26 31 26z" />
    <glyph glyph-name="uni0420" unicode="&#x420;" horiz-adv-x="627" 
d="M175 710h267q104 0 157 -65q51 -64 31 -171q-19 -104 -89 -160t-179 -56h-196l-41 -232q-5 -26 -31 -26h-44q-15 0 -19.5 6t-2.5 20l116 658q5 26 31 26zM181 348h188q65 0 108 35.5t55 99.5q11 64 -19.5 100.5t-95.5 36.5h-187z" />
    <glyph glyph-name="uni0421" unicode="&#x421;" horiz-adv-x="635" 
d="M65 246l40 228q21 120 104.5 185.5t217.5 65.5q210 0 234 -172q3 -14 -1 -21.5t-20 -12.5l-38 -12q-15 -5 -21.5 -1.5t-9.5 17.5q-9 58 -46.5 85t-110.5 27q-90 0 -144.5 -43t-67.5 -122l-41 -229q-14 -80 26 -122.5t128 -42.5q74 0 121 27.5t77 85.5q14 26 37 17l41 -16
q24 -11 11 -34q-86 -171 -300 -171q-132 0 -195 70t-42 191z" />
    <glyph glyph-name="uni0422" unicode="&#x422;" horiz-adv-x="551" 
d="M111 710h474q15 0 20 -6t2 -20l-7 -38q-5 -26 -30 -26h-189l-105 -594q-5 -26 -31 -26h-44q-14 0 -19 6t-2 20l105 594h-189q-15 0 -19.5 6t-2.5 20l7 38q5 26 30 26z" />
    <glyph glyph-name="uni0423" unicode="&#x423;" horiz-adv-x="601" 
d="M605 710h48q27 0 10 -26l-432 -661q-10 -14 -18.5 -18.5t-29.5 -4.5h-53q-26 0 -9 26l122 180l-165 478q-9 26 18 26h45q19 0 25 -1t11 -5.5t9 -16.5l126 -377l245 377q9 17 16 20t32 3z" />
    <glyph glyph-name="uni0424" unicode="&#x424;" horiz-adv-x="834" 
d="M497 735h44q14 0 18.5 -6t2.5 -20l-10 -59h58q129 0 187.5 -68.5t36.5 -189.5l-14 -77q-20 -120 -101 -185t-212 -65h-58l-11 -59q-5 -26 -30 -26h-44q-15 0 -20 6t-2 20l10 59h-58q-129 0 -187.5 69t-36.5 190l14 77q21 120 101.5 184.5t211.5 64.5h58l11 59q5 26 31 26
zM439 563h-58q-84 0 -135.5 -42t-65.5 -121l-15 -85q-14 -79 22.5 -121t121.5 -42h58zM723 315l16 85q14 79 -22.5 121t-122.5 42h-58l-72 -411h58q84 0 135.5 42t65.5 121z" />
    <glyph glyph-name="uni0425" unicode="&#x425;" horiz-adv-x="626" 
d="M606 710h56q12 0 15 -8t-6 -17l-285 -324l177 -334q7 -10 2 -18.5t-20 -8.5h-51q-24 0 -32 4t-15 19l-136 263l-222 -263q-13 -16 -22 -19.5t-33 -3.5h-54q-15 0 -16.5 8t8.5 19l293 335l-169 323q-6 9 -1 17t18 8h50q23 0 31 -4t17 -18l128 -250l216 250q13 14 21.5 18
t29.5 4z" />
    <glyph glyph-name="uni0426" unicode="&#x426;" horiz-adv-x="705" 
d="M565 90h56q15 0 20 -6t2 -20l-34 -191q-5 -26 -31 -26h-40q-15 0 -19.5 6t-1.5 20l22 127h-489q-15 0 -19.5 6t-2.5 20l116 658q5 26 31 26h44q15 0 20 -6t2 -20l-105 -594h332l105 594q5 26 31 26h44q14 0 19 -6t3 -20z" />
    <glyph glyph-name="uni0427" unicode="&#x427;" horiz-adv-x="633" 
d="M580 710h44q15 0 20 -6t2 -20l-116 -658q-5 -26 -31 -26h-44q-15 0 -19.5 6t-1.5 20l44 254q-74 -17 -172 -17q-132 0 -182.5 63.5t-29.5 188.5l30 169q5 26 30 26h45q14 0 19 -6t2 -20l-31 -176q-14 -82 17 -118.5t120 -36.5q106 0 169 19l55 312q2 14 8.5 20t21.5 6z
" />
    <glyph glyph-name="uni0428" unicode="&#x428;" horiz-adv-x="920" 
d="M849 710h44q15 0 19.5 -6t2.5 -20l-116 -658q-5 -26 -31 -26h-718q-15 0 -19.5 6t-2.5 20l116 658q5 26 31 26h44q15 0 20 -6t2 -20l-105 -594h241l104 594q5 26 31 26h44q15 0 20 -6t2 -20l-105 -594h240l105 594q5 26 31 26z" />
    <glyph glyph-name="uni0429" unicode="&#x429;" horiz-adv-x="950" 
d="M810 90h57q15 0 20 -6t2 -20l-34 -191q-5 -26 -31 -26h-40q-15 0 -19.5 6t-2.5 20l23 127h-735q-15 0 -19.5 6t-2.5 20l116 658q5 26 31 26h44q15 0 20 -6t2 -20l-105 -594h241l104 594q5 26 31 26h44q15 0 20 -6t2 -20l-105 -594h240l105 594q5 26 31 26h44
q15 0 19.5 -6t2.5 -20z" />
    <glyph glyph-name="uni042A" unicode="&#x42a;" horiz-adv-x="728" 
d="M303 452h191q107 0 161 -64q53 -65 34 -170t-88.5 -161.5t-177.5 -56.5h-270q-14 0 -19 6t-2 20l104 594h-143q-14 0 -19 6t-2 20l6 38q5 26 31 26h213q15 0 20 -6t2 -20zM240 90h187q65 0 108 36.5t55 100.5q11 64 -19.5 99.5t-95.5 35.5h-187z" />
    <glyph glyph-name="uni042B" unicode="&#x42b;" horiz-adv-x="884" 
d="M552 390q52 -63 33 -169q-20 -107 -89 -163q-70 -58 -178 -58h-268q-15 0 -19.5 6t-2.5 20l116 658q5 26 31 26h44q15 0 20 -6t2 -20l-41 -232h193q106 0 159 -62zM666 26l116 658q5 26 30 26h44q15 0 20 -6t2 -20l-116 -658q-5 -26 -31 -26h-44q-14 0 -19 6t-2 20z
M432 127q44 36 54 100q11 65 -19 100q-32 35 -96 35h-187l-48 -272h187q66 0 109 37z" />
    <glyph glyph-name="uni042C" unicode="&#x42c;" horiz-adv-x="625" 
d="M552 390q52 -63 33 -169q-20 -107 -89 -163q-70 -58 -178 -58h-268q-15 0 -19.5 6t-2.5 20l116 658q5 26 31 26h44q15 0 20 -6t2 -20l-41 -232h193q106 0 159 -62zM432 127q44 36 54 100q11 65 -19 100q-32 35 -96 35h-187l-48 -272h187q66 0 109 37z" />
    <glyph glyph-name="uni042D" unicode="&#x42d;" horiz-adv-x="639" 
d="M87 555q86 170 297 170q133 0 194 -71t40 -192l-40 -230q-21 -120 -102.5 -183.5t-215.5 -63.5q-218 0 -245 172q-4 25 23 34l43 15q15 4 21.5 0.5t9.5 -17.5q9 -58 47 -86t112 -28q87 0 142 43t69 122l13 74h-274q-14 0 -19 6t-2 21l7 37q2 15 9 20.5t22 5.5h274l11 67
q14 79 -25.5 121.5t-128.5 42.5q-73 0 -119.5 -27t-76.5 -85q-14 -23 -37 -16l-39 15q-24 7 -10 33z" />
    <glyph glyph-name="uni042E" unicode="&#x42e;" horiz-adv-x="931" 
d="M349 405l12 69q20 120 103 185.5t215 65.5q130 0 189.5 -70.5t38.5 -191.5l-40 -230q-20 -119 -102 -183.5t-214 -64.5q-131 0 -191 69.5t-39 190.5l12 70h-158l-50 -289q-5 -26 -31 -26h-44q-15 0 -19.5 6t-2.5 20l116 658q5 26 31 26h44q15 0 20 -6t2 -20l-49 -279h157
zM771 240l41 230q14 79 -24 122t-124 43t-139.5 -43t-67.5 -122l-40 -230q-14 -79 24 -122t125 -43q85 0 138 42.5t67 122.5z" />
    <glyph glyph-name="uni042F" unicode="&#x42f;" horiz-adv-x="648" 
d="M100 506q18 99 84.5 151.5t169.5 52.5h281q14 0 19 -6t3 -20l-116 -658q-5 -26 -31 -26h-44q-15 0 -19.5 6t-2.5 20l46 259h-111q-55 0 -86 -17t-59 -62l-116 -183q-9 -15 -19.5 -19t-37.5 -4h-44q-25 0 -9 27l142 215q29 45 60 61q-64 17 -93.5 71t-16.5 132zM549 620
h-201q-60 0 -98.5 -31.5t-48.5 -90.5t17 -91t86 -32h201z" />
    <glyph glyph-name="uni0430" unicode="&#x430;" horiz-adv-x="535" 
d="M43 198l25 140q18 101 78.5 147t174.5 46q107 0 170 -31q22 -11 27 -21t1 -34l-71 -402q-2 -14 -8.5 -20t-21.5 -10q-96 -28 -205 -28q-99 0 -143.5 57.5t-26.5 155.5zM412 434q-47 15 -98 15q-72 0 -109.5 -28.5t-49.5 -94.5l-24 -135q-10 -60 16.5 -92t86.5 -32
q71 0 132 19l58 327q1 9 -1 12.5t-11 8.5z" />
    <glyph glyph-name="uni0431" unicode="&#x431;" horiz-adv-x="553" 
d="M422 731h33q50 0 77 12t31 -15l6 -31q3 -23 -21 -33q-32 -16 -106 -16h-34q-112 0 -158 -42q-48 -45 -67 -154l-3 -19q64 72 171 72q99 0 145 -54t29 -150l-22 -121q-36 -195 -256 -195q-108 0 -159 54.5t-35 149.5l43 244q29 161 102 230q73 68 224 68zM414 185l22 120
q20 119 -114 119q-59 0 -101.5 -28.5t-52.5 -66.5l-25 -144q-11 -57 18.5 -88t94.5 -31q135 0 158 119z" />
    <glyph glyph-name="uni0432" unicode="&#x432;" horiz-adv-x="535" 
d="M146 505q70 26 167 26q101 0 149 -41.5t35 -114.5q-12 -74 -92 -103q90 -33 75 -129q-23 -158 -247 -158q-110 0 -176 23q-40 15 -33 58l65 369q11 54 57 70zM406 370q6 39 -20.5 60.5t-83.5 21.5q-65 0 -107 -14q-19 -8 -20 -24l-21 -114h146q93 0 106 70zM388 150
q7 38 -18.5 59.5t-78.5 21.5h-149l-23 -133q-3 -17 10 -21q56 -14 105 -14q139 0 154 87z" />
    <glyph glyph-name="uni0433" unicode="&#x433;" horiz-adv-x="500" 
d="M82 419q73 112 228 112q96 0 141.5 -42t33.5 -111q-13 -57 -40 -88.5t-72 -45.5q-47 -14 -117 -20q-73 -6 -109.5 -25t-44.5 -61q-7 -38 21 -57t94 -19q111 0 152 74q13 22 34 15l30 -11q26 -9 10 -34q-35 -63 -92 -92t-146 -29q-102 0 -150.5 41t-35.5 114q17 86 79 119
q51 27 148 38q61 5 101 19q45 16 53 63q6 38 -18.5 56t-85.5 18q-93 0 -143 -71q-10 -12 -16.5 -14t-18.5 3l-30 13q-23 11 -6 35z" />
    <glyph glyph-name="uni0434" unicode="&#x434;" horiz-adv-x="551" 
d="M192 684l6 34q2 14 8 19t20 5q157 0 227 -46q115 -70 75 -301l-38 -216q-17 -94 -83 -144t-174 -50q-109 0 -159 54t-33 149l22 123q16 92 79.5 143t160.5 51q56 0 95.5 -20.5t51.5 -54.5q12 75 -1.5 119.5t-52.5 72.5q-56 39 -183 39q-14 0 -18.5 5t-2.5 18zM401 184
l22 123q10 57 -19.5 87t-95.5 30q-137 0 -156 -118l-22 -122q-10 -57 19.5 -87.5t95.5 -30.5q65 0 105 30.5t51 87.5z" />
    <glyph glyph-name="uni0435" unicode="&#x435;" horiz-adv-x="526" 
d="M44 202l22 125q18 98 86.5 151t176.5 53q103 0 155 -49.5t35 -132.5q-29 -137 -240 -137q-60 0 -142 14l-8 -43q-10 -58 18.5 -89t94.5 -31q98 0 151 66q21 24 41 10l24 -16q22 -15 2 -39q-76 -99 -232 -99q-109 0 -156 59t-28 158zM432 360q10 46 -20 70.5t-96 24.5
q-64 0 -107 -34t-54 -94l-6 -31q72 -15 142 -15q123 0 141 79z" />
    <glyph glyph-name="uni0436" unicode="&#x436;" horiz-adv-x="745" 
d="M393 516h39q14 0 18.5 -5t2.5 -19l-33 -187h52h14l163 193q10 12 18.5 15t29.5 3h41q34 0 10 -28l-185 -209q38 -20 55 -73l58 -178q5 -15 0.5 -21.5t-21.5 -6.5h-38q-20 0 -27 4t-11 18l-43 145q-9 30 -27 42.5t-53 12.5h-51l-34 -197q-4 -25 -30 -25h-39
q-14 0 -18.5 5.5t-2.5 19.5l35 197h-50q-65 0 -99 -55l-94 -145q-9 -14 -17 -18t-28 -4h-40q-17 0 -19 6.5t9 21.5l120 178q42 60 80 76l-111 206q-13 28 21 28h36q22 0 29.5 -3t13.5 -15l97 -193h16h51l32 187q5 24 30 24z" />
    <glyph glyph-name="uni0437" unicode="&#x437;" horiz-adv-x="504" 
d="M62 410q24 47 79 84q53 37 150 37q95 0 144 -41.5t39 -112.5q-14 -83 -89 -111v-2q74 -32 59 -125q-27 -154 -236 -154q-106 0 -154 50q-39 40 -51 85q-6 27 24 34l35 11q16 5 22.5 1.5t9.5 -17.5q5 -24 25 -49q27 -36 99 -36q119 0 135 85q13 76 -72 76h-102
q-24 0 -20 24l5 26q4 24 28 24h97q38 0 63 18.5t31 51.5q7 37 -21.5 60t-79.5 23q-99 0 -140 -71q-13 -24 -38 -17l-32 12q-23 7 -10 34z" />
    <glyph glyph-name="uni0438" unicode="&#x438;" horiz-adv-x="550" 
d="M479 516h42q23 0 19 -24l-73 -417q-5 -24 -14.5 -35t-33.5 -21q-96 -34 -197 -34q-100 0 -142 53t-26 152l54 302q4 24 28 24h42q13 0 17 -5t2 -19l-54 -306q-21 -119 105 -119q57 0 116 17q16 7 19 23l67 385q4 24 29 24z" />
    <glyph glyph-name="uni0439" unicode="&#x439;" horiz-adv-x="550" 
d="M512 681q-55 -109 -174 -109q-61 0 -98 28t-44 81q-3 18 15 23l31 11q20 7 24 -9q7 -67 80 -67q69 0 102 69q8 14 22 9l35 -13q14 -7 7 -23zM479 516h42q23 0 19 -24l-73 -417q-5 -24 -14.5 -35t-33.5 -21q-96 -34 -197 -34q-100 0 -142 53t-26 152l54 302q4 24 28 24h42
q13 0 17 -5t2 -19l-54 -306q-21 -119 105 -119q57 0 116 17q16 7 19 23l67 385q4 24 29 24z" />
    <glyph glyph-name="uni043A" unicode="&#x43a;" horiz-adv-x="518" 
d="M392 206l58 -178q6 -15 1.5 -21.5t-21.5 -6.5h-37q-20 0 -26.5 4t-10.5 18l-44 145q-9 30 -27.5 43.5t-51.5 13.5h-92l-35 -199q-4 -25 -30 -25h-39q-14 0 -18.5 5.5t-1.5 19.5l82 467q5 24 29 24h40q14 0 18 -5t2 -19l-32 -187h78h9l184 193q11 12 19 15t31 3h38
q12 0 16.5 -4t1.5 -11.5t-12 -15.5l-196 -202q46 -14 67 -77z" />
    <glyph glyph-name="uni043B" unicode="&#x43b;" horiz-adv-x="542" 
d="M195 516h305q13 0 17 -5t2 -19l-82 -468q-5 -24 -28 -24h-42q-25 0 -19 24l71 409h-179l-35 -148q-17 -69 -35 -118.5t-33.5 -78t-37.5 -48.5t-36.5 -28t-42.5 -19q-3 -1 -7.5 -3t-5.5 -2q-21 -8 -27 12l-14 40q-5 17 13 26q11 3 35 16q26 17 41 40q41 67 65 170l47 200
q5 24 28 24z" />
    <glyph glyph-name="uni043C" unicode="&#x43c;" horiz-adv-x="639" 
d="M556 516h36q16 0 20 -5.5t2 -20.5l-83 -466q-2 -14 -8 -19t-20 -5h-36q-14 0 -18 5t-1 19l40 231q9 48 40 137h-3q-29 -52 -69 -105l-125 -168q-13 -18 -33 -18h-22q-20 0 -27 18l-66 165q-21 54 -31 108h-4q-2 -102 -9 -141l-40 -227q-3 -14 -8.5 -19t-19.5 -5h-35
q-15 0 -19 5t-1 19l82 466q2 15 8.5 20.5t22.5 5.5h29q14 0 20 -4t11 -16l114 -296l216 296q15 20 37 20z" />
    <glyph glyph-name="uni043D" unicode="&#x43d;" horiz-adv-x="556" 
d="M470 516h42q13 0 17 -5t2 -19l-82 -468q-5 -24 -29 -24h-41q-25 0 -19 24l34 198h-253l-35 -198q-5 -24 -28 -24h-42q-25 0 -19 24l82 468q5 24 28 24h42q13 0 17 -5t2 -19l-32 -187h253l32 187q5 24 29 24z" />
    <glyph glyph-name="uni043E" unicode="&#x43e;" horiz-adv-x="541" 
d="M39 179l29 163q16 89 83.5 139t172.5 50q106 0 157 -52.5t35 -143.5l-28 -163q-16 -90 -82 -138.5t-174 -48.5q-105 0 -156.5 52t-36.5 142zM399 176l29 164q9 52 -21.5 81t-94.5 29q-63 0 -104 -29t-51 -81l-28 -164q-10 -52 21 -81t94 -29q64 0 104.5 29t50.5 81z" />
    <glyph glyph-name="uni043F" unicode="&#x43f;" horiz-adv-x="549" 
d="M134 497q90 34 197 34q100 0 142 -53t26 -152l-54 -302q-5 -24 -28 -24h-42q-13 0 -17 5t-2 19l54 306q21 119 -105 119q-59 0 -119 -18q-14 -5 -15 -18l-68 -389q-5 -24 -29 -24h-42q-23 0 -19 24l73 417q5 24 14.5 35t33.5 21z" />
    <glyph glyph-name="uni0440" unicode="&#x440;" horiz-adv-x="538" 
d="M138 502q82 29 189 29q104 0 147 -53.5t26 -153.5l-25 -140q-34 -199 -248 -199q-53 0 -125 27l-37 -208q-5 -24 -28 -24h-42q-25 0 -19 24l113 641q5 25 14.5 36t34.5 21zM387 192l24 135q21 122 -110 122q-57 0 -110 -15q-17 -8 -18 -21l-57 -320q72 -26 119 -26
q129 0 152 125z" />
    <glyph glyph-name="uni0441" unicode="&#x441;" horiz-adv-x="511" 
d="M42 192l26 144q33 195 253 195q166 0 187 -134q5 -26 -20 -34l-31 -11q-27 -9 -31 16q-17 84 -118 84q-129 0 -152 -119l-26 -150q-11 -56 17 -87.5t92 -31.5q102 0 147 87q12 26 37 16l33 -11q23 -9 10 -34q-74 -137 -239 -137q-107 0 -154.5 55t-30.5 152z" />
    <glyph glyph-name="uni0442" unicode="&#x442;" horiz-adv-x="820" 
d="M431 491q96 40 185 40q94 0 132.5 -52t21.5 -149l-54 -306q-4 -24 -28 -24h-42q-25 0 -19 24l54 310q21 115 -91 115q-57 0 -123 -27q9 -35 0 -85l-55 -313q-5 -24 -28 -24h-42q-25 0 -19 24l54 310q22 115 -93 115q-52 0 -97 -16q-15 -8 -16 -21l-68 -388
q-5 -24 -29 -24h-42q-23 0 -19 24l73 417q5 24 14.5 35.5t33.5 21.5q86 33 176 33q81 0 121 -40z" />
    <glyph glyph-name="uni0443" unicode="&#x443;" horiz-adv-x="552" 
d="M475 516h42q25 0 19 -24l-91 -517q-37 -216 -253 -216q-143 0 -183 103q-13 25 16 39l30 14q15 7 22.5 5t14.5 -14q25 -67 112 -67q127 0 151 132l10 54q-83 -21 -144 -21q-100 0 -142 53.5t-24 151.5l49 283q4 24 28 24h42q25 0 19 -24l-50 -287q-22 -119 105 -119
q60 0 131 21l68 385q5 24 28 24z" />
    <glyph glyph-name="uni0444" unicode="&#x444;" horiz-adv-x="738" 
d="M507 716l-34 -190q27 4 64 5q102 0 149.5 -56t29.5 -165l-21 -119q-38 -206 -253 -206q-39 1 -63 5l-33 -186q-4 -24 -28 -24h-42q-25 0 -19 24l33 186q-27 -4 -65 -5q-102 0 -150 55.5t-28 164.5l20 116q38 210 253 210q27 0 64 -5l33 190q5 23 28 23h42q24 0 20 -23z
M154 312l-19 -111q-23 -134 109 -134q26 0 62 4l66 374q-33 4 -60 4q-61 0 -103.5 -34t-54.5 -103zM607 201l20 114q24 134 -109 134q-25 0 -61 -4l-66 -374q33 -4 59 -4q133 0 157 134z" />
    <glyph glyph-name="uni0445" unicode="&#x445;" horiz-adv-x="494" 
d="M445 516h44q35 0 11 -28l-202 -223l132 -237q13 -28 -23 -28h-33q-19 0 -25.5 3.5t-12.5 16.5l-100 181l-159 -181q-11 -13 -19.5 -16.5t-27.5 -3.5h-42q-37 0 -12 28l213 237l-125 223q-13 28 24 28h30q19 0 26.5 -3.5t13.5 -16.5l93 -166l149 166q12 13 19.5 16.5
t25.5 3.5z" />
    <glyph glyph-name="uni0446" unicode="&#x446;" horiz-adv-x="585" 
d="M137 516h42q13 0 17 -5t2 -19l-54 -306q-21 -119 105 -119q37 0 72 7q26 5 59 13l71 405q4 24 29 24h42q23 0 19 -24l-71 -400q48 4 64.5 -19.5t7.5 -78.5l-19 -109q-5 -24 -27 -24h-39q-26 0 -20 24l18 98q3 19 -6.5 28t-30.5 4q-12 -2 -37 -9q-10 -2 -25 -5.5t-21 -5.5
q-55 -10 -112 -10q-100 0 -142.5 54t-25.5 151l54 302q4 24 28 24z" />
    <glyph glyph-name="uni0447" unicode="&#x447;" horiz-adv-x="509" 
d="M75 379l20 113q5 24 28 24h42q25 0 19 -24l-21 -120q-10 -59 14.5 -84.5t92.5 -25.5q63 0 117 18l37 212q4 24 29 24h41q25 0 19 -24l-81 -468q-4 -24 -29 -24h-42q-13 0 -17 5t-2 19l30 172q-38 -15 -126 -15q-204 0 -171 198z" />
    <glyph glyph-name="uni0448" unicode="&#x448;" horiz-adv-x="818" 
d="M748 516h42q23 0 19 -24l-73 -417q-5 -24 -14.5 -35.5t-32.5 -21.5q-85 -33 -176 -33q-80 0 -121 38q-96 -38 -183 -38q-95 0 -133.5 53t-20.5 151l54 303q4 24 28 24h42q13 0 17 -5t2 -19l-54 -310q-21 -115 91 -115q55 0 121 26q-10 33 -1 87l55 312q4 24 29 24h42
q23 0 19 -24l-55 -311q-21 -114 94 -114q53 0 95 16q14 6 18 25l68 384q4 24 28 24z" />
    <glyph glyph-name="uni0449" unicode="&#x449;" horiz-adv-x="853" 
d="M55 189l54 303q4 24 28 24h42q13 0 17 -5t2 -19l-54 -310q-21 -115 91 -115q55 0 121 26q-10 33 -1 87l55 312q4 24 29 24h42q23 0 19 -24l-55 -311q-21 -114 94 -114q30 0 60 7q32 8 50 14l71 404q4 24 28 24h42q23 0 19 -24l-71 -400q48 4 65 -19.5t8 -78.5l-19 -109
q-4 -24 -27 -24h-39q-14 0 -18.5 5.5t-2.5 18.5l18 98q4 19 -5.5 28t-30.5 4q-79 -20 -108 -25q-37 -5 -66 -5q-80 0 -121 38q-96 -38 -183 -38q-95 0 -133.5 53t-20.5 151z" />
    <glyph glyph-name="uni044A" unicode="&#x44a;" horiz-adv-x="600" 
d="M277 492l-25 -147q75 23 131 23q98 0 144 -52t29 -144q-33 -187 -235 -187q-109 0 -177 30q-23 10 -28.5 20.5t-1.5 35.5l65 364h-119q-25 0 -20 23l6 34q4 24 29 24h183q25 0 19 -24zM220 81q46 -15 103 -15q126 0 145 112t-104 112q-58 0 -125 -21l-30 -167
q-4 -15 11 -21z" />
    <glyph glyph-name="uni044B" unicode="&#x44b;" horiz-adv-x="702" 
d="M187 492l-26 -147q75 23 132 23q98 0 143.5 -51.5t29.5 -143.5q-33 -188 -235 -188q-110 0 -178 30q-22 10 -28 21t-1 35l75 421q5 24 28 24h41q23 0 19 -24zM617 516h42q13 0 17 -5t2 -19l-82 -468q-4 -24 -29 -24h-41q-25 0 -19 24l81 468q4 24 29 24zM130 81
q46 -15 102 -15q125 0 146 113q20 111 -105 111q-57 0 -125 -21l-29 -167q-2 -9 0 -12.5t11 -8.5z" />
    <glyph glyph-name="uni044C" unicode="&#x44c;" horiz-adv-x="509" 
d="M187 492l-26 -147q75 23 132 23q98 0 143.5 -51.5t29.5 -143.5q-33 -188 -235 -188q-110 0 -178 30q-22 10 -28 21t-1 35l75 421q5 24 28 24h41q23 0 19 -24zM130 81q46 -15 102 -15q125 0 146 113q20 111 -105 111q-57 0 -125 -21l-29 -167q-2 -9 0 -12.5t11 -8.5z" />
    <glyph glyph-name="uni044D" unicode="&#x44d;" horiz-adv-x="508" 
d="M59 400q65 131 229 131q109 0 157 -55t30 -153l-26 -143q-35 -195 -248 -195q-169 0 -193 138q-7 25 22 34l37 11q27 8 31 -16q7 -45 33.5 -66t79.5 -21q63 0 101 30.5t48 87.5l7 39l-178 1q-14 0 -18 5.5t-2 18.5l6 31q3 24 27 24h179l6 32q21 118 -108 118
q-99 0 -141 -82q-13 -25 -37 -16l-32 11q-23 10 -10 35z" />
    <glyph glyph-name="uni044E" unicode="&#x44e;" horiz-adv-x="749" 
d="M268 303l8 44q16 88 80.5 136t168.5 48q103 0 153 -53t35 -144l-30 -166q-16 -89 -79.5 -136t-168.5 -47q-104 0 -154 51t-35 141l8 43h-114l-34 -196q-5 -24 -28 -24h-42q-25 0 -19 24l82 468q5 24 28 24h42q13 0 17 -5t2 -19l-33 -189h113zM594 175l30 166
q9 52 -20 80.5t-91 28.5q-61 0 -100 -29t-48 -81l-30 -166q-9 -51 20.5 -79.5t89.5 -28.5q61 0 100.5 29t48.5 80z" />
    <glyph glyph-name="uni044F" unicode="&#x44f;" horiz-adv-x="521" 
d="M253 516h221q14 0 18 -5t2 -19l-81 -468q-5 -24 -28 -24h-43q-13 0 -17 5t-2 19l27 155h-130l-127 -158q-9 -14 -18 -17.5t-30 -3.5h-37q-21 0 -23.5 7t10.5 21l135 163q-47 15 -67.5 58t-10.5 104q14 78 67 120.5t134 42.5zM395 436h-146q-41 0 -69.5 -24.5t-36.5 -65.5
q-7 -40 12.5 -64t60.5 -24h148z" />
    <glyph glyph-name="uni0451" unicode="&#x451;" horiz-adv-x="526" 
d="M255 697h7q24 0 31.5 -9t2.5 -32l-1 -8q-5 -24 -15 -33t-34 -9h-7q-23 0 -30.5 9t-3.5 33l1 8q4 23 15 32t34 9zM453 697h6q23 0 30.5 -9t3.5 -32l-2 -8q-4 -24 -14.5 -33t-33.5 -9h-7q-24 0 -31.5 9t-3.5 33l2 8q4 23 14.5 32t35.5 9zM44 202l22 125q18 98 86.5 151
t176.5 53q103 0 155 -49.5t35 -132.5q-29 -137 -240 -137q-60 0 -142 14l-8 -43q-10 -58 18.5 -89t94.5 -31q98 0 151 66q21 24 41 10l24 -16q22 -15 2 -39q-76 -99 -232 -99q-109 0 -156 59t-28 158zM432 360q10 46 -20 70.5t-96 24.5q-64 0 -107 -34t-54 -94l-6 -31
q72 -15 142 -15q123 0 141 79z" />
    <glyph glyph-name="Wgrave" unicode="&#x1e80;" horiz-adv-x="887" 
d="M441 871l24 24q19 19 45 1l139 -92q14 -10 -2 -26l-14 -14q-8 -10 -30 -2l-163 82q-18 8 1 27zM873 710h49q14 0 16.5 -6t-3.5 -20l-286 -662q-9 -22 -37 -22h-45q-29 0 -29 21l-42 445q-5 48 0 104h-5q-13 -50 -37 -104l-200 -444q-10 -22 -38 -22h-43q-15 0 -21 4.5
t-7 16.5l-55 663q-2 14 3 20t19 6h51q18 0 24 -4.5t7 -18.5l29 -433q1 -27 -3 -120h4q29 90 42 119l194 426q11 23 39 23h39q29 0 31 -23l41 -426q5 -50 1 -119h5q16 60 38 118l180 435q6 14 13.5 18.5t25.5 4.5z" />
    <glyph glyph-name="wgrave" unicode="&#x1e81;" horiz-adv-x="730" 
d="M331 699l24 23q17 17 44 2l138 -96q13 -9 -3 -25l-13 -14q-9 -10 -30 -1l-161 83q-17 9 1 28zM699 516h30q17 0 20 -6t-6 -22l-221 -469q-9 -21 -36 -21h-30q-28 0 -29 21l-37 295q-2 16 -2.5 38.5t-1 38t-0.5 16.5h-3q-29 -75 -36 -93l-141 -295q-10 -21 -37 -21h-26
q-27 0 -29 21l-58 469q-2 17 3 22.5t22 5.5h28q22 0 30 -4.5t8 -19.5l28 -271v-87q-1 -15 0 -25h3q0 1 2.5 6.5t6.5 16.5t8 24q13 36 26 66l130 262q7 15 15 20t28 5h17q21 0 27 -4.5t8 -19.5l36 -261q4 -27 4 -90q-1 -16 0 -25h4q1 1 15 44q17 51 25 70l122 269
q7 15 16 19.5t31 4.5z" />
    <glyph glyph-name="Wacute" unicode="&#x1e82;" horiz-adv-x="887" 
d="M430 805l172 95q32 17 45 -1l15 -24q14 -20 -9 -28l-189 -83q-25 -9 -31 1l-8 15q-7 10 -6 15t11 10zM873 710h49q14 0 16.5 -6t-3.5 -20l-286 -662q-9 -22 -37 -22h-45q-29 0 -29 21l-42 445q-5 48 0 104h-5q-13 -50 -37 -104l-200 -444q-10 -22 -38 -22h-43
q-15 0 -21 4.5t-7 16.5l-55 663q-2 14 3 20t19 6h51q18 0 24 -4.5t7 -18.5l29 -433q1 -27 -3 -120h4q29 90 42 119l194 426q11 23 39 23h39q29 0 31 -23l41 -426q5 -50 1 -119h5q16 60 38 118l180 435q6 14 13.5 18.5t25.5 4.5z" />
    <glyph glyph-name="wacute" unicode="&#x1e83;" horiz-adv-x="730" 
d="M319 629l171 95q33 15 44 -2l15 -24q14 -20 -8 -27l-190 -84q-23 -9 -30 1l-9 15q-11 17 7 26zM699 516h30q17 0 20 -6t-6 -22l-221 -469q-9 -21 -36 -21h-30q-28 0 -29 21l-37 295q-2 16 -2.5 38.5t-1 38t-0.5 16.5h-3q-29 -75 -36 -93l-141 -295q-10 -21 -37 -21h-26
q-27 0 -29 21l-58 469q-2 17 3 22.5t22 5.5h28q22 0 30 -4.5t8 -19.5l28 -271v-87q-1 -15 0 -25h3q0 1 2.5 6.5t6.5 16.5t8 24q13 36 26 66l130 262q7 15 15 20t28 5h17q21 0 27 -4.5t8 -19.5l36 -261q4 -27 4 -90q-1 -16 0 -25h4q1 1 15 44q17 51 25 70l122 269
q7 15 16 19.5t31 4.5z" />
    <glyph glyph-name="Wdieresis" unicode="&#x1e84;" horiz-adv-x="887" 
d="M449 875h6q24 0 32 -9t3 -32l-1 -9q-5 -24 -15.5 -32.5t-34.5 -8.5h-6q-24 0 -31.5 9t-2.5 32l2 9q4 23 14 32t34 9zM646 875h6q24 0 31.5 -9t3.5 -32l-2 -9q-4 -23 -14.5 -32t-34.5 -9h-6q-24 0 -31.5 9t-3.5 32l2 9q4 23 14.5 32t34.5 9zM873 710h49q14 0 16.5 -6
t-3.5 -20l-286 -662q-9 -22 -37 -22h-45q-29 0 -29 21l-42 445q-5 48 0 104h-5q-13 -50 -37 -104l-200 -444q-10 -22 -38 -22h-43q-15 0 -21 4.5t-7 16.5l-55 663q-2 14 3 20t19 6h51q18 0 24 -4.5t7 -18.5l29 -433q1 -27 -3 -120h4q29 90 42 119l194 426q11 23 39 23h39
q29 0 31 -23l41 -426q5 -50 1 -119h5q16 60 38 118l180 435q6 14 13.5 18.5t25.5 4.5z" />
    <glyph glyph-name="wdieresis" unicode="&#x1e85;" horiz-adv-x="730" 
d="M337 697h7q24 0 31 -8.5t3 -32.5l-2 -9q-4 -23 -14 -32t-35 -9h-6q-24 0 -31.5 9t-3.5 32l2 9q4 23 14.5 32t34.5 9zM534 697h6q24 0 31.5 -9t3.5 -32l-2 -9q-5 -24 -15 -32.5t-34 -8.5h-6q-24 0 -31.5 9t-3.5 32l1 9q5 23 15.5 32t34.5 9zM699 516h30q17 0 20 -6t-6 -22
l-221 -469q-9 -21 -36 -21h-30q-28 0 -29 21l-37 295q-2 16 -2.5 38.5t-1 38t-0.5 16.5h-3q-29 -75 -36 -93l-141 -295q-10 -21 -37 -21h-26q-27 0 -29 21l-58 469q-2 17 3 22.5t22 5.5h28q22 0 30 -4.5t8 -19.5l28 -271v-87q-1 -15 0 -25h3q0 1 2.5 6.5t6.5 16.5t8 24
q13 36 26 66l130 262q7 15 15 20t28 5h17q21 0 27 -4.5t8 -19.5l36 -261q4 -27 4 -90q-1 -16 0 -25h4q1 1 15 44q17 51 25 70l122 269q7 15 16 19.5t31 4.5z" />
    <glyph glyph-name="Ygrave" unicode="&#x1ef2;" horiz-adv-x="631" 
d="M314 871l23 24q19 19 45 1l139 -92q15 -9 -2 -26l-13 -14q-10 -10 -31 -2l-163 82q-18 7 2 27zM629 710h51q14 0 16 -8t-7 -18l-324 -400l-46 -258q-5 -26 -30 -26h-45q-14 0 -19 6t-2 20l45 260l-183 398q-6 10 -1 18t19 8h52q25 0 33 -4t14 -19l133 -303l239 303
q11 15 20.5 19t34.5 4z" />
    <glyph glyph-name="ygrave" unicode="&#x1ef3;" horiz-adv-x="552" 
d="M249 699l24 23q17 17 44 2l138 -96q13 -9 -3 -25l-13 -14q-9 -10 -31 -1l-160 83q-17 9 1 28zM475 516h42q25 0 19 -24l-91 -517q-37 -216 -253 -216q-143 0 -183 103q-13 25 16 39l30 14q15 7 22.5 5t14.5 -14q25 -67 112 -67q127 0 151 132l10 54q-83 -21 -144 -21
q-100 0 -142 53.5t-24 151.5l49 283q4 24 28 24h42q25 0 19 -24l-50 -287q-22 -119 105 -119q60 0 131 21l68 385q5 24 28 24z" />
    <glyph glyph-name="endash" unicode="&#x2013;" horiz-adv-x="571" 
d="M90 310h399q15 0 19.5 -5.5t2.5 -20.5l-6 -34q-5 -26 -31 -26h-400q-14 0 -19 5.5t-2 20.5l6 34q2 15 9 20.5t22 5.5z" />
    <glyph glyph-name="emdash" unicode="&#x2014;" horiz-adv-x="771" 
d="M90 310h600q14 0 18.5 -5.5t2.5 -20.5l-6 -34q-5 -27 -31 -27h-600q-14 0 -19 6t-2 21l6 34q5 26 31 26z" />
    <glyph glyph-name="quoteleft" unicode="&#x2018;" horiz-adv-x="206" 
d="M97 517l69 169q8 24 29 24h17q12 0 15 -3.5t2 -14.5l-40 -175q-3 -17 -9.5 -23t-23.5 -6h-34q-36 0 -25 29z" />
    <glyph glyph-name="quoteright" unicode="&#x2019;" horiz-adv-x="201" 
d="M227 681l-68 -169q-7 -24 -30 -24h-17q-11 0 -14.5 4t-2.5 15l40 174q3 17 10 23t23 6h35q35 0 24 -29z" />
    <glyph glyph-name="quotesinglbase" unicode="&#x201a;" horiz-adv-x="186" 
d="M105 86l-50 -197q-5 -24 -29 -24h-21q-24 0 -20 24l36 197q5 24 28 24h37q26 0 19 -24z" />
    <glyph glyph-name="quotedblleft" unicode="&#x201c;" horiz-adv-x="341" 
d="M97 517l69 169q8 24 29 24h17q12 0 15 -3.5t2 -14.5l-40 -175q-3 -17 -9.5 -23t-23.5 -6h-34q-36 0 -25 29zM233 517l68 169q7 24 30 24h17q12 0 15 -3.5t1 -14.5l-40 -175q-2 -17 -9 -23t-23 -6h-35q-36 0 -24 29z" />
    <glyph glyph-name="quotedblright" unicode="&#x201d;" horiz-adv-x="336" 
d="M227 681l-68 -169q-7 -24 -30 -24h-17q-11 0 -14.5 4t-2.5 15l40 174q3 17 10 23t23 6h35q35 0 24 -29zM363 681l-69 -169q-8 -24 -29 -24h-17q-12 0 -15.5 4t-1.5 15l40 174q3 17 9.5 23t23.5 6h34q36 0 25 -29z" />
    <glyph glyph-name="quotedblbase" unicode="&#x201e;" horiz-adv-x="331" 
d="M111 71l-69 -169q-8 -24 -29 -24h-17q-12 0 -15.5 4t-1.5 15l40 174q3 17 9.5 23t23.5 6h34q36 0 25 -29zM246 71l-68 -169q-8 -24 -30 -24h-17q-11 0 -14.5 4t-2.5 15l40 174q3 17 10 23t23 6h35q35 0 24 -29z" />
    <glyph glyph-name="dagger" unicode="&#x2020;" horiz-adv-x="530" 
d="M346 489h162q15 0 19.5 -5.5t2.5 -20.5l-7 -37q-5 -27 -31 -27h-163l-83 -473q-5 -26 -31 -26h-38q-14 0 -19 6t-2 20l83 473h-164q-14 0 -19 6t-2 21l7 37q2 15 9 20.5t22 5.5h163l34 195q5 26 31 26h38q14 0 19 -6t3 -20z" />
    <glyph glyph-name="daggerdbl" unicode="&#x2021;" horiz-adv-x="567" 
d="M338 710h38q15 0 20 -6t2 -20l-34 -195h163q15 0 19.5 -5.5t2.5 -20.5l-7 -37q-4 -27 -32 -27h-162l-34 -189h164q14 0 19 -6t2 -20l-6 -38q-2 -15 -9 -20.5t-22 -5.5h-163l-34 -194q-5 -26 -31 -26h-38q-15 0 -19.5 6t-1.5 20l33 194h-162q-15 0 -19.5 5.5t-2.5 20.5
l6 38q5 26 31 26h163l33 189h-163q-15 0 -19.5 6t-1.5 21l7 37q2 15 9 20.5t22 5.5h163l34 195q5 26 30 26z" />
    <glyph glyph-name="bullet" unicode="&#x2022;" horiz-adv-x="331" 
d="M220 199q-30 -27 -69 -27t-60 27q-22 25 -14 65q7 38 37 64t70 26q38 0 59.5 -26t14.5 -64q-8 -39 -38 -65z" />
    <glyph glyph-name="ellipsis" unicode="&#x2026;" horiz-adv-x="649" 
d="M73 103h7q28 0 37 -11t4 -40l-1 -8q-5 -28 -18 -39t-42 -11h-7q-29 0 -38 10.5t-3 39.5l1 8q5 29 18.5 40t41.5 11zM296 103h7q28 0 37 -11t4 -40l-1 -8q-5 -28 -18 -39t-42 -11h-7q-29 0 -37.5 10.5t-3.5 39.5l2 8q5 29 18 40t41 11zM520 103h6q29 0 38 -11t4 -40l-2 -8
q-5 -29 -18 -39.5t-42 -10.5h-6q-29 0 -38 10.5t-4 39.5l2 8q5 29 18 40t42 11z" />
    <glyph glyph-name="perthousand" unicode="&#x2030;" horiz-adv-x="1184" 
d="M73 505l13 73q12 70 61.5 109t126.5 39t112 -39t23 -109l-13 -73q-12 -69 -61 -107.5t-126 -38.5q-78 0 -113 38.5t-23 107.5zM727 710h34q14 0 16 -7.5t-7 -17.5l-603 -662q-14 -16 -23 -19.5t-33 -3.5h-31q-14 0 -16 8t7 19l605 661q13 15 21.5 18.5t29.5 3.5zM322 510
l11 64q7 38 -11.5 59t-60.5 21q-87 0 -101 -80l-11 -64q-7 -38 11.5 -59t60.5 -21q87 0 101 80zM430 131l13 72q12 70 61.5 109t126.5 39t112.5 -39t23.5 -109l-13 -72q-12 -69 -61 -108t-127 -39q-77 0 -112.5 39t-23.5 108zM802 131l13 72q12 70 61.5 109t126.5 39
t112.5 -39t23.5 -109l-13 -72q-12 -69 -61 -108t-127 -39q-77 0 -112.5 39t-23.5 108zM680 136l11 63q7 38 -12 59t-61 21q-86 0 -100 -80l-12 -63q-7 -38 12 -59t61 -21q87 0 101 80zM1052 136l11 63q7 38 -12 59t-61 21q-86 0 -100 -80l-12 -63q-7 -38 12 -59t61 -21
q87 0 101 80z" />
    <glyph glyph-name="guilsinglleft" unicode="&#x2039;" horiz-adv-x="342" 
d="M143 263l125 -150q12 -15 -6 -30l-29 -28q-17 -17 -30 0l-159 193q-14 15 5 29l226 194q17 13 30 0l23 -24q14 -15 -6 -30z" />
    <glyph glyph-name="guilsinglright" unicode="&#x203a;" horiz-adv-x="347" 
d="M214 270l-126 153q-12 17 6 30l30 23q20 16 30 0l161 -199q12 -15 -5 -29l-226 -193q-18 -13 -30 0l-27 34q-12 16 5 30z" />
    <glyph glyph-name="fraction" unicode="&#x2044;" horiz-adv-x="176" 
d="M-189 27l486 661q11 15 19 18.5t29 3.5h35q13 0 16.5 -7.5t-3.5 -17.5l-486 -661q-12 -16 -20.5 -20t-31.5 -4h-31q-15 0 -18.5 8t5.5 19z" />
    <glyph glyph-name="zerosuperior" unicode="&#x2070;" horiz-adv-x="373" 
d="M93 550l23 136q11 63 56 98t116 35q69 0 102.5 -39.5t22.5 -103.5l-24 -135q-11 -64 -55.5 -99t-114.5 -35q-71 0 -104 38.5t-22 104.5zM314 545l24 135q5 31 -11 48.5t-50 17.5q-73 0 -86 -66l-23 -135q-6 -31 10 -48.5t52 -17.5q34 0 56.5 17.5t27.5 48.5z" />
    <glyph glyph-name="foursuperior" unicode="&#x2074;" horiz-adv-x="370" 
d="M343 572h30q15 0 18 -4t1 -17l-4 -22q-2 -13 -7 -17t-19 -4h-31l-12 -71q-2 -13 -7 -17.5t-18 -4.5h-30q-13 0 -16 4.5t0 17.5l12 71h-181q-13 0 -16.5 4.5t-1.5 18.5l3 19q4 16 12 25l219 222q14 14 35 14h32q15 0 18 -4.5t1 -19.5zM271 572l26 145l-144 -145h118z" />
    <glyph glyph-name="fivesuperior" unicode="&#x2075;" horiz-adv-x="356" 
d="M179 811h206q11 0 14 -4t1 -15l-4 -28q-2 -11 -6.5 -14.5t-15.5 -3.5h-167l-23 -80h66q69 0 99.5 -34.5t20.5 -93.5q-10 -60 -52 -95.5t-110 -35.5q-124 0 -137 102q-4 24 17 32l24 8q15 4 20.5 1.5t8.5 -14.5q7 -63 72 -63q35 0 57.5 18t27.5 49q10 64 -62 64h-114
q-23 0 -17 22l45 163q4 13 9.5 17.5t19.5 4.5z" />
    <glyph glyph-name="sixsuperior" unicode="&#x2076;" horiz-adv-x="372" 
d="M190 671l-5 -29q60 17 96 17q68 0 96 -33t18 -94q-23 -125 -175 -125q-74 0 -105.5 40t-18.5 115l20 112q25 145 181 145q50 0 82 -20.5t42 -54.5q6 -14 -14 -22l-32 -15q-15 -4 -18.5 -3.5t-7.5 8.5q-16 37 -64 37q-80 0 -95 -78zM173 572l-3 -19q-14 -77 62 -77
q78 0 88 58q8 27 -8.5 42t-53.5 14t-85 -18z" />
    <glyph glyph-name="sevensuperior" unicode="&#x2077;" horiz-adv-x="316" 
d="M129 811h243q12 0 15.5 -4t1.5 -16l-4 -19q-3 -15 -10 -25l-194 -316q-7 -11 -12 -13.5t-23 -2.5h-30q-14 0 -16.5 5.5t7.5 21.5l185 299h-175q-12 0 -15.5 4t-1.5 15l6 31q2 12 7 16t16 4z" />
    <glyph glyph-name="eightsuperior" unicode="&#x2078;" horiz-adv-x="379" 
d="M124 708q9 53 52.5 82t112.5 29q66 0 101 -30t27 -79q-11 -61 -77 -89q68 -27 56 -96q-19 -118 -179 -118q-77 0 -112 29.5t-26 80.5q10 64 91 96q-58 28 -46 95zM340 706q8 53 -61 53q-73 0 -80 -54q-4 -24 12.5 -37t62.5 -22q58 21 66 60zM316 525q4 25 -14 38t-67 22
q-5 0 -27 -11q-1 0 -6.5 -3t-8.5 -4q-28 -15 -34 -45q-5 -27 12 -41t58 -14q77 0 87 58z" />
    <glyph glyph-name="ninesuperior" unicode="&#x2079;" horiz-adv-x="372" 
d="M310 555l5 29q-60 -18 -95 -18q-68 0 -96 34.5t-17 95.5q23 123 174 123q74 0 105.5 -40t18.5 -114l-20 -112q-26 -146 -181 -146q-50 0 -82.5 20t-42.5 52q-6 15 15 25l30 14q15 5 18.5 4.5t8.5 -9.5q13 -37 65 -37q81 0 94 79zM328 654l3 18q14 77 -62 77
q-77 0 -88 -57q-5 -28 10 -42t52 -14q46 0 85 18z" />
    <glyph glyph-name="zeroinferior" unicode="&#x2080;" horiz-adv-x="373" 
d="M-2 17l24 135q11 63 55.5 98t115.5 35q69 0 102.5 -39.5t22.5 -103.5l-23 -135q-12 -64 -56.5 -99t-114.5 -35q-71 0 -104 39t-22 105zM220 11l23 135q6 31 -10.5 48.5t-50.5 17.5q-35 0 -57.5 -17.5t-27.5 -48.5l-24 -135q-5 -31 11 -48.5t51 -17.5q34 0 56.5 17.5
t28.5 48.5z" />
    <glyph glyph-name="oneinferior" unicode="&#x2081;" horiz-adv-x="273" 
d="M184 277h12q29 0 24 -26l-61 -344q-5 -26 -31 -26h-23q-14 0 -19 6t-2 20l49 274l-89 -44q-26 -14 -35 9l-8 19q-9 23 18 36l132 68q16 8 33 8z" />
    <glyph glyph-name="twoinferior" unicode="&#x2082;" horiz-adv-x="355" 
d="M21 182q58 103 164 103q64 0 95 -35.5t22 -90.5q-9 -51 -40.5 -79.5t-95.5 -47.5l-61 -18q-45 -13 -51 -46l-4 -18h186q25 0 20 -23l-5 -23q-3 -23 -27 -23h-234q-26 0 -21 24l7 35q9 52 32.5 81t71.5 46l61 22q31 10 42 15.5t24 18.5q12 12 17 34q4 25 -10 40.5
t-43 15.5q-13 0 -24.5 -3.5t-19.5 -8.5t-15 -12t-10.5 -12t-8 -11.5t-4.5 -7.5q-9 -16 -15 -19t-21 2l-21 8q-25 9 -11 33z" />
    <glyph glyph-name="threeinferior" unicode="&#x2083;" horiz-adv-x="364" 
d="M17 183q51 102 170 102q62 0 92 -32t22 -84q-9 -56 -60 -82q51 -33 39 -104q-19 -110 -163 -110q-122 0 -137 101q-4 25 19 33l23 7q14 5 20.5 1.5t10.5 -17.5q4 -31 20.5 -44t54.5 -13q70 0 78 54q5 23 -6 37.5t-35 14.5h-50q-14 0 -17.5 4.5t-1.5 18.5l4 20q3 17 8 21
t21 4h43q47 0 57 49q5 24 -9 38.5t-42 14.5q-69 0 -96 -56q-9 -16 -16.5 -19t-24.5 3l-14 6q-22 9 -10 32z" />
    <glyph glyph-name="fourinferior" unicode="&#x2084;" horiz-adv-x="370" 
d="M248 38h30q15 0 18 -4t1 -17l-3 -22q-3 -13 -7.5 -17t-19.5 -4h-30l-12 -71q-3 -13 -8 -17.5t-18 -4.5h-29q-13 0 -16 4.5t-1 17.5l12 71h-180q-13 0 -17 4.5t-2 18.5l3 19q4 16 12 25l219 222q14 14 35 14h32q15 0 18.5 -4.5t0.5 -19.5zM177 38l25 145l-143 -145h118z
" />
    <glyph glyph-name="fiveinferior" unicode="&#x2085;" horiz-adv-x="356" 
d="M86 277h206q18 0 15 -18l-5 -29q-2 -11 -6.5 -14.5t-14.5 -3.5h-168l-22 -80h65q69 0 100 -34.5t21 -93.5q-10 -60 -52.5 -95.5t-110.5 -35.5q-123 0 -136 102q-4 24 17 32l23 8q16 4 21 2t9 -15q8 -62 72 -62q35 0 57 17.5t27 48.5q10 64 -61 64h-115q-24 0 -16 23
l45 163q5 21 29 21z" />
    <glyph glyph-name="sixinferior" unicode="&#x2086;" horiz-adv-x="372" 
d="M96 137l-5 -29q60 17 96 17q68 0 96 -33t18 -94q-23 -125 -175 -125q-74 0 -105.5 40t-18.5 115l20 113q26 144 181 144q49 0 81.5 -20.5t42.5 -53.5q5 -14 -14 -23l-32 -15q-15 -4 -18.5 -3.5t-7.5 8.5q-17 38 -64 38q-80 0 -95 -79zM79 38l-3 -18q-14 -78 62 -78
q78 0 88 58q7 27 -9.5 42t-53 14t-84.5 -18z" />
    <glyph glyph-name="seveninferior" unicode="&#x2087;" horiz-adv-x="316" 
d="M35 277h243q12 0 15.5 -4t1.5 -16l-4 -18q-3 -16 -10 -26l-194 -316q-7 -11 -12.5 -13.5t-22.5 -2.5h-30q-14 0 -16.5 5.5t7.5 21.5l185 299h-175q-12 0 -15.5 4t-1.5 16l6 30q2 12 7 16t16 4z" />
    <glyph glyph-name="eightinferior" unicode="&#x2088;" horiz-adv-x="379" 
d="M30 175q9 52 53 81t112 29q66 0 101 -30t27 -79q-11 -61 -77 -89q68 -27 56 -96q-19 -118 -179 -118q-77 0 -112 29.5t-26 80.5q10 64 91 96q-58 28 -46 96zM246 173q4 25 -11 38.5t-50 13.5q-72 0 -80 -53q-4 -26 12.5 -38.5t62.5 -21.5q59 21 66 61zM222 -9
q4 25 -14.5 38t-66.5 22q-5 0 -27 -11q-2 0 -6.5 -3t-8.5 -4q-28 -15 -34 -45q-5 -27 12 -40.5t58 -13.5q77 0 87 57z" />
    <glyph glyph-name="nineinferior" unicode="&#x2089;" horiz-adv-x="372" 
d="M216 21l5 30q-51 -18 -95 -18q-68 0 -96 34.5t-17 95.5q23 122 174 122q74 0 105.5 -39.5t18.5 -113.5l-20 -113q-25 -145 -181 -145q-50 0 -82.5 20t-42.5 52q-6 15 15 25l30 14q15 5 18.5 4.5t8.5 -9.5q13 -37 65 -37q80 0 94 78zM234 120l3 19q14 77 -62 77
q-78 0 -88 -58q-5 -28 10 -42t52 -14q39 0 85 18z" />
    <glyph glyph-name="Euro" unicode="&#x20ac;" horiz-adv-x="728" 
d="M177 460l6 32q22 113 105 173t216 60q93 0 144 -29.5t75 -90.5q13 -30 -17 -44l-27 -12q-18 -8 -27 -5.5t-16 16.5q-10 33 -46.5 54t-101.5 21q-85 0 -140 -39t-68 -109l-5 -27h284q26 0 14 -23l-12 -25q-10 -22 -36 -22h-265l-14 -80h242q25 0 14 -23l-12 -25
q-10 -22 -36 -22h-218l-3 -20q-12 -70 29.5 -107.5t126.5 -37.5q67 0 111.5 22.5t65.5 56.5q13 15 22.5 17.5t24.5 -6.5l28 -15q27 -16 3 -46q-87 -119 -270 -119q-132 0 -195 61.5t-43 173.5l3 20h-97q-14 0 -17 5t3 18l12 26q10 21 35 21h77l14 80h-57q-13 0 -16 5t2 18
l13 26q9 21 34 21h35z" />
    <glyph glyph-name="uni20BD" unicode="&#x20bd;" horiz-adv-x="658" 
d="M199 278l-14 -84h323q13 0 17.5 -5t2.5 -19l-4 -22q-4 -24 -29 -24h-323l-17 -98q-5 -26 -31 -26h-44q-15 0 -19.5 6t-2.5 20l17 98h-43q-25 0 -19 24l4 22q3 24 28 24h43l86 490q5 26 31 26h272q103 0 152.5 -62t31.5 -166q-18 -99 -85.5 -151.5t-174.5 -52.5h-202z
M260 620l-45 -252h193q62 0 103 33.5t52 91.5q11 59 -18.5 93t-91.5 34h-193z" />
    <glyph glyph-name="uni2113" unicode="&#x2113;" horiz-adv-x="430" 
d="M126 285l46 258q17 96 65 142.5t114 46.5q64 0 92.5 -39.5t15.5 -111.5q-32 -171 -260 -337l-12 -71q-9 -52 5 -75.5t56 -23.5q23 0 65 21q17 11 24 -1l21 -31q9 -15 -6 -26q-62 -43 -123 -43q-76 0 -108 39t-18 114l6 36q-4 -4 -23 -16t-24 -15q-20 -10 -27 6l-16 35
q-10 19 10 30q64 38 97 62zM379 583q6 36 -5 55.5t-36 19.5q-66 0 -86 -116l-33 -185q140 112 160 226z" />
    <glyph glyph-name="uni2116" unicode="&#x2116;" horiz-adv-x="1049" 
d="M1050 573l-13 -72q-12 -69 -60.5 -106t-127.5 -37q-76 0 -111 41t-23 112l13 73q12 68 59.5 104.5t126.5 36.5q77 0 112.5 -40.5t23.5 -111.5zM616 710h43q15 0 20 -6t2 -20l-116 -658q-5 -26 -31 -26h-44q-17 0 -24 13l-210 415q-17 34 -34 94q-15 52 -19 60h-5l-5 -68
q-5 -69 -12 -118l-65 -370q-5 -26 -31 -26h-43q-14 0 -19 6t-2 20l116 658q5 26 30 26h40q20 0 26 -13l208 -408q21 -43 39 -98q18 -57 20 -62h4q0 1 5 72q3 69 12 121l65 362q2 14 8.5 20t21.5 6zM801 573l-11 -63q-7 -38 11.5 -59t60.5 -21q87 0 101 80l11 63
q7 38 -11.5 59t-60.5 21q-87 0 -101 -80zM704 309h274q15 0 19.5 -6t2.5 -20l-5 -29q-5 -26 -31 -26h-274q-15 0 -20 6t-2 20l5 29q5 26 31 26z" />
    <glyph glyph-name="uni2117" unicode="&#x2117;" horiz-adv-x="803" 
d="M78 351q25 150 149 255q124 104 274 104t236 -104q85 -104 59 -255q-27 -151 -149 -255t-272 -104q-151 0 -236 105q-87 105 -61 254zM133 351q-23 -130 50 -217q72 -88 201 -88q128 0 231 88q102 88 125 217t-49 217q-72 87 -200 87t-232 -87q-104 -89 -126 -217z
M365 538h134q62 0 92.5 -37.5t19.5 -99.5q-10 -60 -52.5 -93.5t-106.5 -33.5h-93l-17 -98q-2 -11 -6 -14.5t-15 -3.5h-23q-11 0 -14 3.5t-1 14.5l60 344q2 11 6 14.5t16 3.5zM370 331h89q36 0 60.5 20t30.5 55t-11 55t-54 20h-89z" />
    <glyph glyph-name="trademark" unicode="&#x2122;" horiz-adv-x="619" 
d="M122 695h201q10 0 12 -3t1 -14l-3 -16q-2 -11 -5.5 -14t-14.5 -3h-73l-33 -185q-2 -17 -22 -17h-14q-11 0 -14 3.5t-2 13.5l33 185h-76q-11 0 -13 3t1 14l2 16q2 11 5.5 14t14.5 3zM592 695h11q11 0 14 -3t2 -14l-39 -218q-2 -11 -5.5 -14t-14.5 -3h-16q-12 0 -14.5 3
t-0.5 14l16 90q1 14 12 52q-20 -26 -22 -28l-51 -60q-10 -13 -23 -13h-8q-11 0 -17 10l-30 59q-8 19 -13 27q-2 -27 -7 -47l-16 -90q-2 -12 -5 -14.5t-14 -2.5h-17q-11 0 -13.5 3t-0.5 14l39 218q1 11 5 14t17 3h9q13 0 19 -12l59 -123l102 122q10 13 22 13z" />
    <glyph glyph-name="Omega" unicode="&#x2126;" horiz-adv-x="767" 
d="M73 377q26 153 135 250q110 98 252 98q146 0 221 -98q74 -100 47 -257q-28 -175 -190 -276h122q15 0 20 -6t2 -21l-7 -41q-5 -26 -31 -26h-245q-20 0 -17 20l7 35q3 15 20 23q86 39 148 116q60 75 77 168q21 120 -27 196q-49 75 -163 75q-109 0 -184 -76
q-76 -76 -97 -194q-17 -94 15 -169.5t109 -116.5q16 -8 11 -23l-6 -34q-3 -20 -23 -20h-245q-14 0 -19 6t-2 20l7 41q4 27 31 27h121q-121 104 -89 283z" />
    <glyph glyph-name="estimated" unicode="&#x212e;" horiz-adv-x="816" 
d="M819 355l-3 -20q-3 -20 -25 -20h-536l-33 -192q71 -65 174 -65q78 0 155.5 40t134.5 116q8 11 13.5 13.5t20.5 2.5h35q11 0 13 -4t-4 -15q-61 -103 -163 -163q-103 -63 -217 -63q-154 0 -242 109q-90 108 -63 261q27 152 155 262q128 108 280 108q153 0 243 -108
q89 -110 62 -262zM641 388l36 199q-68 67 -175 67q-105 0 -198 -66l-36 -200h373z" />
    <glyph glyph-name="uni2153" unicode="&#x2153;" horiz-adv-x="907" 
d="M275 717h12q29 0 24 -27l-60 -343q-5 -26 -31 -26h-23q-15 0 -19.5 5.5t-2.5 20.5l49 274l-89 -44q-25 -12 -35 9l-8 19q-8 23 18 36l132 68q16 8 33 8zM697 710h34q13 0 17 -7.5t-4 -17.5l-486 -661q-11 -16 -20 -20t-32 -4h-31q-14 0 -17.5 8t4.5 19l487 661
q11 15 19 18.5t29 3.5zM579 302q51 102 170 102q62 0 92 -32t22 -84q-9 -56 -60 -82q51 -33 39 -104q-19 -110 -163 -110q-122 0 -137 101q-4 25 18 33l24 7q14 5 20.5 1.5t10.5 -17.5q4 -31 20.5 -44t54.5 -13q70 0 78 54q5 23 -6 37.5t-35 14.5h-50q-15 0 -18 4t-1 19
l4 20q3 17 8 21t21 4h43q47 0 57 49q5 24 -9 38.5t-42 14.5q-69 0 -96 -56q-9 -16 -16.5 -19t-24.5 3l-14 6q-22 9 -10 32z" />
    <glyph glyph-name="uni2154" unicode="&#x2154;" horiz-adv-x="944" 
d="M102 622q55 103 163 103q64 0 95 -35.5t22 -90.5q-9 -50 -40 -78.5t-96 -49.5l-61 -17q-45 -13 -51 -47l-4 -17h187q24 0 19 -23l-4 -24q-4 -22 -27 -22h-235q-13 0 -17.5 5t-3.5 18l7 35q9 52 32 80.5t72 46.5l61 22q53 20 66 33q12 12 17 36q5 25 -9 40.5t-44 15.5
q-51 0 -82 -56q-9 -15 -15 -18t-21 2l-21 7q-23 9 -10 34zM750 710h34q13 0 16.5 -7.5t-3.5 -17.5l-486 -661q-12 -16 -20.5 -20t-31.5 -4h-31q-15 0 -18.5 8t5.5 19l486 661q11 15 19.5 18.5t29.5 3.5zM615 302q53 102 170 102q62 0 92 -32t22 -84q-9 -56 -60 -82
q52 -34 39 -104q-20 -110 -163 -110q-122 0 -137 101q-4 25 19 33l23 7q26 9 31 -16q5 -31 22 -44t53 -13q68 0 79 54q5 23 -6 37.5t-35 14.5h-50q-15 0 -18.5 4.5t-1.5 18.5l4 20q3 17 8 21t21 4h44q49 0 56 49q5 24 -9 38.5t-42 14.5q-67 0 -96 -56q-9 -16 -16.5 -19
t-23.5 3l-15 6q-22 9 -10 32z" />
    <glyph glyph-name="oneeighth" unicode="&#x215b;" horiz-adv-x="915" 
d="M275 717h12q29 0 24 -27l-60 -343q-5 -26 -31 -26h-23q-15 0 -19.5 5.5t-2.5 20.5l49 274l-89 -44q-25 -12 -35 9l-8 19q-8 23 18 36l132 68q16 8 33 8zM697 710h34q13 0 16.5 -7.5t-3.5 -17.5l-486 -661q-12 -16 -20.5 -20t-31.5 -4h-31q-15 0 -18.5 8t5.5 19l486 661
q11 15 19.5 18.5t29.5 3.5zM579 294q9 52 52.5 81t111.5 29t102.5 -30t26.5 -79q-12 -60 -77 -89q67 -27 55 -96q-19 -118 -178 -118q-77 0 -112.5 29.5t-26.5 80.5q10 64 91 96q-58 30 -45 96zM795 292q4 25 -11.5 38.5t-50.5 13.5q-69 0 -80 -53q-4 -26 13 -39t63 -21
q59 23 66 61zM770 110q5 24 -13 37.5t-67 22.5q-20 -5 -43 -18q-29 -17 -34 -45q-5 -26 12.5 -40t58.5 -14q77 0 86 57z" />
    <glyph glyph-name="threeeighths" unicode="&#x215c;" horiz-adv-x="942" 
d="M100 623q50 102 169 102q62 0 92 -31.5t22 -83.5q-9 -57 -60 -83q52 -33 39 -103q-20 -111 -163 -111q-122 0 -136 101q-5 26 18 33l24 8q25 10 30 -17q5 -31 22 -44t54 -13q67 0 78 54q5 24 -6 38.5t-35 14.5h-50q-15 0 -18.5 4t-1.5 19l4 20q3 17 8 21t21 4h44
q49 0 56 48q4 25 -9 39.5t-42 14.5q-68 0 -95 -56q-10 -17 -17 -20t-24 3l-15 6q-12 6 -14 11.5t5 20.5zM738 709h34q13 0 17 -7.5t-4 -17.5l-486 -661q-11 -16 -20 -20t-32 -4h-31q-14 0 -18 8.5t5 18.5l487 661q10 15 18 18.5t30 3.5zM610 294q9 52 52.5 81t111.5 29
t102.5 -30t26.5 -79q-12 -60 -77 -89q68 -27 56 -96q-21 -118 -179 -118q-77 0 -112.5 29.5t-26.5 80.5q10 64 91 96q-59 30 -45 96zM826 292q4 25 -11.5 38.5t-50.5 13.5q-71 0 -79 -53q-4 -26 12.5 -38.5t62.5 -21.5q59 23 66 61zM801 110q5 24 -13 37.5t-67 22.5
q-5 0 -27 -11q-2 -1 -7 -3t-8 -4q-30 -16 -35 -45q-5 -26 12.5 -40t58.5 -14q75 0 86 57z" />
    <glyph glyph-name="fiveeighths" unicode="&#x215d;" horiz-adv-x="942" 
d="M166 716h206q11 0 14 -4t1 -14l-5 -29q-1 -18 -21 -18h-168l-22 -79h65q70 0 100.5 -35t20.5 -94q-10 -60 -52.5 -95.5t-110.5 -35.5q-121 0 -136 102q-4 24 17 32l23 8q16 5 21.5 2.5t8.5 -15.5q8 -62 72 -62q73 0 85 66q10 64 -62 64h-115q-24 0 -16 23l45 163
q5 21 29 21zM726 710h34q13 0 17 -7.5t-4 -17.5l-486 -661q-11 -16 -20 -20t-32 -4h-31q-14 0 -17.5 8t4.5 19l487 661q11 15 19 18.5t29 3.5zM608 294q9 52 52.5 81t111.5 29t102.5 -30t26.5 -79q-12 -60 -78 -89q68 -27 56 -96q-19 -118 -178 -118q-77 0 -112.5 29.5
t-26.5 80.5q10 64 91 96q-59 30 -45 96zM823 292q5 24 -10.5 38t-50.5 14q-72 0 -80 -53q-4 -26 13 -39t63 -21q59 23 65 61zM799 110q5 24 -13.5 37.5t-67.5 22.5q-1 0 -14 -5t-19.5 -8.5t-17.5 -10.5t-17 -17t-8 -22q-5 -26 12.5 -40t57.5 -14q78 0 87 57z" />
    <glyph glyph-name="seveneighths" unicode="&#x215e;" horiz-adv-x="903" 
d="M124 717h243q12 0 15.5 -4t1.5 -16l-4 -19q-1 -11 -10 -25l-194 -316q-7 -11 -12 -13.5t-23 -2.5h-30q-14 0 -16.5 5.5t7.5 21.5l185 299h-175q-12 0 -15.5 4t-1.5 15l6 30q2 13 6.5 17t16.5 4zM664 710h34q13 0 16.5 -7.5t-3.5 -17.5l-486 -661q-12 -16 -20.5 -20
t-31.5 -4h-31q-15 0 -18.5 8t5.5 19l486 661q11 15 19.5 18.5t29.5 3.5zM564 294q9 52 52.5 81t112.5 29q66 0 101 -30t27 -79q-11 -61 -77 -89q68 -27 56 -96q-19 -118 -179 -118q-77 0 -112 29.5t-26 80.5q11 63 90 96q-57 28 -45 96zM780 292q4 25 -11.5 38.5t-50.5 13.5
q-71 0 -79 -53q-4 -26 12.5 -38.5t62.5 -21.5q59 21 66 61zM756 110q4 25 -14.5 38t-66.5 22q-5 0 -27 -11q-2 -1 -7 -3t-8 -4q-28 -15 -34 -45q-5 -27 12 -40.5t58 -13.5q77 0 87 57z" />
    <glyph glyph-name="arrowleft" unicode="&#x2190;" horiz-adv-x="745" 
d="M196 370h517q21 0 17 -21l-5 -30q-4 -22 -25 -22h-516l132 -162q11 -14 -5 -28l-27 -23q-17 -15 -29 0l-189 230q-20 20 7 40l270 230q18 15 30 1l19 -24q10 -15 -6 -28z" />
    <glyph glyph-name="arrowup" unicode="&#x2191;" horiz-adv-x="745" 
d="M467 657l189 -230q13 -16 -5 -30l-27 -22q-17 -16 -28 0l-133 160l-90 -516q-5 -21 -26 -21h-32q-21 0 -18 21l91 516l-190 -161q-16 -13 -28 0l-20 23q-12 15 6 30l271 230q23 20 40 0z" />
    <glyph glyph-name="arrowright" unicode="&#x2192;" horiz-adv-x="745" 
d="M525 584l190 -230q16 -19 -7 -40l-271 -230q-19 -16 -29 0l-19 23q-11 14 6 28l189 162h-517q-21 0 -17 22l5 30q5 21 26 21h516l-134 163q-10 13 6 28l27 24q17 14 29 -1z" />
    <glyph glyph-name="arrowdown" unicode="&#x2193;" horiz-adv-x="745" 
d="M432 663h32q21 0 18 -21l-91 -516l189 160q17 14 28 0l19 -22q14 -14 -5 -29l-270 -230q-25 -22 -41 0l-190 230q-11 16 5 29l28 23q17 14 28 0l134 -161l90 516q4 21 26 21z" />
    <glyph glyph-name="uni2196" unicode="&#x2196;" horiz-adv-x="745" 
d="M317 576h325q15 0 20 -6.5t3 -21.5l-58 -326q-5 -20 -23 -20h-35q-11 0 -14 4.5t-1 16.5l40 226l-429 -364q-17 -15 -30 0l-19 22q-13 15 6 31l429 365h-229q-11 0 -14 4.5t-1 15.5l6 33q3 20 24 20z" />
    <glyph glyph-name="uni2197" unicode="&#x2197;" horiz-adv-x="745" 
d="M216 576h325q23 0 18 -20l-6 -33q-5 -20 -24 -20h-228l301 -365q12 -16 -6 -31l-27 -22q-18 -17 -30 0l-300 364l-40 -226q-5 -21 -22 -21h-35q-11 0 -14.5 4.5t-1.5 15.5l58 326q4 28 32 28z" />
    <glyph glyph-name="uni2198" unicode="&#x2198;" horiz-adv-x="745" 
d="M172 543l27 22q18 13 31 0l300 -364l40 226q4 21 21 21h35q21 0 17 -21l-58 -325q-5 -29 -33 -29h-325q-21 0 -17 21l6 33q3 20 23 20h228l-300 365q-13 16 5 31z" />
    <glyph glyph-name="uni2199" unicode="&#x2199;" horiz-adv-x="745" 
d="M196 201l429 364q18 15 30 0l20 -22q13 -15 -6 -31l-429 -365h228q12 0 15.5 -4t1.5 -16l-6 -33q-5 -21 -25 -21h-325q-28 0 -23 29l58 325q1 21 23 21h35q19 0 14 -21z" />
    <glyph glyph-name="partialdiff" unicode="&#x2202;" horiz-adv-x="551" 
d="M206 683l5 35q5 24 28 24q187 0 254 -83.5t34 -267.5l-37 -215q-17 -93 -83 -142t-176 -49q-109 0 -158 54.5t-32 149.5l21 123q16 92 80 142.5t162 50.5q118 0 146 -70q15 118 -36 171.5t-187 53.5q-14 0 -18.5 5t-2.5 18zM401 184l22 123q10 57 -19 87t-95 30
q-67 0 -107 -30.5t-50 -87.5l-22 -122q-10 -57 19.5 -87.5t95.5 -30.5q134 0 156 118z" />
    <glyph glyph-name="increment" unicode="&#x2206;" horiz-adv-x="634" 
d="M371 710h45q26 0 30 -21l115 -582q7 -34 4 -49l-5 -32q-5 -26 -31 -26h-521q-15 0 -19.5 6t-2.5 20l5 32q1 7 22 49l322 582q11 21 36 21zM466 80l-66 373q-8 45 -12 105q-4 59 -6 67h-6q0 -1 -29 -68q-25 -58 -50 -104l-198 -373h367z" />
    <glyph glyph-name="product" unicode="&#x220f;" horiz-adv-x="690" 
d="M132 710h574q14 0 19 -6t2 -20l-6 -38q-5 -26 -31 -26h-62l-122 -694q-5 -26 -31 -26h-44q-15 0 -20 6t-2 20l122 694h-255l-122 -694q-5 -26 -31 -26h-44q-15 0 -19.5 6t-2.5 20l122 694h-63q-15 0 -19.5 6t-2.5 20l7 38q5 26 31 26z" />
    <glyph glyph-name="summation" unicode="&#x2211;" horiz-adv-x="583" 
d="M212 620l125 -281q8 -16 5.5 -28.5t-16.5 -31.5l-224 -289h361q15 0 19.5 -6t1.5 -20l-6 -38q-5 -26 -31 -26h-453q-15 0 -19.5 6t-1.5 20l7 37q2 16 13 27l253 320l-139 309q-7 13 -3 28l6 36q4 27 31 27h444q14 0 19 -6t2 -21l-6 -37q-5 -26 -31 -26h-357z" />
    <glyph glyph-name="minus" unicode="&#x2212;" horiz-adv-x="596" 
d="M101 369h420q14 0 19 -5.5t2 -20.5l-6 -35q-5 -26 -31 -26h-419q-15 0 -19.5 6t-2.5 20l6 35q3 15 9.5 20.5t21.5 5.5z" />
    <glyph glyph-name="uni2215" unicode="&#x2215;" horiz-adv-x="606" 
d="M-34 27l603 661q13 15 21.5 18.5t30.5 3.5h34q14 0 16 -8t-7 -18l-602 -660q-14 -16 -24 -20t-33 -4h-31q-14 0 -16 8t8 19z" />
    <glyph glyph-name="uni2219" unicode="&#x2219;" horiz-adv-x="224" 
d="M114 296h6q28 0 37.5 -11t4.5 -40l-2 -8q-5 -28 -18 -39t-42 -11h-6q-29 0 -38 10.5t-4 39.5l2 8q5 29 18 40t42 11z" />
    <glyph glyph-name="radical" unicode="&#x221a;" horiz-adv-x="701" 
d="M718 751h35q25 0 13 -26l-394 -809q-10 -22 -37 -22h-39q-14 0 -20 4t-8 16l-78 439h-131q-15 0 -19.5 6t-1.5 20l6 34q4 27 31 27h159q25 0 33.5 -5t10.5 -19l46 -284q6 -37 6 -91q-1 -54 0 -55h6l19 55q16 47 35 90l279 597q6 14 15.5 18.5t33.5 4.5z" />
    <glyph glyph-name="infinity" unicode="&#x221e;" horiz-adv-x="709" 
d="M374 345q78 101 169 101q68 0 104 -47q36 -48 24 -119q-13 -69 -67 -112q-53 -43 -119 -43q-49 0 -83 27t-50 70q-31 -42 -75 -69.5t-95 -27.5q-65 0 -101 49q-37 47 -25 115q13 71 64.5 114t121.5 43q91 0 132 -101zM318 286q-1 1 -11 20.5t-16 28.5q-8 12 -25.5 22
t-37.5 10q-36 0 -62.5 -23t-33.5 -59q-6 -34 12 -57.5t53 -23.5q42 -5 87 43q32 31 34 39zM563 227q27 22 32.5 57t-13 60.5t-54.5 22.5q-42 0 -85 -43q-5 -5 -13 -13.5t-14 -16t-7 -8.5q0 -5 16 -33q4 -7 12 -17q22 -32 64 -32q34 0 62 23z" />
    <glyph glyph-name="integral" unicode="&#x222b;" horiz-adv-x="387" 
d="M94 -22l101 573q17 100 71 144.5t162 44.5q14 0 18 -5t2 -19l-6 -35q-5 -24 -29 -24q-64 0 -92 -26t-38 -89l-101 -574q-18 -100 -71.5 -144t-161.5 -44q-14 0 -18 5t-2 19l6 35q5 24 29 24q64 0 91 25.5t39 89.5z" />
    <glyph glyph-name="approxequal" unicode="&#x2248;" horiz-adv-x="560" 
d="M106 436q62 48 127 48q35 1 90 -19t80 -19q39 2 75 29q13 10 19.5 9.5t14.5 -10.5l22 -25q17 -20 -7 -37q-56 -46 -122 -49q-41 -2 -92 18q-54 20 -80 20q-43 -2 -76 -29q-14 -10 -20 -9.5t-14 10.5l-23 26q-16 18 6 37zM76 252q58 47 124 49q39 1 91 -18q54 -20 79 -20
q39 0 77 29q13 9 19.5 9t14.5 -10l23 -26q17 -20 -7 -37q-58 -46 -122 -49q-37 -1 -92 19q-51 19 -81 19q-36 0 -76 -29q-13 -9 -19.5 -9t-14.5 10l-22 26q-17 20 6 37z" />
    <glyph glyph-name="notequal" unicode="&#x2260;" horiz-adv-x="594" 
d="M367 382l-77 -111h213q15 0 19.5 -5.5t2.5 -20.5l-6 -34q-3 -15 -9.5 -20.5t-21.5 -5.5h-257l-74 -108q-6 -8 -20 -8h-32q-8 0 -2 9l73 107h-107q-15 0 -20 5.5t-2 20.5l6 34q2 15 9 20.5t22 5.5h152l75 111h-208q-14 0 -19 5.5t-2 20.5l6 35q5 26 31 26h252l74 106
q5 8 17 8h34q9 0 3 -9l-73 -105h112q15 0 19.5 -6t2.5 -20l-6 -35q-5 -26 -31 -26h-156z" />
    <glyph glyph-name="lessequal" unicode="&#x2264;" horiz-adv-x="548" 
d="M530 610l-6 -32q-3 -21 -9 -29.5t-22 -13.5l-287 -112l-1 -4l248 -110q14 -6 17 -13.5t0 -29.5l-6 -35q-4 -18 -10.5 -22.5t-21.5 2.5l-329 164q-19 11 -15 33l4 25q4 23 27 33l387 164q17 6 22 2t2 -22zM69 145h353q16 0 20.5 -5.5t1.5 -20.5l-6 -32q-2 -15 -9 -20.5
t-22 -5.5h-354q-15 0 -19.5 6t-2.5 21l6 31q5 26 32 26z" />
    <glyph glyph-name="greaterequal" unicode="&#x2265;" horiz-adv-x="543" 
d="M125 578l6 32q3 17 10.5 22t21.5 -2l329 -164q19 -10 16 -33l-5 -25q-5 -22 -27 -33l-387 -164q-17 -7 -22.5 -2.5t-1.5 22.5l6 36q4 21 10 29t23 14l285 110v4l-247 111q-14 6 -17 14t0 29zM77 152h354q15 0 20 -6t2 -21l-6 -31q-2 -15 -9 -20.5t-22 -5.5h-354
q-15 0 -19.5 5.5t-2.5 20.5l6 32q3 15 9.5 20.5t21.5 5.5z" />
    <glyph glyph-name="lozenge" unicode="&#x25ca;" horiz-adv-x="542" 
d="M338 710h26q20 0 30 -21l132 -315q8 -20 -7 -38l-243 -315q-16 -21 -37 -21h-25q-12 0 -17.5 4t-11.5 17l-133 315q-9 19 7 38l244 315q15 21 35 21zM336 602h-5l-182 -247l95 -247h4l185 247z" />
    <glyph glyph-name="NULL" horiz-adv-x="371" 
 />
    <glyph glyph-name="zero.denom" horiz-adv-x="373" 
d="M19 136l24 135q11 63 55.5 98t115.5 35q69 0 102.5 -39.5t22.5 -103.5l-23 -135q-12 -64 -56.5 -99t-114.5 -35q-71 0 -104 39t-22 105zM241 130l23 135q6 31 -10.5 48.5t-50.5 17.5q-35 0 -57.5 -17.5t-27.5 -48.5l-24 -135q-5 -31 11 -48.5t51 -17.5q34 0 56.5 17.5
t28.5 48.5z" />
    <glyph glyph-name="one.denom" horiz-adv-x="272" 
d="M205 396h12q29 0 24 -26l-61 -344q-5 -26 -31 -26h-23q-14 0 -19 6t-2 20l49 274l-89 -44q-26 -14 -35 9l-8 19q-9 22 18 36l132 68q16 8 33 8z" />
    <glyph glyph-name="two.denom" horiz-adv-x="355" 
d="M42 301q58 103 164 103q64 0 95 -35.5t22 -90.5q-9 -51 -40.5 -79.5t-95.5 -47.5l-61 -18q-45 -13 -51 -46l-4 -18h186q25 0 20 -23l-5 -23q-3 -23 -27 -23h-234q-25 0 -21 24l7 35q9 52 32.5 81t71.5 46l61 22q31 10 42 15.5t24 18.5q12 12 17 34q4 25 -10 40.5
t-43 15.5q-13 0 -24.5 -3.5t-19.5 -8.5t-15 -12t-10.5 -12t-8 -11.5t-4.5 -7.5q-9 -16 -15 -19t-21 2l-21 8q-25 9 -11 33z" />
    <glyph glyph-name="three.denom" horiz-adv-x="364" 
d="M38 302q51 102 170 102q62 0 92 -32t22 -84q-9 -56 -60 -82q51 -33 39 -104q-19 -110 -163 -110q-122 0 -137 101q-4 25 19 33l23 7q14 5 20.5 1.5t10.5 -17.5q4 -31 20.5 -44t54.5 -13q71 0 78 54q5 23 -6 37.5t-35 14.5h-50q-14 0 -17.5 4.5t-1.5 18.5l4 20q3 17 8 21
t21 4h43q47 0 57 49q5 24 -9 38.5t-42 14.5q-69 0 -96 -56q-9 -16 -16.5 -19t-24.5 3l-14 6q-22 9 -10 32z" />
    <glyph glyph-name="four.denom" horiz-adv-x="370" 
d="M269 157h30q15 0 18 -4t1 -17l-3 -22q-3 -13 -7.5 -17t-19.5 -4h-30l-12 -71q-3 -13 -8 -17.5t-18 -4.5h-29q-13 0 -16 4.5t-1 17.5l12 71h-180q-13 0 -17 4.5t-2 18.5l3 19q4 16 12 25l219 222q14 14 35 14h32q16 0 19 -4.5t0 -19.5zM198 157l25 145l-143 -145h118z" />
    <glyph glyph-name="five.denom" horiz-adv-x="356" 
d="M107 396h206q18 0 15 -18l-5 -29q-2 -11 -6.5 -14.5t-14.5 -3.5h-168l-22 -80h65q69 0 100 -34.5t21 -93.5q-10 -60 -52.5 -95.5t-110.5 -35.5q-123 0 -136 102q-4 24 17 32l23 8q16 4 21 2t9 -15q8 -62 72 -62q35 0 57 17.5t27 48.5q10 64 -61 64h-115q-24 0 -16 23
l45 163q5 21 29 21z" />
    <glyph glyph-name="six.denom" horiz-adv-x="372" 
d="M117 256l-5 -29q60 17 96 17q68 0 96 -33t18 -94q-23 -125 -175 -125q-74 0 -105.5 40t-18.5 115l20 113q25 144 181 144q49 0 81.5 -21t42.5 -53q5 -14 -14 -23l-32 -15q-15 -4 -18.5 -3.5t-7.5 8.5q-17 38 -64 38q-80 0 -95 -79zM100 157l-3 -18q-13 -78 62 -78
q78 0 88 58q7 27 -9.5 42t-53 14t-84.5 -18z" />
    <glyph glyph-name="seven.denom" horiz-adv-x="315" 
d="M56 396h242q12 0 15.5 -4t1.5 -16l-3 -18q-1 -12 -10 -26l-195 -316q-6 -11 -11.5 -13.5t-23.5 -2.5h-29q-15 0 -17 5.5t8 21.5l185 299h-176q-12 0 -15 4t-1 16l5 30q2 12 7 16t17 4z" />
    <glyph glyph-name="eight.denom" horiz-adv-x="379" 
d="M51 294q9 52 53 81t112 29q66 0 101 -30t27 -79q-11 -61 -77 -89q68 -27 56 -96q-19 -118 -179 -118q-77 0 -112 29.5t-26 80.5q10 64 91 96q-58 28 -46 96zM267 292q4 25 -11 38.5t-50 13.5q-72 0 -80 -53q-4 -26 12.5 -38.5t62.5 -21.5q59 21 66 61zM243 110
q4 25 -14.5 38t-66.5 22q-5 0 -27 -11q-2 -1 -6.5 -3t-8.5 -4q-28 -15 -34 -45q-5 -27 12 -40.5t58 -13.5q76 0 87 57z" />
    <glyph glyph-name="nine.denom" horiz-adv-x="372" 
d="M237 140l5 29q-59 -17 -95 -17q-68 0 -96 34t-17 95q22 123 174 123q74 0 105.5 -40t18.5 -114l-20 -112q-26 -146 -181 -146q-50 0 -82.5 20t-42.5 52q-6 15 15 25l30 14q15 5 18.5 4.5t8.5 -9.5q13 -37 65 -37q81 0 94 79zM255 239l3 18q14 78 -62 78q-78 0 -88 -58
q-5 -28 10 -42t52 -14q46 0 85 18z" />
    <glyph glyph-name="zero.num" horiz-adv-x="373" 
d="M76 456l24 136q11 63 55.5 98t115.5 35q69 0 102.5 -39.5t22.5 -103.5l-23 -135q-12 -64 -56.5 -99t-114.5 -35q-71 0 -104 38.5t-22 104.5zM298 451l23 135q6 31 -10.5 48.5t-50.5 17.5q-35 0 -57.5 -17.5t-27.5 -48.5l-24 -135q-5 -31 11 -49t51 -18q34 0 56.5 18
t28.5 49z" />
    <glyph glyph-name="one.num" horiz-adv-x="273" 
d="M262 717h12q15 0 20.5 -6t3.5 -21l-61 -343q-2 -15 -9 -20.5t-22 -5.5h-23q-14 0 -19 5.5t-2 20.5l49 274l-89 -44q-26 -14 -35 9l-8 19q-9 23 18 36l132 68q16 8 33 8z" />
    <glyph glyph-name="two.num" horiz-adv-x="355" 
d="M97 622q58 103 163 103q64 0 95 -35.5t22 -90.5q-9 -50 -40 -78.5t-96 -49.5l-60 -17q-46 -13 -52 -47l-3 -17h186q23 0 19 -23l-4 -24q-4 -22 -27 -22h-234q-14 0 -18.5 5t-2.5 18l6 35q9 52 32.5 80.5t71.5 46.5l61 22q53 20 65 32q14 15 18 37q5 25 -8.5 40.5
t-43.5 15.5q-52 0 -83 -56q-9 -15 -15 -18t-21 2l-20 7q-24 9 -11 34z" />
    <glyph glyph-name="three.num" horiz-adv-x="363" 
d="M95 623q51 102 169 102q62 0 92 -32t22 -84q-9 -58 -60 -83q52 -33 39 -103q-20 -110 -163 -110q-122 0 -137 100q-5 26 19 34l24 7q25 10 30 -16q5 -31 22 -44t54 -13q67 0 78 53q5 24 -6 38.5t-35 14.5h-50q-15 0 -18.5 4.5t-1.5 18.5l4 20q3 17 8 21t21 4h44
q49 0 56 49q5 24 -9 38.5t-42 14.5q-67 0 -96 -56q-9 -17 -16.5 -20t-23.5 4l-15 6q-23 9 -9 32z" />
    <glyph glyph-name="four.num" horiz-adv-x="370" 
d="M327 478h30q14 0 17.5 -4t1.5 -16l-4 -22q-2 -13 -7 -17t-20 -4h-30l-12 -72q-3 -13 -8 -17.5t-18 -4.5h-29q-13 0 -16 4.5t-1 17.5l13 72h-181q-13 0 -16.5 4.5t-1.5 18.5l3 18q2 16 12 26l219 221q14 14 34 14h33q15 0 18 -4t1 -19zM255 478l26 145l-144 -145h118z" />
    <glyph glyph-name="five.num" horiz-adv-x="356" 
d="M163 717h206q18 0 15 -19l-5 -28q-2 -11 -6 -14.5t-15 -3.5h-168l-22 -80h65q69 0 100 -34.5t21 -93.5q-10 -60 -52.5 -95.5t-110.5 -35.5q-122 0 -136 101q-4 25 17 33l23 8q16 4 21 1.5t9 -14.5q7 -63 72 -63q35 0 57 18t27 49q10 64 -61 64h-115q-23 0 -16 22l45 163
q3 13 9 17.5t20 4.5z" />
    <glyph glyph-name="six.num" horiz-adv-x="371" 
d="M173 577l-5 -29q60 17 96 17q68 0 96 -33t18 -94q-23 -125 -175 -125q-74 0 -105.5 40t-18.5 115l20 112q25 145 181 145q50 0 82 -20.5t42 -54.5q6 -14 -14 -23l-32 -14q-15 -4 -18.5 -3.5t-7.5 8.5q-16 37 -64 37q-80 0 -95 -78zM156 478l-3 -19q-14 -77 62 -77
q78 0 88 58q5 28 -10 42t-52 14q-39 0 -85 -18z" />
    <glyph glyph-name="seven.num" horiz-adv-x="316" 
d="M113 717h242q13 0 16 -4t1 -16l-3 -18q-1 -10 -10 -26l-195 -316q-6 -11 -11.5 -13.5t-23.5 -2.5h-29q-15 0 -17 5.5t8 21.5l185 299h-176q-11 0 -14.5 4.5t-1.5 15.5l5 30q2 12 7 16t17 4z" />
    <glyph glyph-name="eight.num" horiz-adv-x="380" 
d="M108 614q9 53 52.5 82t112.5 29q66 0 101 -30.5t27 -78.5q-11 -61 -77 -89q68 -27 56 -96q-19 -118 -179 -118q-77 0 -112 29.5t-26 80.5q10 64 91 96q-58 28 -46 95zM324 612q8 53 -61 53q-72 0 -80 -54q-4 -24 12.5 -37t62.5 -22q58 16 66 60zM300 431q4 25 -14 38
t-67 22q-5 0 -27 -11q-2 0 -6.5 -3t-8.5 -4q-28 -15 -34 -45q-5 -27 12 -41t58 -14q77 0 87 58z" />
    <glyph glyph-name="nine.num" horiz-adv-x="373" 
d="M294 461l5 29q-60 -18 -95 -18q-68 0 -96 34.5t-17 95.5q23 123 174 123q74 0 105.5 -40t18.5 -114l-20 -113q-25 -145 -181 -145q-50 0 -82.5 20t-42.5 52q-6 15 15 25l30 14q15 5 18.5 4.5t8.5 -9.5q13 -37 65 -37q81 0 94 79zM312 560l3 18q14 77 -62 77
q-78 0 -88 -58q-5 -28 10 -41.5t52 -13.5q46 0 85 18z" />
    <glyph glyph-name="CR" horiz-adv-x="322" 
 />
    <glyph glyph-name="acute.case" horiz-adv-x="257" 
d="M123 805l172 95q32 17 44 -1l15 -24q14 -20 -8 -28l-190 -83q-24 -9 -30 1l-9 15q-6 10 -5 15t11 10z" />
    <glyph glyph-name="breve.case" horiz-adv-x="287" 
d="M401 867q-53 -105 -171 -105t-135 105q-1 16 14 23l34 11q18 4 22 -8q7 -66 75 -66t99 66q9 13 22 9l33 -12q14 -8 7 -23z" />
    <glyph glyph-name="caron.case" horiz-adv-x="332" 
d="M398 904h35q10 0 13.5 -2.5t2 -7t-8.5 -10.5l-130 -103q-17 -14 -25 -17.5t-23 -3.5h-10q-17 0 -23.5 3t-18.5 18l-95 103q-6 8 -2.5 14t17.5 6h34q15 0 20.5 -2t13.5 -12l67 -71l92 71q14 14 41 14z" />
    <glyph glyph-name="cedilla.case" horiz-adv-x="251" 
d="M118 0l-36 -66q16 2 20 2q40 0 59.5 -24t9.5 -61q-24 -96 -142 -96q-49 0 -74 16q-14 8 -10 23l4 24q2 18 14 10q28 -20 64 -20q60 0 68 47q3 18 -8 26.5t-37 9.5q-16 0 -30 -3q-11 -1 -13.5 4t4.5 16l53 92h54z" />
    <glyph glyph-name="circumflex.case" horiz-adv-x="385" 
d="M323 905h10q15 0 21.5 -3t18.5 -18l95 -103q14 -20 -15 -20h-32q-26 0 -37 14l-65 71l-93 -71q-17 -14 -40 -14h-36q-31 0 -8 20l131 103q17 15 24.5 18t25.5 3z" />
    <glyph glyph-name="dieresis.case" horiz-adv-x="439" 
d="M227 875h7q24 0 31.5 -9t3.5 -32l-2 -9q-5 -24 -15 -32.5t-34 -8.5h-7q-23 0 -30.5 9t-3.5 32l2 9q4 23 14.5 32t33.5 9zM425 875h6q24 0 31.5 -9t2.5 -32l-1 -9q-4 -23 -15 -32t-34 -9h-7q-24 0 -31.5 9t-2.5 32l1 9q5 23 15.5 32t34.5 9z" />
    <glyph glyph-name="dotaccent.case" horiz-adv-x="216" 
d="M218 874h5q25 0 32.5 -9t3.5 -34l-2 -7q-4 -25 -14.5 -34t-35.5 -9h-6q-25 0 -32 9t-3 34l2 7q4 25 14.5 34t35.5 9z" />
    <glyph glyph-name="grave.case" horiz-adv-x="257" 
d="M148 871l23 24q19 19 45 1l139 -92q14 -10 -2 -26l-13 -14q-10 -10 -31 -2l-163 82q-18 7 2 27z" />
    <glyph glyph-name="hungarumlaut.case" horiz-adv-x="395" 
d="M165 791l98 101q19 23 43 16l26 -9q22 -7 3 -27l-123 -100q-20 -14 -30 -10l-14 5q-20 6 -3 24zM330 788l104 104q20 24 43 16l28 -9q27 -9 3 -27l-131 -103q-19 -14 -29 -10l-14 5q-21 6 -4 24z" />
    <glyph glyph-name="macron.case" horiz-adv-x="352" 
d="M167 859h234q13 0 17 -4.5t1 -17.5l-3 -20q-2 -14 -7.5 -18.5t-18.5 -4.5h-234q-13 0 -17 4.5t-2 18.5l3 20q4 22 27 22z" />
    <glyph glyph-name="ogonek.case" horiz-adv-x="252" 
d="M90 0h60q-52 -46 -79.5 -88t-24.5 -67q4 -24 29 -24q24 0 43 16q11 8 14 -4l7 -26q3 -11 -5 -17q-44 -36 -99 -36q-69 0 -72 55q-4 40 30 91.5t97 99.5z" />
    </font>
</defs>
</svg>
