<?xml version="1.0" encoding="UTF-8"?>
<svg xmlns="http://www.w3.org/2000/svg" xmlns:xlink="http://www.w3.org/1999/xlink" width="810pt" height="809.999993pt" viewBox="0 0 810 809.999993" version="1.2">
<defs>
<clipPath id="clip1">
  <path d="M 33.6875 15 L 456 15 L 456 795 L 33.6875 795 Z M 33.6875 15 "/>
</clipPath>
<clipPath id="clip2">
  <path d="M 289 202 L 776.070312 202 L 776.070312 593 L 289 593 Z M 289 202 "/>
</clipPath>
</defs>
<g id="surface1">
<rect x="0" y="0" width="810" height="809.999993" style="fill:rgb(100%,100%,100%);fill-opacity:1;stroke:none;"/>
<rect x="0" y="0" width="810" height="809.999993" style="fill:rgb(100%,100%,100%);fill-opacity:1;stroke:none;"/>
<g clip-path="url(#clip1)" clip-rule="nonzero">
<path style=" stroke:none;fill-rule:nonzero;fill:rgb(0%,0%,0%);fill-opacity:1;" d="M 370.183594 794.242188 L 117.484375 794.242188 C 62.492188 794.242188 33.6875 765.441406 33.6875 710.460938 L 33.6875 99.128906 C 33.6875 44.148438 62.492188 15.351562 117.484375 15.351562 L 370.183594 15.351562 C 425.175781 15.351562 453.980469 44.148438 453.980469 99.128906 L 453.980469 219.5625 C 453.980469 224.800781 450.050781 230.035156 443.503906 230.035156 C 436.957031 230.035156 433.03125 226.109375 433.03125 219.5625 L 433.03125 99.128906 C 433.03125 54.621094 412.082031 34.984375 368.875 34.984375 L 117.484375 34.984375 C 72.96875 34.984375 53.328125 55.929688 53.328125 99.128906 L 53.328125 709.152344 C 53.328125 753.660156 74.277344 773.296875 117.484375 773.296875 L 370.183594 773.296875 C 414.699219 773.296875 434.339844 752.351562 434.339844 709.152344 L 434.339844 557.300781 C 434.339844 552.066406 438.265625 546.828125 444.8125 546.828125 C 451.359375 546.828125 455.289062 550.757812 455.289062 557.300781 L 455.289062 709.152344 C 453.980469 764.132812 425.175781 794.242188 370.183594 794.242188 Z M 370.183594 794.242188 "/>
</g>
<path style=" stroke:none;fill-rule:nonzero;fill:rgb(0%,0%,0%);fill-opacity:1;" d="M 248.417969 753.660156 L 239.25 753.660156 C 234.015625 753.660156 230.085938 752.351562 227.46875 748.425781 C 224.847656 745.808594 222.230469 740.570312 222.230469 736.644531 L 222.230469 727.480469 C 222.230469 718.316406 230.085938 710.460938 239.25 710.460938 L 248.417969 710.460938 C 253.652344 710.460938 257.582031 711.773438 260.199219 715.699219 C 262.820312 718.316406 265.4375 723.554688 265.4375 727.480469 L 265.4375 736.644531 C 266.746094 745.808594 258.890625 753.660156 248.417969 753.660156 Z M 248.417969 753.660156 "/>
<path style=" stroke:none;fill-rule:nonzero;fill:rgb(0%,0%,0%);fill-opacity:1;" d="M 282.457031 82.113281 L 205.210938 82.113281 C 199.972656 82.113281 194.734375 76.875 194.734375 71.640625 C 194.734375 66.402344 198.664062 61.167969 205.210938 61.167969 L 282.457031 61.167969 C 287.695312 61.167969 292.933594 65.09375 292.933594 71.640625 C 292.933594 78.183594 287.695312 82.113281 282.457031 82.113281 Z M 282.457031 82.113281 "/>
<path style=" stroke:none;fill-rule:nonzero;fill:rgb(0%,0%,0%);fill-opacity:1;" d="M 423.863281 129.238281 L 61.183594 129.238281 C 55.945312 129.238281 50.710938 125.3125 50.710938 118.765625 C 50.710938 112.222656 54.636719 108.292969 61.183594 108.292969 L 423.863281 108.292969 C 429.101562 108.292969 434.339844 112.222656 434.339844 118.765625 C 434.339844 125.3125 429.101562 129.238281 423.863281 129.238281 Z M 423.863281 129.238281 "/>
<path style=" stroke:none;fill-rule:nonzero;fill:rgb(0%,0%,0%);fill-opacity:1;" d="M 423.863281 684.28125 L 61.183594 684.28125 C 55.945312 684.28125 50.710938 679.046875 50.710938 673.808594 C 50.710938 668.574219 54.636719 663.335938 61.183594 663.335938 L 423.863281 663.335938 C 429.101562 663.335938 434.339844 667.261719 434.339844 673.808594 C 434.339844 680.355469 429.101562 684.28125 423.863281 684.28125 Z M 423.863281 684.28125 "/>
<g clip-path="url(#clip2)" clip-rule="nonzero">
<path style=" stroke:none;fill-rule:nonzero;fill:rgb(0%,0%,0%);fill-opacity:1;" d="M 299.480469 592.648438 C 296.863281 592.648438 294.242188 591.339844 292.933594 590.027344 C 290.316406 587.410156 289.003906 583.484375 290.316406 580.867188 L 320.429688 481.375 C 300.789062 453.886719 289.003906 422.46875 289.003906 389.742188 C 289.003906 286.328125 397.679688 202.546875 532.539062 202.546875 C 667.398438 202.546875 776.070312 286.328125 776.070312 389.742188 C 776.070312 493.160156 666.089844 575.628906 532.539062 575.628906 C 497.1875 575.628906 461.835938 569.082031 429.101562 557.300781 L 302.097656 591.339844 C 300.789062 592.648438 299.480469 592.648438 299.480469 592.648438 Z M 532.539062 220.875 C 409.460938 220.875 308.644531 296.796875 308.644531 388.433594 C 308.644531 417.234375 319.121094 446.03125 338.757812 472.214844 C 340.070312 474.832031 341.378906 477.449219 340.070312 481.375 L 313.882812 569.082031 L 426.484375 538.976562 L 433.03125 538.976562 C 464.453125 550.757812 498.496094 557.300781 532.539062 557.300781 C 655.613281 557.300781 756.429688 481.375 756.429688 389.742188 C 756.429688 298.109375 655.613281 220.875 532.539062 220.875 Z M 532.539062 220.875 "/>
</g>
<path style=" stroke:none;fill-rule:nonzero;fill:rgb(0%,0%,0%);fill-opacity:1;" d="M 473.617188 388.433594 C 473.621094 389.078125 473.585938 389.71875 473.523438 390.359375 C 473.460938 390.996094 473.367188 391.632812 473.242188 392.265625 C 473.117188 392.894531 472.960938 393.519531 472.773438 394.132812 C 472.585938 394.75 472.371094 395.351562 472.125 395.949219 C 471.878906 396.542969 471.601562 397.121094 471.300781 397.691406 C 470.996094 398.257812 470.667969 398.808594 470.308594 399.34375 C 469.953125 399.878906 469.570312 400.394531 469.160156 400.890625 C 468.753906 401.386719 468.320312 401.863281 467.867188 402.316406 C 467.410156 402.773438 466.9375 403.203125 466.4375 403.613281 C 465.941406 404.019531 465.425781 404.402344 464.890625 404.757812 C 464.355469 405.117188 463.804688 405.449219 463.238281 405.75 C 462.671875 406.054688 462.089844 406.328125 461.496094 406.574219 C 460.902344 406.820312 460.296875 407.035156 459.679688 407.222656 C 459.066406 407.410156 458.441406 407.566406 457.8125 407.691406 C 457.179688 407.816406 456.542969 407.910156 455.90625 407.972656 C 455.265625 408.039062 454.621094 408.070312 453.980469 408.070312 C 453.335938 408.070312 452.695312 408.039062 452.054688 407.972656 C 451.414062 407.910156 450.777344 407.816406 450.148438 407.691406 C 449.515625 407.566406 448.894531 407.410156 448.277344 407.222656 C 447.664062 407.035156 447.058594 406.820312 446.464844 406.574219 C 445.871094 406.328125 445.289062 406.054688 444.722656 405.75 C 444.152344 405.449219 443.601562 405.117188 443.066406 404.761719 C 442.535156 404.402344 442.015625 404.019531 441.519531 403.613281 C 441.023438 403.203125 440.546875 402.773438 440.09375 402.316406 C 439.636719 401.863281 439.207031 401.386719 438.796875 400.890625 C 438.390625 400.394531 438.007812 399.878906 437.648438 399.34375 C 437.292969 398.808594 436.960938 398.257812 436.660156 397.691406 C 436.355469 397.121094 436.082031 396.542969 435.835938 395.949219 C 435.589844 395.351562 435.371094 394.75 435.183594 394.132812 C 435 393.519531 434.84375 392.894531 434.71875 392.265625 C 434.589844 391.632812 434.496094 390.996094 434.433594 390.359375 C 434.371094 389.71875 434.339844 389.078125 434.339844 388.433594 C 434.339844 387.789062 434.371094 387.148438 434.433594 386.507812 C 434.496094 385.867188 434.589844 385.234375 434.71875 384.601562 C 434.84375 383.972656 435 383.347656 435.183594 382.734375 C 435.371094 382.117188 435.589844 381.511719 435.835938 380.917969 C 436.082031 380.324219 436.355469 379.742188 436.660156 379.175781 C 436.960938 378.609375 437.292969 378.058594 437.648438 377.523438 C 438.007812 376.988281 438.390625 376.472656 438.796875 375.976562 C 439.207031 375.480469 439.636719 375.003906 440.09375 374.546875 C 440.546875 374.09375 441.023438 373.664062 441.519531 373.253906 C 442.015625 372.847656 442.535156 372.464844 443.066406 372.105469 C 443.601562 371.75 444.152344 371.417969 444.722656 371.117188 C 445.289062 370.8125 445.871094 370.539062 446.464844 370.292969 C 447.058594 370.046875 447.664062 369.828125 448.277344 369.644531 C 448.894531 369.457031 449.515625 369.300781 450.148438 369.175781 C 450.777344 369.050781 451.414062 368.953125 452.054688 368.890625 C 452.695312 368.828125 453.335938 368.796875 453.980469 368.796875 C 454.621094 368.796875 455.265625 368.828125 455.90625 368.890625 C 456.542969 368.953125 457.179688 369.050781 457.8125 369.175781 C 458.441406 369.300781 459.066406 369.457031 459.679688 369.644531 C 460.296875 369.828125 460.902344 370.046875 461.496094 370.292969 C 462.089844 370.539062 462.671875 370.8125 463.238281 371.117188 C 463.804688 371.417969 464.355469 371.75 464.890625 372.105469 C 465.425781 372.464844 465.941406 372.847656 466.4375 373.253906 C 466.9375 373.664062 467.410156 374.09375 467.867188 374.546875 C 468.320312 375.003906 468.753906 375.480469 469.160156 375.976562 C 469.570312 376.472656 469.953125 376.988281 470.308594 377.523438 C 470.667969 378.058594 470.996094 378.609375 471.300781 379.175781 C 471.601562 379.742188 471.878906 380.324219 472.125 380.917969 C 472.371094 381.511719 472.585938 382.117188 472.773438 382.734375 C 472.960938 383.347656 473.117188 383.972656 473.242188 384.601562 C 473.367188 385.234375 473.460938 385.867188 473.523438 386.507812 C 473.585938 387.148438 473.621094 387.789062 473.617188 388.433594 Z M 473.617188 388.433594 "/>
<path style=" stroke:none;fill-rule:nonzero;fill:rgb(0%,0%,0%);fill-opacity:1;" d="M 552.179688 388.433594 C 552.179688 389.078125 552.148438 389.71875 552.082031 390.359375 C 552.019531 390.996094 551.925781 391.632812 551.800781 392.265625 C 551.675781 392.894531 551.519531 393.519531 551.332031 394.132812 C 551.144531 394.75 550.929688 395.351562 550.683594 395.949219 C 550.4375 396.542969 550.164062 397.121094 549.859375 397.691406 C 549.554688 398.257812 549.226562 398.808594 548.867188 399.34375 C 548.511719 399.878906 548.128906 400.394531 547.71875 400.890625 C 547.3125 401.386719 546.878906 401.863281 546.425781 402.316406 C 545.972656 402.773438 545.496094 403.203125 544.996094 403.613281 C 544.5 404.019531 543.984375 404.402344 543.449219 404.757812 C 542.914062 405.117188 542.363281 405.449219 541.796875 405.75 C 541.230469 406.054688 540.648438 406.328125 540.054688 406.574219 C 539.460938 406.820312 538.855469 407.035156 538.238281 407.222656 C 537.625 407.410156 537 407.566406 536.371094 407.691406 C 535.738281 407.816406 535.105469 407.910156 534.464844 407.972656 C 533.824219 408.039062 533.183594 408.070312 532.539062 408.070312 C 531.894531 408.070312 531.253906 408.039062 530.613281 407.972656 C 529.972656 407.910156 529.335938 407.816406 528.707031 407.691406 C 528.074219 407.566406 527.453125 407.410156 526.835938 407.222656 C 526.222656 407.035156 525.617188 406.820312 525.023438 406.574219 C 524.429688 406.328125 523.847656 406.054688 523.28125 405.75 C 522.714844 405.449219 522.160156 405.117188 521.628906 404.761719 C 521.09375 404.402344 520.578125 404.019531 520.078125 403.613281 C 519.582031 403.203125 519.105469 402.773438 518.652344 402.316406 C 518.195312 401.863281 517.765625 401.386719 517.355469 400.890625 C 516.949219 400.394531 516.566406 399.878906 516.207031 399.34375 C 515.851562 398.808594 515.519531 398.257812 515.21875 397.691406 C 514.914062 397.121094 514.640625 396.542969 514.394531 395.949219 C 514.148438 395.351562 513.929688 394.75 513.746094 394.132812 C 513.558594 393.519531 513.402344 392.894531 513.277344 392.265625 C 513.152344 391.632812 513.054688 390.996094 512.992188 390.359375 C 512.929688 389.71875 512.898438 389.078125 512.898438 388.433594 C 512.898438 387.789062 512.929688 387.148438 512.992188 386.507812 C 513.054688 385.867188 513.152344 385.234375 513.277344 384.601562 C 513.402344 383.972656 513.558594 383.347656 513.746094 382.734375 C 513.929688 382.117188 514.148438 381.511719 514.394531 380.917969 C 514.640625 380.324219 514.914062 379.742188 515.21875 379.175781 C 515.519531 378.609375 515.851562 378.058594 516.207031 377.523438 C 516.566406 376.988281 516.949219 376.472656 517.355469 375.976562 C 517.765625 375.480469 518.195312 375.003906 518.652344 374.546875 C 519.105469 374.09375 519.582031 373.664062 520.078125 373.253906 C 520.578125 372.847656 521.09375 372.464844 521.628906 372.105469 C 522.160156 371.75 522.714844 371.417969 523.28125 371.117188 C 523.847656 370.8125 524.429688 370.539062 525.023438 370.292969 C 525.617188 370.046875 526.222656 369.828125 526.835938 369.644531 C 527.453125 369.457031 528.074219 369.300781 528.707031 369.175781 C 529.335938 369.050781 529.972656 368.953125 530.613281 368.890625 C 531.253906 368.828125 531.894531 368.796875 532.539062 368.796875 C 533.183594 368.796875 533.824219 368.828125 534.464844 368.890625 C 535.105469 368.953125 535.738281 369.050781 536.371094 369.175781 C 537 369.300781 537.625 369.457031 538.238281 369.644531 C 538.855469 369.828125 539.460938 370.046875 540.054688 370.292969 C 540.648438 370.539062 541.230469 370.8125 541.796875 371.117188 C 542.363281 371.417969 542.914062 371.75 543.449219 372.105469 C 543.984375 372.464844 544.5 372.847656 544.996094 373.253906 C 545.496094 373.664062 545.972656 374.09375 546.425781 374.546875 C 546.878906 375.003906 547.3125 375.480469 547.71875 375.976562 C 548.128906 376.472656 548.511719 376.988281 548.867188 377.523438 C 549.226562 378.058594 549.554688 378.609375 549.859375 379.175781 C 550.164062 379.742188 550.4375 380.324219 550.683594 380.917969 C 550.929688 381.511719 551.144531 382.117188 551.332031 382.734375 C 551.519531 383.347656 551.675781 383.972656 551.800781 384.601562 C 551.925781 385.234375 552.019531 385.867188 552.082031 386.507812 C 552.148438 387.148438 552.179688 387.789062 552.179688 388.433594 Z M 552.179688 388.433594 "/>
<path style=" stroke:none;fill-rule:nonzero;fill:rgb(0%,0%,0%);fill-opacity:1;" d="M 629.429688 388.433594 C 629.429688 389.078125 629.394531 389.71875 629.332031 390.359375 C 629.269531 390.996094 629.175781 391.632812 629.050781 392.265625 C 628.925781 392.894531 628.769531 393.519531 628.582031 394.132812 C 628.394531 394.75 628.179688 395.351562 627.933594 395.949219 C 627.6875 396.542969 627.410156 397.121094 627.109375 397.691406 C 626.804688 398.257812 626.476562 398.808594 626.117188 399.34375 C 625.761719 399.878906 625.378906 400.394531 624.96875 400.890625 C 624.5625 401.386719 624.128906 401.863281 623.675781 402.316406 C 623.21875 402.773438 622.746094 403.203125 622.246094 403.613281 C 621.75 404.019531 621.234375 404.402344 620.699219 404.757812 C 620.164062 405.117188 619.613281 405.449219 619.046875 405.75 C 618.480469 406.054688 617.898438 406.328125 617.304688 406.574219 C 616.710938 406.820312 616.105469 407.035156 615.488281 407.222656 C 614.875 407.410156 614.25 407.566406 613.621094 407.691406 C 612.988281 407.816406 612.351562 407.910156 611.714844 407.972656 C 611.074219 408.039062 610.429688 408.070312 609.789062 408.070312 C 609.144531 408.070312 608.503906 408.039062 607.863281 407.972656 C 607.222656 407.910156 606.585938 407.816406 605.957031 407.691406 C 605.324219 407.566406 604.703125 407.410156 604.085938 407.222656 C 603.472656 407.035156 602.867188 406.820312 602.273438 406.574219 C 601.679688 406.328125 601.097656 406.054688 600.53125 405.75 C 599.960938 405.449219 599.410156 405.117188 598.875 404.761719 C 598.34375 404.402344 597.824219 404.019531 597.328125 403.613281 C 596.832031 403.203125 596.355469 402.773438 595.902344 402.316406 C 595.445312 401.863281 595.015625 401.386719 594.605469 400.890625 C 594.199219 400.394531 593.816406 399.878906 593.457031 399.34375 C 593.101562 398.808594 592.769531 398.257812 592.46875 397.691406 C 592.164062 397.121094 591.890625 396.542969 591.644531 395.949219 C 591.398438 395.351562 591.179688 394.75 590.992188 394.132812 C 590.808594 393.519531 590.652344 392.894531 590.527344 392.265625 C 590.398438 391.632812 590.304688 390.996094 590.242188 390.359375 C 590.179688 389.71875 590.148438 389.078125 590.148438 388.433594 C 590.148438 387.789062 590.179688 387.148438 590.242188 386.507812 C 590.304688 385.867188 590.398438 385.234375 590.527344 384.601562 C 590.652344 383.972656 590.808594 383.347656 590.992188 382.734375 C 591.179688 382.117188 591.398438 381.511719 591.644531 380.917969 C 591.890625 380.324219 592.164062 379.742188 592.46875 379.175781 C 592.769531 378.609375 593.101562 378.058594 593.457031 377.523438 C 593.816406 376.988281 594.199219 376.472656 594.605469 375.976562 C 595.015625 375.480469 595.445312 375.003906 595.902344 374.546875 C 596.355469 374.09375 596.832031 373.664062 597.328125 373.253906 C 597.824219 372.847656 598.34375 372.464844 598.875 372.105469 C 599.410156 371.75 599.960938 371.417969 600.53125 371.117188 C 601.097656 370.8125 601.679688 370.539062 602.273438 370.292969 C 602.867188 370.046875 603.472656 369.828125 604.085938 369.644531 C 604.703125 369.457031 605.324219 369.300781 605.957031 369.175781 C 606.585938 369.050781 607.222656 368.953125 607.863281 368.890625 C 608.503906 368.828125 609.144531 368.796875 609.789062 368.796875 C 610.429688 368.796875 611.074219 368.828125 611.714844 368.890625 C 612.351562 368.953125 612.988281 369.050781 613.621094 369.175781 C 614.25 369.300781 614.875 369.457031 615.488281 369.644531 C 616.105469 369.828125 616.710938 370.046875 617.304688 370.292969 C 617.898438 370.539062 618.480469 370.8125 619.046875 371.117188 C 619.613281 371.417969 620.164062 371.75 620.699219 372.105469 C 621.234375 372.464844 621.75 372.847656 622.246094 373.253906 C 622.746094 373.664062 623.21875 374.09375 623.675781 374.546875 C 624.128906 375.003906 624.5625 375.480469 624.96875 375.976562 C 625.378906 376.472656 625.761719 376.988281 626.117188 377.523438 C 626.476562 378.058594 626.804688 378.609375 627.109375 379.175781 C 627.410156 379.742188 627.6875 380.324219 627.933594 380.917969 C 628.179688 381.511719 628.394531 382.117188 628.582031 382.734375 C 628.769531 383.347656 628.925781 383.972656 629.050781 384.601562 C 629.175781 385.234375 629.269531 385.867188 629.332031 386.507812 C 629.394531 387.148438 629.429688 387.789062 629.429688 388.433594 Z M 629.429688 388.433594 "/>
</g>
</svg>
