<?xml version="1.0" encoding="UTF-8"?>
<svg xmlns="http://www.w3.org/2000/svg" xmlns:xlink="http://www.w3.org/1999/xlink" width="810pt" height="809.999993pt" viewBox="0 0 810 809.999993" version="1.2">
<defs>
<clipPath id="clip1">
  <path d="M 14.117188 40.5 L 795.359375 40.5 L 795.359375 769.5 L 14.117188 769.5 Z M 14.117188 40.5 "/>
</clipPath>
</defs>
<g id="surface1">
<rect x="0" y="0" width="810" height="809.999993" style="fill:rgb(100%,100%,100%);fill-opacity:1;stroke:none;"/>
<rect x="0" y="0" width="810" height="809.999993" style="fill:rgb(100%,100%,100%);fill-opacity:1;stroke:none;"/>
<g clip-path="url(#clip1)" clip-rule="nonzero">
<path style=" stroke:none;fill-rule:nonzero;fill:rgb(0%,0%,0%);fill-opacity:1;" d="M 755.988281 40.5 C 752.683594 40.5 749.328125 41.769531 746.789062 44.3125 L 646.527344 144.644531 L 53.484375 144.644531 C 31.992188 144.644531 14.457031 162.1875 14.457031 183.695312 L 14.457031 626.304688 C 14.457031 647.8125 31.992188 665.355469 53.484375 665.355469 L 126.15625 665.355469 L 44.289062 747.277344 C 39.207031 752.363281 39.207031 760.601562 44.289062 765.6875 C 46.828125 768.230469 50.132812 769.5 53.484375 769.5 C 56.839844 769.5 60.144531 768.230469 62.683594 765.6875 L 162.945312 665.355469 L 755.988281 665.355469 C 777.484375 665.355469 795.015625 647.8125 795.015625 626.304688 L 795.015625 183.695312 C 795.015625 162.1875 777.484375 144.644531 755.988281 144.644531 L 683.316406 144.644531 L 765.183594 62.722656 C 770.265625 57.636719 770.265625 49.398438 765.183594 44.3125 C 762.644531 41.769531 759.289062 40.5 755.988281 40.5 Z M 53.484375 170.679688 L 620.507812 170.679688 L 482.792969 308.484375 L 482.792969 287.839844 C 482.792969 280.667969 477 274.820312 469.78125 274.820312 C 462.566406 274.820312 456.773438 280.667969 456.773438 287.839844 L 456.773438 313.875 C 456.773438 319.46875 460.332031 324.148438 465.3125 325.976562 L 152.171875 639.320312 L 53.484375 639.320312 C 46.320312 639.320312 40.476562 633.472656 40.476562 626.304688 L 40.476562 378.964844 L 379.277344 378.964844 C 386.492188 378.964844 392.285156 373.117188 392.285156 365.945312 C 392.285156 358.777344 386.492188 352.929688 379.277344 352.929688 L 40.476562 352.929688 L 40.476562 248.785156 L 508.8125 248.785156 C 516.027344 248.785156 521.820312 242.9375 521.820312 235.769531 C 521.820312 228.597656 516.027344 222.75 508.8125 222.75 L 40.476562 222.75 L 40.476562 183.695312 C 40.476562 176.527344 46.320312 170.679688 53.484375 170.679688 Z M 657.300781 170.679688 L 755.988281 170.679688 C 763.152344 170.679688 768.996094 176.527344 768.996094 183.695312 L 768.996094 352.929688 L 509.371094 352.929688 C 502.152344 352.929688 496.359375 358.777344 496.359375 365.945312 C 496.359375 373.117188 502.152344 378.964844 509.371094 378.964844 L 768.996094 378.964844 L 768.996094 626.304688 C 768.996094 633.472656 763.152344 639.320312 755.988281 639.320312 L 188.964844 639.320312 L 521.820312 306.246094 L 521.820312 313.875 C 521.820312 321.046875 527.613281 326.894531 534.828125 326.894531 C 542.046875 326.894531 547.839844 321.046875 547.839844 313.875 L 547.839844 287.839844 C 547.839844 285.652344 547.128906 283.667969 546.210938 281.839844 Z M 638.902344 222.75 C 631.6875 222.75 625.894531 228.597656 625.894531 235.769531 C 625.894531 242.9375 631.6875 248.785156 638.902344 248.785156 L 729.96875 248.785156 C 737.183594 248.785156 742.976562 242.9375 742.976562 235.769531 C 742.976562 228.597656 737.183594 222.75 729.96875 222.75 Z M 79.503906 274.820312 C 72.289062 274.820312 66.496094 280.667969 66.496094 287.839844 L 66.496094 313.875 C 66.496094 321.046875 72.289062 326.894531 79.503906 326.894531 C 86.71875 326.894531 92.515625 321.046875 92.515625 313.875 L 92.515625 287.839844 C 92.515625 280.667969 86.71875 274.820312 79.503906 274.820312 Z M 144.550781 274.820312 C 137.335938 274.820312 131.542969 280.667969 131.542969 287.839844 L 131.542969 313.875 C 131.542969 321.046875 137.335938 326.894531 144.550781 326.894531 C 151.765625 326.894531 157.558594 321.046875 157.558594 313.875 L 157.558594 287.839844 C 157.558594 280.667969 151.765625 274.820312 144.550781 274.820312 Z M 209.597656 274.820312 C 202.382812 274.820312 196.589844 280.667969 196.589844 287.839844 L 196.589844 313.875 C 196.589844 321.046875 202.382812 326.894531 209.597656 326.894531 C 216.8125 326.894531 222.605469 321.046875 222.605469 313.875 L 222.605469 287.839844 C 222.605469 280.667969 216.8125 274.820312 209.597656 274.820312 Z M 274.644531 274.820312 C 267.425781 274.820312 261.632812 280.667969 261.632812 287.839844 L 261.632812 313.875 C 261.632812 321.046875 267.425781 326.894531 274.644531 326.894531 C 281.859375 326.894531 287.652344 321.046875 287.652344 313.875 L 287.652344 287.839844 C 287.652344 280.667969 281.859375 274.820312 274.644531 274.820312 Z M 339.691406 274.820312 C 332.472656 274.820312 326.679688 280.667969 326.679688 287.839844 L 326.679688 313.875 C 326.679688 321.046875 332.472656 326.894531 339.691406 326.894531 C 346.90625 326.894531 352.699219 321.046875 352.699219 313.875 L 352.699219 287.839844 C 352.699219 280.667969 346.90625 274.820312 339.691406 274.820312 Z M 404.738281 274.820312 C 397.519531 274.820312 391.726562 280.667969 391.726562 287.839844 L 391.726562 313.875 C 391.726562 321.046875 397.519531 326.894531 404.738281 326.894531 C 411.953125 326.894531 417.746094 321.046875 417.746094 313.875 L 417.746094 287.839844 C 417.746094 280.667969 411.953125 274.820312 404.738281 274.820312 Z M 599.875 274.820312 C 592.660156 274.820312 586.867188 280.667969 586.867188 287.839844 L 586.867188 313.875 C 586.867188 321.046875 592.660156 326.894531 599.875 326.894531 C 607.089844 326.894531 612.886719 321.046875 612.886719 313.875 L 612.886719 287.839844 C 612.886719 280.667969 607.089844 274.820312 599.875 274.820312 Z M 664.921875 274.820312 C 657.707031 274.820312 651.914062 280.667969 651.914062 287.839844 L 651.914062 313.875 C 651.914062 321.046875 657.707031 326.894531 664.921875 326.894531 C 672.136719 326.894531 677.929688 321.046875 677.929688 313.875 L 677.929688 287.839844 C 677.929688 280.667969 672.136719 274.820312 664.921875 274.820312 Z M 729.96875 274.820312 C 722.753906 274.820312 716.957031 280.667969 716.957031 287.839844 L 716.957031 313.875 C 716.957031 321.046875 722.753906 326.894531 729.96875 326.894531 C 737.183594 326.894531 742.976562 321.046875 742.976562 313.875 L 742.976562 287.839844 C 742.976562 280.667969 737.183594 274.820312 729.96875 274.820312 Z M 573.855469 444.054688 C 545.144531 444.054688 521.820312 467.394531 521.820312 496.125 C 521.820312 524.855469 545.144531 548.195312 573.855469 548.195312 C 585.851562 548.195312 597.285156 544.078125 606.378906 536.753906 C 615.476562 544.078125 626.910156 548.195312 638.902344 548.195312 C 667.613281 548.195312 690.941406 524.855469 690.941406 496.125 C 690.941406 467.394531 667.613281 444.054688 638.902344 444.054688 C 626.910156 444.054688 615.476562 448.171875 606.378906 455.496094 C 597.285156 448.171875 585.851562 444.054688 573.855469 444.054688 Z M 131.542969 457.070312 C 124.324219 457.070312 118.53125 462.917969 118.53125 470.089844 C 118.53125 477.257812 124.324219 483.105469 131.542969 483.105469 L 274.644531 483.105469 C 281.859375 483.105469 287.652344 477.257812 287.652344 470.089844 C 287.652344 462.917969 281.859375 457.070312 274.644531 457.070312 Z M 404.738281 457.070312 C 397.519531 457.070312 391.726562 462.917969 391.726562 470.089844 C 391.726562 477.257812 397.519531 483.105469 404.738281 483.105469 L 456.773438 483.105469 C 463.988281 483.105469 469.78125 477.257812 469.78125 470.089844 C 469.78125 462.917969 463.988281 457.070312 456.773438 457.070312 Z M 573.855469 470.089844 C 582.597656 470.089844 590.726562 474.460938 595.554688 481.785156 C 600.332031 489.058594 612.425781 489.058594 617.203125 481.785156 C 622.03125 474.460938 630.164062 470.089844 638.902344 470.089844 C 653.234375 470.089844 664.921875 481.785156 664.921875 496.125 C 664.921875 510.464844 653.234375 522.160156 638.902344 522.160156 C 630.164062 522.160156 622.03125 517.789062 617.203125 510.464844 C 614.816406 506.855469 610.75 504.667969 606.378906 504.667969 C 602.011719 504.667969 597.945312 506.855469 595.554688 510.464844 C 590.726562 517.789062 582.597656 522.160156 573.855469 522.160156 C 559.527344 522.160156 547.839844 510.464844 547.839844 496.125 C 547.839844 481.785156 559.527344 470.089844 573.855469 470.089844 Z M 131.542969 509.144531 C 124.324219 509.144531 118.53125 514.992188 118.53125 522.160156 C 118.53125 529.332031 124.324219 535.179688 131.542969 535.179688 L 222.605469 535.179688 C 229.824219 535.179688 235.617188 529.332031 235.617188 522.160156 C 235.617188 514.992188 229.824219 509.144531 222.605469 509.144531 Z M 131.542969 509.144531 "/>
</g>
</g>
</svg>
