<?xml version="1.0" encoding="UTF-8"?>
<svg xmlns="http://www.w3.org/2000/svg" xmlns:xlink="http://www.w3.org/1999/xlink" width="810pt" height="809.999993pt" viewBox="0 0 810 809.999993" version="1.2">
<g id="surface1">
<rect x="0" y="0" width="810" height="809.999993" style="fill:rgb(100%,100%,100%);fill-opacity:1;stroke:none;"/>
<rect x="0" y="0" width="810" height="809.999993" style="fill:rgb(100%,100%,100%);fill-opacity:1;stroke:none;"/>
<rect x="0" y="0" width="810" height="809.999993" style="fill:rgb(100%,100%,100%);fill-opacity:1;stroke:none;"/>
<path style=" stroke:none;fill-rule:nonzero;fill:rgb(0%,0%,0%);fill-opacity:1;" d="M 158.476562 493.042969 C 148.757812 493.042969 140.871094 485.15625 140.871094 475.433594 L 140.871094 334.566406 C 140.871094 324.84375 148.757812 316.957031 158.476562 316.957031 L 228.914062 316.957031 C 238.632812 316.957031 246.523438 324.84375 246.523438 334.566406 C 246.523438 344.285156 238.632812 352.175781 228.914062 352.175781 L 176.085938 352.175781 L 176.085938 475.433594 C 176.085938 485.15625 168.199219 493.042969 158.476562 493.042969 Z M 158.476562 493.042969 "/>
<path style=" stroke:none;fill-rule:nonzero;fill:rgb(0%,0%,0%);fill-opacity:1;" d="M 193.695312 422.609375 L 158.476562 422.609375 C 148.757812 422.609375 140.871094 414.71875 140.871094 405 C 140.871094 395.28125 148.757812 387.390625 158.476562 387.390625 L 193.695312 387.390625 C 203.414062 387.390625 211.304688 395.28125 211.304688 405 C 211.304688 414.71875 203.414062 422.609375 193.695312 422.609375 Z M 193.695312 422.609375 "/>
<path style=" stroke:none;fill-rule:nonzero;fill:rgb(0%,0%,0%);fill-opacity:1;" d="M 405 810 C 181.6875 810 0 628.3125 0 405 C 0 181.6875 181.6875 0 405 0 C 628.3125 0 810 181.6875 810 405 C 810 628.3125 628.3125 810 405 810 Z M 405 35.21875 C 201.089844 35.21875 35.21875 201.089844 35.21875 405 C 35.21875 608.910156 201.089844 774.78125 405 774.78125 C 608.910156 774.78125 774.78125 608.910156 774.78125 405 C 774.78125 201.089844 608.910156 35.21875 405 35.21875 Z M 405 35.21875 "/>
<path style=" stroke:none;fill-rule:nonzero;fill:rgb(0%,0%,0%);fill-opacity:1;" d="M 624.722656 246.523438 C 619.578125 246.523438 614.472656 244.269531 610.988281 239.9375 C 560.484375 176.96875 485.402344 140.871094 405 140.871094 C 324.597656 140.871094 249.515625 176.96875 198.976562 239.9375 C 192.921875 247.542969 181.828125 248.742188 174.253906 242.648438 C 166.648438 236.554688 165.453125 225.460938 171.542969 217.890625 C 228.773438 146.574219 313.855469 105.652344 405 105.652344 C 496.140625 105.652344 581.226562 146.574219 638.457031 217.890625 C 644.546875 225.460938 643.351562 236.554688 635.746094 242.648438 C 632.503906 245.253906 628.628906 246.523438 624.722656 246.523438 Z M 624.722656 246.523438 "/>
<path style=" stroke:none;fill-rule:nonzero;fill:rgb(0%,0%,0%);fill-opacity:1;" d="M 405 704.347656 C 322.273438 704.347656 245.21875 671.136719 187.992188 610.808594 C 181.300781 603.765625 181.546875 592.601562 188.660156 585.910156 C 195.667969 579.253906 206.867188 579.46875 213.523438 586.582031 C 264.023438 639.792969 332.03125 669.128906 405 669.128906 C 477.96875 669.128906 545.976562 639.792969 596.511719 586.582031 C 603.203125 579.539062 614.402344 579.253906 621.375 585.910156 C 628.453125 592.601562 628.734375 603.765625 622.042969 610.808594 C 564.78125 671.136719 487.726562 704.347656 405 704.347656 Z M 405 704.347656 "/>
<path style=" stroke:none;fill-rule:nonzero;fill:rgb(0%,0%,0%);fill-opacity:1;" d="M 369.78125 493.042969 C 365.273438 493.042969 360.765625 491.316406 357.316406 487.902344 L 316.957031 447.507812 L 316.957031 475.433594 C 316.957031 485.15625 309.066406 493.042969 299.347656 493.042969 C 289.628906 493.042969 281.738281 485.15625 281.738281 475.433594 L 281.738281 405.105469 C 281.738281 405.035156 281.738281 404.929688 281.738281 404.859375 L 281.738281 334.566406 C 281.738281 324.84375 289.628906 316.957031 299.347656 316.957031 L 334.566406 316.957031 C 363.691406 316.957031 387.390625 340.65625 387.390625 369.78125 C 387.390625 396.582031 367.316406 418.804688 341.398438 422.152344 L 382.214844 462.96875 C 389.082031 469.835938 389.082031 481 382.214844 487.867188 C 378.796875 491.316406 374.289062 493.042969 369.78125 493.042969 Z M 316.957031 387.390625 L 334.566406 387.390625 C 344.25 387.390625 352.175781 379.503906 352.175781 369.78125 C 352.175781 360.0625 344.25 352.175781 334.566406 352.175781 L 316.957031 352.175781 Z M 316.957031 387.390625 "/>
<path style=" stroke:none;fill-rule:nonzero;fill:rgb(0%,0%,0%);fill-opacity:1;" d="M 510.652344 493.042969 L 440.21875 493.042969 C 430.496094 493.042969 422.609375 485.15625 422.609375 475.433594 L 422.609375 334.566406 C 422.609375 324.84375 430.496094 316.957031 440.21875 316.957031 L 510.652344 316.957031 C 520.371094 316.957031 528.261719 324.84375 528.261719 334.566406 C 528.261719 344.285156 520.371094 352.175781 510.652344 352.175781 L 457.824219 352.175781 L 457.824219 457.824219 L 510.652344 457.824219 C 520.371094 457.824219 528.261719 465.714844 528.261719 475.433594 C 528.261719 485.15625 520.371094 493.042969 510.652344 493.042969 Z M 510.652344 493.042969 "/>
<path style=" stroke:none;fill-rule:nonzero;fill:rgb(0%,0%,0%);fill-opacity:1;" d="M 475.433594 422.609375 L 440.21875 422.609375 C 430.496094 422.609375 422.609375 414.71875 422.609375 405 C 422.609375 395.28125 430.496094 387.390625 440.21875 387.390625 L 475.433594 387.390625 C 485.15625 387.390625 493.042969 395.28125 493.042969 405 C 493.042969 414.71875 485.15625 422.609375 475.433594 422.609375 Z M 475.433594 422.609375 "/>
<path style=" stroke:none;fill-rule:nonzero;fill:rgb(0%,0%,0%);fill-opacity:1;" d="M 651.523438 493.042969 L 581.085938 493.042969 C 571.367188 493.042969 563.476562 485.15625 563.476562 475.433594 L 563.476562 334.566406 C 563.476562 324.84375 571.367188 316.957031 581.085938 316.957031 L 651.523438 316.957031 C 661.242188 316.957031 669.128906 324.84375 669.128906 334.566406 C 669.128906 344.285156 661.242188 352.175781 651.523438 352.175781 L 598.695312 352.175781 L 598.695312 457.824219 L 651.523438 457.824219 C 661.242188 457.824219 669.128906 465.714844 669.128906 475.433594 C 669.128906 485.15625 661.242188 493.042969 651.523438 493.042969 Z M 651.523438 493.042969 "/>
<path style=" stroke:none;fill-rule:nonzero;fill:rgb(0%,0%,0%);fill-opacity:1;" d="M 616.304688 422.609375 L 581.085938 422.609375 C 571.367188 422.609375 563.476562 414.71875 563.476562 405 C 563.476562 395.28125 571.367188 387.390625 581.085938 387.390625 L 616.304688 387.390625 C 626.023438 387.390625 633.914062 395.28125 633.914062 405 C 633.914062 414.71875 626.023438 422.609375 616.304688 422.609375 Z M 616.304688 422.609375 "/>
</g>
</svg>
